<svg width="407" height="487" viewBox="0 0 407 487" fill="none" xmlns="http://www.w3.org/2000/svg">
<path fill-rule="evenodd" clip-rule="evenodd" d="M3.77827 4.62088C3.58484 5.24959 3.42049 5.53296 3.42049 5.81632C3.37624 106.534 3.34337 207.255 3.31809 307.973C3.31809 308.778 3.43061 309.584 3.50267 310.387C3.51025 310.47 3.61013 310.548 3.67334 310.624C3.73655 310.701 3.80735 310.773 3.92745 310.906C4.48371 310.951 5.08295 311.04 5.68346 311.044C11.8466 311.079 18.011 311.084 24.1741 311.132C51.8645 311.347 79.5536 311.582 107.244 311.791C123.012 311.91 138.78 312.04 154.549 312.08C184.769 312.154 214.99 312.276 245.211 312.178C274.115 312.085 303.017 311.717 331.922 311.51C352.235 311.365 372.55 311.297 392.864 311.17C396.167 311.15 399.472 311.006 402.809 310.917V4.77901C401.978 4.70437 401.382 4.61076 400.787 4.60317C390.382 4.48932 379.977 4.36155 369.572 4.28692C335.008 4.04024 300.442 3.82645 265.878 3.57218C244.045 3.41279 222.213 2.98901 200.382 3.06617C168.04 3.17876 135.698 3.662 103.357 3.93271C71.7268 4.1971 40.097 4.39444 8.46729 4.61962C6.88069 4.631 5.29282 4.62088 3.77827 4.62088ZM202.988 315.763C139.537 315.333 75.742 314.901 11.9465 314.469C9.418 314.453 6.88954 314.479 4.36361 314.417C1.37623 314.341 0.544372 313.587 0.507709 310.626C0.396457 301.627 0.321868 292.625 0.313018 283.624C0.275091 244.171 0.239693 204.719 0.250511 165.265C0.272563 113.07 0.337038 60.8749 0.388872 8.67906C0.390136 7.1623 0.409099 5.64048 0.532994 4.13005C0.682173 2.31349 1.5684 1.43936 3.39394 1.2066C4.0918 1.11678 4.80735 1.15979 5.51532 1.15473C52.3247 0.839744 99.1353 0.582945 145.945 0.199645C222.685 -0.426539 299.418 0.585475 376.154 0.973835C384.344 1.01558 392.532 1.09275 400.722 1.15347C401.127 1.156 401.531 1.14967 401.936 1.16232C405.069 1.25973 405.927 2.05669 405.95 5.1193C406.002 12.0984 406.014 19.0788 406.019 26.0579C406.051 68.2424 406.105 110.427 406.095 152.611C406.081 204.911 405.988 257.209 406.017 309.509C406.019 313.638 404.763 314.44 401.089 314.463C335.171 314.866 269.252 315.319 202.988 315.763Z" fill="#262AF2"/>
<path fill-rule="evenodd" clip-rule="evenodd" d="M54.2046 125.328C54.4117 126.947 54.5531 128.123 54.7134 129.297C54.928 130.879 55.8585 131.558 57.424 131.442C58.1247 131.39 58.8759 131.523 59.5235 131.318C63.0673 130.198 66.591 129.017 70.1108 127.822C72.9237 126.869 74.2354 124.88 74.3566 121.894C74.6507 114.638 75.1217 107.389 75.3767 100.131C75.4499 98.0345 75.1242 95.9066 74.7934 93.823C74.6293 92.7857 74.0397 91.8166 73.6546 90.8463C71.675 91.1689 71.0539 92.5579 70.7749 93.885C70.1992 96.6341 69.6929 99.4337 69.554 102.232C69.323 106.865 69.5099 111.518 69.3091 116.154C69.2195 118.244 68.7183 120.336 68.2246 122.384C67.8661 123.877 66.8296 124.784 65.177 124.836C62.8704 124.908 60.5651 125.028 58.2585 125.13C57.0667 125.183 55.8749 125.247 54.2046 125.328ZM54.0102 168.491C54.8636 166.551 56.2549 138.848 55.7878 135.728C54.317 134.193 52.8449 133.159 52.0735 131.742C50.6747 129.176 50.7517 126.261 51.3653 123.463C51.5067 122.825 52.5129 122.17 53.2527 121.928C54.1428 121.637 55.1742 121.778 56.1388 121.732C56.2309 121.007 56.3344 120.61 56.3231 120.217C56.0201 110.529 55.8282 100.835 55.3207 91.1588C55.154 87.9707 54.2374 84.8105 53.5166 81.6718C53.2944 80.704 52.5899 79.8476 52.0306 78.8013C49.6243 80.6016 48.7847 82.9255 47.8088 85.0914C44.3306 92.8008 42.5707 101.002 41.5153 109.327C39.3766 126.197 39.0963 143.149 39.8652 160.124C39.9232 161.407 40.1821 162.678 40.3525 164.002C45.0401 165.544 49.5271 167.019 54.0102 168.491ZM328.684 176.22C328.86 173.757 329.11 171.554 329.159 169.345C329.636 147.822 330.014 126.297 327.438 104.856C326.957 100.852 326.274 96.8643 325.505 92.9046C325.169 91.1777 324.721 89.3269 322.893 88.4401C320.591 89.6457 319.848 90.3377 318.649 92.6389C316.722 96.3355 315.235 100.224 314.776 104.374C314.234 109.286 313.611 114.238 313.686 119.163C313.963 137.55 314.505 155.933 314.973 174.316C315.021 176.194 315.251 178.067 315.41 180.136C320.003 178.782 324.246 177.529 328.684 176.22ZM360.31 167.527C360.084 163.609 359.812 159.986 359.675 156.358C358.88 135.443 359.359 114.476 357.116 93.6219C356.414 87.0915 355.621 80.5712 354.846 74.0484C354.723 73.0148 354.54 71.9686 353.565 70.9831C351.629 74.5759 350.697 78.1789 349.888 81.8059C347.503 92.4934 346.831 103.409 345.676 114.259C344.542 124.915 343.348 135.563 342.31 146.228C341.527 154.275 340.94 162.342 340.297 170.402C340.237 171.142 340.405 171.899 340.49 172.898C347.162 171.09 353.559 169.357 360.31 167.527ZM27.0975 290.13C27.9674 289.906 28.3474 289.925 28.5216 289.745C29.8409 288.378 31.01 286.847 32.4291 285.598C43.5365 275.82 55.5416 267.317 68.5276 260.213C93.6425 246.474 119.863 235.253 146.805 225.672C147.916 225.278 149.016 224.852 150.545 224.283C146.367 220.379 142.473 216.901 138.245 213.802C131.142 208.593 123.477 204.316 115.796 200.053C95.3633 188.714 74.0296 179.408 52.0382 171.577C43.9708 168.704 35.8984 165.838 27.8235 162.988C27.5924 162.907 27.2882 163.035 27.0975 163.056V290.13ZM380.439 166.702C379.62 166.799 379.019 166.813 378.444 166.945C373.929 167.998 369.384 168.944 364.916 170.168C350.433 174.135 335.999 178.283 321.508 182.221C299.337 188.243 277.172 194.295 254.934 200.063C233.374 205.655 211.7 210.809 190.121 216.333C169.492 221.615 149.239 228.13 129.429 235.959C109.155 243.972 89.2566 252.816 70.1285 263.338C57.5212 270.272 45.8292 278.506 34.9137 287.867C34.3039 288.39 33.79 289.026 33.0085 289.843H380.439V166.702ZM27.0117 25.3878C27.0117 26.7111 27.013 27.8067 27.0117 28.901C26.9839 55.5034 26.9688 82.1045 26.9246 108.707C26.8981 124.789 26.8185 140.871 26.7933 156.951C26.7933 157.601 26.9183 158.641 27.3134 158.839C30.226 160.295 33.1613 161.762 36.6748 162.567C36.4817 159.841 36.2658 157.536 36.1635 155.226C35.6611 143.689 36.0461 132.167 36.8529 120.658C37.4134 112.683 38.4979 104.777 40.3449 96.9858C41.846 90.6515 43.9052 84.5448 47.4136 79.0177C48.4981 77.3072 49.6773 75.3995 52.0053 75.5311C54.5442 75.674 55.5088 77.8955 56.0946 79.8868C57.0856 83.2595 58.1108 86.7208 58.3481 90.1985C58.992 99.6779 59.2294 109.185 59.6308 118.681C59.6712 119.647 59.7293 120.614 59.7785 121.541C65.4383 121.841 65.5393 121.752 65.8701 116.555C65.889 116.253 65.8991 115.95 65.908 115.646C66.0696 110.087 66.1794 104.526 66.4142 98.9694C66.548 95.813 67.0985 92.6946 68.9342 90.029C71.3708 86.4893 75.2971 86.7094 77.0205 90.5642C77.8285 92.3707 78.466 94.4518 78.4433 96.4013C78.341 105.49 78.0532 114.579 77.6744 123.661C77.5431 126.832 75.8211 129.163 72.8365 130.435C71.1688 131.145 69.5339 131.971 67.8118 132.512C65.1315 133.356 62.3881 134.001 59.4326 134.796C59.3531 136.328 59.2622 137.922 59.1927 139.516C58.8064 148.306 58.4327 157.094 58.0388 165.884C57.8267 170.614 57.2851 169.616 61.6963 171.388C63.4739 172.103 65.2969 172.705 67.0732 173.42C83.3683 179.971 99.4613 186.969 114.784 195.601C121.991 199.662 129.086 203.928 136.148 208.237C142.131 211.887 147.23 216.675 152.278 221.487C153.617 222.765 154.819 223.05 156.588 222.439C160.971 220.926 165.418 219.59 169.859 218.25C192.083 211.55 214.673 206.257 237.175 200.608C261.134 194.594 285.004 188.218 308.91 181.987C309.942 181.718 310.943 181.328 311.889 181.018C311.499 168.648 311.048 156.625 310.762 144.598C310.49 133.181 309.795 121.76 310.629 110.34C311.21 102.375 312.868 94.7415 317.669 88.0947C318.073 87.5355 318.189 86.6373 318.145 85.9149C318.083 84.9231 317.607 83.9553 317.549 82.9635C317.449 81.2657 319.386 82.1386 319.953 81.2126C320.004 81.1278 320.028 81.0102 320.1 80.9532C320.617 80.5484 321.205 79.778 321.648 79.8513C322.245 79.9513 322.733 80.7066 322.858 80.8166C324.036 80.4346 325.047 79.7299 325.678 79.9817C326.889 80.4662 326.304 81.711 326.037 82.6472C325.737 83.6896 325.311 84.6967 324.948 85.6936C327.812 88.1668 328.69 91.389 329.319 94.6846C331.499 106.139 332.46 117.745 332.749 129.361C333.088 143.006 332.792 156.666 332.753 170.321C332.749 171.794 332.629 173.268 332.547 175.104C334.286 174.6 335.686 174.194 337.014 173.81C337.196 169.519 337.191 165.468 337.571 161.455C338.573 150.888 339.74 140.335 340.848 129.779C342.263 116.309 343.566 102.825 345.155 89.3762C345.984 82.3398 347.566 75.4412 350.745 69.0019C351.139 68.2049 351.187 66.998 350.902 66.1479C349.98 63.3963 350.404 61.2722 353.126 59.8869C354.972 60.0704 354.466 61.8149 355.123 63.0977C355.862 61.9301 356.392 60.8357 357.174 59.9666C357.546 59.5517 358.394 59.5669 359.027 59.3872C359.167 60.0084 359.589 60.7434 359.393 61.2279C358.791 62.7182 357.992 64.1376 357.193 65.5406C356.458 66.8336 356.194 67.9494 356.955 69.4662C357.752 71.0539 358.128 72.9073 358.406 74.6885C358.979 78.3801 359.546 82.088 359.797 85.8125C360.726 99.6311 361.669 113.452 362.33 127.286C362.851 138.192 362.939 149.119 363.283 160.035C363.35 162.127 363.712 164.21 363.962 166.523C369.679 165.22 375.135 163.976 380.424 162.771C380.424 117.723 380.424 72.9452 380.417 28.166C380.417 27.3614 380.327 26.5555 380.265 25.7522C380.258 25.6712 380.164 25.5903 380.098 25.5207C380.03 25.4473 379.948 25.3878 379.949 25.3878H27.0117ZM204.01 22.1758C250.44 21.9481 296.868 21.714 343.296 21.4952C355.606 21.4382 367.914 21.4256 380.222 21.3965C382.954 21.3965 383.806 22.1037 384.21 24.835C384.356 25.8281 384.311 26.8541 384.312 27.8636C384.329 70.1456 384.351 112.426 384.351 154.708C384.351 198.097 384.332 241.487 384.317 284.876C384.316 286.697 384.408 288.533 384.206 290.334C383.897 293.089 382.922 293.89 380.296 293.879C364.967 293.801 349.639 293.7 334.311 293.639C303.727 293.518 273.144 293.413 242.56 293.308C221.267 293.236 199.974 293.094 178.681 293.128C157.991 293.16 137.301 293.403 116.611 293.506C93.6021 293.62 70.5918 293.679 47.5828 293.767C40.8285 293.794 34.0754 293.844 27.321 293.879C24.5763 293.892 23.685 293.156 23.3618 290.427C23.2204 289.228 23.276 288.002 23.276 286.789C23.257 244.716 23.2305 202.641 23.2305 160.567C23.2305 116.576 23.257 72.5834 23.276 28.5911C23.2772 27.2766 23.2141 25.947 23.382 24.6516C23.7128 22.1011 24.5826 21.3965 27.191 21.3965C35.3618 21.4041 43.5327 21.4281 51.7036 21.456C73.9097 21.5331 96.117 21.5901 118.324 21.7026C146.584 21.8481 174.844 22.0404 203.104 22.2125C203.407 22.2137 203.708 22.2125 204.011 22.2125C204.011 22.1998 204.011 22.1884 204.01 22.1758Z" fill="#262AF2"/>
<path fill-rule="evenodd" clip-rule="evenodd" d="M287.943 125.023C288.273 121.512 288.041 118.405 286.007 115.696C283.563 112.444 279.714 111.618 276.073 113.452C273.823 114.583 272.202 116.265 271.39 118.683C271.041 119.724 270.662 120.855 269.226 120.812C267.595 120.762 267.486 119.467 267.166 118.298C266.186 114.735 265.227 111.163 264.116 107.64C263.426 105.458 262.642 103.272 261.586 101.249C260.722 99.5941 259.582 97.9831 258.232 96.6971C255.571 94.165 253.43 94.2213 250.93 96.8608C249.644 98.2181 248.401 99.8215 247.767 101.541C246.184 105.836 244.961 110.26 243.593 114.631C243.296 115.583 243.114 116.59 242.678 117.474C241.745 119.362 240.11 119.426 239.02 117.671C238.705 117.165 238.541 116.569 238.25 116.045C237.087 113.948 236.017 111.788 234.694 109.792C233.288 107.676 231.56 107.424 229.579 108.994C228.667 109.716 227.895 110.723 227.336 111.749C225.693 114.771 224.809 118.047 224.543 121.468C224.476 122.326 224.663 123.205 224.744 124.217C245.886 124.487 266.793 124.753 287.943 125.023ZM240.396 112.788C240.977 110.675 241.407 109.089 241.848 107.504C242.817 104.033 243.97 100.636 245.98 97.5907C246.256 97.1733 246.513 96.7433 246.808 96.3396C251.569 89.8295 257.764 89.7883 262.637 96.2609C264.899 99.2654 266.185 102.731 267.263 106.279C268.04 108.836 268.794 111.4 269.647 114.255C270.638 113.329 271.332 112.636 272.072 111.994C278.699 106.255 288.585 109.105 290.725 117.578C291.465 120.512 291.241 123.697 291.334 126.772C291.384 128.398 290.123 128.647 288.817 128.638C285.896 128.618 282.976 128.597 280.054 128.544C263.342 128.243 246.628 127.937 229.916 127.619C228.205 127.587 226.492 127.514 224.785 127.396C222.704 127.251 222.072 126.866 221.691 124.816C221.368 123.078 221.116 121.184 221.476 119.493C222.136 116.394 223.131 113.342 224.27 110.377C224.785 109.036 225.807 107.764 226.895 106.784C230.594 103.451 234.598 103.961 237.427 108.02C238.382 109.394 239.203 110.861 240.396 112.788Z" fill="#262AF2"/>
<path fill-rule="evenodd" clip-rule="evenodd" d="M126.737 72.7396C148.918 72.9992 170.74 73.2537 192.936 73.5133C192.733 71.7893 192.673 70.5001 192.416 69.2487C191.566 65.0874 187.666 63.4831 184.085 65.7982C183.411 66.2342 182.862 66.8681 182.173 67.2689C180.775 68.0817 179.662 67.7125 178.984 66.2619C178.731 65.72 178.618 65.1139 178.411 64.548C177.652 62.4699 176.987 60.3476 176.092 58.33C173.841 53.2638 169.733 51.8108 164.683 54.1397C162.218 55.2764 160.303 57.0143 158.963 59.3382C157.908 61.1655 156.937 63.0483 156.047 64.9626C154.315 68.6954 153.401 68.9362 150.37 66.3098C149.381 65.4529 148.412 64.5669 147.367 63.7805C146.325 62.9967 145.26 62.2103 144.104 61.6217C139.633 59.3445 135.538 59.9116 131.86 63.318C129.202 65.7805 127.578 68.8366 126.737 72.7396ZM181.589 62.8542C183.24 62.3892 184.659 61.8473 186.126 61.6053C190.124 60.9462 194.025 63.1012 195.211 66.95C195.908 69.2096 196.105 71.6885 196.13 74.0716C196.156 76.6387 195.399 77.2084 192.775 77.2033C187.43 77.1932 182.084 77.1378 176.738 77.0622C160.398 76.8303 144.056 76.5959 127.716 76.3249C122.63 76.2405 122.035 75.5587 123.526 70.8542C124.306 68.3955 125.396 65.9179 126.868 63.8133C133.068 54.9538 142.345 55.681 148.798 60.5467C149.988 61.4453 151.096 62.4522 152.446 63.5789C152.923 62.8038 153.274 62.2455 153.612 61.6822C154.751 59.7843 155.759 57.7944 157.05 56.0061C159.601 52.4686 163.213 50.5316 167.485 49.9595C172.324 49.3117 175.909 51.4667 178.391 55.4806C179.28 56.9185 179.791 58.5921 180.466 60.1624C180.856 61.0697 181.228 61.9859 181.589 62.8542Z" fill="#262AF2"/>
<path fill-rule="evenodd" clip-rule="evenodd" d="M118.958 453.59C118.973 454.234 118.986 454.877 119 455.522C120.311 463.889 123.359 471.207 131.242 476.03C131.618 473.977 131.835 472.264 132.267 470.607C132.624 469.24 133.777 468.531 135.022 468.751C136.399 468.994 137.074 469.973 137.362 471.268C137.858 473.484 138.336 475.704 138.852 477.916C139.337 479.999 139.474 480.096 141.631 480.275C145.228 480.576 148.255 478.977 151.292 477.398C152.179 476.936 152.069 476.157 152.015 475.351C151.895 473.523 151.708 471.689 151.758 469.864C151.816 467.694 152.673 465.958 154.437 464.439C156.994 462.238 159.954 463.379 160.609 466.769C160.732 467.412 160.869 468.051 161.071 469.042C163.388 466.223 164.326 463.215 165.195 460.219C167.468 452.375 168.497 444.318 169.106 436.194C169.223 434.648 169.032 433.327 168.166 431.986C166.172 428.894 165.22 425.41 165.358 421.764C165.528 417.316 166.001 412.88 166.356 408.441C166.451 407.239 167.119 406.546 168.313 406.322C168.88 406.216 169.43 406.025 170.142 405.831V385.752H157.811C158.008 389.873 158.31 393.697 158.332 397.522C158.348 400.273 155.458 401.714 153.34 399.978C152.195 399.039 151.182 397.581 150.786 396.167C150.134 393.846 149.993 391.375 149.717 388.957C149.603 387.956 149.699 386.931 149.699 385.824C137.933 385.634 126.497 386.844 114.837 384.834C114.837 386.042 114.826 386.98 114.839 387.918C114.954 396.051 115.087 404.184 115.188 412.315C115.326 423.336 115.484 434.356 116.965 445.299C117.344 448.116 117.387 451.046 118.958 453.59ZM173.645 401.372C173.107 414.555 172.744 427.75 171.967 440.918C171.529 448.33 170.031 455.614 167.895 462.77C164.689 473.498 157.11 479.599 146.946 483.026C144.345 483.904 141.545 484.025 138.911 483.178C131.25 480.712 124.473 476.969 120.267 469.672C118.413 466.454 117.238 462.992 116.288 459.442C114.316 452.072 113.113 444.546 112.848 436.947C112.307 421.489 112.059 406.021 111.734 390.556C111.577 383.044 111.515 375.528 111.413 368.014C111.373 365.04 111.4 364.966 114.487 365.018C122.623 365.157 130.758 365.491 138.893 365.48C149.041 365.466 159.188 365.178 169.336 365.02C173.667 364.952 173.717 364.966 173.677 369.366C173.581 380.03 173.433 390.693 173.306 401.357C173.42 401.363 173.531 401.367 173.645 401.372Z" fill="#262AF2"/>
<path fill-rule="evenodd" clip-rule="evenodd" d="M148.462 459.488C147.912 455.397 147.354 451.174 146.761 446.957C146.691 446.452 146.489 445.938 146.238 445.491C145.37 443.955 143.308 443.843 142.434 445.355C141.972 446.153 141.635 447.14 141.61 448.051C141.53 451.083 141.517 454.124 141.672 457.151C141.782 459.252 142.398 461.277 143.88 462.884C145.183 464.293 147.175 463.957 147.882 462.188C148.197 461.399 148.253 460.506 148.462 459.488ZM131.924 425.806C131.969 425.807 132.014 425.808 132.06 425.809C132.004 426.767 131.861 427.73 131.912 428.682C132.052 431.286 132.116 433.913 132.539 436.476C132.72 437.563 133.534 438.739 134.398 439.479C136.162 440.988 137.907 440.438 138.623 438.235C139.05 436.922 139.152 435.505 139.425 434.139C140.205 430.233 140.306 426.303 139.401 422.432C138.992 420.68 138.18 418.977 137.295 417.396C136.572 416.104 134.852 415.65 133.613 416.052C132.548 416.397 131.897 417.693 131.916 419.275C131.944 421.452 131.924 423.628 131.924 425.806ZM127.487 401.087C127.455 401.084 127.422 401.082 127.39 401.08C127.39 399.945 127.464 398.805 127.375 397.677C127.205 395.493 126.892 393.32 125.631 391.446C125.045 390.577 124.375 389.799 123.133 389.789C121.499 389.776 120.402 390.649 120.006 392.671C119.637 394.555 119.345 396.459 119.151 398.366C118.895 400.88 118.646 403.404 118.625 405.927C118.606 408.289 119.436 410.401 121.519 411.779C123.725 413.238 126.573 411.985 126.821 409.433C127.092 406.656 127.269 403.869 127.487 401.087ZM151.123 427.274C151.062 431.505 151.829 435.593 152.99 439.636C153.426 441.157 154.33 442.166 155.852 442.264C157.361 442.363 158.025 441.123 158.671 439.939C160.064 437.386 159.695 434.687 159.386 432.012C158.877 427.607 158.182 423.222 157.758 418.811C157.612 417.279 156.687 416.71 155.606 416.189C154.86 415.829 153.103 416.74 152.606 417.81C152.138 418.819 151.792 419.932 151.647 421.033C151.374 423.101 151.287 425.193 151.123 427.274ZM118.959 453.589C117.388 451.046 117.345 448.114 116.965 445.299C115.484 434.356 115.327 423.335 115.189 412.315C115.087 404.182 114.955 396.05 114.84 387.917C114.827 386.979 114.838 386.041 114.838 384.834C126.497 386.843 137.933 385.634 149.699 385.824C149.699 386.93 149.604 387.955 149.717 388.956C149.993 391.374 150.134 393.844 150.787 396.166C151.183 397.579 152.195 399.039 153.341 399.978C155.458 401.714 158.348 400.271 158.333 397.52C158.31 393.696 158.008 389.872 157.811 385.752H170.143V405.83C169.43 406.024 168.88 406.215 168.313 406.321C167.119 406.545 166.452 407.238 166.356 408.44C166.002 412.88 165.528 417.315 165.358 421.762C165.22 425.409 166.173 428.893 168.166 431.984C169.032 433.327 169.223 434.648 169.106 436.193C168.497 444.317 167.468 452.373 165.195 460.217C164.326 463.215 163.389 466.222 161.071 469.041C160.87 468.05 160.733 467.41 160.609 466.768C159.955 463.379 156.995 462.238 154.437 464.438C152.673 465.958 151.816 467.693 151.758 469.863C151.708 471.688 151.895 473.522 152.015 475.351C152.069 476.156 152.18 476.935 151.292 477.397C148.257 478.977 145.229 480.576 141.632 480.275C139.475 480.094 139.337 479.998 138.852 477.916C138.337 475.704 137.86 473.484 137.363 471.268C137.074 469.973 136.401 468.993 135.022 468.75C133.778 468.531 132.624 469.24 132.268 470.607C131.835 472.264 131.619 473.976 131.242 476.03C123.359 471.205 120.311 463.888 119 455.521C119.566 456.79 120.064 458.094 120.715 459.319C121.48 460.759 123.24 461.777 124.253 461.517C126.123 461.04 127.004 460.155 127.058 458.043C127.146 454.661 127.324 451.23 126.873 447.899C126.457 444.828 125.414 441.809 124.367 438.866C123.564 436.61 121.262 436.398 119.945 438.385C119.3 439.358 118.903 440.578 118.696 441.74C118.392 443.447 118.194 445.209 118.254 446.936C118.332 449.159 118.71 451.372 118.959 453.589Z"/>
<path fill-rule="evenodd" clip-rule="evenodd" d="M118.959 453.59C118.709 451.372 118.332 449.159 118.253 446.935C118.194 445.208 118.392 443.448 118.696 441.74C118.903 440.578 119.3 439.358 119.945 438.384C121.261 436.398 123.564 436.609 124.367 438.867C125.414 441.808 126.457 444.827 126.872 447.898C127.324 451.229 127.146 454.661 127.058 458.042C127.004 460.155 126.123 461.041 124.253 461.518C123.24 461.777 121.48 460.759 120.714 459.318C120.064 458.095 119.566 456.789 119 455.521C118.986 454.876 118.973 454.233 118.959 453.59Z" fill="#262AF2"/>
<path fill-rule="evenodd" clip-rule="evenodd" d="M151.122 427.277C151.286 425.194 151.373 423.102 151.646 421.034C151.791 419.934 152.138 418.82 152.606 417.811C153.103 416.741 154.859 415.831 155.606 416.191C156.686 416.712 157.612 417.28 157.758 418.812C158.181 423.225 158.876 427.609 159.386 432.014C159.695 434.69 160.063 437.388 158.67 439.94C158.026 441.124 157.36 442.365 155.851 442.267C154.33 442.167 153.425 441.159 152.99 439.638C151.829 435.596 151.062 431.507 151.122 427.277Z" fill="#262AF2"/>
<path fill-rule="evenodd" clip-rule="evenodd" d="M127.486 401.087C127.268 403.87 127.091 406.656 126.821 409.433C126.573 411.985 123.724 413.238 121.519 411.779C119.435 410.402 118.606 408.291 118.625 405.927C118.645 403.406 118.895 400.88 119.151 398.368C119.345 396.459 119.637 394.555 120.006 392.673C120.402 390.649 121.498 389.777 123.133 389.789C124.375 389.8 125.045 390.577 125.63 391.446C126.892 393.321 127.205 395.493 127.375 397.677C127.463 398.805 127.39 399.947 127.39 401.081C127.422 401.084 127.455 401.086 127.486 401.087Z" fill="#262AF2"/>
<path fill-rule="evenodd" clip-rule="evenodd" d="M131.924 425.807C131.924 423.631 131.944 421.453 131.916 419.278C131.897 417.694 132.547 416.399 133.612 416.054C134.853 415.652 136.571 416.105 137.294 417.398C138.181 418.979 138.992 420.682 139.401 422.434C140.306 426.304 140.204 430.235 139.425 434.141C139.152 435.506 139.051 436.923 138.623 438.237C137.907 440.439 136.162 440.991 134.399 439.481C133.534 438.741 132.72 437.566 132.539 436.478C132.115 433.915 132.052 431.288 131.912 428.683C131.86 427.731 132.004 426.768 132.059 425.811C132.013 425.81 131.968 425.808 131.924 425.807Z" fill="#262AF2"/>
<path fill-rule="evenodd" clip-rule="evenodd" d="M148.462 459.489C148.253 460.507 148.197 461.4 147.882 462.189C147.175 463.958 145.182 464.294 143.88 462.885C142.397 461.278 141.781 459.253 141.672 457.152C141.517 454.125 141.53 451.084 141.61 448.052C141.635 447.142 141.972 446.155 142.434 445.356C143.308 443.844 145.37 443.956 146.237 445.492C146.489 445.939 146.69 446.453 146.76 446.958C147.354 451.175 147.912 455.398 148.462 459.489Z" fill="#262AF2"/>
<path fill-rule="evenodd" clip-rule="evenodd" d="M163.178 267.615C163.178 267.615 150.529 205.738 152.018 197.107C153.505 188.476 167.176 179.764 167.176 179.764C167.176 179.764 178.086 176.839 182.734 182.263C187.288 187.578 186.418 198.994 182.616 214.094C176.422 238.694 163.178 267.615 163.178 267.615Z"/>
<path fill-rule="evenodd" clip-rule="evenodd" d="M171.593 268.352C171.83 267.63 208.885 204.025 218.623 204.145C228.362 204.265 234.181 217.075 234.181 217.075C234.181 217.075 241.782 227.033 240.357 228.72C238.931 230.406 228.6 241.248 220.048 245.584C211.497 249.922 172.827 271.992 172.827 271.992L171.593 268.352Z"/>
<path fill-rule="evenodd" clip-rule="evenodd" d="M140.953 365.008C140.953 365.008 188.618 349.829 195.224 347.691C202.973 345.184 226.386 337.147 237.21 333.513C246.403 330.426 262.53 320.029 263.339 314.731C265.142 302.937 252.73 278.034 243.605 271.295C234.48 264.557 233.005 260.848 219.506 261.057C211.332 261.184 186.785 276.942 176.339 289.712C151.257 320.371 140.953 365.008 140.953 365.008Z"/>
<path fill-rule="evenodd" clip-rule="evenodd" d="M139.077 365.006C139.077 365.006 87.3491 325.607 83.4806 319.424C79.6121 313.24 65.0992 279.899 63.2415 269.718C61.3829 259.538 62.4896 232.727 62.4896 232.727C62.4896 232.727 93.0191 222.632 104.424 222.84C115.829 223.049 119.268 220.861 129.938 229.802C136.398 235.215 151.315 261.968 152.818 279.519C154.796 302.619 139.077 365.006 139.077 365.006Z"/>
<path fill-rule="evenodd" clip-rule="evenodd" d="M164.477 182.763C163.974 182.763 163.823 182.716 163.726 182.769C158.175 185.793 154.492 190.18 153.755 196.653C152.981 203.448 153.319 210.248 154.076 217.008C154.694 222.519 155.607 228.006 156.606 233.464C157.824 240.132 159.268 246.758 160.614 253.402C160.747 253.4 160.879 253.396 161.011 253.393C160.751 229.82 160.81 206.262 164.477 182.763ZM175.404 264.975C175.468 265.01 175.532 265.045 175.595 265.08C184.393 256.274 193.173 247.45 201.995 238.668C210.837 229.865 220.472 221.965 230.317 214.165C228.343 211.323 226.163 209.014 223.405 207.314C222.074 206.494 220.589 206.365 219.06 206.815C216.772 207.489 214.601 208.445 212.949 210.177C210.972 212.249 209.013 214.376 207.331 216.687C196.209 231.962 186.209 247.989 175.948 263.84C175.722 264.189 175.583 264.595 175.404 264.975ZM231.769 216.143C231.104 216.664 230.546 217.101 229.987 217.539C219.382 225.852 209.115 234.559 199.575 244.089C191.342 252.311 183.184 260.608 175.001 268.88C174.554 269.333 174.179 269.858 173.771 270.348C174.198 270.447 174.381 270.375 174.539 270.267C181.847 265.296 189.691 261.273 197.511 257.201C207.183 252.165 216.934 247.264 226.047 241.228C230.081 238.556 234.071 235.817 237.419 232.278C239.636 229.936 239.787 228.82 238.385 225.956C236.652 222.415 234.133 219.414 231.769 216.143ZM163.174 265.032C164.619 261.291 165.882 257.963 167.19 254.652C168.126 252.284 169.257 249.987 170.067 247.579C172.273 241.022 174.417 234.443 176.471 227.837C179.265 218.854 181.744 209.78 183.517 200.533C184.255 196.681 184.779 192.785 184.484 188.839C184.229 185.427 182.647 182.97 179.426 181.541C175.361 179.737 171.32 180.011 167.054 181.259C166.787 183.49 166.569 185.694 166.251 187.883C164.41 200.583 163.517 213.358 163.362 226.179C163.217 238.013 163.23 249.849 163.174 261.683C163.17 262.657 163.174 263.63 163.174 265.032ZM64.7825 234.186C64.4293 238.041 63.9225 241.871 63.7697 245.713C63.6086 249.759 63.4803 253.847 63.8776 257.864C64.7498 266.68 67.1048 275.209 69.7786 283.623C72.4541 292.04 75.8579 300.187 79.7627 308.111C82.7791 314.229 86.1256 320.158 91.206 324.862C94.322 327.749 97.4144 330.685 100.743 333.312C110.284 340.846 119.94 348.236 129.556 355.675C129.686 355.776 129.889 355.785 130.332 355.921C129.815 355.142 129.46 354.555 129.055 354.005C124.31 347.561 120.258 340.707 116.772 333.506C111.325 322.253 106.203 310.852 102.8 298.798C100.742 291.512 99.1514 284.088 97.5411 276.684C95.5515 267.537 94.1962 258.276 93.53 248.941C93.0501 242.225 92.9643 235.48 92.7125 228.747C92.679 227.851 92.7084 226.952 92.7084 225.848C83.0995 228.14 73.7603 230.279 64.7825 234.186ZM248.282 280.216C247.153 280.91 246.31 281.395 245.501 281.93C225.784 294.949 206.974 309.182 188.886 324.372C175.769 335.389 162.732 346.498 149.666 357.574C148.799 358.309 147.986 359.109 146.804 360.193C147.547 360.077 147.799 360.066 148.034 359.995C151.286 359.023 154.517 357.978 157.788 357.078C163.763 355.433 169.792 353.977 175.743 352.251C184.272 349.777 192.744 347.114 201.25 344.564C211.267 341.56 221.09 338.013 230.767 334.06C236.691 331.639 242.63 329.233 248.138 325.923C251.734 323.762 255.173 321.379 257.973 318.201C260.053 315.841 261.596 313.212 261.55 309.94C261.515 307.445 261.116 304.998 260.312 302.619C258.863 298.326 256.902 294.269 254.602 290.383C252.61 287.017 250.476 283.733 248.282 280.216ZM246.355 278.25C246.294 277.992 246.301 277.842 246.231 277.749C241.306 271.192 235.315 265.995 227.56 263.015C222.675 261.138 217.745 260.702 212.853 262.738C209.792 264.012 206.762 265.455 203.928 267.171C195.411 272.331 188.207 279.065 181.648 286.501C171.249 298.289 162.989 311.528 155.594 325.339C151.167 333.605 147.963 342.39 144.785 351.18C143.942 353.51 143.249 355.897 142.559 358.277C142.362 358.957 142.172 359.727 142.519 360.47C147.011 356.652 151.381 352.921 155.77 349.211C169.144 337.906 182.457 326.527 195.922 315.332C209.95 303.669 224.614 292.837 239.761 282.668C241.972 281.184 244.185 279.704 246.355 278.25ZM138.717 362.824C138.854 362.763 138.992 362.702 139.128 362.641C139.18 362.4 139.25 362.162 139.279 361.919C140.471 352.177 142.354 342.586 145.028 333.129C148.586 320.55 151.46 307.807 152.835 294.782C153.568 287.843 153.254 280.951 151.336 274.174C148.407 263.831 144.387 253.916 139.784 244.223C137.842 240.134 135.571 236.243 132.617 232.795C127.402 226.705 120.89 223.414 112.749 223.419C107.099 223.423 101.544 224.114 96.0117 225.133C95.5883 225.212 95.1951 225.451 94.7921 225.614C94.7921 226.565 94.7798 227.413 94.7962 228.26C94.8125 229.109 94.8844 229.957 94.8877 230.806C94.94 245.235 96.4703 259.511 99.2912 273.655C101.029 282.369 102.797 291.074 105.446 299.57C108.095 308.067 111.451 316.291 115.124 324.385C118.555 331.946 122.211 339.404 126.795 346.342C129.674 350.702 132.816 354.888 135.865 359.134C136.771 360.396 137.764 361.596 138.717 362.824ZM140.736 364.602C140.987 365.225 140.774 365.905 139.926 366.254C139.051 366.615 138.407 366.116 137.831 365.567C131.658 359.683 124.535 355.001 117.858 349.756C110.098 343.662 102.225 337.71 94.5305 331.533C90.9174 328.633 87.5357 325.426 84.7319 321.681C81.5431 317.422 78.9625 312.803 76.6712 308.018C73.3385 301.057 70.4514 293.909 67.9435 286.613C64.9852 278.005 62.7413 269.189 61.4645 260.193C60.8457 255.83 61.1081 251.32 61.2234 246.884C61.3133 243.428 61.7776 239.981 62.1062 236.534C62.2084 235.459 62.3743 234.387 62.577 233.326C62.7225 232.567 63.2392 232.18 63.9855 231.874C72.7189 228.278 81.8276 225.959 90.9967 223.838C91.5019 223.722 91.994 223.553 92.6986 223.348C92.6986 221.286 92.6749 219.202 92.7084 217.12C92.7256 216.077 92.7787 215.023 92.9618 214.001C93.0174 213.688 93.534 213.327 93.8937 213.252C94.0997 213.209 94.5485 213.654 94.6515 213.959C94.8133 214.439 94.8207 214.987 94.815 215.504C94.7937 217.467 94.7332 219.428 94.7079 221.39C94.7022 221.829 94.7823 222.271 94.8395 222.89C96.4817 222.639 98.0054 222.33 99.5446 222.185C103.638 221.797 107.732 221.308 111.837 221.167C121.496 220.837 129.132 224.908 135.154 232.312C138.736 236.717 141.297 241.709 143.631 246.836C147.316 254.934 150.645 263.169 153.278 271.678C155.612 279.222 156.301 286.913 155.504 294.754C155.464 295.144 155.445 295.537 155.437 295.93C155.433 296.187 155.467 296.445 155.728 296.752C156.224 294.68 156.758 292.618 157.206 290.537C158.448 284.787 159.686 279.037 160.846 273.27C161.044 272.281 161.004 271.186 160.819 270.187C158.339 256.754 155.799 243.332 153.301 229.902C151.827 221.979 150.937 213.984 150.861 205.925C150.829 202.536 151.125 199.133 151.443 195.754C151.877 191.165 154.164 187.437 157.5 184.43C159.274 182.83 161.388 181.576 163.454 180.344C164.387 179.789 164.994 179.238 165.095 178.148C165.144 177.632 165.216 177.073 165.463 176.64C165.653 176.308 166.152 175.937 166.482 175.962C166.822 175.991 167.27 176.424 167.407 176.781C167.607 177.298 167.57 177.906 167.629 178.43C169.877 178.252 172.007 177.985 174.142 177.938C177.31 177.867 180.205 178.914 182.779 180.69C185.669 182.683 186.976 185.629 187.18 189.064C187.472 194.004 186.726 198.855 185.709 203.664C183.289 215.125 179.759 226.269 176.221 237.421C173.863 244.848 171.069 252.084 168.046 259.254C166.884 262.01 166.259 264.988 165.248 267.815C162.003 276.892 160.952 286.481 158.639 295.774C158.583 295.997 158.631 296.246 158.631 296.914C159.867 293.568 160.841 290.586 162.062 287.709C163.695 283.863 165.52 280.098 167.265 276.3C167.374 276.063 167.578 275.847 167.615 275.602C168.225 271.589 170.562 268.35 172.625 265.077C183.188 248.318 193.746 231.55 205.397 215.511C207.083 213.191 208.964 210.999 210.896 208.877C212.825 206.758 215.329 205.457 218.027 204.543C221.15 203.484 224.016 204.138 226.498 206.156C228.263 207.592 229.811 209.297 231.442 210.897C231.849 211.296 232.201 211.753 232.685 212.307C233.652 211.587 234.536 210.937 235.412 210.276C235.958 209.864 236.523 209.453 237.108 210.158C237.639 210.799 237.337 211.42 236.847 211.902C236.012 212.722 235.118 213.484 234.123 214.382C234.589 215.046 235.019 215.683 235.474 216.301C237.603 219.197 239.801 222.03 241.247 225.379C242.519 228.328 241.986 230.795 239.868 233.118C236.26 237.075 231.905 240.081 227.483 242.997C219.396 248.328 210.837 252.831 202.243 257.267C192.022 262.541 181.857 267.907 172.26 274.292C170.842 275.234 169.806 276.257 169.049 277.791C166.034 283.905 163.591 290.235 161.519 296.723C158.418 306.433 155.264 316.127 152.135 325.829C152.041 326.121 151.974 326.423 152.171 326.842C153.331 324.703 154.474 322.555 155.654 320.428C161.629 309.661 168.229 299.301 175.972 289.709C183.531 280.347 191.945 271.874 202.245 265.505C205.066 263.761 208.068 262.262 211.109 260.931C216.859 258.414 222.678 258.741 228.469 260.967C235.598 263.706 241.466 268.157 246.319 274.008C247.064 274.906 247.829 275.786 248.685 276.792C249.705 276.139 250.657 275.585 251.544 274.942C252.125 274.521 252.709 274.455 253.081 275.006C253.305 275.338 253.347 276.093 253.121 276.376C252.361 277.329 251.442 278.154 250.44 279.175C251.316 280.504 252.279 281.952 253.228 283.409C256.839 288.953 260.176 294.656 262.378 300.921C263.173 303.182 263.635 305.589 263.992 307.969C264.792 313.313 262.468 317.516 258.781 321.101C254.705 325.063 249.904 327.987 244.845 330.478C236.336 334.668 227.468 337.996 218.596 341.319C207.874 345.334 196.773 348.098 185.861 351.484C180.497 353.148 175.174 354.952 169.777 356.501C164.695 357.96 159.517 359.083 154.425 360.51C150.848 361.513 147.35 362.798 143.802 363.914C142.844 364.216 141.836 364.36 140.736 364.602Z" fill="#262AF2"/>
<path fill-rule="evenodd" clip-rule="evenodd" d="M180.557 348.137C180.644 349.166 180.651 349.878 180.769 350.566C183.422 365.908 186.849 406.008 192.158 420.434C197.698 435.487 204.725 449.452 214.756 461.145C222.991 470.749 232.525 477.903 243.95 481.272C248.27 482.546 252.645 483.572 257.171 483.073C269.127 481.755 279.615 476.358 288.904 467.685C300.9 456.483 309.131 442.003 315.613 426.035C320.814 413.226 322.297 399.485 325.088 385.728C325.974 379.421 328.945 352.575 329.758 348.137H180.557ZM255.165 344.637C280.018 344.637 304.871 344.637 329.723 344.638C330.248 344.638 330.776 344.607 331.297 344.671C332.911 344.873 333.24 345.327 332.992 347.176C330.381 366.533 325.554 410.202 318.39 427.958C313.541 439.975 307.5 451.105 299.734 460.902C290.023 473.155 278.511 481.962 264.322 485.538C261.686 486.201 259 486.85 256.317 486.971C249.668 487.269 243.322 485.31 237.154 482.648C225.108 477.447 215.482 468.396 207.312 457.08C199.088 445.685 192.967 432.848 188.194 419.131C182.97 404.126 179.283 363.585 177.177 347.566C176.861 345.153 177.108 344.721 179.296 344.674C183.757 344.579 188.22 344.561 192.683 344.56C213.51 344.548 234.338 344.554 255.165 344.554V344.637Z" fill="#262AF2"/>
<path fill-rule="evenodd" clip-rule="evenodd" d="M180.557 348.135H329.758C328.945 352.573 326.09 380.772 325.24 384.969C322.451 398.726 320.813 413.224 315.613 426.033C309.131 442.001 300.9 456.481 288.904 467.683C279.615 476.356 269.127 481.753 257.171 483.071C252.645 483.57 248.27 482.544 243.949 481.27C232.525 477.901 222.991 470.747 214.756 461.143C204.725 449.45 197.697 435.485 192.158 420.432C186.849 406.006 183.422 365.906 180.769 350.564C180.65 349.876 180.644 349.164 180.557 348.135Z" fill="#262AF2"/>
</svg>
