<svg width="1236" height="401" viewBox="0 0 1236 401" fill="none" xmlns="http://www.w3.org/2000/svg">
<rect x="0.000244141" width="1236" height="401" fill="#121473"/>
<path opacity="0.2" fill-rule="evenodd" clip-rule="evenodd" d="M1236.72 887.249C1315.12 887.249 1383.52 880.328 1442.36 865.879C1494.54 853.524 1538.27 833.727 1573.07 805.22C1605.34 778.89 1629.28 744.4 1645.47 701.938C1663.02 656.408 1671.67 621.346 1671.67 556.122C1671.67 490.38 1663.03 455.052 1645.47 409.486C1629.37 367.71 1605.46 333.26 1573.34 306.432C1538.51 278.365 1494.66 258.447 1442.35 245.547C1383.88 231.695 1315.31 225 1236.72 225C1158.34 225 1089.95 231.657 1031.57 245.427C979.227 258.277 935.339 278.136 900.458 306.129C867.676 332.973 843.368 367.514 827.196 409.485C809.637 455.053 801 490.381 801 556.123C801 621.346 809.651 656.408 827.279 702.156C843.356 744.309 867.461 778.705 900.459 805.3C935.165 833.727 978.896 853.524 1031.57 866C1089.91 880.328 1158.31 887.249 1236.72 887.249Z" fill="#262AF2"/>
<g filter="url(#filter0_d)">
<path d="M1238.39 407.532C1220.56 417.446 1199.93 426.125 1176.44 433.699C1162.49 438.196 1147.91 429.714 1144.12 415.568L1078.6 171.036C1074.81 156.889 1083.19 142.258 1097.51 139.151C1121.7 133.904 1143.91 130.989 1164.16 130.492C1188.59 130.121 1210.15 133.876 1228.75 142.328C1246.01 150.545 1260.6 163.126 1272.64 179.896C1285.77 198.188 1293.78 212.953 1301.65 242.314C1309.45 271.443 1309.86 288.115 1307.64 310.506C1305.63 331.368 1299.29 349.577 1288.32 365.12C1276.5 381.93 1259.74 395.898 1238.39 407.532Z" fill="#5229C7"/>
</g>
<path opacity="0.3" fill-rule="evenodd" clip-rule="evenodd" d="M-101.282 352.249C-22.8813 352.249 45.5198 345.328 104.362 330.879C156.535 318.524 200.266 298.727 235.068 270.22C267.341 243.89 291.276 209.4 307.471 166.938C325.016 121.408 333.667 86.3464 333.667 21.1225C333.667 -44.6195 325.03 -79.9475 307.472 -125.514C291.374 -167.29 267.455 -201.74 235.338 -228.568C200.512 -256.635 156.664 -276.553 104.353 -289.453C45.8779 -303.305 -22.6881 -310 -101.282 -310C-179.656 -310 -248.054 -303.343 -306.426 -289.573C-358.773 -276.723 -402.661 -256.864 -437.542 -228.871C-470.324 -202.027 -494.632 -167.486 -510.804 -125.515C-528.364 -79.9475 -537 -44.6195 -537 21.1225C-537 86.3465 -528.349 121.408 -510.721 167.156C-494.644 209.309 -470.539 243.705 -437.541 270.3C-402.835 298.727 -359.105 318.524 -306.429 331C-248.089 345.328 -179.688 352.249 -101.282 352.249Z" fill="#262AF2"/>
<g filter="url(#filter1_d)">
<path d="M1057.08 286.965C1095.41 281.241 1124.47 248.735 1125.9 209.975C1126.06 205.685 1129.46 202.228 1133.74 201.988L1151.22 201.013C1156.07 200.743 1160.1 204.67 1160 209.525C1159.74 221.908 1157.49 234.054 1153.3 245.74C1148.28 259.74 1140.69 272.481 1130.75 283.609C1120.8 294.738 1108.99 303.699 1095.64 310.247C1084.5 315.711 1072.69 319.289 1060.42 320.925C1055.6 321.567 1051.26 317.994 1050.99 313.143L1050.01 295.654C1049.78 291.369 1052.83 287.599 1057.08 286.965Z" fill="#00D6DE"/>
</g>
<path fill-rule="evenodd" clip-rule="evenodd" d="M45.6333 515C72.7373 515 96.3843 512.607 116.727 507.61C134.764 503.338 149.882 496.492 161.914 486.635C173.071 477.53 181.345 465.604 186.944 450.921C193.01 435.177 196 423.053 196 400.499C196 377.766 193.015 365.55 186.944 349.794C181.379 335.348 173.11 323.435 162.007 314.159C149.967 304.453 134.808 297.566 116.724 293.105C96.5082 288.315 72.8041 286 45.6333 286C18.5384 286 -5.10765 288.302 -25.2875 293.064C-43.3847 297.507 -58.5573 304.374 -70.6161 314.054C-81.949 323.336 -90.3526 335.28 -95.9437 349.793C-102.014 365.55 -105 377.766 -105 400.499C-105 423.053 -102.009 435.177 -95.915 450.996C-90.3567 465.572 -82.0235 477.466 -70.6157 486.663C-58.6174 496.492 -43.4992 503.338 -25.2886 507.652C-5.11986 512.607 18.5273 515 45.6333 515V515Z" fill="#00D6DE"/>
<g filter="url(#filter2_d)">
<path d="M183.127 429.422C173.729 366.686 120.365 319.138 56.7338 316.801C49.6908 316.541 44.0158 310.971 43.622 303.964L42.0218 275.365C41.5783 267.432 48.0244 260.834 55.9959 261.003C76.3249 261.433 96.2642 265.099 115.449 271.958C138.431 280.171 159.349 292.592 177.617 308.869C195.886 325.146 210.598 344.475 221.347 366.315C230.318 384.545 236.192 403.878 238.878 423.954C239.931 431.829 234.065 438.944 226.102 439.385L197.391 440.979C190.356 441.363 184.167 436.363 183.127 429.422Z" fill="#5229C7"/>
</g>
<defs>
<filter id="filter0_d" x="1067.69" y="124.467" width="251.119" height="324.442" filterUnits="userSpaceOnUse" color-interpolation-filters="sRGB">
<feFlood flood-opacity="0" result="BackgroundImageFix"/>
<feColorMatrix in="SourceAlpha" type="matrix" values="0 0 0 0 0 0 0 0 0 0 0 0 0 0 0 0 0 0 127 0" result="hardAlpha"/>
<feOffset dy="4"/>
<feGaussianBlur stdDeviation="5"/>
<feComposite in2="hardAlpha" operator="out"/>
<feColorMatrix type="matrix" values="0 0 0 0 0.14902 0 0 0 0 0.164706 0 0 0 0 0.94902 0 0 0 0.4 0"/>
<feBlend mode="normal" in2="BackgroundImageFix" result="effect1_dropShadow"/>
<feBlend mode="normal" in="SourceGraphic" in2="effect1_dropShadow" result="shape"/>
</filter>
<filter id="filter1_d" x="1030" y="201" width="150" height="160" filterUnits="userSpaceOnUse" color-interpolation-filters="sRGB">
<feFlood flood-opacity="0" result="BackgroundImageFix"/>
<feColorMatrix in="SourceAlpha" type="matrix" values="0 0 0 0 0 0 0 0 0 0 0 0 0 0 0 0 0 0 127 0" result="hardAlpha"/>
<feOffset dy="20"/>
<feGaussianBlur stdDeviation="10"/>
<feComposite in2="hardAlpha" operator="out"/>
<feColorMatrix type="matrix" values="0 0 0 0 0.0705882 0 0 0 0 0.0784314 0 0 0 0 0.45098 0 0 0 0.2 0"/>
<feBlend mode="normal" in2="BackgroundImageFix" result="effect1_dropShadow"/>
<feBlend mode="normal" in="SourceGraphic" in2="effect1_dropShadow" result="shape"/>
</filter>
<filter id="filter2_d" x="22.0002" y="261" width="237" height="220" filterUnits="userSpaceOnUse" color-interpolation-filters="sRGB">
<feFlood flood-opacity="0" result="BackgroundImageFix"/>
<feColorMatrix in="SourceAlpha" type="matrix" values="0 0 0 0 0 0 0 0 0 0 0 0 0 0 0 0 0 0 127 0" result="hardAlpha"/>
<feOffset dy="20"/>
<feGaussianBlur stdDeviation="10"/>
<feComposite in2="hardAlpha" operator="out"/>
<feColorMatrix type="matrix" values="0 0 0 0 0.0705882 0 0 0 0 0.0784314 0 0 0 0 0.45098 0 0 0 0.2 0"/>
<feBlend mode="normal" in2="BackgroundImageFix" result="effect1_dropShadow"/>
<feBlend mode="normal" in="SourceGraphic" in2="effect1_dropShadow" result="shape"/>
</filter>
</defs>
</svg>
