<svg width="107" height="92" viewBox="0 0 107 92" fill="none" xmlns="http://www.w3.org/2000/svg">
<path fill-rule="evenodd" clip-rule="evenodd" d="M75.7507 8.65907C65.1426 1.37008 51.1628 8.01588 44.5262 23.5029L44.5213 23.5144C44.209 24.2437 43.6783 24.8055 42.9786 25.1395C39.5956 26.7538 36.3255 28.9129 33.3198 31.6105C19.3733 44.1274 16.3907 63.4881 26.6577 74.8539C36.9247 86.2197 56.5535 85.2866 70.5001 72.7698C77.6553 66.348 81.9247 58.1247 82.9994 50.1039C83.0426 49.7812 83.1213 49.4754 83.2363 49.1929C89.4791 33.8548 86.1983 15.8376 75.7507 8.65907Z" fill="black" fill-opacity="0.04"/>
<path fill-rule="evenodd" clip-rule="evenodd" d="M52.1905 17.3109C52.0083 17.2577 51.811 17.2396 51.6067 17.2644C50.9922 17.3388 50.4806 17.8176 50.3739 18.4256C50.2872 18.9189 50.4544 19.3768 50.7667 19.6911C50.896 19.8212 50.9301 20.0175 50.8462 20.1804C50.4114 21.0257 49.748 22.1104 49.0579 23.6733C47.0425 28.237 45.6798 33.1312 40.1158 34.4045C35.2928 35.5083 32.0991 30.9157 34.3551 26.6631C36.2768 23.0406 40.3861 22.2007 42.9732 19.3242C45.3301 16.7034 45.6683 12.6624 49.0476 10.8309C50.0229 10.3024 51.1639 10.117 52.2342 10.4107C54.7472 11.1001 55.1076 13.7677 53.9293 15.7141C53.4931 16.4345 53.0142 16.9242 52.6448 17.2159C52.5168 17.3168 52.3473 17.3567 52.1905 17.3109Z" fill="#00D6DE"/>
<path d="M53.9848 13.36C54.0756 13.2914 54.205 13.3094 54.2738 13.4001L54.4687 13.6543L54.8594 14.1586C55.3671 14.8175 55.625 15.1839 55.8918 15.6446C56.3264 16.3943 56.6613 17.2262 56.8967 18.1181C56.9392 18.2795 56.9787 18.4438 57.0152 18.6115C57.2646 19.7588 57.2385 20.5172 56.6863 21.0424C56.2268 21.4798 55.3655 21.8105 54.2075 22.0648C53.6125 22.1955 52.9764 22.2971 52.3404 22.3733L52.1538 22.3949C52.0321 22.4086 51.9161 22.4205 51.8067 22.4309L51.5838 22.4508L51.4906 22.4582C51.3769 22.4662 51.2783 22.3807 51.2703 22.2673C51.2623 22.1541 51.348 22.0557 51.4617 22.0478L51.5818 22.0382C51.6147 22.0354 51.6502 22.0323 51.6883 22.0288L51.8491 22.0135C51.9871 21.9996 52.1351 21.9836 52.2911 21.9648C52.9148 21.8901 53.5382 21.7905 54.1188 21.6631L54.2654 21.6301C55.2793 21.3958 56.0305 21.0977 56.4013 20.7448C56.8093 20.3567 56.8316 19.7096 56.6118 18.6986C56.5765 18.5368 56.5386 18.3783 56.4974 18.2228C56.2713 17.3651 55.9499 16.5674 55.5344 15.8503L55.4905 15.7754C55.2419 15.3547 54.9843 14.9945 54.4865 14.35L54.1169 13.8732C54.0688 13.8111 54.0267 13.7562 53.9856 13.7022L53.9445 13.6481C53.8758 13.5575 53.8938 13.4284 53.9848 13.36Z" fill="#00D6DE"/>
<path d="M53.4386 21.931C53.4592 21.8194 53.5669 21.7455 53.6788 21.7662C53.7842 21.7856 53.856 21.8818 53.8468 21.9861L53.844 22.0059L53.1502 25.7475C53.1296 25.8592 53.0219 25.9331 52.91 25.9124C52.8046 25.8929 52.7328 25.7968 52.742 25.6924L52.7448 25.6727L53.4386 21.931Z" fill="#00D6DE"/>
<path d="M67.4488 11.3336C67.5175 11.2476 67.6406 11.2313 67.7289 11.2931L67.745 11.3056L69.8373 13.0986C69.9122 13.1628 69.9303 13.2701 69.8831 13.3545L69.8721 13.3722L63.4598 22.5433C63.451 22.5557 63.4409 22.5671 63.4298 22.5773L63.4122 22.5917L54.3343 29.2043C54.2422 29.2713 54.1132 29.2513 54.0459 29.1596C53.9826 29.0733 53.9966 28.9541 54.0752 28.8846L54.0907 28.8721L63.1406 22.28L69.4267 13.2893L67.6386 11.7568L61.6597 19.2624C61.6415 19.2852 61.6188 19.3037 61.5931 19.317L61.5733 19.326L55.4108 21.7332C55.3048 21.7746 55.1851 21.7225 55.1434 21.6168C55.1043 21.5172 55.1483 21.4056 55.2422 21.3583L55.2603 21.3502L61.371 18.963L67.4488 11.3336Z" fill="#00D6DE"/>
<path d="M69.5097 6.89162C69.5599 6.75764 69.7268 6.71595 69.8343 6.80481L69.8485 6.81784L70.2059 7.17248C70.503 7.46718 70.6231 7.89436 70.5253 8.29823L70.5147 8.33855L70.2525 9.27698L70.4226 9.42947C71.0537 9.99503 71.1639 10.9373 70.6868 11.6313L70.6612 11.6677L69.5932 13.1377C69.5263 13.2297 69.3972 13.2502 69.3049 13.1836C69.2181 13.1208 69.1947 13.0033 69.248 12.9129L69.2588 12.8963L70.3269 11.4263C70.7018 10.9104 70.6348 10.1999 70.1758 9.76244L70.1467 9.73543L69.8814 9.49749C69.828 9.44963 69.8038 9.37791 69.8163 9.30824L69.8206 9.28932L70.1171 8.22816C70.1901 7.96718 70.122 7.68784 69.9393 7.4894L69.9148 7.46403L69.7843 7.33457L68.1121 11.7974C68.0745 11.8975 67.9671 11.9513 67.8655 11.9241L67.8466 11.9181C67.7461 11.8807 67.6922 11.7736 67.7194 11.6723L67.7255 11.6534L69.5097 6.89162Z" fill="#00D6DE"/>
<path d="M49.2253 25.0049C49.9587 24.8038 50.5055 24.7408 51.2124 24.8704L51.2837 24.8848C51.369 24.9029 51.463 24.9263 51.5765 24.96C51.797 25.0253 52.0247 25.1112 52.2527 25.2209C52.862 25.5141 53.3831 25.9312 53.7573 26.4958L53.7968 26.5569C53.8149 26.5858 53.8448 26.6368 53.8824 26.7074C53.9441 26.8233 54.0056 26.9535 54.0631 27.0951C54.16 27.3342 54.2354 27.5818 54.2806 27.8332L54.2929 27.9053C54.4722 29.039 54.2745 31.4607 53.8126 34.7478C53.6665 35.7881 53.5015 36.8568 53.3278 37.9128L53.2528 38.3643C53.2163 38.5818 53.1805 38.7921 53.1459 38.9939L53.0243 39.6916L52.9837 39.9195L64.8048 41.0695C64.8962 41.0784 64.9708 41.1464 64.9877 41.2364C65.1251 41.9679 65.1114 42.76 64.8168 43.6193C64.5017 44.5325 63.9847 45.1929 63.3835 45.6946C63.3524 45.7206 63.3143 45.7368 63.274 45.7414L61.9965 45.8849C60.124 46.097 58.244 46.3171 56.1929 46.5672L51.4455 47.1562C50.4904 47.2728 49.8738 47.3412 49.382 47.3838L49.1634 47.4017C48.0924 47.4833 47.5836 47.4277 47.0705 47.1868L47.0272 47.1659C45.7187 46.5229 45.0592 45.0853 44.8637 42.8279L44.8486 42.6422C44.7301 41.0877 44.7911 39.6758 45.0705 36.2753L45.2401 34.2289C45.2644 33.9274 45.2849 33.6612 45.3045 33.3938L45.3171 33.2214C45.3863 32.2619 45.4326 31.4249 45.4574 30.6368C45.461 30.5233 45.5562 30.4341 45.6701 30.4377C45.784 30.4413 45.8734 30.5362 45.87 30.6497L45.8608 30.9163C45.836 31.5879 45.796 32.2985 45.7401 33.0913L45.7076 33.5389C45.6777 33.9417 45.6448 34.3534 45.5996 34.8968L45.4746 36.3975C45.2034 39.7091 45.1451 41.0989 45.2602 42.6111L45.2681 42.7119C45.4442 44.8877 46.0462 46.2253 47.2094 46.7968L47.2465 46.8146C47.6836 47.0199 48.1292 47.0683 49.1372 46.9911L49.3467 46.9739C49.7012 46.9432 50.1233 46.8987 50.6951 46.8317L55.5786 46.2278L56.6984 46.0913C58.6291 45.8574 60.4172 45.6491 62.2054 45.4472L63.1654 45.3394L63.1698 45.3358C63.6794 44.8982 64.119 44.3303 64.3988 43.5632L64.4264 43.4859C64.6681 42.7811 64.7023 42.1248 64.6154 41.5141L64.6077 41.4636L52.7209 40.3073C52.6006 40.2956 52.5162 40.184 52.5379 40.0657L52.6122 39.6518L52.698 39.1621C52.7454 38.8896 52.7948 38.6002 52.8457 38.2966C53.0464 37.0982 53.2374 35.8757 53.4038 34.6907L53.4611 34.2777C53.8843 31.1814 54.0553 28.9019 53.8745 27.9063C53.8345 27.6845 53.7672 27.4635 53.6804 27.2491C53.6372 27.1427 53.5915 27.0436 53.5454 26.9533L53.5178 26.9003C53.4852 26.839 53.4604 26.7966 53.4475 26.7761C53.116 26.2519 52.6393 25.8638 52.0733 25.5914C51.8662 25.4917 51.6592 25.4137 51.4588 25.3543C51.3275 25.3154 51.2269 25.2919 51.1364 25.2746C50.5044 25.1589 50.0134 25.2155 49.334 25.4018C48.9894 25.4949 48.6533 25.6231 48.3287 25.782C48.2264 25.8322 48.1027 25.7901 48.0525 25.6882C48.0022 25.5862 48.0443 25.4629 48.1467 25.4129C48.4945 25.2425 48.8551 25.1049 49.2253 25.0049Z" fill="#00D6DE"/>
<path d="M68.6841 39.6872C68.7899 39.5874 68.9612 39.6261 69.016 39.7565L69.0225 39.7741L69.2332 40.4315C69.4265 41.0361 69.268 41.6963 68.8245 42.1478L68.7923 42.1797L68.2169 42.7354C68.0309 42.915 67.8834 43.1301 67.7831 43.3673L67.7608 43.4224C67.4676 44.1805 66.774 44.7097 65.9662 44.7957L65.9325 44.7989L63.7931 45.2502C63.6881 45.2724 63.5849 45.2107 63.5534 45.1107L63.5485 45.0915C63.5262 44.9869 63.5881 44.884 63.6884 44.8528L63.7077 44.8477L65.8585 44.3941L65.8838 44.3904C66.5395 44.3351 67.1079 43.9196 67.3591 43.316L67.3757 43.2746C67.4897 42.9794 67.663 42.7107 67.8848 42.4846L67.9298 42.4399L68.5051 41.8842C68.8501 41.5511 68.9824 41.0567 68.8525 40.5981L68.8399 40.5566L68.7291 40.2108L67.4493 41.4172C67.4243 41.4408 67.3938 41.4577 67.3607 41.4665L67.3405 41.4707L64.8939 41.8655C64.7814 41.8838 64.6754 41.8075 64.6572 41.6953C64.6401 41.5899 64.7068 41.49 64.8085 41.4636L64.828 41.4595L67.2116 41.0748L68.6841 39.6872Z" fill="#00D6DE"/>
<path d="M35.9217 33.841C35.9615 33.7346 36.0804 33.6804 36.1873 33.72C36.2877 33.7575 36.3418 33.8646 36.3147 33.9658L36.3086 33.9847L30.6925 49.0102C30.1729 50.4007 30.9184 51.9455 32.3302 52.397C35.1711 53.3051 38.1755 53.784 41.1349 53.5804C44.9728 53.3165 48.3755 51.9167 51.1583 49.142L51.2694 49.0298L51.2696 46.946C51.2696 46.8391 51.3514 46.7513 51.456 46.7413L51.4759 46.7403C51.5832 46.7403 51.6713 46.8219 51.6813 46.9263L51.6823 46.946V49.1138C51.6823 49.1672 51.6614 49.2187 51.624 49.2571C48.7354 52.2227 45.1763 53.7148 41.1633 53.9908C38.1455 54.1984 35.091 53.7116 32.2041 52.7886C30.584 52.2705 29.7215 50.512 30.2882 48.9149L30.3058 48.8665L35.9217 33.841Z" fill="#00D6DE"/>
<path d="M31.1745 52.0628C31.204 51.9531 31.3171 51.8878 31.4271 51.9172C31.5373 51.9465 31.6027 52.0593 31.5733 52.1691C31.0788 54.0137 31.088 55.9009 31.8347 57.6938C32.7252 59.8346 34.4501 61.2972 36.7158 62.2035C37.5351 62.5313 38.3761 62.7648 39.2001 62.9193C39.5039 62.9762 39.789 63.0192 40.0506 63.0501L40.2031 63.0671C40.3145 63.0786 40.4092 63.0864 40.4855 63.0912C41.7528 63.1721 42.7874 63.0174 44.606 62.5207C48.4254 61.477 52.4054 59.9036 56.677 57.5276C56.8158 57.4504 56.9863 57.5519 56.9839 57.7103L56.9475 59.9348C56.9127 61.8837 56.8695 63.8751 56.804 66.5871L56.5713 75.946C56.4984 78.9519 56.4525 81.0755 56.4157 83.1985L56.3875 84.9341L59.8213 86.7727L59.8531 86.5743C60.2391 84.1607 60.6273 81.8927 61.065 79.4624L61.4353 77.4357C61.8231 75.3325 62.385 72.312 62.4129 72.1604L62.5828 71.2324C63.012 68.8768 63.3452 66.9426 63.6689 64.898C63.6868 64.7858 63.7925 64.7093 63.905 64.727C64.0175 64.7447 64.0945 64.85 64.0767 64.9622L64.0016 65.4331C63.6752 67.467 63.3329 69.4312 62.8881 71.8576L61.5682 78.9987L61.5594 79.0471C61.0561 81.8248 60.6206 84.3675 60.1835 87.1234C60.1613 87.2633 60.0072 87.3395 59.882 87.2723L56.0818 85.2373C56.0195 85.204 55.979 85.1415 55.9737 85.0721L55.973 85.053L56.0095 82.8277C56.0521 80.4367 56.1075 77.9818 56.2011 74.2096L56.4148 65.5971C56.477 62.9722 56.5171 61.0254 56.5506 59.0107L56.5657 58.0593L56.4819 58.1053C52.3953 60.3408 48.5701 61.8492 44.893 62.8685L44.7151 62.9175L44.5117 62.9725C42.7763 63.4368 41.7311 63.583 40.4593 63.5018L40.3671 63.4954C40.0494 63.471 39.6261 63.4178 39.1239 63.3237C38.2747 63.1645 37.4081 62.9238 36.562 62.5853C34.2015 61.641 32.3915 60.1063 31.4534 57.8514C30.668 55.9655 30.6583 53.9884 31.1745 52.0628Z" fill="#00D6DE"/>
<path d="M61.3862 45.5509C61.4843 45.5076 61.5981 45.5464 61.6497 45.6377L61.6586 45.6554L73.5177 72.2751C73.5598 72.3694 73.5249 72.479 73.4388 72.5328L73.422 72.5422L69.7959 74.3663C69.7068 74.4111 69.5993 74.3856 69.5395 74.3083L69.5282 74.2921L54.2038 49.9726L51.4107 49.0411C51.309 49.0072 51.2514 48.902 51.2751 48.7998L51.2806 48.7808C51.3145 48.6794 51.4202 48.622 51.5226 48.6456L51.5417 48.6509L54.4046 49.6058C54.4434 49.6188 54.4774 49.6428 54.5023 49.6749L54.5139 49.6915L69.7778 73.9145L73.0607 72.263L61.2814 45.8225C61.2379 45.7247 61.277 45.6113 61.3685 45.5599L61.3862 45.5509Z" fill="#00D6DE"/>
<path d="M67.1379 35.17C67.1861 35.0997 67.2721 35.0666 67.3541 35.0851L67.3729 35.0904L70.8726 36.2363C70.9946 36.2762 71.0494 36.4152 70.9916 36.5262L70.9819 36.5426L68.48 40.4376C68.4187 40.5332 68.291 40.5612 68.195 40.4999C68.1047 40.4423 68.0746 40.3261 68.1226 40.2329L68.1325 40.2157L70.4906 36.5441L67.3916 35.5293L63.4979 41.2296C63.4375 41.318 63.3203 41.3446 63.2281 41.2942L63.2112 41.2839C63.1224 41.2237 63.0956 41.1068 63.1462 41.0149L63.1567 40.9981L67.1379 35.17Z" fill="#00D6DE"/>
<path d="M69.9831 3.73047C71.9295 3.73047 73.5073 5.30316 73.5073 7.24323C73.5073 8.39902 72.9428 9.46073 72.0132 10.115C71.92 10.1806 71.7912 10.1585 71.7255 10.0656C71.6599 9.9728 71.682 9.84444 71.7752 9.77889C72.5964 9.201 73.0946 8.26394 73.0946 7.24323C73.0946 5.53039 71.7015 4.14188 69.9831 4.14188C68.2647 4.14188 66.8717 5.53039 66.8717 7.24323C66.8717 7.77107 67.0041 8.27944 67.2531 8.73199C67.3079 8.83169 67.2713 8.95675 67.1714 9.01133C67.0715 9.06592 66.946 9.02944 66.8911 8.92988C66.6089 8.41698 66.459 7.84074 66.459 7.24323C66.459 5.30316 68.0368 3.73047 69.9831 3.73047Z" fill="#00D6DE"/>
<path fill-rule="evenodd" clip-rule="evenodd" d="M56.1793 84.8115L56.02 88.2271L63.5305 91.7936L63.5945 91.266C63.7373 90.0901 63.1967 88.9354 62.201 88.2889L59.9796 86.8466L56.1793 84.8115Z" fill="#00D6DE"/>
<path fill-rule="evenodd" clip-rule="evenodd" d="M55.8135 88.2175L55.9728 84.8019C55.9799 84.6507 56.1428 84.5585 56.2767 84.6302L60.077 86.6654L60.092 86.6741L62.3134 88.1164C63.375 88.8058 63.9513 90.0369 63.799 91.2906L63.735 91.8181C63.7181 91.9577 63.5687 92.0396 63.4414 91.9791L55.931 88.4126C55.856 88.3771 55.8096 88.3002 55.8135 88.2175ZM59.8738 87.0236L56.3698 85.1471L56.2321 88.0999L63.3595 91.4846L63.3893 91.2412C63.5204 90.1615 63.0344 89.1008 62.1341 88.4917L62.088 88.4612L59.8738 87.0236Z" fill="#00D6DE"/>
<path fill-rule="evenodd" clip-rule="evenodd" d="M69.6235 74.2464L71.0024 76.3621L78.6394 72.7136C77.9529 71.6301 76.598 71.1751 75.3936 71.6236L73.2495 72.4223L69.6235 74.2464Z" fill="#00D6DE"/>
<path fill-rule="evenodd" clip-rule="evenodd" d="M73.1567 72.2383L73.1773 72.2292L75.3215 71.4306C76.6174 70.948 78.0752 71.4376 78.814 72.6035C78.8799 72.7074 78.84 72.8455 78.7287 72.8987L71.0917 76.5473C70.9982 76.592 70.8859 76.5606 70.8295 76.4739L69.4506 74.3582C69.3836 74.2554 69.4211 74.1176 69.5307 74.0624L73.1567 72.2383ZM71.0767 76.0981L78.3313 72.6323L78.3176 72.6147C77.65 71.7654 76.4981 71.4315 75.466 71.816L73.3325 72.6106L69.922 74.3262L71.0767 76.0981Z" fill="#00D6DE"/>
<path d="M62.7567 49.024C62.7833 48.9204 62.8844 48.8554 62.9883 48.8716L63.0078 48.8756L64.5449 49.2667C66.497 49.7631 67.7114 51.6966 67.3155 53.6582L67.303 53.7177L66.6134 56.8741C66.5892 56.985 66.4793 57.0554 66.3678 57.0312C66.2631 57.0085 66.1943 56.9102 66.2068 56.8061L66.2102 56.7865L66.8997 53.6301C67.2815 51.8824 66.2209 50.1471 64.4953 49.6791L64.4429 49.6654L62.9057 49.2742C62.7952 49.2461 62.7285 49.1341 62.7567 49.024Z" fill="#00D6DE"/>
<path d="M35.8567 44.2318C35.9699 44.2189 36.0723 44.2998 36.0852 44.4128C36.1874 45.3024 36.4901 46.1953 37.1363 47.0335C37.7118 47.7797 38.4446 48.3086 39.2731 48.658C39.8233 48.8901 40.3084 49.0062 40.7556 49.0649C40.8685 49.0797 40.948 49.183 40.9332 49.2957C40.9183 49.4083 40.8147 49.4876 40.7016 49.4728C40.2208 49.4097 39.7011 49.2853 39.1123 49.037C38.2216 48.6613 37.431 48.0906 36.8092 47.2842C36.1111 46.3791 35.7851 45.4174 35.6752 44.4596C35.6621 44.3467 35.7434 44.2447 35.8567 44.2318Z" fill="#00D6DE"/>
<path d="M37.9402 39.6214C37.9744 39.5131 38.0903 39.4529 38.199 39.4872C38.3077 39.5213 38.3681 39.6368 38.3338 39.7451C38.0636 40.5991 37.9753 41.5376 38.2233 42.5653C38.444 43.4805 38.8972 44.261 39.5111 44.9164C39.9189 45.3517 40.3144 45.6546 40.6988 45.8898C40.7961 45.9492 40.8265 46.0758 40.7669 46.1727C40.7072 46.2695 40.5802 46.2999 40.4831 46.2405C40.0695 45.9876 39.6458 45.663 39.2095 45.1971C38.5494 44.4927 38.0606 43.6505 37.822 42.6616C37.5541 41.5516 37.6493 40.5408 37.9402 39.6214Z" fill="#00D6DE"/>
<path fill-rule="evenodd" clip-rule="evenodd" d="M26.7317 67.5189H52.8303V63.1895H26.7317V67.5189Z" fill="#00D6DE"/>
<path d="M69.9831 1.44043C73.1988 1.44043 75.8057 4.0389 75.8057 7.2442C75.8057 9.32854 74.6941 11.2206 72.9227 12.2552C72.8243 12.3126 72.6979 12.2797 72.6403 12.1817C72.5826 12.0836 72.6156 11.9576 72.714 11.9001C74.3602 10.9387 75.393 9.18098 75.393 7.2442C75.393 4.266 72.9709 1.85184 69.9831 1.85184C66.9954 1.85184 64.5731 4.266 64.5731 7.2442C64.5731 8.40657 64.9428 9.51285 65.6179 10.43C65.6854 10.5216 65.6655 10.6504 65.5736 10.7176C65.4817 10.7848 65.3525 10.7651 65.2851 10.6734C64.5586 9.6862 64.1604 8.49475 64.1604 7.2442C64.1604 4.03876 66.7674 1.44043 69.9831 1.44043Z" fill="#00D6DE"/>
<path fill-rule="evenodd" clip-rule="evenodd" d="M7.61158 16.9834H10.7839C14.9876 16.9834 18.3955 20.3801 18.3955 24.5702V31.9515C18.3955 32.0652 18.3031 32.1572 18.1891 32.1572H7.61158C3.40777 32.1572 0 28.7604 0 24.5702C0 20.3801 3.40777 16.9834 7.61158 16.9834ZM17.9828 24.5702C17.9828 20.647 14.8239 17.4593 10.903 17.3958L10.7839 17.3948H7.61158C3.63574 17.3948 0.412746 20.6074 0.412746 24.5702C0.412746 28.5332 3.63574 31.7458 7.61158 31.7458H17.9826L17.9828 24.5702Z" fill="#00D6DE"/>
<path d="M12.0723 22.3389C12.1862 22.3389 12.2786 22.431 12.2786 22.5446C12.2786 22.6515 12.1968 22.7394 12.0921 22.7495L12.0723 22.7503H6.3238C6.20975 22.7503 6.11743 22.6583 6.11743 22.5446C6.11743 22.4377 6.19929 22.3498 6.30385 22.3398L6.3238 22.3389H12.0723Z" fill="#00D6DE"/>
<path d="M12.0723 25.8955C12.1862 25.8955 12.2786 25.9877 12.2786 26.1012C12.2786 26.2082 12.1968 26.2961 12.0921 26.306L12.0723 26.3069H6.3238C6.20975 26.3069 6.11743 26.2149 6.11743 26.1012C6.11743 25.9942 6.19929 25.9065 6.30385 25.8965L6.3238 25.8955H12.0723Z" fill="#00D6DE"/>
<path fill-rule="evenodd" clip-rule="evenodd" d="M10.7627 42.863H21.3403C25.43 42.863 28.7455 39.5582 28.7455 35.4817C28.7455 31.4052 25.43 28.1006 21.3403 28.1006H18.1679C14.0781 28.1006 10.7627 31.4052 10.7627 35.4817V42.863Z" fill="#00D6DE"/>
<path fill-rule="evenodd" clip-rule="evenodd" d="M17.6612 35.4798C17.6612 36.0134 17.2273 36.4459 16.6919 36.4459C16.1566 36.4459 15.7227 36.0134 15.7227 35.4798C15.7227 34.9462 16.1566 34.5137 16.6919 34.5137C17.2273 34.5137 17.6612 34.9462 17.6612 35.4798Z" fill="#F5F5FF"/>
<path fill-rule="evenodd" clip-rule="evenodd" d="M20.7236 35.4798C20.7236 36.0134 20.2898 36.4459 19.7543 36.4459C19.219 36.4459 18.7852 36.0134 18.7852 35.4798C18.7852 34.9462 19.219 34.5137 19.7543 34.5137C20.2898 34.5137 20.7236 34.9462 20.7236 35.4798Z" fill="#F5F5FF"/>
<path fill-rule="evenodd" clip-rule="evenodd" d="M23.7862 35.4798C23.7862 36.0134 23.3523 36.4459 22.8169 36.4459C22.2816 36.4459 21.8477 36.0134 21.8477 35.4798C21.8477 34.9462 22.2816 34.5137 22.8169 34.5137C23.3523 34.5137 23.7862 34.9462 23.7862 35.4798Z" fill="#F5F5FF"/>
<path fill-rule="evenodd" clip-rule="evenodd" d="M81.3237 17.168H90.5048C91.6498 17.168 92.5779 18.0931 92.5779 19.2343C92.5779 20.3756 91.6496 21.3007 90.5048 21.3007H81.3237C80.1787 21.3007 79.2505 20.3756 79.2505 19.2343C79.2505 18.0931 80.1786 17.168 81.3237 17.168ZM90.5048 17.5794H81.3237C80.4066 17.5794 79.6632 18.3203 79.6632 19.2343C79.6632 20.1484 80.4067 20.8893 81.3237 20.8893H90.5048C91.4218 20.8893 92.1652 20.1484 92.1652 19.2343C92.1652 18.3203 91.4218 17.5794 90.5048 17.5794Z" fill="#00D6DE"/>
<path fill-rule="evenodd" clip-rule="evenodd" d="M81.3237 39.4346H90.5048C91.6498 39.4346 92.5779 40.3598 92.5779 41.5011C92.5779 42.6423 91.6496 43.5675 90.5048 43.5675H81.3237C80.1787 43.5675 79.2505 42.6423 79.2505 41.5011C79.2505 40.3598 80.1787 39.4346 81.3237 39.4346ZM90.5048 39.846H81.3237C80.4066 39.846 79.6632 40.5871 79.6632 41.5011C79.6632 42.4151 80.4067 43.1561 81.3237 43.1561H90.5048C91.4218 43.1561 92.1652 42.4151 92.1652 41.5011C92.1652 40.5871 91.4218 39.846 90.5048 39.846Z" fill="#00D6DE"/>
<path fill-rule="evenodd" clip-rule="evenodd" d="M99.7623 21.0954H96.7832C95.7523 21.0954 94.9165 20.2623 94.9165 19.2347C94.9165 18.207 95.7523 17.374 96.7832 17.374H99.7623C100.793 17.374 101.629 18.207 101.629 19.2347C101.629 20.2623 100.793 21.0954 99.7623 21.0954Z" fill="#00D6DE"/>
<path fill-rule="evenodd" clip-rule="evenodd" d="M96.7833 17.168H99.7623C100.907 17.168 101.835 18.0931 101.835 19.2343C101.835 20.3756 100.907 21.3007 99.7623 21.3007H96.7833C95.6385 21.3007 94.7102 20.3756 94.7102 19.2343C94.7102 18.0931 95.6383 17.168 96.7833 17.168ZM99.7623 17.5794H96.7833C95.8663 17.5794 95.123 18.3203 95.123 19.2343C95.123 20.1484 95.8664 20.8893 96.7833 20.8893H99.7623C100.679 20.8893 101.423 20.1484 101.423 19.2343C101.423 18.3203 100.679 17.5794 99.7623 17.5794Z" fill="#00D6DE"/>
<path fill-rule="evenodd" clip-rule="evenodd" d="M94.3995 35.9391H81.324C80.2931 35.9391 79.4573 35.1062 79.4573 34.0786C79.4573 33.0507 80.2931 32.2178 81.324 32.2178H94.3995C95.4304 32.2178 96.2662 33.0507 96.2662 34.0786C96.2662 35.1062 95.4304 35.9391 94.3995 35.9391Z" fill="#00D6DE"/>
<path fill-rule="evenodd" clip-rule="evenodd" d="M81.3238 32.0127H94.3993C95.5443 32.0127 96.4724 32.9378 96.4724 34.0792C96.4724 35.2203 95.5441 36.1455 94.3993 36.1455H81.3238C80.1789 36.1455 79.2507 35.2203 79.2507 34.0792C79.2507 32.9378 80.1789 32.0127 81.3238 32.0127ZM94.3993 32.4241H81.3238C80.4068 32.4241 79.6635 33.1651 79.6635 34.0792C79.6635 34.9932 80.4068 35.734 81.3238 35.734H94.3993C95.3162 35.734 96.0597 34.9932 96.0597 34.0792C96.0597 33.1651 95.3163 32.4241 94.3993 32.4241Z" fill="#00D6DE"/>
<path fill-rule="evenodd" clip-rule="evenodd" d="M93.2218 24.5898H104.927C106.072 24.5898 107 25.515 107 26.6562C107 27.7975 106.072 28.7226 104.927 28.7226H93.2218C92.0768 28.7226 91.1487 27.7976 91.1487 26.6562C91.1487 25.515 92.0768 24.5898 93.2218 24.5898ZM104.927 25.0013H93.2218C92.3048 25.0013 91.5614 25.7422 91.5614 26.6562C91.5614 27.5704 92.3048 28.3112 93.2218 28.3112H104.927C105.844 28.3112 106.587 27.5702 106.587 26.6562C106.587 25.7422 105.844 25.0013 104.927 25.0013Z" fill="#00D6DE"/>
<path fill-rule="evenodd" clip-rule="evenodd" d="M86.5245 28.5172H81.0213C79.9904 28.5172 79.1545 27.6843 79.1545 26.6566C79.1545 25.6289 79.9904 24.7959 81.0213 24.7959H86.5245C87.5554 24.7959 88.3911 25.6289 88.3911 26.6566C88.3911 27.6843 87.5554 28.5172 86.5245 28.5172Z" fill="#00D6DE"/>
<path fill-rule="evenodd" clip-rule="evenodd" d="M81.0213 24.5898H86.5246C87.6696 24.5898 88.5975 25.515 88.5975 26.6562C88.5975 27.7975 87.6696 28.7226 86.5246 28.7226H81.0213C79.8765 28.7226 78.9482 27.7975 78.9482 26.6562C78.9482 25.515 79.8765 24.5898 81.0213 24.5898ZM86.5246 25.0013H81.0213C80.1043 25.0013 79.361 25.7422 79.361 26.6562C79.361 27.5702 80.1043 28.3112 81.0213 28.3112H86.5246C87.4416 28.3112 88.1848 27.5704 88.1848 26.6562C88.1848 25.7422 87.4416 25.0013 86.5246 25.0013Z" fill="#00D6DE"/>
<path d="M56.4725 4.31528C56.5448 4.11094 56.8392 4.14413 56.871 4.3497L56.8732 4.36945L57.1029 7.70228L57.8529 6.03401C57.9059 5.91594 58.0524 5.87672 58.1571 5.94789L58.1725 5.95941L58.848 6.51468H60.0564L60.8735 4.57776C60.9511 4.39358 61.2157 4.41854 61.2633 4.60464L61.2674 4.62438L61.7653 7.67719L62.4744 6.36301C62.5253 6.26893 62.6391 6.23012 62.7361 6.27071L62.754 6.27935C62.8485 6.32996 62.8873 6.44351 62.8466 6.54005L62.838 6.55788L61.841 8.40566C61.7506 8.57297 61.5043 8.538 61.4593 8.36013L61.4555 8.34134L60.9753 5.39784L60.3838 6.8002C60.3541 6.87069 60.288 6.91841 60.2127 6.9254L60.1936 6.92623H58.774C58.733 6.92623 58.693 6.91402 58.6591 6.89139L58.6427 6.87919L58.1187 6.44844L57.1421 8.62165C57.0571 8.81104 56.7807 8.76839 56.7502 8.57119L56.748 8.55171L56.53 5.39263L56.0378 6.78868C56.0109 6.86479 55.9423 6.91759 55.863 6.92527L55.843 6.92623H54.2147C54.1008 6.92623 54.0083 6.83407 54.0083 6.72052C54.0083 6.61355 54.0902 6.52565 54.1949 6.51578L54.2147 6.51482L55.6968 6.51468L56.4725 4.31528Z" fill="#00D6DE"/>
<path d="M82.8121 4.24717C82.871 4.04064 83.1632 4.05312 83.2109 4.25347L83.2148 4.27336L83.6255 7.04654L83.749 6.65776C83.7743 6.57835 83.8448 6.52268 83.9266 6.51513L83.9458 6.51417H85.0284C85.1424 6.51417 85.2348 6.60633 85.2348 6.71988C85.2348 6.82685 85.1529 6.91475 85.0483 6.92462L85.0284 6.92558L84.0968 6.92545L83.7487 8.02117C83.6848 8.22249 83.3991 8.20631 83.3518 8.00938L83.3478 7.98908L82.9466 5.27981L82.52 6.77611C82.4966 6.85825 82.4251 6.91681 82.341 6.92462L82.3215 6.92558L81.8054 6.92545L81.4345 8.0246C81.372 8.2096 81.1143 8.20987 81.0468 8.03475L81.0403 8.01527L80.4376 5.89884L80.2287 6.76788C80.2079 6.85427 80.1342 6.91681 80.047 6.92476L80.028 6.92558H79.111C79.0262 6.92558 78.9507 6.87402 78.9196 6.79681L78.9132 6.77844L78.4615 5.26335L78.071 7.98812C78.0449 8.17092 77.8119 8.22688 77.7035 8.08508L77.6924 8.06917L76.9046 6.83C76.8436 6.73401 76.8723 6.60702 76.9684 6.54613C77.0591 6.48894 77.1774 6.51075 77.2418 6.59358L77.2532 6.60976L77.7415 7.37786L78.1863 4.27432C78.2167 4.06258 78.5065 4.03488 78.5819 4.22563L78.5885 4.24483L79.2648 6.51404H79.8652L80.2202 5.03886C80.2679 4.83987 80.5421 4.82767 80.6127 5.01102L80.6193 5.03076L81.2555 7.26431L81.4614 6.65433C81.4877 6.57657 81.5575 6.5224 81.6382 6.515L81.6571 6.51417L82.1656 6.51404L82.8121 4.24717Z" fill="#00D6DE"/>
<path fill-rule="evenodd" clip-rule="evenodd" d="M71.5608 30.9616C71.5608 32.3115 70.4631 33.4057 69.1089 33.4057C67.7546 33.4057 66.6567 32.3115 66.6567 30.9616C66.6567 29.6118 67.7546 28.5176 69.1089 28.5176C70.4631 28.5176 71.5608 29.6118 71.5608 30.9616Z" fill="#00D6DE"/>
<path fill-rule="evenodd" clip-rule="evenodd" d="M70.5571 30.4387C70.5571 30.9479 70.1428 31.3608 69.632 31.3608C69.1211 31.3608 68.707 30.9479 68.707 30.4387C68.707 29.9295 69.1211 29.5166 69.632 29.5166C70.1428 29.5166 70.5571 29.9295 70.5571 30.4387Z" fill="#F5F5FF"/>
<path fill-rule="evenodd" clip-rule="evenodd" d="M87.8616 55.394L83.7797 59.4628L79.6978 55.394L83.7797 51.3252L87.8616 55.394Z" fill="#00D6DE"/>
<path fill-rule="evenodd" clip-rule="evenodd" d="M79.5518 55.2483L83.6337 51.1794C83.7144 51.0991 83.8451 51.0991 83.9257 51.1794L88.0076 55.2483C88.0882 55.3286 88.0882 55.4589 88.0076 55.5391L83.9257 59.6078C83.8451 59.6882 83.7144 59.6882 83.6337 59.6078L79.5518 55.5391C79.4713 55.4589 79.4713 55.3286 79.5518 55.2483ZM87.5698 55.3936L83.7797 51.6158L79.9895 55.3936L83.7797 59.1716L87.5698 55.3936Z" fill="#00D6DE"/>
<path fill-rule="evenodd" clip-rule="evenodd" d="M91.9435 55.394L87.8615 59.4628L83.7795 55.394L87.8615 51.3252L91.9435 55.394Z" fill="#F5F5FF"/>
<path fill-rule="evenodd" clip-rule="evenodd" d="M83.6341 55.2483L87.716 51.1794C87.7966 51.0991 87.9273 51.0991 88.008 51.1794L92.09 55.2483C92.1706 55.3286 92.1706 55.4589 92.09 55.5391L88.008 59.6078C87.9273 59.6882 87.7966 59.6882 87.716 59.6078L83.6341 55.5391C83.5536 55.4589 83.5536 55.3286 83.6341 55.2483ZM91.6521 55.3936L87.862 51.6158L84.0717 55.3936L87.862 59.1716L91.6521 55.3936Z" fill="#00D6DE"/>
<path fill-rule="evenodd" clip-rule="evenodd" d="M96.0258 55.394L91.9439 59.4628L87.8618 55.394L91.9439 51.3252L96.0258 55.394Z" fill="#F5F5FF"/>
<path fill-rule="evenodd" clip-rule="evenodd" d="M87.7159 55.2483L91.7979 51.1794C91.8786 51.0991 92.0093 51.0991 92.0899 51.1794L96.1718 55.2483C96.2523 55.3286 96.2523 55.4589 96.1718 55.5391L92.0899 59.6078C92.0093 59.6882 91.8786 59.6882 91.7979 59.6078L87.7159 55.5391C87.6354 55.4589 87.6354 55.3286 87.7159 55.2483ZM95.734 55.3936L91.9438 51.6158L88.1537 55.3936L91.9438 59.1716L95.734 55.3936Z" fill="#00D6DE"/>
<path fill-rule="evenodd" clip-rule="evenodd" d="M72.4755 36.4811C72.4755 37.3212 71.7922 38.0022 70.9494 38.0022C70.1066 38.0022 69.4233 37.3212 69.4233 36.4811C69.4233 35.641 70.1066 34.96 70.9494 34.96C71.7922 34.96 72.4755 35.641 72.4755 36.4811Z" fill="#00D6DE"/>
<path fill-rule="evenodd" clip-rule="evenodd" d="M71.9728 36.1936C71.9728 36.4207 71.7881 36.6049 71.5604 36.6049C71.3326 36.6049 71.1479 36.4207 71.1479 36.1936C71.1479 35.9664 71.3326 35.7822 71.5604 35.7822C71.7881 35.7822 71.9728 35.9664 71.9728 36.1936Z" fill="#F5F5FF"/>
<path fill-rule="evenodd" clip-rule="evenodd" d="M65.279 33.5967C65.279 34.1339 64.8422 34.5694 64.3031 34.5694C63.7642 34.5694 63.3274 34.1339 63.3274 33.5967C63.3274 33.0596 63.7642 32.624 64.3031 32.624C64.8422 32.624 65.279 33.0596 65.279 33.5967Z" fill="#00D6DE"/>
<path fill-rule="evenodd" clip-rule="evenodd" d="M64.1639 33.3536C64.1639 33.488 64.0546 33.5969 63.9198 33.5969C63.7851 33.5969 63.6758 33.488 63.6758 33.3536C63.6758 33.2192 63.7851 33.1104 63.9198 33.1104C64.0546 33.1104 64.1639 33.2192 64.1639 33.3536Z" fill="#F5F5FF"/>
<path fill-rule="evenodd" clip-rule="evenodd" d="M7.38665 44.0173C7.30493 43.938 7.17422 43.9398 7.0947 44.0213C3.69175 47.5074 1.90443 52.4504 2.58573 56.9756L2.60761 57.1144C3.00907 59.5637 4.24483 61.8115 5.98964 63.4748L6.03147 63.5142L6.01909 63.6421C5.64679 67.7361 7.27659 72.1435 10.3932 75.7383C14.7507 80.7641 21.7397 83.137 28.7589 82.2321C34.2164 81.5285 39.3904 78.7447 43.1395 74.5559C43.2153 74.471 43.2079 74.341 43.1229 74.2654C43.0378 74.1897 42.9074 74.1971 42.8315 74.2819C39.1476 78.398 34.0636 81.1334 28.7059 81.824C21.8191 82.7118 14.9685 80.386 10.7054 75.4692L10.5812 75.3245C7.70171 71.9389 6.16561 67.8478 6.40473 64.0225L6.41574 63.8604L6.49677 63.9296C7.91854 65.1283 9.62649 65.9555 11.4701 66.2337C13.8846 66.5981 16.5228 65.8103 18.5099 64.1824C20.5872 62.4808 21.6971 60.0878 21.4119 57.5601C21.2194 55.8523 20.1955 54.5947 18.6126 53.9188C17.1978 53.3148 15.4341 53.2325 13.8796 53.673C11.1106 54.4579 8.69726 56.553 7.27975 59.2851L7.20202 59.4379C6.64027 60.5613 6.27719 61.7496 6.09833 62.9721L6.09434 63.001L6.08155 62.9884C4.47212 61.3759 3.34326 59.2348 2.99394 56.9145C2.33258 52.522 4.07409 47.7057 7.39064 44.3082C7.47003 44.2267 7.46824 44.0966 7.38665 44.0173ZM13.9925 54.0687C15.4582 53.6533 17.1247 53.7311 18.4502 54.2971C19.9022 54.9169 20.8266 56.0524 21.0018 57.6062C21.2703 59.9874 20.2224 62.2472 18.2478 63.8646C16.3487 65.4202 13.8271 66.1734 11.5319 65.827L11.4028 65.8065C9.59842 65.5069 7.9312 64.6561 6.55896 63.4386L6.46499 63.3541L6.48315 63.2073C6.65293 61.9105 7.03485 60.6531 7.64641 59.4741C9.01356 56.839 11.3379 54.8212 13.9925 54.0687Z" fill="#00D6DE"/>
<path d="M89.0796 69.7881C91.1783 69.7881 93.0685 70.9599 94.016 72.786C94.4195 73.5639 94.6328 74.428 94.6328 75.3232C94.6328 75.8024 94.5717 76.2737 94.4522 76.7293C94.4233 76.8393 94.3104 76.9049 94.2002 76.8763C94.0899 76.8475 94.024 76.735 94.0527 76.6252C94.1635 76.2035 94.22 75.7671 94.22 75.3232C94.22 74.4942 94.0228 73.6947 93.6494 72.975C92.7721 71.2841 91.0224 70.1995 89.0796 70.1995C86.2685 70.1995 83.9842 72.4479 83.9388 75.2385L83.9383 75.3552L83.9391 75.3822C83.9446 75.4956 83.8568 75.5921 83.7429 75.5976C83.6291 75.6031 83.5323 75.5156 83.5268 75.4021L83.5261 75.3818L83.5255 75.3523L83.5254 75.3232C83.5254 72.2663 86.0122 69.7881 89.0796 69.7881Z" fill="#00D6DE"/>
<path d="M94.4511 72.627C96.7321 72.627 98.5812 74.4703 98.5812 76.7435C98.5812 79.017 96.7321 80.8604 94.4511 80.8604C94.3371 80.8604 94.2447 80.7684 94.2447 80.6547C94.2447 80.5411 94.3371 80.449 94.4511 80.449C96.5041 80.449 98.1684 78.7897 98.1684 76.7435C98.1684 74.6976 96.5041 73.0384 94.4511 73.0384C94.2551 73.0384 94.0596 73.054 93.8643 73.0844C93.7518 73.1021 93.6461 73.0253 93.6285 72.9132C93.6108 72.801 93.6878 72.6957 93.8004 72.6781C94.0165 72.6442 94.2333 72.627 94.4511 72.627Z" fill="#00D6DE"/>
<path d="M83.7186 75.188C83.8324 75.1804 83.9307 75.266 83.9384 75.3794C83.9461 75.4927 83.8602 75.5909 83.7464 75.5986C82.4729 75.6843 81.4779 76.741 81.4779 78.0201C81.4779 79.3621 82.5683 80.4492 83.9138 80.4492C84.0279 80.4492 84.1202 80.5412 84.1202 80.6549C84.1202 80.7685 84.0279 80.8606 83.9138 80.8606C82.3403 80.8606 81.0652 79.5894 81.0652 78.0201C81.0652 76.5242 82.2287 75.2883 83.7186 75.188Z" fill="#00D6DE"/>
<path d="M86.6018 79.2148C86.709 79.2148 86.797 79.2964 86.807 79.4007L86.808 79.4205V82.5092C86.808 82.6227 86.7156 82.7149 86.6018 82.7149C86.4945 82.7149 86.4065 82.6333 86.3965 82.5289L86.3955 82.5092V79.4205C86.3955 79.3069 86.4879 79.2148 86.6018 79.2148Z" fill="#00D6DE"/>
<path d="M89.1914 79.2148C89.2986 79.2148 89.3867 79.2964 89.3966 79.4007L89.3976 79.4205V84.4555C89.3976 84.5691 89.3053 84.6612 89.1914 84.6612C89.0842 84.6612 88.9961 84.5796 88.9861 84.4753L88.9851 84.4555V79.4205C88.9851 79.3069 89.0775 79.2148 89.1914 79.2148Z" fill="#00D6DE"/>
<path d="M91.7805 79.2148C91.8877 79.2148 91.9759 79.2964 91.9859 79.4007L91.9867 79.4205V82.5092C91.9867 82.6227 91.8945 82.7149 91.7805 82.7149C91.6734 82.7149 91.5852 82.6333 91.5752 82.5289L91.5742 82.5092V79.4205C91.5742 79.3069 91.6666 79.2148 91.7805 79.2148Z" fill="#00D6DE"/>
<path d="M27.1867 3.56348C27.5258 3.56348 27.8564 3.6134 28.1704 3.71117C28.2791 3.74505 28.3398 3.86038 28.3058 3.96885C28.2718 4.07719 28.1561 4.13767 28.0473 4.1038C27.7733 4.0185 27.4843 3.97489 27.1867 3.97489C25.5756 3.97489 24.2697 5.277 24.2697 6.88384C24.2697 8.48985 25.5762 9.79278 27.1867 9.79278C27.3007 9.79278 27.3931 9.88494 27.3931 9.99849C27.3931 10.1122 27.3007 10.2042 27.1867 10.2042C25.3482 10.2042 23.8569 8.71694 23.8569 6.88384C23.8569 5.04977 25.3476 3.56348 27.1867 3.56348Z" fill="#00D6DE"/>
<path d="M35.7201 4.80352C35.7552 4.69545 35.8716 4.63621 35.98 4.67118C37.1438 5.04707 37.9473 6.13141 37.9473 7.36976C37.9473 8.936 36.6736 10.2055 35.1024 10.2055C34.3808 10.2055 33.7009 9.93669 33.18 9.46069C33.0959 9.38389 33.0903 9.25375 33.1673 9.17009C33.2444 9.0863 33.3749 9.08068 33.4589 9.15747C33.9043 9.5645 34.4851 9.79406 35.1024 9.79406C36.4456 9.79406 37.5346 8.70876 37.5346 7.36976C37.5346 6.31106 36.8475 5.38388 35.8528 5.06257C35.7444 5.0276 35.6849 4.91158 35.7201 4.80352Z" fill="#00D6DE"/>
<path d="M32.0435 0C34.3334 0 36.1914 1.85203 36.1914 4.13468C36.1914 4.39469 36.167 4.65333 36.1191 4.90484C36.0979 5.01647 35.9899 5.08984 35.8779 5.06872C35.7659 5.0476 35.6924 4.93994 35.7136 4.82831C35.7565 4.6019 35.7787 4.36904 35.7787 4.13468C35.7787 2.07927 34.1054 0.411411 32.0435 0.411411C30.0609 0.411411 28.4267 1.95598 28.3147 3.92006C28.3083 4.03347 28.2109 4.12028 28.0971 4.11383C27.9832 4.10739 27.8962 4.01016 27.9027 3.89674C28.0271 1.71517 29.8418 0 32.0435 0Z" fill="#00D6DE"/>
<path d="M27.724 9.79297C27.838 9.79297 27.9303 9.88512 27.9303 9.99867C27.9303 10.1056 27.8485 10.1935 27.744 10.2034L27.724 10.2044H27.187C27.0731 10.2044 26.9807 10.1124 26.9807 9.99867C26.9807 9.89171 27.0625 9.80394 27.1672 9.79393L27.187 9.79297H27.724Z" fill="#00D6DE"/>
<path d="M29.3789 7.58691C29.4861 7.58691 29.5741 7.66851 29.5841 7.77287L29.5851 7.79262V12.9571C29.5851 13.0707 29.4927 13.1628 29.3789 13.1628C29.2716 13.1628 29.1835 13.0812 29.1736 12.9769L29.1726 12.9571V7.79262C29.1726 7.67907 29.265 7.58691 29.3789 7.58691Z" fill="#00D6DE"/>
<path d="M31.6293 5.77148C31.7366 5.77148 31.8247 5.85308 31.8348 5.95744L31.8356 5.97719V11.1416C31.8356 11.2552 31.7433 11.3473 31.6293 11.3473C31.5222 11.3473 31.4341 11.2657 31.4241 11.1614L31.4231 11.1416V5.97719C31.4231 5.86364 31.5155 5.77148 31.6293 5.77148Z" fill="#00D6DE"/>
<path d="M67.0249 36.9015C67.0599 36.8004 67.1659 36.7439 67.2682 36.7684L67.2873 36.774L68.868 37.3157C68.9757 37.3526 69.0331 37.4695 68.9959 37.577C68.9611 37.6781 68.855 37.7348 68.7528 37.7102L68.7337 37.7047L67.153 37.163C67.0453 37.126 66.9879 37.009 67.0249 36.9015Z" fill="#00D6DE"/>
<path d="M66.2344 37.9953C66.2693 37.8942 66.3754 37.8376 66.4776 37.8621L66.4968 37.8676L68.0774 38.4095C68.1852 38.4465 68.2425 38.5635 68.2054 38.671C68.1706 38.772 68.0645 38.8285 67.9623 38.8041L67.9432 38.7985L66.3625 38.2567C66.2547 38.2198 66.1974 38.1028 66.2344 37.9953Z" fill="#00D6DE"/>
</svg>
