<svg width="667" height="521" viewBox="0 0 667 521" fill="none" xmlns="http://www.w3.org/2000/svg">
<path opacity="0.1" d="M374.126 509.943C535.457 509.943 666.242 497.326 666.242 481.763C666.242 466.199 535.457 453.582 374.126 453.582C212.795 453.582 82.0098 466.199 82.0098 481.763C82.0098 497.326 212.795 509.943 374.126 509.943Z" fill="#262AF2"/>
<g opacity="0.5">
<path fill-rule="evenodd" clip-rule="evenodd" d="M118.11 293.826C111.944 291.94 105.842 289.799 99.5921 288.255C94.9576 287.111 90.1374 286.765 85.3486 287.821C78.2455 289.389 73.04 294.972 72.2853 302.134C71.5927 308.711 74.5108 312.53 80.1913 314.237C83.1141 315.114 86.1424 314.976 89.119 314.131C93.0601 313.012 96.2603 310.708 99.3493 308.13C105.314 303.153 110.841 297.576 118.11 293.826ZM92.3765 267.927C92.4219 261.944 92.5629 256.223 92.4722 250.505C92.4196 247.168 92.3043 243.778 91.6731 240.514C90.445 234.16 87.4099 228.729 82.0038 224.88C76.9209 221.259 70.7608 221.14 65.8178 224.429C60.4802 227.98 57.8658 234.302 59.1939 240.234C59.6495 242.269 60.4323 244.136 61.8292 245.656C63.6807 247.671 65.5017 249.776 67.6411 251.457C75.4329 257.58 83.9936 262.57 92.3765 267.927ZM126.743 289.604C130.231 287.468 133.33 285.569 136.429 283.673C142.594 279.9 147.183 274.709 150.046 268.113C153.693 259.709 152.515 251.81 146.815 244.659C143.612 240.642 138.914 239.523 134.09 241.291C131.701 242.167 129.721 243.626 128.036 245.506C124.58 249.359 122.956 253.986 122.494 259.037C122.278 261.408 122.237 263.821 122.391 266.198C122.904 274.087 125.158 281.656 126.743 289.604ZM183.159 383.109C183.18 382.907 183.201 382.704 183.223 382.502C178.533 380.492 173.872 378.409 169.146 376.488C161.999 373.584 154.592 371.61 146.878 371.065C140.386 370.606 133.994 371.209 128.024 374.125C124.283 375.953 121.182 378.569 119.346 382.408C114.753 392.013 121.274 403.386 132.034 404.783C138.331 405.6 144.178 404.087 149.691 401.314C154.659 398.815 159.405 395.867 164.235 393.094C168.3 390.76 172.3 388.309 176.416 386.072C178.566 384.904 180.905 384.085 183.159 383.109ZM164.513 338.821C158.261 336.819 153.449 332.737 148.105 329.565C143.494 326.827 138.869 324.068 134.038 321.759C128.711 319.213 123.007 318.079 117.056 319.222C108.12 320.939 101.22 330.263 104.176 340.231C106.65 348.573 115.044 355.828 123.753 356.623C133.025 357.469 141.629 355.496 149.255 349.972C154.24 346.362 159.196 342.709 164.513 338.821ZM175.307 333.299C181.374 331.218 187.226 329.251 193.048 327.2C196.581 325.954 199.811 324.102 202.748 321.801C211.6 314.867 217.349 305.988 218.803 294.77C219.909 286.238 215.927 278.543 206.59 276.881C203.819 276.388 201.111 276.725 198.457 277.516C191.366 279.631 186.302 284.177 182.797 290.558C179.156 297.188 177.603 304.386 177.106 311.852C176.761 317.04 176.559 322.238 176.192 327.424C176.058 329.328 175.631 331.211 175.307 333.299ZM196.527 428.194C195.474 427.998 194.551 427.835 193.632 427.654C189.312 426.801 184.981 426.005 180.679 425.07C175.6 423.967 170.575 422.604 165.476 421.608C159.745 420.486 153.951 420.13 148.145 421.287C144.098 422.093 140.332 423.559 137.155 426.263C133.04 429.766 130.994 434.251 131.555 439.673C132.583 449.606 140.56 456.518 148.315 458.467C153.532 459.78 158.616 458.986 163.487 456.601C167.904 454.439 171.79 451.506 175.399 448.24C182.353 441.947 189.163 435.493 196.025 429.096C196.2 428.933 196.273 428.659 196.527 428.194ZM205.309 426.999C205.944 427.265 206.252 427.438 206.582 427.526C215.312 429.843 224.021 432.247 232.785 434.428C238.42 435.83 244.209 436.069 249.871 434.789C256.958 433.185 263.249 429.857 268.862 425.197C271.975 422.612 273.704 419.368 274.252 415.496C274.975 410.392 273.913 405.698 269.574 402.474C264.381 398.617 258.532 396.76 251.922 397.415C243.235 398.276 235.476 401.445 228.367 406.316C221.573 410.97 215.328 416.302 209.498 422.104C208.02 423.575 206.773 425.275 205.309 426.999ZM195.012 380.862C202.05 380.932 208.729 381.063 215.408 381.045C221.331 381.029 227.196 380.425 232.867 378.53C243.283 375.05 251.746 369.062 257.32 359.333C259.472 355.576 260.929 351.649 260.751 347.235C260.533 341.822 257.587 337.81 252.476 336.144C246.486 334.191 240.612 334.984 234.908 337.29C226.704 340.608 220.153 346.226 214.262 352.716C206.6 361.157 201.824 371.567 195.012 380.862ZM202.531 425.461C203.08 424.911 203.405 424.632 203.677 424.307C210.708 415.88 219.104 408.988 228.179 402.932C235.971 397.733 244.555 394.568 254.04 394.399C259.498 394.301 264.807 395.023 269.494 398.203C275.708 402.419 278.342 408.229 277.703 415.703C276.985 424.094 272.023 429.4 265.105 433.174C261.868 434.94 258.37 436.315 254.863 437.486C247.25 440.027 239.472 439.521 231.826 437.725C223.297 435.723 214.868 433.296 206.394 431.06C205.556 430.839 204.706 430.665 203.638 430.417C203.674 431.188 203.646 431.777 203.736 432.348C204.984 440.204 206.254 448.057 207.504 455.914C207.801 457.778 207.481 458.594 206.467 458.774C205.35 458.972 204.631 458.247 204.322 456.312C203.373 450.377 202.51 444.428 201.56 438.493C201.146 435.907 200.6 433.343 200.036 430.36C198.978 431.218 198.207 431.773 197.517 432.414C191.95 437.594 186.484 442.888 180.809 447.948C177.251 451.12 173.524 454.143 169.628 456.884C164.389 460.569 158.574 462.748 151.984 462.413C140.877 461.848 130.708 453.259 128.405 442.389C126.49 433.349 131.178 424.723 140.181 420.701C146.321 417.957 152.77 417.341 159.391 417.9C165.497 418.415 171.416 419.912 177.372 421.252C183.753 422.687 190.169 423.968 196.577 425.285C197.247 425.423 197.961 425.346 198.983 425.379C195.913 411.834 192.508 398.602 188.584 385.265C184.334 386.483 180.367 387.928 176.668 389.967C172.332 392.359 168.17 395.063 163.848 397.481C158.911 400.242 153.979 403.042 148.867 405.449C143.501 407.974 137.765 408.884 131.794 408.114C120.465 406.655 112.701 395.897 115.204 384.91C116.434 379.509 119.851 375.655 124.424 372.77C129.669 369.461 135.558 368.387 141.637 368.076C147.524 367.774 153.286 368.679 158.958 370.117C166.356 371.994 173.464 374.687 180.324 378.046C182.376 379.052 184.526 379.858 187.242 381.016C182.852 366.352 177.512 352.723 170.296 339.39C166.92 341.549 163.679 343.488 160.583 345.635C157.022 348.104 153.661 350.862 150.088 353.312C141.673 359.081 132.228 360.9 122.26 359.671C112.037 358.409 102.518 349.055 100.57 338.903C98.4522 327.863 106.296 317.291 117.811 315.693C124.162 314.811 130.101 316.368 135.878 318.832C142.916 321.833 149.145 326.207 155.512 330.353C158.395 332.23 161.193 334.296 164.585 335.224C165.563 335.492 166.57 335.656 167.563 335.868C167.68 335.706 167.796 335.543 167.913 335.381C167.396 334.508 166.903 333.62 166.361 332.763C159.151 321.38 149.659 312.213 138.702 304.503C134.874 301.809 130.873 299.362 127.012 296.713C125.95 295.983 124.979 295.915 123.78 296.142C118.946 297.059 114.822 299.359 111.096 302.468C107.293 305.641 103.51 308.839 99.6996 312.003C96.3795 314.76 92.6733 316.755 88.3877 317.557C84.7449 318.238 81.1369 318.116 77.7012 316.663C71.4769 314.03 68.4014 308.49 69.2616 301.707C70.3782 292.905 76.6228 286.266 85.3856 284.584C90.9751 283.512 96.5099 284.144 101.946 285.468C105.978 286.451 109.907 287.854 114.093 288.751C113.525 288.311 112.985 287.826 112.384 287.438C104.136 282.107 96.2907 276.235 88.5321 270.215C84.4359 267.037 79.8141 264.53 75.3939 261.777C70.8873 258.969 66.4195 256.123 62.638 252.337C59.7791 249.475 57.4936 246.262 56.3778 242.321C54.2971 234.973 56.7106 228.834 61.877 223.737C66.8427 218.839 72.9117 217.649 79.5414 219.836C82.7052 220.88 85.3504 222.823 87.6068 225.258C92.2132 230.23 94.965 236.116 95.5017 242.846C95.8657 247.41 95.642 252.02 95.7287 256.608C95.7927 259.962 95.795 263.326 96.0776 266.664C96.2408 268.596 96.6372 271.357 96.6372 271.357C96.6372 271.357 100.027 275.252 101.972 276.519C108.56 280.81 115.075 285.213 121.632 289.553C122.048 289.828 122.816 290.723 123.592 291.049C122.891 287.739 122.024 283.954 121.353 280.948C119.754 273.768 118.399 266.566 119.143 259.151C119.782 252.797 121.888 247.067 126.627 242.606C131.271 238.234 136.65 236.419 142.956 238.554C145.832 239.528 148.037 241.434 149.772 243.833C155.797 252.166 156.663 261.076 152.376 270.394C149.188 277.322 144.279 282.782 137.722 286.737C135.298 288.2 132.887 289.683 130.52 291.234C129.678 291.785 128.985 292.564 127.952 293.48C129.134 294.255 129.989 294.831 130.858 295.385C140.719 301.678 150.178 308.473 158.202 317.082C162.317 321.496 166.019 326.225 169.242 331.326C169.753 332.133 170.281 332.929 170.936 333.939C172.387 331.786 172.549 329.547 172.74 327.418C173.141 322.932 173.253 318.421 173.535 313.924C174.007 306.384 175.078 298.983 178.27 292.014C182.479 282.828 188.933 276.26 199.05 273.889C207.344 271.945 215.328 275.102 219.28 281.909C221.679 286.042 222.383 290.57 221.71 295.24C220.084 306.501 214.581 315.64 206.032 323.008C200.774 327.539 194.539 330.207 188 332.328C183.629 333.746 179.352 335.451 175.031 337.02C174.452 337.23 173.858 337.398 173.016 337.667C180.527 351.398 185.837 365.52 190.515 380.426C191.598 379.299 192.611 378.5 193.3 377.483C195.771 373.825 198.199 370.134 200.521 366.38C204.2 360.43 208.094 354.649 212.887 349.52C218.371 343.651 224.504 338.61 231.873 335.283C238.755 332.176 245.884 330.972 253.293 333.335C259.998 335.474 263.909 340.789 264.02 347.824C264.109 353.449 262.021 358.368 259.031 362.958C251.355 374.743 240.11 380.954 226.56 383.421C220.176 384.584 213.709 384.343 207.253 384.175C203.986 384.09 200.711 384.109 197.444 384.221C195.702 384.281 193.971 384.637 192.079 384.878C195.575 398.451 199.003 411.761 202.531 425.461Z" fill="#00D6DE"/>
<path fill-rule="evenodd" clip-rule="evenodd" d="M418.803 432.766C414.863 419.373 410.32 406.319 404.639 393.689C398.983 381.117 391.781 369.4 384.657 357.646C371.865 336.536 359.14 315.39 347.753 293.473C343.429 285.149 339.328 276.729 337.041 267.559C336.88 266.915 336.603 266.298 336.233 265.248C335.548 266.215 335.058 266.733 334.766 267.345C332.676 271.705 332.107 276.387 332.744 281.073C333.485 286.522 334.423 291.99 335.86 297.291C339.644 311.258 346.206 324.045 353.194 336.627C364.004 356.09 377.211 373.912 390.75 391.497C400.73 404.46 410.709 417.41 418.221 432.043C418.359 432.313 418.606 432.527 418.803 432.766ZM421.856 428.241C421.975 428.215 422.094 428.188 422.213 428.162C422.213 427.678 422.293 427.178 422.201 426.713C420.476 418.041 419.08 409.285 416.914 400.725C412.979 385.175 407.347 370.154 401.74 355.146C393.833 333.984 385.455 313.024 374.918 292.995C370.095 283.827 364.46 275.241 357.4 267.631C354.449 264.45 351.163 261.783 346.763 260.935C344.172 260.435 341.67 260.551 339.618 262.274C341.538 271.202 344.847 279.379 348.851 287.294C357.22 303.836 366.448 319.898 375.942 335.81C380.794 343.945 385.519 352.163 390.613 360.145C403.631 380.545 413.395 402.427 420.859 425.392C421.17 426.348 421.523 427.292 421.856 428.241ZM473.705 174.772C473.331 175.443 473.107 175.782 472.942 176.148C463.328 197.463 457.327 219.847 453.606 242.855C451.411 256.422 449.537 270.049 447.82 283.686C446.207 296.501 444.83 309.35 443.641 322.211C442.546 334.037 441.917 345.904 440.942 357.742C439.633 373.629 438.185 389.505 436.805 405.385C436.555 408.263 435.738 414.142 435.511 417.021C436.142 416.046 437.093 412.063 437.248 411.05C439.587 395.713 442.094 380.398 444.164 365.023C445.886 352.226 446.995 339.347 448.541 326.524C450.735 308.317 455.409 290.741 462.809 273.961C467.303 263.772 472.188 253.753 476.969 243.692C482.394 232.277 485.714 220.308 486.575 207.691C487.068 200.481 486.977 193.308 484.316 186.42C482.323 181.26 479.046 177.278 473.705 174.772ZM431.446 415.373C431.634 415.376 431.823 415.379 432.011 415.382C432.127 414.523 432.278 413.667 432.352 412.803C433.253 402.425 434.147 392.046 435.032 381.666C436.006 370.247 436.954 358.826 437.94 347.408C439.428 330.18 440.689 312.927 442.511 295.734C444.53 276.68 447.006 257.673 450.427 238.804C454.17 218.153 459.306 197.912 467.805 178.638C468.467 177.137 469.001 175.579 469.587 174.066C469.168 173.866 468.993 173.723 468.805 173.704C468.288 173.652 467.766 173.622 467.247 173.637C460.956 173.817 455.586 176.399 450.653 180.075C442.896 185.858 437.817 193.631 434.243 202.475C427.814 218.383 425.009 235.093 423.616 252.075C422.284 268.303 422.359 284.564 422.996 300.822C423.821 321.861 425.651 342.827 427.488 363.795C428.853 379.362 429.907 394.954 431.097 410.535C431.22 412.147 431.33 413.76 431.446 415.373ZM427.897 439.502C427.897 433.156 428.242 426.789 427.832 420.471C426.613 401.655 425.128 382.856 423.687 364.056C422.478 348.267 420.961 332.499 419.985 316.697C418.814 297.761 418.221 278.792 419.28 259.825C420.359 240.518 422.934 221.464 429.855 203.242C433.496 193.655 438.582 185.04 446.637 178.434C451.037 174.826 455.848 172.01 461.412 170.635C472.647 167.86 480.968 172.616 486.051 181.257C488.911 186.12 490.103 191.512 490.4 197.072C491.322 214.313 487.455 230.551 480.063 246.062C475.003 256.679 469.846 267.264 465.214 278.069C458.448 293.852 454.269 310.392 452.253 327.449C450.908 338.826 449.85 350.237 448.482 361.61C445.186 389.025 441.321 416.344 433.302 442.874C431.65 448.339 429.715 453.717 427.954 459.15C427.578 460.309 426.914 461.101 425.714 460.716C424.514 460.331 422.765 460.285 422.708 458.482C422.301 445.498 415.544 434.953 409.417 424.239C403.352 413.637 395.687 404.12 388.253 394.461C373.761 375.632 359.654 356.54 348.279 335.585C341.358 322.837 335.077 309.824 331.417 295.705C329.474 288.212 328.046 280.655 329.191 272.848C329.649 269.72 330.537 266.761 332.26 264.081C336.37 257.688 343.011 255.417 350.165 257.963C354.414 259.475 357.692 262.323 360.667 265.591C367.224 272.794 372.662 280.775 377.267 289.349C385.805 305.243 392.898 321.789 399.459 338.571C407.04 357.964 414.372 377.451 420.038 397.508C423.841 410.97 426.182 424.714 427.367 438.654C427.392 438.955 427.487 439.249 427.549 439.547C427.665 439.532 427.781 439.517 427.897 439.502Z" fill="#00D6DE"/>
</g>
<path fill-rule="evenodd" clip-rule="evenodd" d="M185.237 245.669C186.097 246.45 186.994 247.213 187.725 248.106C190.003 250.892 190.102 253.526 188.15 256.597C186.929 258.521 187 258.575 188.561 260.065C192.746 264.06 193.474 268.069 189.403 272.426C189.348 272.485 189.293 272.545 189.239 272.605C188.432 273.5 188.509 274.888 189.425 275.672C191.086 277.095 192.288 278.769 193.243 280.672C194.72 283.615 194.748 286.418 192.721 289.105C191.872 290.23 190.949 291.298 190.085 292.412C190.058 292.447 190.031 292.482 190.005 292.517C189.479 293.234 189.601 294.234 190.28 294.808C192.249 296.475 193.414 298.59 193.847 301.105C194.305 303.769 192.691 305.765 191.459 307.996C191.076 308.689 191.236 309.547 191.823 310.077C194.02 312.059 195.525 314.501 196.613 317.255C197.761 320.163 197.756 322.897 196.416 325.794C194.919 329.03 194.325 330.134 197.403 332.915C200.664 335.861 200.851 339.64 198.674 343.44C195.759 348.529 195.619 348.817 189.879 350.099C183.717 351.476 177.48 352.515 171.28 353.727C170.691 353.842 170.056 353.869 169.449 354.066C168.487 354.378 168.769 355.814 169.779 355.748L169.85 355.743C171.505 355.635 173.154 355.439 174.785 355.138C181.55 353.89 188.383 352.937 194.925 350.675C196.937 349.979 197.955 350.334 199.093 352.086C200.679 354.528 200.228 357.007 199.191 359.48C198.853 360.287 198.444 361.063 198.157 361.663C198.376 362.052 198.4 362.164 198.461 362.191C198.982 362.424 199.511 362.644 200.039 362.864C203.016 364.1 204.808 366.96 204.635 370.184C204.459 373.443 203.346 375.954 199.825 376.888C197.663 377.463 195.571 378.312 193.468 379.092L193.446 379.099C192.28 379.535 192.875 381.304 194.061 380.928C194.135 380.904 194.208 380.88 194.281 380.855C196.876 379.972 199.577 379.28 201.999 378.048C204.143 376.959 205.846 377.306 207.515 378.605C208.683 379.514 209.902 380.506 210.687 381.725C212.333 384.278 213.082 386.989 209.721 389.526C205.26 392.894 200.688 396.048 195.639 398.478L195.498 398.546C194.375 399.11 195.145 400.837 196.302 400.348C196.502 400.263 196.696 400.17 196.888 400.072C202.775 397.093 208.35 393.648 213.101 389C213.627 388.485 214.186 387.875 214.845 387.652C216.643 387.041 218.482 386.514 220.341 386.132C222.716 385.645 225.162 386.609 226.617 388.549C226.931 388.966 227.239 389.388 227.55 389.809C228.077 389.771 228.498 389.793 228.893 389.701C229.944 389.456 230.978 389.137 232.029 388.895C233.32 388.597 234.613 388.176 235.919 388.113C238.324 387.999 239.949 389.193 240.836 391.452C240.598 391.655 240.338 391.86 240.098 392.084C236.521 395.439 232.927 398.778 229.385 402.169C229.3 402.25 229.214 402.333 229.13 402.418C228.273 403.277 229.496 404.609 230.425 403.829C230.584 403.694 230.739 403.556 230.888 403.412C233.341 401.042 235.665 398.53 238.207 396.26C240.241 394.443 242.359 392.606 244.732 391.314C247.259 389.939 250.085 389.041 252.863 388.211C257.056 386.959 260.809 388.392 263.585 392.038C261.83 394.339 259.987 396.593 258.329 398.975C257.219 400.568 255.79 401.954 254.633 403.62C253.913 404.657 255.435 405.798 256.23 404.818C256.358 404.661 256.48 404.501 256.603 404.346C258.873 401.475 261.085 398.557 263.289 395.634C264.12 394.532 264.869 393.37 265.883 391.907C269.083 391.558 272.654 391.462 276.103 392.541C279.154 393.496 279.685 395.309 277.684 397.78C270.771 406.312 263.948 414.926 256.754 423.215C253.009 427.531 248.658 431.346 244.389 435.172C241.252 437.983 237.365 439.298 233.129 439.224C224.021 439.063 214.952 438.572 205.973 436.686C205.595 436.607 205.218 436.529 204.84 436.454L203.961 455.625L219.108 465.597L249.143 490.762C249.841 493.432 253.298 495.369 259.513 496.572C268.835 498.377 267.903 522.418 255.135 518.977C246.622 516.683 243.459 511 245.643 501.926L228.883 486.116L208.41 468.213L214.878 485.603L218.053 486.858C221.865 491.569 222.217 495.986 219.108 500.107C216 504.229 211.819 504.835 206.566 501.926L203.961 496.059L204.95 490.762L195.347 459.869L178.304 475.958L152.071 496.572L154.323 500.107C154.297 509.957 150.892 513.852 144.109 511.792C133.934 508.703 135.269 501.352 135.269 497.326C135.269 494.643 138.408 492.454 144.686 490.762L189.378 454.55L190.193 434.27C190.137 434.264 190.081 434.257 190.025 434.251C181.384 433.283 173.08 431.178 165.155 427.671C155.89 423.574 149.51 416.863 146.727 406.971C146.457 406.012 146.084 405.075 145.89 404.101C143.554 392.362 141.245 380.618 138.925 368.876C135.17 349.873 131.538 330.846 127.615 311.878C124.822 298.376 121.676 284.947 118.693 271.484C118.165 269.102 117.709 266.702 117.325 264.294C116.618 259.862 116.751 259.093 120.054 258.122C121.09 257.817 122.141 257.557 123.197 257.332C142.712 253.189 162.23 249.06 181.743 244.907C183.059 244.627 184.231 244.756 185.237 245.669Z" fill="#F5F5FF"/>
<path fill-rule="evenodd" clip-rule="evenodd" d="M127.622 266.875C127.625 268.726 126.774 270.904 124.753 270.072C122.804 269.27 121.703 267.154 121.603 265.106C121.562 264.245 121.844 263.052 122.778 262.775C124.663 262.215 126.64 263.561 127.353 265.277C127.527 265.696 127.62 266.268 127.622 266.875ZM182.826 242.854C162.895 247.054 142.97 251.278 123.047 255.514C121.666 255.808 120.285 256.147 118.95 256.599C116.229 257.52 115.139 258.993 115.465 261.888C115.846 265.269 116.408 268.645 117.134 271.971C120.734 288.462 124.632 304.891 128.009 321.426C132.019 341.058 135.576 360.782 139.391 380.455C140.942 388.453 142.63 396.424 144.309 404.396C144.633 405.935 145.196 407.425 145.667 408.932C148.512 418.031 154.454 424.428 162.859 428.703C168.311 431.476 174.13 433.175 180.025 434.647C182.826 435.347 185.655 435.936 188.715 436.631V454.172C188.456 454.395 187.949 454.962 187.33 455.35C180.098 459.883 173.97 465.808 167.425 471.198C159.717 477.546 151.655 484.515 144.011 490.942C144.011 490.942 142.715 490.993 141.796 491.186C135.689 492.468 132.803 498.22 134.746 504.174C136.352 509.095 140.987 512.644 146.124 512.884C152.954 513.203 157.397 506.953 155.091 500.252C154.821 499.468 154.178 498.076 153.756 497.099C154.483 496.335 156.123 494.938 156.995 494.208C160.058 491.644 162.379 490.084 165.633 487.787C175.681 480.695 184.483 472.221 193.134 463.561C193.596 463.099 194.095 462.673 194.812 462.014C195.181 463.059 195.485 463.893 195.769 464.734C198.478 472.769 201.157 480.815 203.922 488.831C204.306 489.943 204.301 490.138 204.205 490.378C203.448 492.283 203.01 495.835 203.466 497.818C204.597 502.731 209.292 505.617 214.352 504.573C220.23 503.36 224.077 496.864 222.301 491.135C221.461 488.43 219.12 485.931 215.794 485.154C215.794 485.154 215.155 484.19 214.719 482.938C213.679 479.954 212.51 477.017 211.41 474.055C211.158 473.377 210.972 472.674 210.908 471.885C222.737 481.504 233.821 491.887 245.068 502.154C244.744 503.507 244.331 504.767 244.15 506.061C243.184 512.963 247.19 518.666 253.768 519.838C259.892 520.93 266.324 516.429 267.721 510.074C269.205 503.319 265.661 497.117 259.349 495.44C258.869 495.312 256.035 494.501 254.635 494.643C254.594 494.6 254.169 494.152 252.747 492.805C240.157 480.882 226.744 469.96 212.606 459.923C210.167 458.192 207.783 456.385 205.342 454.59C205.788 449.599 206.229 444.662 206.692 439.482C208.652 439.644 210.372 439.812 212.096 439.924C219.231 440.389 226.363 440.917 233.505 441.263C237.992 441.48 242.052 440.004 245.558 437.231C247.838 435.428 250.027 433.491 252.108 431.461C262.302 421.514 271.129 410.409 279.702 399.132C281.828 396.334 280.84 392.196 277.595 390.849C276.561 390.42 275.385 390.198 274.092 390.139L272.733 390.077C270.694 389.987 268.652 389.917 266.618 389.992C265.617 390.029 264.944 389.829 264.15 389.243C262.759 388.215 261.288 387.221 259.709 386.538C257.243 385.469 254.653 385.66 252.143 386.54C249.175 387.582 246.231 388.692 243.076 389.846C240.028 385.575 235.877 385.562 231.357 387.235C230.813 387.436 230.239 387.56 229.675 387.7C229.519 387.739 229.346 387.706 228.705 387.706C228.669 387.645 228.513 387.232 228.235 386.929C225.719 384.186 222.637 383.542 219.132 384.539C217.703 384.945 216.276 385.358 214.651 385.824C213.917 380.589 210.745 377.472 206.04 375.438C207.794 369.625 207.618 364.353 201.297 361.025C203.189 356.301 203.285 351.897 198.549 348.435C199.213 347.292 199.816 346.231 200.441 345.183C203.662 339.79 203.856 335.243 199.299 330.955C198.88 330.561 198.074 330.076 197.48 329.618C202.984 321.663 199.385 315.231 193.946 308.855C194.855 306.444 196.781 304.119 196.286 301.117C195.813 298.242 194.502 295.778 192.474 293.682C193.378 292.346 194.272 291.071 195.123 289.772C196.779 287.243 197.117 284.071 196.014 281.256C194.952 278.546 193.34 276.24 191.313 274.237C195.806 266.839 195.66 264.826 190.209 258.289C190.234 258.134 190.221 257.958 190.291 257.826C193.459 251.863 191.066 245.432 184.713 242.969C184.149 242.751 183.425 242.728 182.826 242.854ZM256.135 496.829C261.773 496.827 266.17 501.469 266.163 507.578C265.9 511.257 264.189 514.599 260.484 516.702C254.502 520.099 247.545 516.745 246.074 510.021C245.192 505.986 247.907 500.032 251.711 498.255C253.113 497.6 254.657 496.83 256.135 496.829ZM143.519 493.184C147.67 493.17 152.472 496.156 153.638 502.641C154.333 506.513 151.902 510.006 148.043 510.738C142.2 511.844 136.198 506.719 136.144 500.577C136.108 496.446 139.87 492.92 143.519 493.184ZM215.535 487.255C217.956 487.815 219.372 489.104 220.223 491.182C222.272 496.186 218.426 502.27 212.981 502.749C208.716 503.124 205.368 500.139 205.213 495.161C205.513 493.153 206.332 490.666 208.393 488.816C210.442 486.978 212.748 486.611 215.535 487.255ZM205.41 457.222C221.95 468.819 237.905 481.266 252.468 495.292C249.048 496.477 247.028 498.443 245.949 500.21C245.117 499.453 244.24 498.691 243.403 497.886C232.853 487.744 221.292 478.704 211.072 468.198C208.182 465.227 205.09 462.453 202.098 459.581C201.929 459.419 201.822 459.192 201.781 459.133C202.985 458.499 204.155 457.882 205.41 457.222ZM189.101 456.542C190.647 457.542 192.766 458.766 194.426 459.839C194.137 460.37 192.962 460.845 192.369 461.423C186.897 466.754 181.608 472.309 175.795 477.244C168.275 483.628 160.323 489.502 152.579 495.579C152.305 494.775 147.613 491.358 146.372 491.687C147.511 490.665 148.707 489.529 149.965 488.47C160.644 479.485 171.307 470.48 182.044 461.565C184.377 459.629 186.991 458.031 189.101 456.542ZM190.736 438.565C195.247 440.797 199.538 442.921 204.225 445.241C203.932 448.169 203.627 451.387 203.286 454.601C203.068 456.65 202.752 457.016 200.622 457.031C198.466 457.045 196.307 456.849 194.151 456.725C191.919 456.596 191.457 456.412 191.245 454.172C190.854 450.047 190.75 445.895 190.576 441.752C190.533 440.711 190.676 439.662 190.736 438.565ZM185.658 245.772C186.518 246.553 187.415 247.316 188.146 248.209C190.424 250.995 190.522 253.629 188.571 256.7C187.35 258.624 187.421 258.678 188.982 260.168C193.167 264.163 193.895 268.172 189.824 272.529C189.769 272.588 189.714 272.648 189.66 272.708C188.853 273.603 188.93 274.991 189.846 275.775C191.506 277.198 192.708 278.872 193.664 280.775C195.141 283.718 195.169 286.521 193.142 289.208C192.293 290.333 191.37 291.401 190.506 292.515C190.479 292.55 190.452 292.585 190.426 292.62C189.9 293.337 190.022 294.337 190.701 294.911C192.67 296.578 193.835 298.693 194.268 301.208C194.726 303.872 193.112 305.868 191.88 308.099C191.497 308.792 191.657 309.65 192.244 310.18C194.441 312.162 195.946 314.604 197.034 317.358C198.182 320.266 198.177 323 196.837 325.897C195.34 329.133 194.746 330.237 197.824 333.018C201.085 335.964 201.272 339.743 199.095 343.543C196.18 348.632 196.04 348.92 190.3 350.202C184.138 351.579 177.9 352.618 171.701 353.83C171.112 353.945 170.477 353.972 169.87 354.169C168.908 354.481 169.19 355.917 170.199 355.851L170.271 355.846C171.926 355.738 173.575 355.542 175.206 355.241C181.971 353.993 188.803 353.04 195.346 350.778C197.358 350.082 198.376 350.437 199.514 352.189C201.099 354.631 200.649 357.109 199.612 359.583C199.274 360.389 198.864 361.166 198.578 361.766C198.797 362.155 198.82 362.267 198.882 362.294C199.403 362.527 199.932 362.747 200.46 362.967C203.437 364.203 205.229 367.063 205.056 370.287C204.88 373.546 203.767 376.057 200.245 376.991C198.084 377.566 195.992 378.415 193.889 379.195L193.867 379.202C192.701 379.638 193.295 381.407 194.482 381.031C194.556 381.007 194.629 380.982 194.702 380.958C197.297 380.075 199.998 379.383 202.42 378.151C204.563 377.062 206.267 377.409 207.936 378.708C209.104 379.617 210.322 380.609 211.108 381.828C212.753 384.381 213.503 387.092 210.142 389.629C205.681 392.997 201.109 396.15 196.06 398.581C196.013 398.604 195.966 398.626 195.919 398.649C194.796 399.213 195.566 400.94 196.723 400.451C196.922 400.366 197.117 400.272 197.309 400.175C203.196 397.196 208.771 393.751 213.522 389.103C214.048 388.588 214.607 387.978 215.266 387.755C217.064 387.144 218.903 386.617 220.762 386.235C223.137 385.748 225.582 386.712 227.038 388.652C227.352 389.069 227.66 389.491 227.971 389.912C228.498 389.874 228.919 389.896 229.314 389.804C230.365 389.559 231.399 389.24 232.45 388.998C233.741 388.7 235.033 388.279 236.34 388.216C238.745 388.102 240.37 389.296 241.257 391.555C241.019 391.758 240.759 391.963 240.519 392.187C236.942 395.542 233.348 398.881 229.806 402.272C229.721 402.353 229.635 402.436 229.551 402.521C228.694 403.38 229.916 404.712 230.846 403.932C231.005 403.797 231.16 403.659 231.309 403.515C233.762 401.145 236.086 398.633 238.628 396.363C240.662 394.546 242.78 392.709 245.153 391.417C247.68 390.042 250.505 389.144 253.284 388.314C257.477 387.062 261.23 388.495 264.006 392.141C262.251 394.442 260.408 396.696 258.749 399.077C257.64 400.671 256.211 402.057 255.054 403.723C254.333 404.76 255.856 405.901 256.65 404.921C256.779 404.764 256.901 404.604 257.024 404.449C259.294 401.578 261.506 398.659 263.71 395.737C264.541 394.635 265.29 393.473 266.304 392.01C269.504 391.661 273.075 391.565 276.524 392.644C279.575 393.599 280.106 395.412 278.104 397.883C271.192 406.414 264.369 415.029 257.175 423.318C253.43 427.634 249.079 431.449 244.81 435.275C241.673 438.086 237.785 439.401 233.55 439.327C224.442 439.166 215.373 438.675 206.394 436.789C201.128 435.683 195.793 434.953 190.446 434.354C181.804 433.386 173.501 431.281 165.576 427.774C156.311 423.677 149.931 416.966 147.147 407.074C146.878 406.115 146.505 405.178 146.311 404.204C143.975 392.465 141.666 380.721 139.346 368.979C135.591 349.976 131.959 330.949 128.036 311.981C125.242 298.479 122.097 285.05 119.113 271.587C118.585 269.205 118.13 266.805 117.746 264.397C117.039 259.965 117.172 259.196 120.475 258.225C121.511 257.92 122.562 257.66 123.618 257.435C143.133 253.292 162.651 249.163 182.163 245.01C183.48 244.73 184.652 244.859 185.658 245.772ZM121.468 261.17C120.148 262.096 119.513 263.609 119.845 265.152C120.29 267.224 120.616 268.644 122.003 270.255C123.02 271.435 124.99 272.315 126.649 272.338C127.055 272.343 127.622 272.167 127.622 272.167C128.145 272.327 128.934 272.95 129.349 273.247C133.201 275.996 134.687 280.602 133.171 285.101C132.768 286.297 133.142 286.951 133.999 287.659C136.492 289.718 138.222 292.341 139.406 295.328C140.7 298.592 140.608 301.619 138.031 304.351C136.669 305.794 136.751 306.549 138.285 308.205C140.375 310.46 141.816 313.014 142.408 316.043C142.856 318.336 142.518 320.279 140.463 321.787C139.027 322.841 139.003 323.381 140.052 324.937C142.075 327.937 143.505 331.193 144.438 334.671C145.319 337.958 145.289 341.056 142.714 343.747C141.591 344.92 141.732 345.339 142.789 346.783C144.211 348.728 145.718 350.621 146.997 352.656C148.792 355.514 149.875 358.724 150.013 362.198C150.087 364.031 149.587 365.811 148.828 367.481C148.343 368.548 148.621 369.786 149.487 370.582C150.67 371.669 151.594 373.121 152.357 374.56C153.303 376.345 153.004 378.032 151.46 379.533C149.954 380.997 150.024 381.336 151.767 382.569C153.851 384.043 155.5 385.874 156.635 388.153C157.611 390.112 157.863 392.062 156.733 394.11C155.894 395.628 155.999 395.85 157.498 396.957C160.426 399.119 162.195 401.809 161.937 405.633C161.881 406.465 162.239 407.439 162.693 408.169C163.784 409.92 165.093 411.534 166.22 413.264C166.833 414.203 167.457 414.716 168.662 414.434C173.013 413.417 176.256 415.275 178.927 418.522C179.243 418.908 179.534 419.315 179.834 419.714C180.438 420.515 181.2 420.578 182.048 420.172C182.347 420.028 182.623 419.838 182.916 419.681C187.556 417.171 191.211 417.901 194.685 422.016C194.844 422.204 194.994 422.404 195.132 422.609C196.665 424.886 196.666 425.506 200.392 424.045C203.415 422.859 206.529 422.581 209.679 423.531C211.924 424.208 213.676 425.46 214.679 427.698C215.459 429.438 215.915 429.554 217.816 429.027C219.736 428.494 221.631 427.806 223.585 427.469C226.843 426.906 230.062 427.088 232.992 428.896C234.581 429.876 235.913 431.102 236.624 432.885C236.897 433.571 237.088 434.51 238.109 434.019C238.979 433.601 238.73 432.759 238.416 432.048C236.885 428.577 234.056 426.662 230.529 425.731C227.147 424.837 223.766 425.149 220.429 426.127C219.507 426.396 218.561 426.582 217.627 426.807C217.494 426.577 217.506 426.597 217.374 426.367C219.776 423.864 222.161 421.344 224.588 418.865C225.693 417.736 226.929 416.732 228.007 415.58L228.104 415.475C228.967 414.545 227.609 413.211 226.707 414.103C226.59 414.219 226.477 414.336 226.363 414.449C223.242 417.564 220.157 420.713 217.06 423.851C216.661 424.256 216.273 424.674 215.806 425.163C210.441 419.708 204.301 420.392 197.793 422.792C195.179 419.053 192.559 416.011 186.173 416.152C186.725 415.607 187.574 415.156 187.987 414.898C190.312 413.442 192.678 412.049 194.998 410.584L195.237 410.432C196.306 409.754 195.349 408.116 194.243 408.733C194.105 408.81 193.971 408.889 193.839 408.964C189.648 411.359 185.492 413.815 181.884 417.072C181.64 417.293 181.367 417.481 180.967 417.794C177.702 413.611 173.582 411.353 168.148 412.388C167.267 410.923 166.463 409.587 165.624 408.191C166.734 407.134 168.4 407.31 169.755 406.551C170.404 406.188 170.229 405.208 169.495 405.088C167.565 404.771 165.853 406.015 163.943 406.178C164.314 401.468 162.289 397.951 158.62 395.259C161.065 389.306 157.734 385.372 153.789 381.378C155.06 380.94 156.193 380.587 157.298 380.16C158.46 379.711 159.611 379.227 160.736 378.691C161.381 378.385 162.308 378.086 161.919 377.11C161.513 376.09 160.668 376.595 159.996 376.846C159.142 377.166 158.321 377.578 157.473 377.919C156.711 378.225 155.931 378.487 154.811 378.896C155.27 374.603 153.613 371.335 150.628 368.723C150.983 367.544 151.341 366.529 151.592 365.488C152.293 362.575 152.004 359.71 151.083 356.886C149.961 353.444 148.196 350.354 145.978 347.51C145.42 346.794 144.857 346.081 144.343 345.426C144.387 345.158 144.358 344.951 144.448 344.852C147.248 341.73 147.463 338.082 146.374 334.31C145.572 331.531 144.439 328.847 143.362 325.869C144.066 325.733 144.829 325.505 145.604 325.447C156.733 324.616 166.993 320.83 177.019 316.244C178.153 315.726 179.29 315.201 180.362 314.571C180.715 314.364 180.867 313.815 181.11 313.422C180.629 313.22 180.126 312.817 179.67 312.864C179.039 312.929 178.419 313.288 177.836 313.6C168.629 318.536 158.665 321.064 148.464 322.825C146.463 323.17 144.464 323.804 142.134 323.179C145.412 320.02 144.998 316.419 143.528 312.924C142.514 310.514 140.913 308.35 139.448 305.862C139.401 306.04 139.394 305.84 139.49 305.738C142.838 302.156 142.898 298.104 140.958 293.932C139.916 291.692 138.477 289.634 137.176 287.423C137.232 287.377 137.393 287.136 137.59 287.101C146.366 285.539 154.902 283.029 163.417 280.468C168.506 278.937 173.512 277.125 178.543 275.403C179.319 275.137 180.09 274.758 180.74 274.268C181.019 274.058 181.105 273.407 181.032 272.999C181 272.821 180.359 272.724 179.983 272.647C179.847 272.62 179.677 272.759 179.524 272.823C169.526 277.012 159.076 279.777 148.632 282.541C144.86 283.54 141.02 284.283 137.206 285.124C136.739 285.227 136.247 285.217 135.575 285.275C136.916 278.844 134.254 274.229 129.226 270.552C129.602 268.25 130.076 265.766 128.641 263.75C127.929 262.751 127.123 261.865 126.149 261.132C124.697 260.038 122.836 260.21 121.468 261.17ZM188.405 332.269C184.467 333.544 180.52 334.789 176.586 336.077C175.865 336.314 175.172 336.635 174.474 336.942C174.182 337.07 174.009 337.375 174.056 337.69C174.083 337.874 174.227 338.017 174.411 338.042C175.087 338.133 175.792 338.321 176.387 338.143C180.668 336.859 184.928 335.503 189.164 334.076C190.008 333.791 191.498 333.435 190.965 332.205C190.408 330.92 189.284 331.985 188.405 332.269ZM179.704 297.048C172.588 299.875 165.26 301.885 157.657 302.858C157.164 302.921 156.619 302.892 156.195 303.101C155.735 303.329 155.387 303.785 154.99 304.141C155.428 304.419 155.855 304.714 156.309 304.962C156.432 305.03 156.634 304.955 156.799 304.947C156.817 305.032 156.835 305.117 156.853 305.203C161.386 304.24 165.946 303.386 170.443 302.274C173.248 301.58 175.961 300.505 178.709 299.585C179.336 299.375 179.961 299.138 180.55 298.84C181.259 298.481 182.311 298.161 181.826 297.102C181.292 295.935 180.396 296.773 179.704 297.048Z" fill="#121473"/>
<path fill-rule="evenodd" clip-rule="evenodd" d="M435.833 315.511C435.458 316.486 435.193 317.261 434.867 318.01C409.715 375.736 384.559 433.46 359.403 491.185C359.037 492.024 358.716 492.889 358.282 493.693C357.412 495.303 355.828 496.067 354.132 495.778C352.134 495.438 351.513 494.394 352.232 492.443C354.824 485.41 357.437 478.385 360.045 471.359C379 420.298 397.955 369.238 416.911 318.178C417.226 317.332 417.562 316.493 417.952 315.484C423.878 315.492 429.745 315.501 435.833 315.511ZM543.495 315.542C544.306 318.797 545.021 321.872 545.839 324.92C549.464 338.43 553.225 351.904 556.739 365.443C564.289 394.538 571.625 423.69 579.237 452.768C582.609 465.655 586.436 478.423 590.058 491.245C590.08 491.325 590.116 491.402 590.138 491.482C590.826 493.939 590.725 494.432 589.459 494.804C587.458 495.391 586.136 494.693 585.466 492.617C580.912 478.511 576.373 464.4 571.823 450.293C557.664 406.385 543.502 362.477 529.342 318.57C529.064 317.706 528.797 316.838 528.402 315.579C533.633 315.566 538.519 315.554 543.495 315.542ZM558.271 305.693L559.056 305.732C561.098 305.849 563.143 306.41 565.12 306.996C566.326 307.354 567.335 308.197 567.345 309.697C567.354 311.085 566.534 312.345 564.898 312.805C563.315 313.25 561.637 313.547 559.997 313.558C552.091 313.61 544.185 313.524 536.279 313.525C525.545 313.526 514.812 313.578 504.078 313.579C495.672 313.58 487.267 313.521 478.861 313.518C467.878 313.515 456.895 313.556 445.911 313.551C437.422 313.548 428.934 313.492 420.445 313.481C410.959 313.469 401.472 313.498 391.986 313.472C390.092 313.466 388.198 313.307 386.307 313.179C385.905 313.152 385.501 312.983 385.119 312.828C383.98 312.364 382.871 311.584 382.956 310.362C383.015 309.546 383.844 308.492 384.613 308.085C385.891 307.409 387.392 306.823 388.809 306.8C398.127 306.648 407.449 306.68 416.768 306.607C426.005 306.536 435.24 306.392 444.476 306.318C450.967 306.267 457.458 306.291 463.95 306.259C467.527 306.242 471.105 306.18 474.683 306.138L474.683 306.198C488.746 306.066 502.808 305.907 516.87 305.811C527.522 305.738 538.174 305.746 548.826 305.715C552.237 305.706 555.657 305.537 559.056 305.732L558.271 305.693Z" fill="#F5F5FF"/>
<path fill-rule="evenodd" clip-rule="evenodd" d="M474.89 306.314C474.89 306.293 474.89 306.273 474.89 306.253C471.311 306.295 467.734 306.357 464.157 306.374C457.665 306.406 451.174 306.382 444.683 306.433C435.447 306.507 426.211 306.651 416.975 306.723C407.655 306.795 398.334 306.763 389.016 306.915C387.599 306.938 386.098 307.524 384.82 308.2C384.051 308.607 383.222 309.661 383.163 310.477C383.078 311.699 384.187 312.48 385.325 312.943C385.708 313.099 386.112 313.267 386.514 313.294C388.405 313.422 390.299 313.582 392.193 313.587C401.679 313.614 411.166 313.585 420.652 313.597C429.141 313.607 437.629 313.663 446.118 313.667C457.102 313.671 468.085 313.63 479.068 313.633C487.474 313.636 495.879 313.695 504.284 313.694C515.018 313.693 525.752 313.641 536.486 313.64C544.392 313.639 552.298 313.725 560.204 313.673C561.843 313.662 563.522 313.365 565.105 312.92C566.741 312.46 567.561 311.2 567.552 309.812C567.542 308.312 566.533 307.469 565.327 307.112C563.35 306.525 561.305 305.964 559.263 305.847C555.864 305.652 552.444 305.821 549.033 305.83C538.381 305.861 527.729 305.853 517.077 305.926C503.015 306.022 488.953 306.182 474.89 306.314ZM528.609 315.694C529.004 316.954 529.271 317.821 529.549 318.685C543.709 362.593 557.871 406.5 572.03 450.408C576.58 464.515 581.119 478.626 585.673 492.732C586.343 494.808 587.665 495.506 589.666 494.92C590.932 494.548 591.033 494.054 590.345 491.597C590.323 491.517 590.287 491.44 590.264 491.36C586.643 478.539 582.816 465.771 579.443 452.884C571.832 423.805 564.496 394.654 556.946 365.558C553.432 352.019 549.671 338.545 546.045 325.035C545.228 321.988 544.513 318.913 543.702 315.657C538.726 315.669 533.839 315.681 528.609 315.694ZM418.159 315.599C417.768 316.609 417.433 317.447 417.118 318.294C398.162 369.354 379.206 420.414 360.252 471.474C357.644 478.5 355.031 485.525 352.439 492.558C351.72 494.509 352.341 495.553 354.339 495.893C356.035 496.182 357.619 495.418 358.489 493.808C358.923 493.004 359.244 492.14 359.61 491.3C384.766 433.575 409.922 375.851 435.074 318.125C435.4 317.376 435.665 316.601 436.04 315.626C429.952 315.617 424.085 315.608 418.159 315.599ZM560.092 303.836C562.271 303.942 564.472 304.722 566.548 305.501C568.459 306.219 569.676 307.751 569.561 309.948C569.447 312.135 568.386 313.928 566.306 314.559C564.11 315.224 561.773 315.626 559.48 315.723C555.659 315.884 551.826 315.704 547.998 315.686C547.424 315.684 546.85 315.777 546.021 315.848C546.164 316.702 546.23 317.496 546.434 318.254C549.12 328.224 551.928 338.162 554.502 348.16C558.344 363.08 561.95 378.06 565.789 392.981C574.236 425.808 582.721 458.625 592.272 491.153C592.295 491.234 592.326 491.311 592.354 491.39C592.989 493.2 593.388 494.972 591.474 496.318C590.109 497.278 586.638 497.281 585.287 496.131C584.651 495.59 584.247 494.661 583.975 493.83C581.331 485.757 578.737 477.667 576.129 469.582L557.057 410.457L565.765 460.095C565.794 460.26 565.81 460.426 565.813 460.594L565.812 460.761C565.75 462.531 564.265 463.916 562.494 463.855L560.486 463.784C557.008 463.663 554.088 461.128 553.477 457.702L530.264 327.382C529.343 324.527 528.422 321.672 527.501 318.816C527.195 317.867 526.91 316.91 526.522 315.653C498.414 315.644 470.344 315.634 442.397 315.624L402.181 456.941C401.222 460.312 398.088 462.594 394.586 462.471L392.578 462.401C390.807 462.339 389.422 460.854 389.484 459.084C389.492 458.861 389.523 458.639 389.577 458.422L407.412 386.62C391.94 422.14 376.466 457.659 360.994 493.18C360.358 494.639 359.721 496.027 358.285 496.96C355.971 498.463 352.889 498.241 350.967 496.302C349.845 495.17 349.606 493.907 350.163 492.414C366.855 447.624 383.542 402.831 400.22 358.035C405.102 344.922 409.955 331.798 414.818 318.678C415.133 317.83 415.419 316.972 415.814 315.843C414.833 315.756 414.049 315.63 413.264 315.627C407.105 315.601 400.94 315.451 394.787 315.654C391.868 315.751 388.996 315.912 386.127 315.281C384.629 314.952 383.281 314.374 382.253 313.179C380.713 311.388 380.649 309.562 382.195 307.781C383.935 305.778 386.252 304.844 388.836 304.827C402.317 304.737 415.799 304.733 429.28 304.668C441.18 304.61 453.08 304.51 464.98 304.428C477.13 304.344 489.28 304.265 501.43 304.171C516.16 304.056 530.889 303.921 545.618 303.808C550.444 303.771 555.279 303.601 560.092 303.836Z" fill="#121473"/>
<path fill-rule="evenodd" clip-rule="evenodd" d="M411.922 302.624L411.851 306.677L437.23 306.244L500.536 303.039L512.316 275.737L520.579 284.464L520.548 286.238L512.705 286.781L511.384 288.126L515.162 302.738L517.178 303.89L540.726 303.184L544.651 296.787L546.964 301.368L554.428 303.424L558.218 301.565L559.65 300.5L565.217 299.596L568.649 294.887L565.376 290.479L558.438 288.947L547.184 288.751L548.593 279.099L545.077 272.364L539.387 268.696L523.599 283.24L524.148 275.944L522.147 268.395L520.263 268.362L520.182 273.011L521.905 282.238L517.605 279.464L513.714 271.816L517.452 259.59L478.305 258.907L451.419 259.827L439.588 294.953L438.605 296.268L428.516 298.211L416.288 300.395L411.922 302.624Z" fill="#F5F5FF"/>
<path fill-rule="evenodd" clip-rule="evenodd" d="M479.702 287.865C480.321 288.114 481.013 288.123 481.639 287.891C482.505 287.57 483.353 287.27 484.051 286.765C485.575 285.66 485.753 283.631 484.717 282.066C483.6 280.381 482.335 279.969 480.43 281.011C479.296 281.631 478.23 282.519 477.396 283.508C476.342 284.759 476.547 285.971 477.875 286.956C478.397 287.344 479.022 287.593 479.702 287.865ZM517.662 258.79C518.552 258.864 519.176 259.691 519.025 260.571C518.334 264.608 516.329 268.269 515.211 272.232C516.797 274.396 519.403 278.518 521.11 280.848C519.995 276.135 519.645 273.816 519.558 271.369C519.526 270.491 519.763 269.532 520.135 268.729C520.727 267.451 522.097 267.242 522.947 268.357C523.63 269.252 524.161 270.371 524.404 271.47C524.872 273.577 524.842 274.044 525.167 276.183C525.29 276.993 525.181 281.085 524.994 281.78C525.693 281.178 527.053 279.603 527.509 279.168C530.759 276.058 533.981 272.919 537.253 269.833C539.072 268.117 539.739 267.991 541.872 269.314C547.097 272.557 550.412 276.937 549.834 283.473C549.704 284.953 549.333 286.547 549.179 288.298C550.049 288.411 551.248 288.484 552.213 288.533C555.538 288.699 558.865 288.85 562.193 288.943C565.929 289.048 568.583 291.074 569.044 294.261C569.515 297.52 567.457 300.503 563.955 301.585C563.325 301.78 561.029 301.785 560.372 301.842L560.364 301.85C560.295 301.915 559.765 302.42 558.917 303.274C558.264 303.933 557.206 304.466 556.286 304.541C552.37 304.863 548.577 304.348 546.297 301.475C546.103 301.211 545.666 300.557 545.342 299.475C544.677 300.622 543.866 302.353 543.239 303.402C542.747 304.225 542.139 304.689 541.041 304.707C532.965 304.843 524.891 305.068 516.816 305.252C516.812 305.251 516.808 305.252 516.804 305.252C516.095 305.263 515.452 304.837 515.09 304.227C512.413 299.711 511.543 294.726 511.171 289.621C510.949 286.576 511.365 286.239 514.493 286.045C516.234 285.936 517.971 285.772 520.201 285.594C518.85 284.101 517.709 282.876 516.609 281.616C515.472 280.312 514.375 278.974 513.088 277.446C511.568 281.341 510.179 284.984 508.726 288.602C507.02 292.849 505.24 297.067 503.53 301.313C502.699 303.378 501.241 304.479 499.009 304.57C495.016 304.731 491.024 304.908 487.031 305.077C475.636 305.56 464.24 306.032 452.844 306.529C440.286 307.078 427.728 307.65 415.17 308.208C414.588 308.234 414.004 308.235 413.421 308.232C411.251 308.224 410.928 307.92 410.868 305.849C410.779 302.782 411.476 301.492 414.485 300.724C419.8 299.368 425.18 298.26 430.549 297.13C433.229 296.567 435.946 296.184 438.83 295.687C440.636 290.319 442.493 284.982 444.225 279.605C445.781 274.774 447.229 269.907 448.667 265.039C448.963 264.036 449.201 263.017 449.436 261.971C449.754 260.551 450.957 259.496 452.407 259.378C463.704 258.459 507.832 257.97 517.662 258.79ZM436.155 303.515C428.49 304.023 420.753 303.948 413.235 304.446C413.168 304.688 412.947 306.046 412.88 306.287C412.88 306.287 413.708 306.23 414.148 306.229C415.476 306.225 416.803 306.077 418.132 306.018C423.865 305.762 429.599 305.521 435.332 305.26C435.547 305.25 435.747 305.234 435.747 305.234L436.155 303.515ZM517.144 260.604C495.105 260.489 473.566 260.149 452.219 261.18C447.36 275.991 442.597 290.51 437.776 305.203C458.832 304.297 479.839 303.393 500.769 302.492C501.349 301.213 501.833 300.247 502.234 299.247C504.959 292.451 507.643 285.639 510.392 278.853C510.794 277.861 511.686 276.042 511.84 275.069C511.84 275.069 510.453 273.116 509.45 271.525C508.477 269.69 510.659 269.105 512.888 270.258C513.088 270.361 513.775 270.922 513.775 270.922C514.872 267.786 515.932 264.069 517.144 260.604ZM437.843 297.991C430.106 299.108 421.956 300.769 414.683 302.844C421.647 302.357 429.717 301.889 436.71 301.4C437.1 300.227 437.4 299.323 437.843 297.991ZM546.76 287.164C540.529 287.242 534.122 287.309 528.685 287.377C527.458 288.83 526.721 290.275 525.543 290.934C524.38 291.585 522.773 291.44 521.237 291.662C521.206 292.155 521.189 292.815 521.116 293.468C520.999 294.533 520.95 295.624 520.656 296.641C520.533 297.065 519.855 297.586 519.426 297.59C518.991 297.595 518.317 297.099 518.162 296.672C517.83 295.754 517.644 294.743 517.615 293.764C517.56 291.873 517.656 289.978 517.693 287.86C516.104 287.972 514.739 288.068 513.149 288.179C513.271 293.124 514.05 297.706 516.178 302.025L517.047 303.24C523.278 303.084 531.617 302.963 537.848 302.787C538.991 302.755 540.13 302.619 541.179 302.538C543.462 297.539 545.698 292.653 546.76 287.164ZM548.572 290.105C547.767 292.397 546.926 295.556 546.305 297.606C546.305 297.606 546.487 298.006 546.74 298.548C548.229 301.75 553.264 303.752 556.533 302.392C557.315 302.067 558.037 301.362 558.545 300.659C559.834 298.876 560.63 293.488 560.058 290.966C556.389 290.76 552.506 290.324 548.572 290.105ZM562.484 291.335L562.526 292.131C564.175 292.442 565.667 292.867 565.45 295.809C565.198 297.307 562.914 298.32 561.603 298.526L561.072 299.934C564.111 300.427 566.665 298.338 567.053 295.754C567.424 293.282 565.604 291.553 562.484 291.335ZM562.316 293.462C562.221 294.312 561.964 296.157 561.87 297.008C562.058 297.144 563.194 296.819 563.647 296.133C564.1 295.446 564.23 294.701 563.658 294.049C563.29 293.629 562.324 293.384 562.316 293.462ZM486.3 280.823C487.868 283.076 487.672 285.952 485.809 287.914C484.404 289.394 482.63 289.952 480.096 289.966C479.646 289.846 478.627 289.729 477.748 289.315C474.543 287.806 473.764 284.578 476.079 281.923C477.084 280.77 478.418 279.779 479.794 279.102C482.537 277.753 484.623 278.413 486.3 280.823ZM539.267 270.497C534.262 275.405 529.143 280.423 524.029 285.437C531.888 285.34 539.75 285.242 547.544 285.146C548.642 278.32 545.467 272.702 539.267 270.497ZM521.838 270.779C520.273 270.751 522.25 278.397 523.666 281.997C523.344 278.208 523.474 271.245 521.838 270.779Z" fill="#121473"/>
<path fill-rule="evenodd" clip-rule="evenodd" d="M415.627 86.608L420.162 85.5884C418.697 85.27 417.338 84.9749 415.676 84.614C415.656 85.4219 415.644 85.8904 415.627 86.608ZM413.347 84.6398C411.183 85.0955 409.426 85.4654 407.52 85.8662L413.486 86.7045C413.434 85.9352 413.399 85.4245 413.347 84.6398ZM414.139 71.1863C412.374 71.4783 411.036 71.7544 409.571 72.4855C406.886 73.8258 405.601 76.291 406.899 78.9754C408.162 81.584 410.21 82.728 413.508 82.9387C413.54 79.7033 414.102 74.8306 414.139 71.1863ZM415.954 82.6329C417.289 82.8922 419.072 82.5307 420.091 81.4615C423.236 78.1633 423.057 76.4192 421.559 72.323C421.068 70.9802 420.099 70.34 418.688 70.4375C417.891 70.4921 417.102 70.6593 416.073 70.8108C416.03 74.7698 415.997 78.6364 415.954 82.6329ZM366.788 147.701C365.853 148.054 365.966 149.406 366.951 149.576L366.954 149.576C371.629 150.367 376.288 151.447 380.999 151.795C391.87 152.597 402.762 153.18 413.656 153.586C426.553 154.066 439.457 153.89 452.328 152.868C456.466 152.54 460.577 151.853 464.69 151.262L464.715 151.259C465.751 151.113 465.858 149.668 464.854 149.373C464.58 149.292 464.306 149.22 464.03 149.16C462.403 148.808 460.76 148.519 459.114 148.265C445.587 146.171 431.939 145.613 418.289 145.264C402.81 144.868 387.337 145.139 371.916 146.727C370.204 146.904 368.469 147.066 366.788 147.701ZM406.475 87.4507C406.212 87.715 405.992 87.8604 405.876 88.0644C403.184 92.8084 401.007 97.7178 400.81 103.301C400.709 106.162 399.765 108.668 397.427 110.506C395.598 111.945 393.853 113.502 391.952 114.838C387.73 117.805 383.502 120.772 379.154 123.549C370.878 128.835 367.351 137.137 364.374 146.153C365.315 145.988 366.022 145.858 366.731 145.742C369.355 145.309 371.965 144.751 374.605 144.472C386.913 143.169 399.272 143.08 411.626 143.238C419.493 143.338 427.356 143.614 435.213 144.026C445.817 144.583 457.267 145.076 467.703 147.849C467.889 147.899 467.488 147.888 467.703 147.849C465.329 138.43 460.619 130.91 453.296 124.966C451.037 123.133 448.635 121.476 446.345 119.679C443.532 117.472 440.668 115.314 438.006 112.934C433.662 109.053 430.171 104.556 428.647 98.7677C428.289 97.4059 427.626 96.1259 427.231 94.7707C426.491 92.2276 424.912 90.1927 423.386 88.1167C422.717 87.2079 421.953 87.0057 420.797 87.36C418.9 87.9412 416.937 88.3602 414.972 88.6533C412.038 89.0918 409.206 88.3705 406.475 87.4507ZM406.176 81.4632C403.049 77.9433 403.975 71.3871 409.704 70.3289C411.039 70.0821 413.224 69.454 413.768 69.2935C413.768 69.2935 413.846 67.107 413.925 65.7914C414.297 59.56 414.652 13.0044 415.029 6.77268C415.073 6.05923 415.221 5.35132 415.321 4.63846C416.926 4.5702 417.062 5.45134 417.027 6.41769C416.961 8.24812 416.873 50.4014 416.766 52.2294C416.482 57.1322 416.177 62.0337 415.896 66.9361C415.869 67.418 415.949 67.906 415.989 68.5437C417.055 68.5079 418.024 68.4577 418.995 68.4465C421.178 68.4201 422.606 69.5083 423.388 71.4982C424.856 75.237 424.801 78.8113 422.204 82.0985C421.998 82.3592 421.975 82.3426 421.777 82.6095C421.63 82.8078 420.874 83.5131 420.444 83.5864C422.426 84.6594 423.326 85.2801 424.322 86.2276C427.573 89.3193 429.271 93.3004 430.43 97.5126C431.865 102.727 434.693 107.053 438.568 110.717C440.5 112.544 442.56 114.245 444.647 115.896C447.061 117.805 449.542 119.634 452.04 121.433C459.703 126.95 465.235 134.047 468.249 143.047C468.804 144.704 469.503 146.313 470.039 147.976C470.738 150.148 470.132 151.762 468.072 152.747C466.902 153.307 465.566 153.658 464.271 153.799C450.692 155.275 437.061 155.948 423.409 155.744C412.929 155.587 402.447 155.168 391.981 154.588C385.506 154.23 379.053 153.41 372.604 152.678C370.38 152.426 368.189 151.849 366 151.346C365.116 151.142 364.251 150.795 363.425 150.411C362.351 149.912 361.727 149.084 361.962 147.814C362.127 146.917 362.169 145.969 362.496 145.133C363.796 141.802 365.127 138.479 366.556 135.201C368.954 129.7 372.879 125.475 377.781 122.099C382.307 118.983 386.846 115.885 391.342 112.725C392.769 111.721 394.066 110.532 395.442 109.453C397.164 108.102 398.124 106.419 398.338 104.174C398.71 100.269 399.487 96.4218 401.037 92.7922C401.786 91.0378 402.551 89.2347 403.652 87.7005C404.826 86.0659 405.275 84.5279 409.101 83.69C408.674 83.2547 406.776 82.1374 406.176 81.4632Z" fill="#121473"/>
</svg>
