<svg width="102" height="92" viewBox="0 0 102 92" fill="none" xmlns="http://www.w3.org/2000/svg">
<path fill-rule="evenodd" clip-rule="evenodd" d="M76.1541 9.49269C65.3522 2.03133 51.1169 8.8343 44.3591 24.6875L44.3541 24.6993C44.036 25.4459 43.4957 26.021 42.7832 26.3628C39.3384 28.0154 36.0086 30.2255 32.9479 32.9869C18.7466 45.7998 15.7095 65.6184 26.1641 77.253C36.6187 88.8875 56.6061 87.9324 70.8075 75.1196C78.0935 68.5459 82.4409 60.1281 83.5352 51.9176C83.5792 51.5873 83.6594 51.2742 83.7765 50.9851C90.1333 35.2843 86.7926 16.841 76.1541 9.49269Z" fill="black" fill-opacity="0.04"/>
<path fill-rule="evenodd" clip-rule="evenodd" d="M45.1886 2.25854C45.1942 2.24984 45.1998 2.24099 45.2055 2.23229C45.6646 1.53909 46.4202 1.58907 47.1517 1.55453C48.064 1.51144 48.9751 1.41935 49.8389 1.10363C51.2427 0.590683 52.6539 -0.154032 54.1962 0.0280407C55.372 0.166736 56.0526 0.978134 56.024 2.16308C56.0226 2.2205 56.0198 2.27763 56.0157 2.33476C56.0124 2.38432 56.5757 2.77205 56.635 2.82806C56.902 3.08103 57.163 3.37807 57.3354 3.7053C58.1483 5.24709 57.4007 7.08775 56.5582 8.43638C56.5166 8.50278 56.0663 9.15386 56.0746 9.16215C55.7403 8.8345 55.575 8.73722 55.0918 7.91993C55.4706 7.62204 55.6165 7.10811 55.5698 6.80545C55.5073 6.40115 55.2814 6.06368 54.3196 6.33826C54.1543 6.15394 53.9545 5.62724 53.8014 5.18841C53.7078 4.92071 53.6701 4.67827 53.6558 4.48876C52.5524 5.06544 51.5842 5.35448 50.921 5.50904C48.9083 5.97861 45.6685 6.28576 45.0055 3.66473C44.8864 3.19361 44.9297 2.66845 45.1886 2.25854Z" fill="#00D6DE"/>
<path d="M56.2394 8.24812C56.3554 8.25092 56.4471 8.34751 56.4443 8.46374C56.4305 9.02596 56.3222 9.6018 56.0947 10.1733C55.7198 11.1161 55.1501 11.7858 54.4941 12.2884L54.4674 12.3085L54.4676 15.2331C54.4676 15.2904 54.4443 15.3449 54.4038 15.3843L54.3877 15.3984L52.2401 17.0999C52.1671 17.1578 52.0655 17.1601 51.9903 17.1081L51.9735 17.095L49.9813 15.3935C49.9397 15.3579 49.9138 15.3077 49.9084 15.2536L49.9075 15.2331V13.3174C49.9075 13.2011 50.0016 13.1068 50.1176 13.1068C50.2269 13.1068 50.3165 13.1903 50.3268 13.2972L50.3278 13.3174L50.3276 15.1359L52.1147 16.6622L54.0472 15.1312L54.0473 12.2025C54.0473 12.1425 54.0728 12.0858 54.1168 12.0461L54.134 12.0321C54.7786 11.5635 55.3415 10.9295 55.7042 10.0172C55.9124 9.49441 56.0114 8.9677 56.0241 8.45335C56.027 8.33712 56.1234 8.24517 56.2394 8.24812Z" fill="#00D6DE"/>
<path d="M54.2 15.0305C54.3051 15.0006 54.4141 15.0565 54.4529 15.1566L54.4593 15.1758L55.4369 18.6384C55.4864 18.8132 55.3077 18.9612 55.1482 18.8876L55.1318 18.8792L52.1106 17.1761L49.1259 18.8788C48.965 18.9704 48.7765 18.8247 48.8168 18.6497L48.8216 18.6321L49.9171 15.1695C49.9523 15.0586 50.0704 14.9972 50.1809 15.0323C50.2851 15.0655 50.3455 15.1723 50.323 15.2772L50.3178 15.2967L49.3843 18.2465L52.0061 16.7512C52.0638 16.7183 52.1332 16.7148 52.1934 16.7409L52.2131 16.7507L54.8937 18.2618L54.055 15.2904C54.0251 15.1851 54.0809 15.0759 54.1808 15.037L54.2 15.0305Z" fill="#00D6DE"/>
<path d="M50.0244 14.5358C50.1283 14.484 50.2544 14.5264 50.3062 14.6304C50.3579 14.7345 50.3156 14.8609 50.2118 14.9128L49.8937 15.0692C49.5803 15.2215 49.1723 15.4152 48.6237 15.673L44.5905 17.5588L44.4135 17.6434L44.3261 17.7663C44.0019 18.2129 43.2806 19.128 41.9058 20.8468L39.3201 24.0784L38.9358 24.5631L39.0231 24.6706C39.4108 25.1461 39.811 25.6189 40.2241 26.0892L40.4319 26.3242C40.956 26.9132 41.4887 27.4836 42.0297 28.0367L42.0963 28.1045L43.7589 26.017C43.8862 25.8571 44.1434 25.955 44.1329 26.1594L43.0963 46.307H55.6351C55.7443 46.307 55.834 46.3905 55.8442 46.4973L55.8452 46.5176C55.8452 46.6271 55.7618 46.717 55.6554 46.7271L55.6351 46.7281H42.8751C42.7548 46.7281 42.6591 46.6272 42.6653 46.5068L43.6794 26.7919L42.2769 28.5526C42.1986 28.6508 42.0522 28.6587 41.9638 28.5694C41.3376 27.9376 40.7223 27.2834 40.118 26.6044C39.5568 25.9732 39.019 25.3376 38.5032 24.6972C38.4415 24.6207 38.441 24.5116 38.5018 24.4344L39.5477 23.1186L42.2794 19.7047C43.3669 18.3399 43.9036 17.6491 44.098 17.3599C44.119 17.3288 44.1479 17.3038 44.1817 17.2876L45.1853 16.8136L48.4428 15.2928C49.1978 14.9382 49.6853 14.7051 50.0244 14.5358Z" fill="#00D6DE"/>
<path d="M54.0658 14.3414C54.1103 14.2414 54.2231 14.1935 54.3245 14.2278L54.3434 14.2352L60.5219 17.0059C60.5593 17.0226 60.5909 17.05 60.6129 17.0843L60.6231 17.1019L65.0765 25.8059C65.1197 25.8909 65.1007 25.9933 65.0319 26.0568L65.0165 26.0698L64.6087 26.3799L64.592 26.394L61.1038 29.05C61.0098 29.1216 60.8769 29.1011 60.808 29.0081L60.7965 28.991L58.976 25.9661L59.7045 38.9167C59.7045 39.0329 59.6103 39.1273 59.4943 39.1273C59.3851 39.1273 59.2953 39.0438 59.2852 38.9369L58.5088 25.1425C58.4969 24.93 58.7681 24.8394 58.8879 25.0056L58.8985 25.0219L61.0355 28.5727L64.3218 26.0708L64.3379 26.0572L64.622 25.841L60.2828 17.3601L54.1717 14.6196C54.0719 14.5748 54.0242 14.462 54.0583 14.3603L54.0658 14.3414Z" fill="#00D6DE"/>
<path d="M64.4653 26.0146C64.5539 26.0146 64.6299 26.0698 64.6607 26.1477L64.6631 26.1549L66.6041 30.8245C66.8165 31.3349 66.7879 31.913 66.5285 32.3988L66.5025 32.4456L58.1977 46.9711C57.761 47.7351 56.8215 48.0438 56.0206 47.6935L55.9799 47.6751L55.8354 47.6075C55.4848 47.4435 55.3293 47.0318 55.4784 46.6782L55.4916 46.6488L56.3949 44.7456H55.7754C55.4254 44.7456 55.1398 44.4693 55.1241 44.1224L55.1235 44.0925C55.1235 43.8346 55.2748 43.6019 55.5081 43.4966L55.5365 43.4847L57.5672 42.6829L59.2987 38.8384L59.3029 38.8277L62.6865 31.3071L61.1639 28.7085C61.1086 28.6141 61.135 28.4943 61.2218 28.4314L61.2387 28.4203C61.333 28.3649 61.4525 28.3914 61.5153 28.4783L61.5263 28.4953L63.1038 31.1879C63.1345 31.2403 63.1409 31.303 63.1223 31.36L63.1142 31.3811L59.6895 38.9929L59.686 39.0023L57.9152 42.9342C57.8955 42.978 57.8616 43.0135 57.8193 43.0352L57.8006 43.0436L55.6908 43.8765C55.602 43.9116 55.5438 43.9972 55.5438 44.0925C55.5438 44.2139 55.6368 44.3135 55.7554 44.3236L55.7754 44.3244H56.7276C56.8759 44.3244 56.9755 44.4731 56.9245 44.6087L56.9173 44.6255L55.8711 46.8298C55.8038 46.9717 55.8588 47.1402 55.9935 47.2157L56.0133 47.2259L56.158 47.2936C56.7576 47.5744 57.4696 47.3573 57.8132 46.7952L57.833 46.7618L66.1379 32.2363C66.3484 31.8681 66.3829 31.4256 66.2336 31.0303L66.2162 30.9865L64.2712 26.3076C64.2632 26.2884 64.2582 26.2682 64.2561 26.2474L64.2551 26.2252C64.2551 26.109 64.3491 26.0146 64.4653 26.0146Z" fill="#00D6DE"/>
<path d="M27.252 16.9787C27.2909 16.9008 27.3733 16.8554 27.4588 16.8632L27.4785 16.866L32.4907 17.8027C32.8337 17.8629 33.1336 18.0679 33.315 18.3644L33.3362 18.4003L37.6957 26.1136L38.9099 24.8971C38.9868 24.8199 39.1086 24.8151 39.1911 24.8826L39.2071 24.8971C39.284 24.9742 39.2889 25.0962 39.2215 25.1788L39.2071 25.1948L37.7977 26.6072C37.7044 26.7007 37.551 26.6851 37.4773 26.5796L37.4662 26.562L32.9706 18.6079C32.8599 18.4125 32.6723 18.2737 32.4528 18.2244L32.4159 18.2171L27.557 17.309L27.3311 17.7617L31.7723 19.6696C31.8156 19.6882 31.8512 19.7207 31.8737 19.7619L31.8826 19.78L35.9818 29.3386C36.5807 30.7337 38.3903 31.082 39.4627 30.0218L39.495 29.9894L41.5614 27.8639C41.6423 27.7805 41.7754 27.7788 41.8585 27.86C41.9365 27.936 41.9428 28.0579 41.8767 28.1416L41.8624 28.1577L39.796 30.2832C38.5319 31.5845 36.3628 31.1978 35.6178 29.5551L35.5955 29.5048L31.5295 20.0235L26.9607 18.0609C26.8556 18.0158 26.807 17.8959 26.8474 17.7913L26.8555 17.7731L27.252 16.9787Z" fill="#00D6DE"/>
<path d="M58.9414 45.0352L58.9615 45.036C59.0704 45.0457 59.1524 45.1369 59.1531 45.2442L59.1521 45.2645L55.5431 85.5676C55.534 85.6694 55.4537 85.7489 55.3539 85.7584L55.3338 85.7594H51.631C51.525 85.7594 51.4366 85.6804 51.4228 85.5769L51.4212 85.5573L50.1155 52.8629L46.7986 66.2695L45.1985 85.5662C45.19 85.669 45.1089 85.7494 45.0083 85.7586L44.9891 85.7594H41.1533C41.0441 85.7594 40.9543 85.6759 40.9441 85.569L40.9431 85.5488V65.5069L40.9451 65.4784L43.527 46.4891C43.5427 46.3738 43.6486 46.2932 43.7637 46.3088C43.8718 46.3237 43.9496 46.4186 43.9452 46.5257L43.9435 46.5459L41.3634 65.5208V85.3381H44.7956L46.3812 66.2179C46.3816 66.2123 46.3823 66.2067 46.3832 66.2011L46.3867 66.1847L50.0627 51.3268C50.1194 51.0973 50.4467 51.1239 50.4748 51.3482L50.4765 51.3691L51.8329 85.3381H55.1417L58.7335 45.2269C58.7427 45.1247 58.8233 45.0461 58.9215 45.0361L58.9414 45.0352Z" fill="#00D6DE"/>
<path d="M54.5518 85.3379C54.6611 85.3379 54.7509 85.4214 54.7611 85.5281L54.762 85.5485V87.9585L56.2485 90.0914C56.2691 90.1209 56.2817 90.155 56.2854 90.1905L56.2863 90.212V91.7898C56.2863 91.8991 56.2031 91.9891 56.0965 91.9993L56.0762 92.0003H50.5424C50.4333 92.0003 50.3435 91.9168 50.3333 91.81L50.3323 91.7898V90.212C50.3323 90.1678 50.3461 90.125 50.3716 90.0893L50.3854 90.0722L52.18 88.0471V85.5485C52.18 85.439 52.2634 85.349 52.37 85.3389L52.3901 85.3379C52.4994 85.3379 52.5892 85.4214 52.5994 85.5281L52.6003 85.5485V88.1272C52.6003 88.1713 52.5866 88.2143 52.5611 88.2498L52.5473 88.2671L50.7526 90.2918V91.579H55.8661V90.2781L54.3796 88.1455C54.3591 88.116 54.3464 88.0819 54.3428 88.0464L54.3417 88.0249V85.5485C54.3417 85.4321 54.4358 85.3379 54.5518 85.3379Z" fill="#00D6DE"/>
<path d="M56.0759 90.001C56.192 90.001 56.286 90.0953 56.286 90.2115C56.286 90.321 56.2026 90.411 56.0962 90.4213L56.0759 90.4221H50.5419C50.4259 90.4221 50.3318 90.3279 50.3318 90.2115C50.3318 90.1022 50.4151 90.0122 50.5218 90.002L50.5419 90.001H56.0759Z" fill="#00D6DE"/>
<path d="M44.0183 85.3379C44.1275 85.3379 44.2172 85.4214 44.2274 85.5281L44.2284 85.5485L44.2283 87.9585L45.7148 90.0914C45.7353 90.1209 45.7479 90.155 45.7515 90.1905L45.7527 90.212V91.7898C45.7527 91.8991 45.6693 91.9891 45.5627 91.9993L45.5425 92.0003H40.0087C39.8995 92.0003 39.8098 91.9168 39.7996 91.81L39.7986 91.7898V90.212C39.7986 90.1702 39.8109 90.1296 39.8339 90.0951L39.8464 90.0784L41.5062 88.0518L41.5064 85.5485C41.5064 85.439 41.5897 85.349 41.6962 85.3389L41.7165 85.3379C41.8258 85.3379 41.9154 85.4214 41.9257 85.5281L41.9266 85.5485V88.1272C41.9266 88.1689 41.9143 88.2096 41.8913 88.244L41.8789 88.2607L40.2187 90.2874V91.579H45.3322V90.278L43.846 88.1455C43.8255 88.116 43.8129 88.0819 43.8093 88.0464L43.8081 88.0249V85.5485C43.8081 85.4321 43.9023 85.3379 44.0183 85.3379Z" fill="#00D6DE"/>
<path d="M45.5424 90.001C45.6584 90.001 45.7526 90.0953 45.7526 90.2115C45.7526 90.321 45.6692 90.411 45.5626 90.4213L45.5424 90.4221H40.0085C39.8923 90.4221 39.7983 90.3279 39.7983 90.2115C39.7983 90.1022 39.8817 90.0122 39.9882 90.002L40.0085 90.001H45.5424Z" fill="#00D6DE"/>
<path d="M47.7005 5.03916C47.7309 4.92699 47.8464 4.86073 47.9584 4.8912C48.0704 4.92166 48.1365 5.03733 48.1061 5.14964C47.5347 7.25758 47.5096 9.32945 48.1556 10.9903C48.4837 11.8334 49.0372 12.5314 49.7293 12.9244C50.4569 13.3379 51.4485 13.3151 52.4768 12.9496C52.5862 12.9107 52.7063 12.968 52.7451 13.0776C52.7839 13.1872 52.7267 13.3075 52.6173 13.3464C51.4851 13.7489 50.3734 13.7744 49.5221 13.2908C48.7398 12.8467 48.1252 12.0716 47.764 11.1432C47.0812 9.38785 47.1074 7.22726 47.7005 5.03916Z" fill="#00D6DE"/>
<path fill-rule="evenodd" clip-rule="evenodd" d="M95.4542 57.9081H57.8086L58.7306 48.7021H95.4542V57.9081Z" fill="#00D6DE"/>
<path fill-rule="evenodd" clip-rule="evenodd" d="M27.6062 17.0271C27.6062 18.2994 26.5769 19.3306 25.3074 19.3306C24.0377 19.3306 23.0085 18.2994 23.0085 17.0271C23.0085 15.7549 24.0377 14.7236 25.3074 14.7236C26.5769 14.7236 27.6062 15.7549 27.6062 17.0271Z" fill="#00D6DE"/>
<path d="M25.4002 17.6182C25.5095 17.6182 25.5992 17.7017 25.6094 17.8085L25.6104 17.8287V36.7187C25.6104 36.828 25.527 36.918 25.4204 36.9283L25.4002 36.9293H15.5131C15.4038 36.9293 15.3142 36.8457 15.304 36.7389L15.303 36.7187V26.1069C15.303 25.9906 15.3971 25.8964 15.5131 25.8964C15.6224 25.8964 15.7121 25.9799 15.7223 26.0866L15.7233 26.1069L15.7231 36.508H25.19L25.1901 17.8287C25.1901 17.7192 25.2735 17.6294 25.3801 17.6191L25.4002 17.6182Z" fill="#00D6DE"/>
<path fill-rule="evenodd" clip-rule="evenodd" d="M13.1692 24.9673L15.6148 20.7764L18.0269 24.9673H13.1692Z" fill="#00D6DE"/>
<path d="M25.0746 9.3623C25.1841 9.3623 25.2741 9.44583 25.2842 9.55252L25.2852 9.57287V12.6959C25.2852 12.8121 25.191 12.9065 25.0746 12.9065C24.9652 12.9065 24.8752 12.823 24.865 12.7161L24.864 12.6959V9.57287C24.864 9.4565 24.9583 9.3623 25.0746 9.3623Z" fill="#00D6DE"/>
<path d="M29.7124 11.0012C29.7945 10.9189 29.9275 10.9189 30.0096 11.0012C30.0866 11.0782 30.0913 11.2002 30.0241 11.2829L30.0096 11.2989L27.4787 13.835C27.3966 13.9173 27.2635 13.9173 27.1814 13.835C27.1045 13.7579 27.0997 13.6359 27.167 13.5533L27.1814 13.5373L29.7124 11.0012Z" fill="#00D6DE"/>
<path d="M82.5235 10.9395C82.6327 10.9395 82.7225 11.023 82.7326 11.1298L82.7336 11.15V16.9349C82.7336 17.0444 82.6502 17.1344 82.5438 17.1445L82.5235 17.1455H64.5466C64.4306 17.1455 64.3365 17.0513 64.3365 16.9349C64.3365 16.8256 64.4199 16.7356 64.5265 16.7254L64.5466 16.7244H82.3133V11.3606H58.9428C58.8337 11.3606 58.7439 11.2771 58.7336 11.1704L58.7327 11.15C58.7327 11.0407 58.816 10.9507 58.9226 10.9404L58.9428 10.9395H82.5235Z" fill="#00D6DE"/>
<path d="M82.5233 16.7246C82.6325 16.7246 82.7223 16.8081 82.7325 16.915L82.7335 16.9352V38.9173C82.7335 39.0268 82.6501 39.1168 82.5435 39.1269L82.5233 39.1279H65.2214C65.1052 39.1279 65.0112 39.0337 65.0112 38.9173C65.0112 38.8079 65.0946 38.7179 65.2011 38.7077L65.2214 38.7067H82.3131L82.3132 16.9352C82.3132 16.8258 82.3966 16.7358 82.503 16.7256L82.5233 16.7246Z" fill="#00D6DE"/>
<path d="M78.3125 12.9192C78.3895 12.842 78.5112 12.8372 78.5937 12.9047L78.6097 12.9192L80.3998 14.7129C80.4819 14.7951 80.4819 14.9284 80.3998 15.0107C80.3229 15.0878 80.2012 15.0925 80.1187 15.0251L80.1027 15.0107L78.3125 13.2169C78.2305 13.1346 78.2305 13.0013 78.3125 12.9192Z" fill="#00D6DE"/>
<path d="M80.1026 12.9191C80.1847 12.8369 80.3178 12.8369 80.3998 12.9191C80.4768 12.9962 80.4816 13.1182 80.4142 13.2009L80.3998 13.2169L78.6096 15.0106C78.5277 15.0929 78.3946 15.0929 78.3125 15.0106C78.2356 14.9336 78.2308 14.8116 78.2981 14.7289L78.3125 14.7129L80.1026 12.9191Z" fill="#00D6DE"/>
<path fill-rule="evenodd" clip-rule="evenodd" d="M76.0517 23.0045C76.0517 23.5155 75.6383 23.9297 75.1283 23.9297C74.6184 23.9297 74.2048 23.5155 74.2048 23.0045C74.2048 22.4934 74.6184 22.0791 75.1283 22.0791C75.6383 22.0791 76.0517 22.4934 76.0517 23.0045Z" fill="#00D6DE"/>
<path fill-rule="evenodd" clip-rule="evenodd" d="M71.394 23.0045C71.394 23.5155 70.9806 23.9297 70.4706 23.9297C69.9607 23.9297 69.5471 23.5155 69.5471 23.0045C69.5471 22.4934 69.9607 22.0791 70.4706 22.0791C70.9806 22.0791 71.394 22.4934 71.394 23.0045Z" fill="#00D6DE"/>
<path fill-rule="evenodd" clip-rule="evenodd" d="M66.7363 23.0045C66.7363 23.5155 66.3229 23.9297 65.8129 23.9297C65.303 23.9297 64.8894 23.5155 64.8894 23.0045C64.8894 22.4934 65.303 22.0791 65.8129 22.0791C66.3229 22.0791 66.7363 22.4934 66.7363 23.0045Z" fill="#00D6DE"/>
<path fill-rule="evenodd" clip-rule="evenodd" d="M76.0517 27.5971C76.0517 28.1082 75.6383 28.5224 75.1283 28.5224C74.6184 28.5224 74.2048 28.1082 74.2048 27.5971C74.2048 27.086 74.6184 26.6719 75.1283 26.6719C75.6383 26.6719 76.0517 27.086 76.0517 27.5971Z" fill="#00D6DE"/>
<path fill-rule="evenodd" clip-rule="evenodd" d="M71.394 27.5971C71.394 28.1082 70.9806 28.5224 70.4706 28.5224C69.9607 28.5224 69.5471 28.1082 69.5471 27.5971C69.5471 27.086 69.9607 26.6719 70.4706 26.6719C70.9806 26.6719 71.394 27.086 71.394 27.5971Z" fill="#00D6DE"/>
<path fill-rule="evenodd" clip-rule="evenodd" d="M66.7363 27.5971C66.7363 28.1082 66.3229 28.5224 65.8129 28.5224C65.303 28.5224 64.8894 28.1082 64.8894 27.5971C64.8894 27.086 65.303 26.6719 65.8129 26.6719C66.3229 26.6719 66.7363 27.086 66.7363 27.5971Z" fill="#00D6DE"/>
<path fill-rule="evenodd" clip-rule="evenodd" d="M76.0517 32.1909C76.0517 32.702 75.6383 33.1163 75.1283 33.1163C74.6184 33.1163 74.2048 32.702 74.2048 32.1909C74.2048 31.6799 74.6184 31.2656 75.1283 31.2656C75.6383 31.2656 76.0517 31.6799 76.0517 32.1909Z" fill="#00D6DE"/>
<path fill-rule="evenodd" clip-rule="evenodd" d="M71.394 32.1909C71.394 32.702 70.9806 33.1163 70.4706 33.1163C69.9607 33.1163 69.5471 32.702 69.5471 32.1909C69.5471 31.6799 69.9607 31.2656 70.4706 31.2656C70.9806 31.2656 71.394 31.6799 71.394 32.1909Z" fill="#00D6DE"/>
<path d="M97.2494 22.3154C97.8225 22.3154 98.2968 22.4797 98.7224 22.7955C99.0269 23.0215 99.2325 23.2422 99.6414 23.7459L99.7687 23.9026C100.529 24.8268 100.958 25.123 101.79 25.123C101.906 25.123 102 25.2174 102 25.3336C102 25.45 101.906 25.5442 101.79 25.5442C101.217 25.5442 100.742 25.3799 100.317 25.0642L100.257 25.019C99.9841 24.8075 99.7797 24.5838 99.3979 24.1137L99.2706 23.9572C98.5107 23.0329 98.0817 22.7366 97.2494 22.7366C96.4171 22.7366 95.9881 23.0329 95.2282 23.9572L95.0217 24.2108C94.6641 24.6469 94.4661 24.8532 94.1819 25.0642C93.7562 25.3799 93.282 25.5442 92.7089 25.5442C92.1358 25.5442 91.6615 25.3799 91.2361 25.0642L91.1764 25.019C90.9032 24.8075 90.6988 24.5838 90.3172 24.1137L90.2756 24.0625C89.4613 23.0552 89.0319 22.7366 88.1689 22.7366C87.3212 22.7366 86.892 23.044 86.1053 24.0091L85.9414 24.2108C85.5838 24.6469 85.3859 24.8534 85.1017 25.0642C84.6762 25.3801 84.2019 25.5442 83.6289 25.5442C83.0557 25.5442 82.5815 25.3799 82.156 25.0642L82.0963 25.019C81.8232 24.8075 81.6188 24.5838 81.2371 24.1137L81.1522 24.0091L81.0679 23.9064C80.3341 23.022 79.9058 22.7366 79.0891 22.7366C78.9731 22.7366 78.8789 22.6424 78.8789 22.526C78.8789 22.4098 78.9731 22.3154 79.0891 22.3154C79.662 22.3154 80.1363 22.4797 80.5617 22.7955L80.6214 22.8407C80.8848 23.0446 81.0843 23.2599 81.4403 23.6965L81.5221 23.7973C82.3365 24.8045 82.7657 25.123 83.6289 25.123C84.461 25.123 84.89 24.8268 85.6497 23.9027L85.8979 23.5984C86.2296 23.1966 86.4229 22.9981 86.696 22.7955C87.1216 22.4797 87.5958 22.3154 88.1689 22.3154C88.7421 22.3154 89.2163 22.4797 89.6418 22.7955C89.9463 23.0215 90.1517 23.2422 90.5607 23.746L90.688 23.9026C91.4478 24.8268 91.8767 25.123 92.7089 25.123C93.5412 25.123 93.9702 24.8268 94.7301 23.9026L94.9744 23.603C95.3084 23.198 95.5023 22.9989 95.7764 22.7955C96.2019 22.4797 96.6763 22.3154 97.2494 22.3154Z" fill="#00D6DE"/>
<path d="M97.2494 27.2461C97.8225 27.2461 98.2968 27.4103 98.7224 27.7262L98.782 27.7714C99.026 27.9602 99.2151 28.1587 99.5244 28.5337L99.7687 28.8332C100.529 29.7575 100.958 30.0537 101.79 30.0537C101.906 30.0537 102 30.148 102 30.2643C102 30.3806 101.906 30.4748 101.79 30.4748C101.217 30.4748 100.742 30.3106 100.317 29.9949L100.257 29.9497C99.9841 29.7381 99.7797 29.5145 99.3979 29.0444L99.3564 28.9931C98.5419 27.9859 98.1125 27.6672 97.2494 27.6672C96.4017 27.6672 95.9723 27.9747 95.1856 28.9398L95.0217 29.1415C94.6641 29.5775 94.4661 29.7839 94.1819 29.9949C93.7562 30.3106 93.282 30.4748 92.7089 30.4748C92.1358 30.4748 91.6615 30.3106 91.2361 29.9949L91.1764 29.9497C90.9032 29.7381 90.6988 29.5145 90.3172 29.0444L90.2756 28.9931C89.4613 27.9859 89.0319 27.6672 88.1689 27.6672C87.3212 27.6672 86.892 27.9747 86.1053 28.9398L85.9414 29.1415C85.5838 29.5775 85.3859 29.7839 85.1017 29.9949C84.6762 30.3106 84.2019 30.4748 83.6289 30.4748C83.0557 30.4748 82.5815 30.3106 82.156 29.9949L82.0963 29.9497C81.8232 29.7381 81.6188 29.5145 81.2371 29.0444L81.1522 28.9396L81.0679 28.837C80.3341 27.9526 79.9058 27.6672 79.0891 27.6672C78.9731 27.6672 78.8789 27.573 78.8789 27.4567C78.8789 27.3404 78.9731 27.2461 79.0891 27.2461C79.662 27.2461 80.1363 27.4103 80.5617 27.7262L80.6214 27.7714C80.8848 27.9752 81.0843 28.1906 81.4403 28.6271L81.5221 28.7279C82.3365 29.7352 82.7657 30.0537 83.6289 30.0537C84.461 30.0537 84.89 29.7575 85.6497 28.8334L85.8979 28.529C86.2296 28.1273 86.4229 27.9288 86.696 27.7262C87.1216 27.4103 87.5958 27.2461 88.1689 27.2461C88.7421 27.2461 89.2163 27.4103 89.6418 27.7262L89.7015 27.7714C89.9746 27.9828 90.179 28.2066 90.5607 28.6766L90.688 28.8332C91.4478 29.7575 91.8767 30.0537 92.7089 30.0537C93.5412 30.0537 93.9702 29.7575 94.7301 28.8332L94.9744 28.5337C95.3084 28.1287 95.5023 27.9296 95.7764 27.7262C96.2019 27.4103 96.6763 27.2461 97.2494 27.2461Z" fill="#00D6DE"/>
<path d="M101.103 91.5791C101.219 91.5791 101.314 91.6733 101.314 91.7897C101.314 91.899 101.23 91.989 101.124 91.9993L101.103 92.0002H5.25409C5.13795 92.0002 5.04395 91.9059 5.04395 91.7897C5.04395 91.6802 5.1273 91.5902 5.23377 91.5801L5.25409 91.5791H101.103Z" fill="#00D6DE"/>
<path fill-rule="evenodd" clip-rule="evenodd" d="M40.0083 91.7891H45.5422V90.2119H40.0083V91.7891Z" fill="#00D6DE"/>
<path fill-rule="evenodd" clip-rule="evenodd" d="M50.542 91.7891H56.0759V90.2119H50.542V91.7891Z" fill="#00D6DE"/>
<path fill-rule="evenodd" clip-rule="evenodd" d="M50.158 13.3292C50.4572 13.3988 50.9109 13.4675 51.4574 13.4099C51.9453 13.3586 52.3359 13.2246 52.6024 13.1094C52.4923 13.3504 52.1974 13.91 51.5581 14.3346C50.9637 14.7296 50.3827 14.8012 50.1179 14.8177C50.1314 14.3214 50.1445 13.8253 50.158 13.3292Z" fill="#00D6DE"/>
<path fill-rule="evenodd" clip-rule="evenodd" d="M51.4353 13.2008C51.8348 13.1587 52.1928 13.0575 52.519 12.9164C52.6957 12.8399 52.8735 13.022 52.7933 13.1973C52.571 13.684 52.226 14.1437 51.6741 14.5104C51.1576 14.8536 50.6362 14.9968 50.1308 15.0281C50.0075 15.0357 49.9044 14.9359 49.9078 14.8122L49.9479 13.3238C49.9514 13.1907 50.0759 13.0943 50.2054 13.1244C50.5849 13.2127 50.9926 13.2474 51.4353 13.2008ZM52.1244 13.513L52.1364 13.496L52.0727 13.5131C51.8843 13.5616 51.6867 13.5978 51.4792 13.6197C51.1024 13.6593 50.7484 13.6461 50.4138 13.5937L50.3611 13.5849L50.3342 14.5844C50.6804 14.535 51.0333 14.418 51.3836 14.1972L51.4418 14.1595C51.7285 13.9691 51.9508 13.7493 52.1244 13.513Z" fill="#00D6DE"/>
<path fill-rule="evenodd" clip-rule="evenodd" d="M87.4263 72.8054C87.4263 74.0777 86.397 75.1091 85.1274 75.1091C83.8578 75.1091 82.8286 74.0777 82.8286 72.8054C82.8286 71.5332 83.8578 70.502 85.1274 70.502C86.397 70.502 87.4263 71.5332 87.4263 72.8054Z" fill="#00D6DE"/>
<path fill-rule="evenodd" clip-rule="evenodd" d="M85.9587 88.4266H90.4611V83.915H85.9587V88.4266Z" fill="#00D6DE"/>
<path fill-rule="evenodd" clip-rule="evenodd" d="M69.9082 64.2876H87.4262V61.2158H69.9082V64.2876Z" fill="#00D6DE"/>
<path fill-rule="evenodd" clip-rule="evenodd" d="M72.8066 74.8706L75.2523 70.6797L77.6643 74.8706H72.8066Z" fill="#00D6DE"/>
<path d="M90.2643 59.1094C90.3736 59.1094 90.4634 59.1929 90.4736 59.2997L90.4744 59.3199V78.2099C90.4744 78.3194 90.3912 78.4094 90.2846 78.4195L90.2643 78.4205H80.3772C80.268 78.4205 80.1782 78.3369 80.168 78.2303L80.167 78.2099V67.8087H70.2582V85.9613H88.2098C88.3191 85.9613 88.4089 86.0448 88.4191 86.1516L88.4199 86.1718C88.4199 86.2813 88.3366 86.3713 88.2301 86.3814L88.2098 86.3824H70.048C69.9389 86.3824 69.8491 86.2989 69.8389 86.1922L69.8379 86.1718V67.5982C69.8379 67.4887 69.9212 67.3988 70.0279 67.3886L70.048 67.3876H80.3772C80.4864 67.3876 80.5762 67.4711 80.5865 67.5779L80.5873 67.5982V77.9993H90.0541V59.3199C90.0541 59.2106 90.1375 59.1206 90.2441 59.1104L90.2643 59.1094Z" fill="#00D6DE"/>
<path fill-rule="evenodd" clip-rule="evenodd" d="M36.0437 81.6826V91.926H0C0.310593 91.5822 3.0765 87.6468 6.64349 87.6468C10.2475 87.6468 12.1253 89.8995 15.143 87.5255C16.1864 86.7047 17.7899 85.5578 19.0832 85.5578C20.3314 85.5578 21.5028 86.1175 22.694 86.4878C23.9522 86.8793 25.1367 86.8708 26.3879 86.4101C27.3942 86.0395 28.3386 85.4661 29.2795 84.9004C31.4339 83.6047 33.6593 82.2409 36.0437 81.6826Z" fill="#00D6DE"/>
<path d="M27.6354 74.582C30.8909 74.582 33.5294 77.2268 33.5294 80.4892C33.5294 83.7517 30.8909 86.3964 27.6354 86.3964C25.7722 86.3964 24.0538 85.5248 22.946 84.0688C22.8757 83.9763 22.8935 83.8442 22.9858 83.7737C23.0781 83.7032 23.21 83.7209 23.2803 83.8134C24.3093 85.1661 25.9047 85.9753 27.6354 85.9753C30.6587 85.9753 33.1091 83.519 33.1091 80.4892C33.1091 77.4593 30.6587 75.0032 27.6354 75.0032C24.8897 75.0032 22.5795 77.0394 22.2118 79.7386C22.1961 79.8537 22.0902 79.9344 21.9752 79.9187C21.8601 79.903 21.7797 79.7969 21.7954 79.6816C22.1915 76.7745 24.6789 74.582 27.6354 74.582Z" fill="#00D6DE"/>
<path d="M5.15546 82.4694C5.18118 82.3717 5.27208 82.307 5.37094 82.3129L5.39081 82.315L8.08757 82.7335L11.7525 83.3004C11.8672 83.3183 11.9458 83.4258 11.9281 83.5408C11.9114 83.6489 11.8154 83.7251 11.7085 83.7188L11.6883 83.7167L8.02333 83.1497L5.51363 82.7601L3.79381 89.2941L3.38333 90.8511C3.35369 90.9635 3.2387 91.0305 3.12648 91.0009C3.02088 90.9729 2.95538 90.8692 2.97275 90.7633L2.97698 90.7435L3.38745 89.1866L5.15546 82.4694Z" fill="#00D6DE"/>
<path d="M12.6036 68.4795C12.6698 68.4275 12.7598 68.4204 12.8327 68.4595L12.8505 68.4703L20.9635 73.9325C21.0331 73.9794 21.0677 74.0631 21.053 74.1446L21.0484 74.165L19.4569 79.7676C19.4251 79.8793 19.3088 79.9442 19.1972 79.9124C19.0923 79.8824 19.0286 79.7775 19.048 79.672L19.0526 79.6522L20.6023 74.1967L12.7427 68.9052L5.29197 74.761L8.21031 82.7523L11.7526 83.3005C11.8606 83.3172 11.9366 83.4134 11.9304 83.5205L11.9282 83.5407C11.9116 83.6488 11.8155 83.725 11.7086 83.7188L11.6885 83.7166L8.02359 83.1496C7.95481 83.1391 7.89623 83.0951 7.86639 83.0331L7.8583 83.0138L4.84484 74.7622C4.81597 74.6831 4.83702 74.5953 4.89676 74.5378L4.91249 74.5242L12.6036 68.4795Z" fill="#00D6DE"/>
<path fill-rule="evenodd" clip-rule="evenodd" d="M11.7206 79.499H23.113C23.229 79.499 23.3232 79.5932 23.3232 79.7096V89.6224C23.3232 89.7386 23.229 89.833 23.113 89.833H11.7206C11.6046 89.833 11.5105 89.7386 11.5105 89.6224V79.7096C11.5105 79.5932 11.6046 79.499 11.7206 79.499ZM22.9027 89.4117V79.92H11.9307V89.4117H22.9027Z" fill="#00D6DE"/>
</svg>
