<svg width="128" height="92" viewBox="0 0 128 92" fill="none" xmlns="http://www.w3.org/2000/svg">
<path fill-rule="evenodd" clip-rule="evenodd" d="M88.9271 3.30794C77.0968 -4.84363 61.5064 2.58864 54.1053 19.9083L54.0998 19.9212C53.7515 20.7368 53.1597 21.3652 52.3793 21.7386C48.6066 23.544 44.9598 25.9586 41.6078 28.9755C26.0546 42.9736 22.7283 64.6255 34.1782 77.3363C45.628 90.0471 67.5182 89.0036 83.0715 75.0056C91.051 67.8238 95.8124 58.6274 97.0108 49.6573C97.059 49.2964 97.1468 48.9544 97.275 48.6385C104.237 31.4853 100.578 11.336 88.9271 3.30794Z" fill="black" fill-opacity="0.04"/>
<path fill-rule="evenodd" clip-rule="evenodd" d="M81.2075 14.7516C80.1652 14.408 79.0277 14.2936 77.8573 14.4129C76.537 14.5474 75.602 15.0546 74.3533 15.4917C73.2858 15.8655 71.7473 15.8377 70.7983 16.5102C70.338 16.8364 69.5966 17.5454 69.55 18.85C69.5187 19.7272 69.9354 20.7046 70.6717 21.1275C72.3084 22.0674 74.2128 20.4991 74.9864 19.1446C76.348 20.0343 77.1211 21.3863 76.8426 23.0198C76.7113 23.7893 76.4563 24.5411 76.427 25.3209C76.3759 26.6825 77.0734 28.0487 78.2062 28.8063C78.5239 29.0186 78.8782 29.1911 79.1274 29.481C79.5214 29.9391 79.5725 30.5883 79.6469 31.1878C79.7904 32.3431 80.1049 33.5209 80.7749 34.4887C81.4422 35.453 82.6775 35.8703 83.2483 36.8947C83.7669 37.8254 83.5356 38.9932 83.7658 40.0022C84.0222 41.1263 84.3768 42.2286 84.9741 43.2221C85.6719 44.3826 86.7154 45.3692 87.9927 45.8207C89.4798 46.3463 91.1071 46.0369 92.2549 44.9533C92.8335 44.4067 93.2778 43.7079 93.4713 42.9361C93.7153 41.9625 93.552 40.9228 93.1941 39.985C92.2258 37.4479 88.8093 35.4928 87.5655 33.1059C86.0631 30.2222 86.6606 26.8842 86.6431 23.7761C86.6319 21.7655 86.0816 19.5631 85.0434 17.835C84.1213 16.3003 82.7719 15.2675 81.2075 14.7516Z" fill="#00D6DE"/>
<path d="M71.6573 21.2461C71.7835 21.2627 71.8722 21.3783 71.8554 21.5043C71.6465 23.0885 71.6438 24.5177 71.7841 25.8486L71.8014 26.0054C71.9522 27.3125 72.2019 27.9787 72.718 28.4934C73.0792 28.8531 73.5206 29.0931 74.0125 29.236C74.3424 29.3319 74.6118 29.3678 74.9192 29.3836C75.9278 29.4409 76.8696 29.0712 77.7218 28.4005C77.8216 28.3218 77.9663 28.339 78.045 28.4388C78.1236 28.5387 78.1064 28.6833 78.0065 28.762C77.073 29.4966 76.0269 29.9075 74.8943 29.843C74.5557 29.8256 74.2543 29.7854 73.8841 29.6777C73.3225 29.5145 72.8135 29.2379 72.3931 28.8192C71.767 28.195 71.4853 27.4035 71.3262 25.8968C71.1825 24.5314 71.1852 23.0663 71.3991 21.4441C71.4148 21.3256 71.5182 21.24 71.6353 21.2443L71.6573 21.2461Z" fill="#00D6DE"/>
<path d="M75.167 29.391C75.2918 29.3667 75.4128 29.4479 75.4372 29.5726C75.5601 30.201 75.6623 30.8442 75.7422 31.5032C75.979 33.46 75.9925 35.3521 75.8288 37.1951C75.8242 37.2455 75.8032 37.2931 75.7689 37.3303C74.5771 38.6261 73.4164 39.9903 72.2934 41.425C71.6364 42.2647 70.9507 43.2381 70.2064 44.3721L70.0543 44.6048C69.7239 45.1126 69.3848 45.6466 69.0076 46.2511L67.7877 48.2245C67.7208 48.3326 67.579 48.3659 67.4709 48.299C67.3628 48.2322 67.3294 48.0905 67.3963 47.9825L68.5291 46.149L68.7038 45.8688C69.0768 45.2724 69.4139 44.7431 69.7452 44.2362L69.8216 44.1197C70.5723 42.9759 71.2651 41.9925 71.9308 41.1416C72.9861 39.7934 74.0744 38.5069 75.1905 37.2808L75.3768 37.077L75.3867 36.9599C75.5247 35.274 75.511 33.5462 75.3094 31.7644L75.2852 31.5584C75.2066 30.9107 75.1063 30.2784 74.9854 29.661C74.961 29.5363 75.0423 29.4154 75.167 29.391Z" fill="#00D6DE"/>
<path d="M87.3379 45.2285C87.4644 45.2171 87.5764 45.3104 87.5878 45.4369C87.8086 47.8794 88.2139 50.4136 88.8617 53.0386C89.5042 55.6454 90.3195 58.0787 91.3384 60.5689L91.4485 60.836C91.9028 61.9328 92.2985 62.8253 92.9348 64.2015L93.9104 66.3038C94.3772 67.318 94.6124 67.861 94.8536 68.4784L94.9343 68.6882C95.7571 70.8639 95.821 72.2691 94.992 73.4317C94.1352 74.6331 92.5022 75.2725 90.3692 75.4923C89.607 75.5708 88.8235 75.59 88.0512 75.5644C87.5433 75.5475 87.1289 75.5154 86.7947 75.4791C86.1919 75.4125 85.7101 75.3121 85.185 75.1523L85.0795 75.1196C84.8094 75.0342 83.7288 74.6506 83.4356 74.5534C82.6368 74.2887 81.7991 74.0532 80.737 73.8091L80.5008 73.7553C78.8871 73.3909 78.1071 73.2863 76.6468 73.172L76.4334 73.1556C75.8416 73.1107 75.5725 73.0622 75.266 72.919C75.1045 72.8436 74.9459 72.7434 74.7731 72.6081C74.0839 72.0682 73.6696 71.3692 73.4358 70.4179L73.4166 70.338C73.2514 69.6253 73.1879 68.9291 73.1332 67.4676L73.0986 66.4722C73.0017 63.8004 72.8836 62.3956 72.5148 60.3626L72.4962 60.2605C72.0388 57.7626 71.3591 55.5656 70.527 53.524C70.4792 53.4064 70.5356 53.272 70.6535 53.2242C70.7711 53.1762 70.9054 53.2328 70.9534 53.3504C71.7965 55.4195 72.4853 57.6459 72.949 60.1775L72.9862 60.3835C73.3391 62.3537 73.4585 63.7583 73.5535 66.3195L73.5961 67.5263C73.6489 68.9052 73.7112 69.5708 73.8651 70.234C74.0729 71.1298 74.4376 71.7606 75.057 72.2458C75.2037 72.3607 75.3331 72.4426 75.4608 72.5023L75.5125 72.5253C75.7365 72.621 75.9674 72.6588 76.4682 72.6967L76.7823 72.7211C78.235 72.8371 79.0388 72.9501 80.7214 73.3335L80.8403 73.3606C81.8267 73.5875 82.6247 73.8074 83.3765 74.05L83.5805 74.1167C83.8812 74.2164 84.9575 74.5985 85.2182 74.6808C85.757 74.8511 86.233 74.9541 86.8449 75.0217L86.9698 75.0348C87.2703 75.0645 87.6331 75.0902 88.0664 75.1046C88.8192 75.1296 89.5823 75.1109 90.3221 75.0346C92.3359 74.8271 93.856 74.2319 94.6171 73.1645C95.3441 72.1452 95.2754 70.8619 94.4726 68.7692L94.3505 68.4574C94.0864 67.7956 93.7977 67.1506 93.168 65.7954L92.5162 64.3929C91.8779 63.0121 91.4802 62.1153 91.0231 61.0119C89.9444 58.4079 89.0861 55.8727 88.4148 53.1487C87.7612 50.5 87.3523 47.943 87.1293 45.4783C87.118 45.3518 87.2113 45.24 87.3379 45.2285Z" fill="#00D6DE"/>
<path d="M74.9013 72.131C74.9636 72.2417 74.9243 72.3819 74.8135 72.4441L69.6 75.3779C63.2614 78.9528 61.9095 79.7924 59.7349 81.5436C59.6107 81.6435 59.4816 81.7427 59.3451 81.8438L59.2278 81.9297C59.1091 82.0158 58.9839 82.1042 58.8418 82.2023L58.2104 82.6339L58.0604 82.7379C56.984 83.4903 56.4383 84.0297 56.0297 84.8637L56.0021 84.921C55.9419 85.046 55.8872 85.1687 55.8246 85.3276C55.6124 85.8638 55.4588 86.4569 55.4072 87.0867C55.3382 87.9332 55.4651 88.7564 55.8338 89.5288C56.2111 90.3201 56.7585 90.9131 57.3929 91.3678L57.468 91.4205H84.5953V83.0008C84.5953 82.8811 84.6866 82.783 84.8033 82.7718L84.8254 82.7707C84.9451 82.7707 85.0435 82.862 85.0547 82.9787L85.0556 83.0008V91.6506C85.0556 91.7702 84.9644 91.8685 84.8477 91.8796L84.8254 91.8806H57.3965C57.3506 91.8806 57.3058 91.867 57.2677 91.8412C56.5147 91.333 55.8614 90.6563 55.4183 89.7268C55.0124 88.8767 54.8733 87.9727 54.9485 87.0493C55.0042 86.3699 55.1688 85.7339 55.3965 85.1588C55.4551 85.0097 55.5077 84.8896 55.563 84.7726L55.5867 84.7226C56.0495 83.7481 56.6603 83.1478 57.8717 82.3086L58.5086 81.8732C58.7264 81.7234 58.9023 81.5988 59.0712 81.474C59.203 81.3765 59.3271 81.2811 59.4462 81.1852L59.7119 80.9725C61.7668 79.3392 63.2716 78.419 69.3726 74.9779L74.5878 72.0432C74.6986 71.981 74.839 72.0202 74.9013 72.131Z" fill="#00D6DE"/>
<path d="M92.1679 74.8065C92.1986 74.6832 92.3235 74.608 92.4468 74.6387C92.5702 74.6694 92.6454 74.794 92.6147 74.9173C91.9994 77.3922 90.8514 79.5338 89.0155 81.1264L88.8927 81.2311C88.8689 81.2506 88.8396 81.2736 88.7772 81.3222C88.4276 81.582 87.9021 81.8794 87.2487 82.195L87.1729 82.233C87.127 82.2556 87.0741 82.2807 86.992 82.3195L86.7667 82.4243C86.499 82.5473 86.2135 82.673 85.91 82.8022L85.5112 82.9701C85.3527 83.0362 85.1861 83.104 84.9943 83.181L84.9105 83.2146C84.2747 83.4675 83.6315 83.7074 83.12 83.8859L82.8134 83.9889C82.7712 84.0027 82.7356 84.0141 82.7043 84.0237L82.6859 84.0294C79.8396 84.8912 77.149 85.3237 74.534 85.4727C74.4072 85.48 74.2984 85.383 74.2912 85.2562C74.2838 85.1294 74.3809 85.0206 74.5078 85.0134C77.0255 84.8699 79.6142 84.4601 82.3471 83.6506L82.5523 83.5891C82.635 83.5641 82.7543 83.5244 82.9699 83.4509L83.153 83.3864C83.5921 83.2302 84.1102 83.0361 84.6288 82.8313L84.7399 82.7873C84.9655 82.6971 85.1549 82.6201 85.3343 82.5453L85.4672 82.4896C85.9107 82.3042 86.3167 82.1265 86.6859 81.9548L86.9074 81.8502C86.9615 81.8245 86.9995 81.8056 87.0437 81.7831L87.1996 81.707C87.7605 81.4296 88.2073 81.1725 88.4982 80.9563L88.597 80.8784C88.6086 80.869 88.6179 80.8612 88.6291 80.8517C90.435 79.3205 91.5644 77.2341 92.1679 74.8065Z" fill="#00D6DE"/>
<path d="M59.2588 67.6441C59.2605 67.459 59.4693 67.3518 59.621 67.4581C61.5351 68.7991 63.5461 70.0713 65.664 71.2632C67.4897 72.292 69.3284 73.2231 71.1808 74.0671C71.2965 74.1198 71.3474 74.2562 71.2948 74.3718C71.242 74.4875 71.1054 74.5384 70.9899 74.4858C69.1257 73.6364 67.2753 72.6995 65.4381 71.6641C63.5199 70.5846 61.6888 69.4396 59.9376 68.2376L59.7139 68.0832L59.7126 68.1903C59.6928 69.634 59.6489 71.0737 59.5801 72.5138L59.5531 73.0538C59.3923 76.1435 59.1216 79.1838 58.7491 82.1709C58.7334 82.2971 58.6183 82.3866 58.4922 82.3708C58.3661 82.3551 58.2767 82.2401 58.2923 82.114C58.6636 79.1378 58.933 76.1085 59.0934 73.0299C59.1871 71.2361 59.2413 69.4439 59.2588 67.6441Z" fill="#00D6DE"/>
<path d="M53.5546 61.0327C54.845 58.5905 57.8096 57.7357 60.9643 58.4201C65.1547 59.3268 69.319 60.8159 73.2193 62.7953C73.3327 62.8528 73.3779 62.9913 73.3204 63.1046C73.2629 63.2178 73.1243 63.263 73.0109 63.2055C69.1457 61.2438 65.0186 59.768 60.8669 58.8697C57.8928 58.2245 55.1394 59.0183 53.9615 61.2475C53.4399 62.2344 53.1849 63.3679 53.0468 64.9591C52.7858 67.9513 52.6791 70.7209 52.743 73.3534L52.8074 75.7539C52.8318 76.7278 52.8447 77.3994 52.8544 78.1871L52.8594 78.6619C52.8699 79.8359 52.8634 80.9144 52.8373 81.9542L52.8332 82.1083L58.2337 82.1085C58.3534 82.1085 58.4517 82.1996 58.4628 82.3163L58.4639 82.3385C58.4639 82.458 58.3726 82.5563 58.256 82.5675L58.2337 82.5686H52.5966C52.4668 82.5686 52.3626 82.4612 52.3666 82.3316C52.4033 81.1047 52.4119 79.8324 52.3967 78.4174L52.3824 77.3923C52.3718 76.7686 52.3571 76.1238 52.3333 75.2237L52.2899 73.6293C52.2115 70.8994 52.317 68.0277 52.5883 64.9192L52.6086 64.6975C52.756 63.1647 53.0236 62.0373 53.5546 61.0327Z" fill="#00D6DE"/>
<path d="M52.6894 82.2365C52.7408 82.1312 52.8649 82.0802 52.9769 82.122C53.0889 82.1641 53.1489 82.284 53.1185 82.397L53.1118 82.4177L51.3666 87.0719C51.3476 87.1245 51.31 87.1682 51.2614 87.1951L51.2399 87.2055L44.9508 89.871C44.3268 90.1356 43.9124 90.7308 43.8768 91.401L43.876 91.4198H58.521C58.6407 91.4198 58.7389 91.5111 58.7501 91.6278L58.7512 91.6499C58.7512 91.7695 58.6599 91.8678 58.5431 91.8789L58.521 91.8799H43.6442C43.5245 91.8799 43.4262 91.7887 43.4151 91.6721L43.4141 91.6499V91.495C43.4141 90.6193 43.9278 89.8274 44.7239 89.4681L44.771 89.4474L50.9688 86.8207L51.6342 85.0507L52.6808 82.2564L52.6894 82.2365Z" fill="#00D6DE"/>
<path d="M50.9958 86.7543C51.03 86.6319 51.1569 86.5603 51.2793 86.5945C51.8081 86.742 52.3613 86.8466 52.9343 86.8998C53.6936 86.9705 54.4319 86.9458 55.1443 86.8416C55.27 86.8231 55.3869 86.9101 55.4053 87.0357C55.4237 87.1615 55.3367 87.2783 55.211 87.2967C54.4634 87.4062 53.6885 87.4322 52.8916 87.3579C52.2905 87.3021 51.7103 87.1925 51.1557 87.0377C51.0332 87.0035 50.9617 86.8767 50.9958 86.7543Z" fill="#00D6DE"/>
<path d="M85.3701 82.5666C85.4453 82.4642 85.5894 82.4421 85.6919 82.5172C86.3604 83.0076 87.0143 83.5112 87.6945 84.0572L87.8995 84.2222C88.3736 84.6056 88.8487 84.9993 89.416 85.4771L90.7838 86.6325C94.1194 89.4489 94.6555 89.8685 96.7813 91.3944C96.963 91.5247 96.8708 91.8114 96.6471 91.8114L95.7675 91.8133C95.2117 91.8163 94.8116 91.823 94.3824 91.8348L93.6341 91.8575C93.1068 91.8725 92.6505 91.8795 91.9091 91.8813L91.4444 91.8819C90.7808 91.8819 90.3261 91.537 89.7759 90.8074L89.711 90.7203C89.6428 90.6272 89.5045 90.4369 89.4734 90.3946C88.7039 89.3552 87.6099 88.65 86.0529 88.0787L85.8755 88.0151C85.8313 87.9996 85.7861 87.9841 85.7344 87.9668L85.1731 87.7814C85.0016 87.7239 84.8744 87.6785 84.742 87.6271C84.6235 87.5812 84.5646 87.4479 84.6106 87.3294C84.6565 87.211 84.7898 87.1523 84.9084 87.1981L84.9767 87.2242C85.1024 87.2716 85.2334 87.317 85.4177 87.3779L85.8829 87.5312C85.9676 87.5596 86.036 87.5835 86.1104 87.6102C87.7647 88.2039 88.9482 88.9456 89.7931 90.0541L89.8804 90.1714C89.9406 90.2538 90.0463 90.3995 90.0938 90.4639L90.1052 90.4794C90.5939 91.1381 90.9547 91.4218 91.4444 91.4218L92.1945 91.4201C92.8055 91.4172 93.2177 91.4097 93.7059 91.3951L94.2887 91.3772C94.7135 91.3649 95.1002 91.3577 95.6186 91.3542L95.9356 91.3523L95.3974 90.9605C94.0858 89.9975 93.2182 89.2891 90.6951 87.1599L89.2148 85.9092C88.6391 85.4237 88.1604 85.0263 87.6885 84.6437L87.6099 84.58C86.8609 83.9742 86.1488 83.423 85.4195 82.8882C85.317 82.8131 85.2949 82.6691 85.3701 82.5666Z" fill="#00D6DE"/>
<path d="M92.1731 91.4209C92.3002 91.4209 92.4033 91.524 92.4033 91.6509C92.4033 91.7706 92.312 91.8689 92.1952 91.8799L92.1731 91.881H84.8251C84.6979 91.881 84.595 91.7781 84.595 91.6509C84.595 91.5315 84.6863 91.4332 84.8029 91.422L84.8251 91.4209H92.1731Z" fill="#00D6DE"/>
<path d="M70.0158 46.7336C70.1207 46.6618 70.2639 46.6887 70.3357 46.7936C70.94 47.6768 71.4958 48.6224 71.9926 49.6397C72.4649 50.6061 72.8247 51.4924 73.1312 52.4233C73.171 52.544 73.1053 52.6741 72.9845 52.7138C72.8638 52.7533 72.7337 52.6877 72.6939 52.567C72.394 51.6559 72.0422 50.7892 71.5789 49.8417C71.0923 48.845 70.5479 47.9186 69.9558 47.0532C69.884 46.9485 69.9108 46.8052 70.0158 46.7336Z" fill="#00D6DE"/>
<path d="M41.3897 34.8401C40.9389 34.1964 41.7205 33.3635 42.372 33.8152C42.3987 33.8334 42.4235 33.8532 42.4458 33.8741C43.5051 34.857 44.4005 36.015 45.0851 37.2872L45.1798 37.4657C45.373 37.8357 45.546 38.2042 45.7984 38.7738L46.1507 39.5756C46.9559 41.3968 47.4251 42.2247 48.2181 43.0372L48.2586 43.0786C49.0771 43.9059 50.0672 44.5873 51.6095 45.453L51.9184 45.6249C52.1762 45.7671 53.167 46.3045 53.4002 46.4332L53.5782 46.5316C53.6644 46.5796 53.7472 46.626 53.8271 46.6712L54.541 47.0788C54.7995 47.2247 55.0634 47.3698 55.4628 47.5857L57.0314 48.4302C58.6642 49.3128 59.6034 49.8638 60.6396 50.5747C61.1747 50.9418 61.8623 50.9918 62.4394 50.7072L62.4873 50.6826L73.8896 44.7192C74.0022 44.6603 74.1414 44.7038 74.2003 44.8164C74.2557 44.9224 74.2204 45.0517 74.1222 45.1156L74.103 45.127L62.7019 51.0897C61.9647 51.4814 61.07 51.428 60.3791 50.9539L60.1964 50.8296C59.2452 50.1877 58.3336 49.6572 56.8106 48.8338L55.0714 47.8971C54.7079 47.6997 54.4606 47.5627 54.1989 47.414L53.6783 47.1158C53.5495 47.0425 53.414 46.9666 53.2674 46.8853L52.642 46.5436C52.2793 46.3462 51.8533 46.1145 51.6961 46.0278L51.4842 45.9102C49.8497 44.9981 48.8049 44.2851 47.9313 43.4021L47.8471 43.3157C47.0296 42.4665 46.5438 41.6032 45.7302 39.7625L45.4093 39.0319C45.1129 38.3609 44.9282 37.97 44.7031 37.5489L44.6798 37.5051C44.0419 36.3198 43.2142 35.237 42.2371 34.3095L42.132 34.2105C42.1263 34.2053 42.1196 34.2001 42.1108 34.194C41.8896 34.0406 41.6045 34.3444 41.7667 34.5762L41.8149 34.6438C41.8368 34.6743 41.8603 34.7064 41.8873 34.7426L42.0901 35.0126C42.3695 35.3876 42.5022 35.598 42.6198 35.8818L42.6627 35.9874C42.9415 36.6909 43.0815 37.3751 43.2287 38.5497L43.3056 39.1854C43.5678 41.324 43.8468 42.2613 44.6994 43.2154L44.7368 43.257C45.2522 43.823 45.7895 44.2391 46.814 44.911L47.4287 45.3101L47.5522 45.3912C48.1874 45.8116 48.7781 46.2583 49.649 46.9595L50.3913 47.5606C52.8885 49.5822 55.293 51.559 57.6259 53.5096L58.3612 54.1254C59.213 54.8404 60.0449 55.5437 60.8604 56.2386C61.3594 56.6637 62.0485 56.7806 62.656 56.5463L62.7038 56.5269L74.77 51.4654C74.8872 51.4163 75.0221 51.4714 75.0713 51.5886C75.1175 51.6988 75.0715 51.8247 74.9682 51.8801L74.9481 51.8898L62.8819 56.9513C62.1026 57.2781 61.2058 57.1376 60.5618 56.5888C59.5144 55.6963 58.4399 54.7899 57.3306 53.8625C55.1454 52.0353 52.897 50.1851 50.5683 48.2964L49.3613 47.3187C48.5005 46.6257 47.9193 46.1861 47.2982 45.7749L46.5573 45.2929C45.504 44.602 44.9441 44.1683 44.3964 43.5666C43.8417 42.9573 43.4744 42.2517 43.2318 41.4017L43.1944 41.2667C43.058 40.7611 42.9785 40.2906 42.8737 39.4478L42.783 38.6945C42.6327 37.4751 42.496 36.801 42.2153 36.1086L42.1946 36.058C42.0995 35.8284 41.987 35.6468 41.7503 35.327L41.5083 35.0042C41.4632 34.9433 41.427 34.8932 41.3897 34.8401Z" fill="#00D6DE"/>
<path d="M80.8315 34.7473C80.9266 34.6631 81.0721 34.6718 81.1563 34.7669C81.2407 34.862 81.232 35.0074 81.1368 35.0916C80.5374 35.6229 79.7104 36.1526 78.7203 36.634L78.6113 36.686C77.8009 37.0657 77.1212 37.2159 75.7314 37.3616C75.605 37.3748 75.4918 37.283 75.4786 37.1567C75.4654 37.0303 75.5571 36.9171 75.6834 36.9039L75.9428 36.8757C77.1395 36.7404 77.7392 36.5929 78.4679 36.2448L78.519 36.2202C79.4736 35.7561 80.266 35.2485 80.8315 34.7473Z" fill="#00D6DE"/>
<path fill-rule="evenodd" clip-rule="evenodd" d="M8.89168 57.4989L13.002 43.3049C13.0374 43.1828 13.1649 43.1124 13.2871 43.1478L27.4874 47.2562C27.6095 47.2915 27.6798 47.4191 27.6445 47.5412L23.5342 61.7353C23.4989 61.8572 23.3713 61.9276 23.2491 61.8922L9.0488 57.7837C8.92667 57.7484 8.8564 57.6208 8.89168 57.4989ZM27.1383 47.6341L13.38 43.6536L9.39771 57.4056L23.156 61.3862L27.1383 47.6341Z" fill="#00D6DE"/>
<path d="M15.2851 49.8002C15.389 49.744 15.5171 49.7759 15.5832 49.8709L15.5949 49.8893L17.9288 54.0147C17.9914 54.1252 17.9524 54.2657 17.8418 54.3281C17.7376 54.387 17.607 54.3561 17.54 54.2599L17.5281 54.2412L15.3052 50.3123L10.653 52.8249C10.5477 52.8818 10.4179 52.8482 10.3526 52.7509L10.3412 52.7319C10.2843 52.6267 10.3179 52.4968 10.4153 52.4316L10.4342 52.4201L15.2851 49.8002Z" fill="#00D6DE"/>
<path d="M20.4322 52.4056C20.536 52.3495 20.6641 52.3814 20.7302 52.4762L20.7419 52.4948L23.2233 56.8802C23.2859 56.9908 23.247 57.1312 23.1363 57.1937C23.0323 57.2526 22.9017 57.2216 22.8345 57.1255L22.8227 57.1068L20.4523 52.9176L13.3814 56.7367C13.2762 56.7936 13.1462 56.76 13.081 56.6626L13.0695 56.6436C13.0126 56.5384 13.0462 56.4087 13.1436 56.3433L13.1626 56.332L20.4322 52.4056Z" fill="#00D6DE"/>
<path fill-rule="evenodd" clip-rule="evenodd" d="M24.0468 50.1474C23.8445 50.8465 23.1133 51.2491 22.414 51.0466C21.7147 50.8445 21.3117 50.1137 21.5143 49.4147C21.7167 48.7156 22.4478 48.3129 23.1471 48.5152C23.8464 48.7176 24.2492 49.4482 24.0468 50.1474Z" fill="#00D6DE"/>
<path d="M41.9307 18.4676C42.0464 18.4372 42.1647 18.5005 42.2052 18.6105L42.2118 18.6317L46.7612 35.9367C46.7936 36.0595 46.7201 36.1853 46.5972 36.2176C46.4815 36.248 46.3632 36.1847 46.3227 36.0747L46.3161 36.0535L41.825 18.9709L24.9577 23.4015L29.3902 40.2616L40.2607 37.4062C40.3764 37.3759 40.4947 37.4392 40.5352 37.5492L40.5418 37.5703C40.5722 37.686 40.509 37.8042 40.399 37.8445L40.3778 37.8513L29.2847 40.7651C29.169 40.7955 29.0507 40.7321 29.0102 40.6221L29.0036 40.601L24.4541 23.296C24.4238 23.1803 24.487 23.0621 24.597 23.0217L24.6182 23.015L41.9307 18.4676Z" fill="#00D6DE"/>
<path fill-rule="evenodd" clip-rule="evenodd" d="M34.0617 33.533L32.3349 26.9645C32.29 26.7932 32.4472 26.6375 32.6182 26.6842L39.1725 28.4736C39.3434 28.5202 39.3997 28.7343 39.2737 28.859L34.4462 33.6381C34.3203 33.7626 34.1068 33.7043 34.0617 33.533ZM38.6668 28.8124L32.8813 27.2329L34.4055 33.0307L38.6668 28.8124Z" fill="#00D6DE"/>
<path fill-rule="evenodd" clip-rule="evenodd" d="M17.8975 32.8009C17.8975 34.4215 16.583 35.7355 14.9616 35.7355C13.3401 35.7355 12.0256 34.4215 12.0256 32.8009C12.0256 31.1801 13.3401 29.8662 14.9616 29.8662C16.583 29.8662 17.8975 31.1801 17.8975 32.8009Z" fill="#00D6DE"/>
<path fill-rule="evenodd" clip-rule="evenodd" d="M40.2692 53.5789C40.2692 54.6273 39.4188 55.4772 38.3701 55.4772C37.3213 55.4772 36.4709 54.6273 36.4709 53.5789C36.4709 52.5305 37.3213 51.6807 38.3701 51.6807C39.4188 51.6807 40.2692 52.5305 40.2692 53.5789Z" fill="#00D6DE"/>
<path fill-rule="evenodd" clip-rule="evenodd" d="M58.8177 28.0076C58.8177 29.229 57.827 30.2191 56.6051 30.2191C55.3831 30.2191 54.3926 29.229 54.3926 28.0076C54.3926 26.786 55.3831 25.7959 56.6051 25.7959C57.827 25.7959 58.8177 26.786 58.8177 28.0076Z" fill="#00D6DE"/>
<path d="M49.6073 54.6765C49.7133 54.6212 49.8427 54.6567 49.9065 54.7551L49.9177 54.7742L51.3753 57.5713C51.4341 57.684 51.3902 57.8228 51.2776 57.8816C51.1714 57.9368 51.0421 57.9014 50.9782 57.803L50.967 57.7839L49.6158 55.1908L39.7528 60.3264L44.8905 70.1852L49.3405 67.8683C49.4465 67.8129 49.5759 67.8485 49.6397 67.9468L49.6509 67.966C49.7061 68.072 49.6707 68.2012 49.5723 68.265L49.5531 68.2762L44.8991 70.6996C44.7929 70.7548 44.6636 70.7194 44.5997 70.621L44.5885 70.6019L39.2382 60.335C39.183 60.2288 39.2186 60.0995 39.3169 60.0357L39.3361 60.0247L49.6073 54.6765Z" fill="#00D6DE"/>
<path d="M43.9555 62.7233C44.0617 62.6681 44.1911 62.7035 44.255 62.8019L44.266 62.821L45.4331 65.0596C45.4919 65.1723 45.4482 65.3112 45.3354 65.3698C45.2291 65.4252 45.0997 65.3896 45.0359 65.2913L45.0248 65.2721L43.8577 63.0336C43.7989 62.9209 43.8426 62.7819 43.9555 62.7233Z" fill="#00D6DE"/>
<path d="M44.8057 61.1735C44.9118 61.1183 45.0411 61.1539 45.1049 61.2522L45.1161 61.2713L47.1899 65.2507C47.2487 65.3633 47.205 65.5022 47.0922 65.561C46.986 65.6162 46.8567 65.5808 46.7928 65.4823L46.7818 65.4633L44.708 61.4839C44.6492 61.3712 44.693 61.2322 44.8057 61.1735Z" fill="#00D6DE"/>
<path d="M46.5637 61.3659C46.6698 61.3107 46.7992 61.3462 46.8631 61.4446L46.8743 61.4637L48.0414 63.7021C48.1002 63.8147 48.0563 63.9536 47.9436 64.0124C47.8374 64.0676 47.708 64.0321 47.6441 63.9338L47.6329 63.9147L46.4658 61.6763C46.407 61.5636 46.4509 61.4246 46.5637 61.3659Z" fill="#00D6DE"/>
<path d="M47.414 59.8161C47.52 59.7609 47.6494 59.7963 47.7132 59.8946L47.7244 59.9138L49.7982 63.8932C49.857 64.0059 49.8131 64.1449 49.7005 64.2034C49.5943 64.2588 49.4649 64.2232 49.4011 64.1249L49.3899 64.1057L47.3161 60.1264C47.2574 60.0136 47.3012 59.8747 47.414 59.8161Z" fill="#00D6DE"/>
<path d="M49.1716 60.0065C49.2777 59.9513 49.4071 59.9867 49.4709 60.0851L49.4821 60.1042L50.6493 62.3428C50.7081 62.4555 50.6641 62.5944 50.5515 62.653C50.4452 62.7084 50.3158 62.6728 50.252 62.5745L50.2408 62.5553L49.0736 60.3168C49.015 60.2041 49.0587 60.0651 49.1716 60.0065Z" fill="#00D6DE"/>
<path fill-rule="evenodd" clip-rule="evenodd" d="M57.3964 91.6501H43.6443V91.4952C43.6443 90.6946 44.123 89.9723 44.861 89.6594L51.1502 86.9939C51.1701 86.9385 51.1932 86.8789 51.2177 86.8145C51.7179 86.954 52.2871 87.069 52.9131 87.1273C53.7539 87.2055 54.518 87.1641 55.1778 87.0675C55.1149 87.8388 55.1993 88.7329 55.6258 89.6272C56.1383 90.7021 56.9377 91.3401 57.3964 91.6501Z" fill="#00D6DE"/>
<path fill-rule="evenodd" clip-rule="evenodd" d="M96.6474 91.5797C93.5544 91.5797 94.3827 91.6502 91.4447 91.6502C90.5946 91.6502 90.105 90.8604 89.6586 90.2561C88.7502 89.0292 87.4431 88.3312 86.033 87.8253C85.6356 87.6826 85.2213 87.5644 84.8254 87.411V83.0004C85.0633 82.9051 85.3089 82.8056 85.5559 82.7012C89.4207 85.5355 91.9079 88.1779 96.6474 91.5797Z" fill="#00D6DE"/>
<path d="M127.77 91.4209C127.897 91.4209 128 91.524 128 91.6509C128 91.7706 127.909 91.8689 127.792 91.8799L127.77 91.881H0.230149C0.103045 91.881 0 91.7781 0 91.6509C0 91.5315 0.0912767 91.4332 0.207993 91.422L0.230149 91.4209H127.77Z" fill="#00D6DE"/>
<path fill-rule="evenodd" clip-rule="evenodd" d="M5.71526 73.0723H35.2812C35.4083 73.0723 35.5114 73.1753 35.5114 73.3023V91.6513C35.5114 91.7783 35.4083 91.8813 35.2812 91.8813H5.71526C5.58821 91.8813 5.48511 91.7783 5.48511 91.6513V73.3023C5.48511 73.1753 5.58821 73.0723 5.71526 73.0723ZM35.0509 91.4212V73.5324H5.94525V91.4212H35.0509Z" fill="#00D6DE"/>
<path d="M14.9612 73.0723C15.0809 73.0723 15.1792 73.1635 15.1902 73.2802L15.1913 73.3023V91.6511C15.1913 91.7783 15.0884 91.8812 14.9612 91.8812C14.8418 91.8812 14.7435 91.7899 14.7323 91.6734L14.7312 91.6511V73.3023C14.7312 73.1753 14.8343 73.0723 14.9612 73.0723Z" fill="#00D6DE"/>
<path fill-rule="evenodd" clip-rule="evenodd" d="M2.64644 67.8682H11.8929C11.9744 67.8682 12.0499 67.9113 12.0913 67.9813L15.1599 73.1846C15.2503 73.3379 15.1397 73.5315 14.9615 73.5315H5.71509C5.63362 73.5315 5.55828 73.4884 5.51686 73.4183L2.44821 68.2151C2.35784 68.0617 2.46846 67.8682 2.64644 67.8682ZM14.5588 73.0712L11.7614 68.3281H3.0492L5.84643 73.0712H14.5588Z" fill="#00D6DE"/>
<path fill-rule="evenodd" clip-rule="evenodd" d="M29.0852 67.8682H38.3317C38.5098 67.8682 38.6204 68.0617 38.5299 68.2151L35.4613 73.4183C35.42 73.4884 35.3445 73.5315 35.263 73.5315H26.0166C25.8384 73.5315 25.728 73.3379 25.8183 73.1846L28.887 67.9813C28.9284 67.9113 29.0038 67.8682 29.0852 67.8682ZM35.1315 73.0712L37.9288 68.3281H29.2167L26.4193 73.0712H35.1315Z" fill="#00D6DE"/>
<path fill-rule="evenodd" clip-rule="evenodd" d="M5.71509 91.6498H14.9615V73.3008H5.71509V91.6498Z" fill="#00D6DE"/>
<path fill-rule="evenodd" clip-rule="evenodd" d="M23.0226 73.0723H26.9569C27.0841 73.0723 27.1871 73.1753 27.1871 73.3023V77.7217C27.1871 77.8889 27.0145 78.0002 26.8621 77.9313L24.9898 77.0848L23.1176 77.9313C22.9712 77.9974 22.8063 77.8975 22.7934 77.7415L22.7925 77.7217V73.3023C22.7925 73.1753 22.8956 73.0723 23.0226 73.0723ZM26.7268 77.3651V73.5322H23.2528V77.3651L24.895 76.6228C24.9477 76.5991 25.0073 76.596 25.0617 76.6139L25.0848 76.6228L26.7268 77.3651Z" fill="#00D6DE"/>
<path fill-rule="evenodd" clip-rule="evenodd" d="M23.0226 86.9385H26.9569C27.084 86.9385 27.1871 87.0415 27.1871 87.1685V91.5877C27.1871 91.7147 27.084 91.8178 26.9569 91.8178H23.0226C22.8956 91.8178 22.7925 91.7147 22.7925 91.5877V87.1685C22.7925 87.0415 22.8956 86.9385 23.0226 86.9385ZM26.7266 91.3577V87.3986H23.2526V91.3577H26.7266Z" fill="#00D6DE"/>
<path fill-rule="evenodd" clip-rule="evenodd" d="M75.2114 29.6164C75.607 29.6004 76.1983 29.5438 76.811 29.234C77.3523 28.9603 77.974 28.3947 78.2833 28.1738C78.2833 28.6753 78.0093 29.6195 77.4609 30.2958C76.7267 31.2014 75.8121 31.4875 75.5511 31.5575C75.4241 30.7608 75.5002 31.1855 75.4143 30.7077C75.3342 30.2614 75.3314 30.1585 75.2114 29.6164Z" fill="#00D6DE"/>
<path fill-rule="evenodd" clip-rule="evenodd" d="M78.0966 28.0252L78.1493 27.9856C78.3017 27.8769 78.5133 27.9858 78.5133 28.1729C78.5133 28.8162 78.1641 29.7927 77.6395 30.4396C77.0271 31.1949 76.2994 31.5937 75.6106 31.7788C75.4787 31.8142 75.345 31.7276 75.3236 31.5928C75.295 31.4133 75.2746 31.2833 75.2605 31.1893L75.2392 31.0446L75.1602 30.5913L75.1022 30.2447C75.0819 30.1261 75.0614 30.0169 75.0337 29.8847L74.9865 29.6651C74.9555 29.5253 75.0586 29.3914 75.2019 29.3855C75.7607 29.363 76.2297 29.2691 76.7068 29.0277C76.804 28.9787 76.9096 28.9164 77.0235 28.8415C77.1483 28.7593 77.2809 28.6638 77.4282 28.5512C77.4709 28.5186 77.5712 28.439 77.6847 28.3491C77.8328 28.2316 78.0031 28.0967 78.0966 28.0252ZM77.9664 28.7557L77.9798 28.7023L77.7526 28.8819L77.6422 28.9664C77.5124 29.0642 77.3923 29.1498 77.2763 29.226C77.1488 29.3098 77.0287 29.3806 76.9147 29.4383C76.464 29.6662 76.0241 29.7783 75.5359 29.8245L75.492 29.8281L75.5118 29.9269C75.5279 30.0088 75.5419 30.0858 75.5559 30.1666L75.6269 30.589L75.6858 30.9206L75.7365 31.2566L75.7744 31.2428C75.8933 31.1979 76.0189 31.142 76.151 31.073L76.2176 31.0373C76.6112 30.8217 76.9736 30.5301 77.2818 30.1499C77.597 29.7613 77.8432 29.2265 77.9664 28.7557Z" fill="#00D6DE"/>
<path fill-rule="evenodd" clip-rule="evenodd" d="M105.562 64.3555H123.59C123.717 64.3555 123.82 64.4584 123.82 64.5855V91.7697C123.82 91.8967 123.717 91.9998 123.59 91.9998H105.562C105.435 91.9998 105.332 91.8967 105.332 91.7697V64.5855C105.332 64.4584 105.435 64.3555 105.562 64.3555ZM123.36 91.5395V64.8154H105.792V91.5395H123.36Z" fill="#00D6DE"/>
<path fill-rule="evenodd" clip-rule="evenodd" d="M105.561 83.9083H123.59V79.8232H105.561V83.9083Z" fill="#00D6DE"/>
<path fill-rule="evenodd" clip-rule="evenodd" d="M105.561 76.5312H123.59V72.4463H105.561V76.5312Z" fill="#00D6DE"/>
<path fill-rule="evenodd" clip-rule="evenodd" d="M109.64 87.8393C109.64 88.3973 109.188 88.8495 108.63 88.8495C108.071 88.8495 107.619 88.3973 107.619 87.8393C107.619 87.2814 108.071 86.8291 108.63 86.8291C109.188 86.8291 109.64 87.2814 109.64 87.8393Z" fill="#00D6DE"/>
<path fill-rule="evenodd" clip-rule="evenodd" d="M113.604 87.8393C113.604 88.3973 113.152 88.8495 112.594 88.8495C112.035 88.8495 111.583 88.3973 111.583 87.8393C111.583 87.2814 112.035 86.8291 112.594 86.8291C113.152 86.8291 113.604 87.2814 113.604 87.8393Z" fill="#00D6DE"/>
<path fill-rule="evenodd" clip-rule="evenodd" d="M117.568 87.8393C117.568 88.3973 117.116 88.8495 116.558 88.8495C115.999 88.8495 115.547 88.3973 115.547 87.8393C115.547 87.2814 115.999 86.8291 116.558 86.8291C117.116 86.8291 117.568 87.2814 117.568 87.8393Z" fill="#00D6DE"/>
<path fill-rule="evenodd" clip-rule="evenodd" d="M121.532 87.8393C121.532 88.3973 121.08 88.8495 120.521 88.8495C119.963 88.8495 119.511 88.3973 119.511 87.8393C119.511 87.2814 119.963 86.8291 120.521 86.8291C121.08 86.8291 121.532 87.2814 121.532 87.8393Z" fill="#00D6DE"/>
<path fill-rule="evenodd" clip-rule="evenodd" d="M109.64 68.5162C109.64 69.0742 109.188 69.5265 108.63 69.5265C108.071 69.5265 107.619 69.0742 107.619 68.5162C107.619 67.9581 108.071 67.5059 108.63 67.5059C109.188 67.5059 109.64 67.9581 109.64 68.5162Z" fill="#00D6DE"/>
<path fill-rule="evenodd" clip-rule="evenodd" d="M113.604 68.5162C113.604 69.0742 113.152 69.5265 112.594 69.5265C112.035 69.5265 111.583 69.0742 111.583 68.5162C111.583 67.9581 112.035 67.5059 112.594 67.5059C113.152 67.5059 113.604 67.9581 113.604 68.5162Z" fill="#00D6DE"/>
<path fill-rule="evenodd" clip-rule="evenodd" d="M117.568 68.5162C117.568 69.0742 117.116 69.5265 116.558 69.5265C115.999 69.5265 115.547 69.0742 115.547 68.5162C115.547 67.9581 115.999 67.5059 116.558 67.5059C117.116 67.5059 117.568 67.9581 117.568 68.5162Z" fill="#00D6DE"/>
<path fill-rule="evenodd" clip-rule="evenodd" d="M121.532 68.5162C121.532 69.0742 121.08 69.5265 120.521 69.5265C119.963 69.5265 119.511 69.0742 119.511 68.5162C119.511 67.9581 119.963 67.5059 120.521 67.5059C121.08 67.5059 121.532 67.9581 121.532 68.5162Z" fill="#00D6DE"/>
<path fill-rule="evenodd" clip-rule="evenodd" d="M114.474 41.8061C114.898 40.6943 115.406 39.6145 115.998 38.5819C116.557 37.6039 117.16 36.5987 117.982 35.8172C118.663 35.1709 120.029 34.2588 121.02 34.6861C121.577 34.9263 121.772 35.6061 121.765 36.1641C121.743 37.7994 120.268 39.0585 119.005 39.8812C117.925 40.5856 116.713 41.1616 115.48 41.5388C115.353 41.5774 114.507 41.7199 114.474 41.8061Z" fill="#00D6DE"/>
<path fill-rule="evenodd" clip-rule="evenodd" d="M114.474 52.6447C114.955 51.3845 115.531 50.1605 116.201 48.9898C116.836 47.8811 117.519 46.7418 118.451 45.8559C119.222 45.1234 120.771 44.0896 121.894 44.5737C122.526 44.8458 122.747 45.6168 122.739 46.2492C122.714 48.1031 121.042 49.5301 119.611 50.4627C118.386 51.2613 117.012 51.9142 115.614 52.3416C115.471 52.3856 114.511 52.5468 114.474 52.6447Z" fill="#00D6DE"/>
<path fill-rule="evenodd" clip-rule="evenodd" d="M114.677 52.6447C114.196 51.3845 113.62 50.1605 112.95 48.9898C112.315 47.8811 111.632 46.7418 110.7 45.8559C109.929 45.1234 108.38 44.0896 107.256 44.5737C106.625 44.8458 106.404 45.6168 106.412 46.2492C106.437 48.1031 108.109 49.5301 109.54 50.4627C110.765 51.2613 112.139 51.9142 113.537 52.3416C113.68 52.3856 114.639 52.5468 114.677 52.6447Z" fill="#00D6DE"/>
<path fill-rule="evenodd" clip-rule="evenodd" d="M114.474 60.8271C114.955 59.5671 115.531 58.3431 116.201 57.1724C116.836 56.0638 117.519 54.9244 118.451 54.0386C119.222 53.3059 120.771 52.2721 121.894 52.7564C122.526 53.0285 122.747 53.7993 122.739 54.4316C122.714 56.2855 121.042 57.7127 119.611 58.6454C118.386 59.4438 117.012 60.0967 115.614 60.5241C115.471 60.5681 114.511 60.7294 114.474 60.8271Z" fill="#00D6DE"/>
<path fill-rule="evenodd" clip-rule="evenodd" d="M114.677 60.8271C114.196 59.5671 113.62 58.3431 112.95 57.1724C112.315 56.0638 111.632 54.9244 110.7 54.0386C109.929 53.3059 108.38 52.2721 107.256 52.7564C106.625 53.0285 106.404 53.7993 106.412 54.4316C106.437 56.2855 108.109 57.7127 109.54 58.6454C110.765 59.4438 112.139 60.0967 113.537 60.5241C113.68 60.5681 114.639 60.7294 114.677 60.8271Z" fill="#00D6DE"/>
<path fill-rule="evenodd" clip-rule="evenodd" d="M114.474 45.0143C114.074 43.9653 113.594 42.9462 113.036 41.9715C112.508 41.0487 111.939 40.1 111.163 39.3625C110.521 38.7527 109.232 37.892 108.296 38.2951C107.77 38.5217 107.586 39.1634 107.593 39.6898C107.614 41.2332 109.006 42.4215 110.197 43.1978C111.217 43.8627 112.361 44.4062 113.525 44.762C113.644 44.7987 114.443 44.933 114.474 45.0143Z" fill="#00D6DE"/>
<path d="M114.474 33.8086C114.593 33.8086 114.692 33.8998 114.703 34.0165L114.704 34.0386V64.5961C114.704 64.7231 114.601 64.8262 114.474 64.8262C114.354 64.8262 114.256 64.7349 114.245 64.6182L114.244 64.5961V34.0386C114.244 33.9116 114.347 33.8086 114.474 33.8086Z" fill="#00D6DE"/>
</svg>
