<svg width="98" height="92" viewBox="0 0 98 92" fill="none" xmlns="http://www.w3.org/2000/svg">
<path fill-rule="evenodd" clip-rule="evenodd" d="M70.6095 10.974C60.2903 3.82826 46.6912 10.3434 40.2354 25.526L40.2306 25.5373C39.9268 26.2522 39.4106 26.803 38.7299 27.1304C35.439 28.713 32.258 30.8297 29.3342 33.4743C15.7675 45.7451 12.8661 64.7253 22.8535 75.8676C32.8409 87.01 51.9351 86.0952 65.5019 73.8245C72.4622 67.5289 76.6154 59.4673 77.6608 51.6041C77.7028 51.2877 77.7794 50.9879 77.8912 50.711C83.964 35.6744 80.7726 18.0114 70.6095 10.974Z" fill="black" fill-opacity="0.04"/>
<path fill-rule="evenodd" clip-rule="evenodd" d="M50.5877 89.1943L53.8235 90.2364C54.5366 90.348 55.0624 90.9648 55.0624 91.6897H47.813L47.8373 89.1962L50.5877 89.1943Z" fill="#00D6DE"/>
<path fill-rule="evenodd" clip-rule="evenodd" d="M37.4736 89.0518L40.4418 90.0938C41.1548 90.2054 41.6806 90.8222 41.6806 91.5471H34.4312L34.4556 89.0536L37.4736 89.0518Z" fill="#00D6DE"/>
<path d="M42.8827 27.7021C42.945 27.618 43.0603 27.5969 43.1475 27.6504L43.1636 27.6613L50.5628 33.2179L59.2868 34.3418C59.3807 34.3539 59.4525 34.43 59.4611 34.5231L59.462 34.5419V36.5646C59.462 36.6727 59.3776 36.7603 59.2722 36.766L59.2535 36.7661L49.1896 36.3742C49.1652 36.3733 49.1411 36.3677 49.1186 36.3582L49.102 36.3501L41.2285 32.0814C41.1309 32.0285 41.0945 31.9062 41.1472 31.8082C41.1967 31.7159 41.3076 31.678 41.4018 31.7181L41.4192 31.7264L49.2516 35.9729L59.0604 36.355V34.7192L50.4592 33.6113C50.4318 33.6078 50.4054 33.5985 50.3817 33.5844L50.3646 33.5727L42.9232 27.9843C42.8344 27.9176 42.8161 27.7912 42.8827 27.7021Z" fill="#00D6DE"/>
<path d="M38.8226 40.7667L38.6254 43.2028C38.546 44.1919 38.4871 44.9966 38.438 45.7919L38.4257 45.9926L51.4118 45.9355L51.3987 45.877C50.9904 44.0627 50.6652 42.4226 50.4878 41.0711L50.4734 40.9592C50.3017 39.6117 50.1767 38.0981 50.1382 36.2207C50.136 36.1094 50.2239 36.0173 50.3347 36.0149C50.4457 36.0126 50.5373 36.1011 50.5396 36.2124L50.5466 36.5111C50.5901 38.1864 50.704 39.5651 50.858 40.7995L50.8717 40.9082C51.0527 42.3378 51.4095 44.1175 51.859 46.0911C51.8863 46.2113 51.801 46.3263 51.6814 46.3369L51.6641 46.3377L38.2137 46.3969C38.0979 46.3974 38.0057 46.2997 38.0124 46.1835L38.0309 45.8712C38.075 45.1429 38.1271 44.4136 38.1951 43.5494L38.4223 40.7355L38.4536 40.3197C38.4981 39.7173 38.5305 39.2061 38.5535 38.7294L38.5572 38.6503C38.6225 37.2492 38.6035 36.1379 38.4826 35.1517L38.442 34.8388C38.4 34.5397 38.3396 34.2791 37.8964 32.3389L37.7814 31.8272C37.5045 30.5813 37.334 29.6997 37.2103 28.8078L37.1873 28.6372C36.8958 26.408 37.0547 24.8798 37.8404 24.1069C38.533 23.4223 40.0721 22.8785 41.307 22.773C41.4176 22.7634 41.5149 22.846 41.5241 22.957C41.6108 23.9971 42.4765 24.8235 43.5028 24.8404C44.5712 24.8588 45.4877 23.9938 45.552 22.9085C45.5579 22.8094 45.6344 22.7302 45.7309 22.72L45.7493 22.7188L60.1211 22.4986L67.2902 18.617C67.3821 18.5671 67.4957 18.5968 67.5525 18.6826L67.5624 18.6994L68.3441 20.1671C68.3883 20.2501 68.3691 20.3517 68.3003 20.413L68.2848 20.4255L60.9999 25.7241C60.9788 25.7396 60.9548 25.7506 60.9295 25.7568L60.9102 25.7604L51.1705 27.1419L51.1487 27.2776C50.9401 28.5939 50.782 29.9291 50.6784 31.2886L50.6571 31.5804C50.6156 32.1622 50.5849 32.7461 50.564 33.3294C50.5601 33.4408 50.4671 33.5277 50.3563 33.5237C50.2455 33.5198 50.1589 33.4262 50.1627 33.3149C50.1838 32.727 50.2148 32.1383 50.2566 31.5519C50.3668 29.9816 50.5494 28.4436 50.7979 26.9302C50.8112 26.8494 50.8715 26.7854 50.9497 26.7668L50.968 26.7633L60.8049 25.368L67.9073 20.2021L67.3033 19.0679L60.2686 22.877C60.246 22.8893 60.2211 22.8971 60.1957 22.8999L60.1764 22.9011L45.9344 23.1194L45.9295 23.1537C45.7515 24.333 44.7321 25.2421 43.5403 25.2441L43.4962 25.2437C42.3366 25.2245 41.3532 24.3513 41.1527 23.2127L41.1496 23.1946L41.0903 23.2021C40.0085 23.3442 38.7423 23.8119 38.1555 24.3622L38.1217 24.3947C37.4492 25.0562 37.3065 26.5147 37.5963 28.6669L37.6079 28.7521C37.7395 29.7007 37.9257 30.6421 38.2407 32.0408L38.6919 34.0272C38.8252 34.6276 38.8278 34.6882 38.8691 35.0075C39.004 36.0437 39.0266 37.2024 38.9583 38.6692L38.9421 38.9922C38.9143 39.5128 38.8755 40.0819 38.8226 40.7667Z" fill="#00D6DE"/>
<path d="M61.2071 31.7852C61.7618 31.7852 62.1586 32.3186 62.0085 32.8494L61.9996 32.8783L61.983 32.9299L63.4143 32.1764C63.8994 31.9211 64.4609 32.335 64.3731 32.8704L64.3681 32.8973L64.1209 34.1126C64.1138 34.1476 64.0976 34.18 64.0741 34.2064L64.0591 34.2216L62.0435 36.056C62.0239 36.0738 62.0008 36.0877 61.9759 36.0966L61.9568 36.1023L59.309 36.7596C59.2014 36.7862 59.0926 36.7204 59.066 36.6121C59.0409 36.5104 59.0977 36.4076 59.1942 36.3736L59.2128 36.368L61.8112 35.7229L63.7406 33.967L63.9748 32.8165C64.0172 32.6079 63.8075 32.442 63.6182 32.5251L63.6006 32.5336L61.7349 33.5161C61.581 33.5972 61.4075 33.4575 61.4458 33.2928L61.4506 33.2757L61.6175 32.7546C61.7048 32.4826 61.5109 32.2045 61.2311 32.1892L61.2175 32.1887L59.423 34.6599C59.3616 34.7445 59.2468 34.7669 59.1587 34.7146L59.1427 34.7039C59.0583 34.6422 59.036 34.5268 59.088 34.4384L59.0988 34.4221L60.9536 31.868C60.9872 31.8217 61.0384 31.7923 61.0945 31.7864L61.1158 31.7852H61.2071Z" fill="#00D6DE"/>
<path d="M70.2981 14.8573C70.6476 14.5758 71.1658 14.715 71.3319 15.1273L71.3421 15.1539L71.7879 16.4044C71.8038 16.4493 71.8036 16.4981 71.7872 16.5423L71.7793 16.5608L70.7894 18.5978C70.7777 18.6218 70.7614 18.6432 70.7416 18.6607L70.7259 18.6732L68.2666 20.4458C68.1765 20.5107 68.0511 20.49 67.9865 20.3995C67.9257 20.3143 67.9403 20.1977 68.0174 20.1301L68.0325 20.118L70.4506 18.3751L71.3813 16.4603L70.9642 15.2898C70.9051 15.1243 70.7065 15.0624 70.5652 15.16L70.5491 15.1719L68.4054 16.8984C68.3221 16.9655 68.2023 16.9549 68.1318 16.8775L68.1192 16.8621L67.516 16.0545C67.3922 15.8888 67.1656 15.844 66.9897 15.9466L66.9653 15.9619L67.5641 18.772C67.5859 18.8746 67.5259 18.9755 67.4285 19.0065L67.4098 19.0114C67.3076 19.0334 67.2071 18.9731 67.1763 18.8752L67.1714 18.8564L66.5443 15.9123C66.5283 15.8377 66.5559 15.7609 66.614 15.7136L66.6292 15.7023L66.7453 15.6246C67.0918 15.3924 67.5552 15.4645 67.8165 15.7858L67.8372 15.8124L68.316 16.4534L70.2981 14.8573Z" fill="#00D6DE"/>
<path d="M51.6365 45.9363C51.7399 45.9227 51.8352 45.9909 51.8581 46.0909L51.8616 46.1101L54.7072 67.9789C54.7089 67.9929 54.7093 68.0071 54.7081 68.0212L54.7053 68.0422L50.7371 89.2319C50.7205 89.3209 50.6472 89.387 50.559 89.3954L50.5398 89.3963H48.0548C47.943 89.3963 47.854 89.3049 47.854 89.1949L47.8548 89.1763L49.7889 67.8212L45.4653 54.3338L43.0749 67.9025L43.0717 67.9174L37.6668 89.1062C37.6456 89.1895 37.5744 89.2494 37.4905 89.257L37.4723 89.2578H34.6719C34.5544 89.2578 34.4634 89.1573 34.4717 89.042L34.4739 89.0238L38.0826 66.7513L38.0119 46.1962C38.0117 46.0914 38.0909 46.005 38.1927 45.9948L38.212 45.9938C38.3164 45.9934 38.4025 46.0732 38.4125 46.1753L38.4134 46.1948L38.4841 66.767L38.4836 66.7836L38.4816 66.8001L34.9079 88.8545H37.3165L42.6809 67.8247L45.2109 53.4637C45.2462 53.2632 45.5173 53.2382 45.5929 53.4182L45.5997 53.4369L50.1837 67.7367C50.1899 67.7561 50.1932 67.7763 50.1933 67.7966L50.1925 67.8169L48.2747 88.993H50.3733L54.3047 67.9994L51.4634 46.1624C51.4499 46.0584 51.5178 45.9626 51.6173 45.9397L51.6365 45.9363Z" fill="#00D6DE"/>
<path d="M45.461 21.257C45.5638 21.2388 45.662 21.3027 45.6892 21.4018L45.6935 21.4207L45.9493 22.8852C45.9685 22.9949 45.8955 23.0994 45.7863 23.1186C45.6835 23.1367 45.5853 23.0729 45.5581 22.9738L45.5539 22.9548L45.298 21.4904C45.2788 21.3807 45.3518 21.2762 45.461 21.257Z" fill="#00D6DE"/>
<path d="M41.5974 19.7557C41.7013 19.7646 41.78 19.8515 41.7811 19.9544L41.7803 19.9738L41.5237 22.9914C41.5144 23.1025 41.4172 23.1846 41.3067 23.1752C41.2027 23.1663 41.1241 23.0792 41.123 22.9765L41.1237 22.9571L41.3803 19.9395C41.3892 19.835 41.4758 19.756 41.5781 19.7549L41.5974 19.7557Z" fill="#00D6DE"/>
<path d="M48.5381 13.9099C48.6444 13.878 48.7563 13.9386 48.788 14.0454C49.5804 16.7108 49.0625 19.6711 47.4993 20.824C47.3195 20.9567 47.1287 21.0745 46.9282 21.1784C46.4508 21.4259 45.9413 21.585 45.4321 21.674C45.2539 21.705 45.0882 21.7252 44.939 21.7366L44.8821 21.7405C44.82 21.7445 44.7736 21.746 44.7444 21.746C44.0453 21.7479 43.4298 21.5956 42.8741 21.3506C42.7725 21.3059 42.7263 21.1869 42.7709 21.085C42.8155 20.9829 42.9338 20.9366 43.0353 20.9813C43.5214 21.1955 44.057 21.3322 44.6606 21.3422L44.7433 21.3427C44.7713 21.3427 44.8278 21.3406 44.9085 21.3344C45.0453 21.324 45.1984 21.3053 45.3634 21.2766C45.8349 21.1941 46.3061 21.0471 46.744 20.82C46.9263 20.7256 47.0992 20.6187 47.2617 20.499C48.665 19.4639 49.1521 16.6797 48.4032 14.1609C48.3715 14.0541 48.4318 13.9417 48.5381 13.9099Z" fill="#00D6DE"/>
<path fill-rule="evenodd" clip-rule="evenodd" d="M41.4796 15.7416C41.9146 15.8512 42.7909 16.063 43.4309 15.4202C43.8538 14.9952 44.1192 14.3371 44.5937 14.2129C45.2326 14.0455 45.5644 14.5414 46.3931 14.7458C47.1993 14.9444 48.4171 14.8525 49.1386 14.097C49.7795 13.4254 49.8553 12.3544 49.6335 11.4896C49.4515 10.78 48.9034 9.84501 48.3654 9.35013C47.9216 8.94197 47.3191 8.60976 46.6993 8.7442C46.2348 8.8449 45.8774 9.17993 45.4821 9.42085C45.0197 9.70277 44.4803 9.78518 43.9459 9.81315C43.3669 9.8434 42.7868 9.7954 42.2073 9.80723C41.6038 9.81973 40.9934 9.9 40.4384 10.138C39.9294 10.3564 39.2396 11.0411 39.0081 11.5653C38.7321 12.1899 38.7692 12.9142 38.6775 13.568C38.5871 14.2137 38.2132 14.8054 37.9342 15.3941C37.0531 17.2539 38.2468 19.7505 40.0719 20.5062C40.444 20.6604 40.871 20.7552 41.2701 20.6591C41.6852 20.559 41.8072 20.1862 41.8166 19.7907C41.8286 19.273 41.6699 18.7628 41.4362 18.3011C41.2577 17.9485 41.0359 17.6207 40.8059 17.3003C40.5846 16.9924 40.3668 16.6363 40.5379 16.2462C40.6941 15.8904 41.0818 15.6795 41.4796 15.7416Z" fill="#00D6DE"/>
<path d="M40.0258 45.9844C40.1299 45.9896 40.2117 46.0738 40.2162 46.1765V46.1959L40.0782 48.9738C40.0763 49.011 40.0643 49.0468 40.0436 49.0773L40.0302 49.0951L38.3796 51.0298C38.3074 51.1144 38.1807 51.1242 38.0965 51.0517C38.0176 50.9837 38.004 50.8675 38.0621 50.7837L38.0747 50.7674L39.6806 48.8848L39.8152 46.1758C39.8205 46.0711 39.9042 45.9891 40.0064 45.9844H40.0258Z" fill="#00D6DE"/>
<path fill-rule="evenodd" clip-rule="evenodd" d="M62.7886 70.555C63.4532 69.6435 64.315 69.1574 65.2158 68.9096C65.3372 68.8762 65.4589 68.9619 65.4689 69.0879L65.586 70.5457L65.6191 70.5522C65.6485 70.5584 65.6786 70.5658 65.7097 70.5745L65.7566 70.5886C65.9452 70.6489 66.12 70.7486 66.2695 70.8969C66.3517 70.9784 66.4177 71.0652 66.4704 71.1554L66.4879 71.1869L66.5416 71.1658C66.8597 71.0441 67.3435 70.9155 67.6014 70.8919L67.6294 70.8896C67.9893 70.8662 68.3009 70.9016 68.4858 70.9964C68.5408 71.0245 68.5799 71.0765 68.5917 71.1373C68.6348 71.3587 68.4964 72.0522 68.3905 72.3799C68.2675 72.7592 67.8668 73.5262 67.6485 73.792L67.6396 73.8026L67.6344 73.8213C67.4592 74.4466 67.4438 74.9881 67.6315 75.7283L67.651 75.8031C67.7444 76.1531 67.8737 76.4332 68.0768 76.7482C68.169 76.8912 68.5031 77.3525 68.682 77.5996C68.7212 77.6536 68.7529 77.6975 68.773 77.7254L68.8638 77.855C69.8931 79.3476 70.6214 81.0363 71.0016 82.8123C71.202 83.7483 71.3096 84.7176 71.3255 85.7051C71.3277 85.8386 71.325 85.9501 71.3141 86.1441L71.284 86.6289C71.2787 86.7157 71.2749 86.7852 71.272 86.852L71.2666 87.0004C71.2514 87.5602 71.3052 87.9489 71.4627 88.2406C71.5101 88.3284 71.5419 88.3818 71.5869 88.442C71.6714 88.5549 71.7578 88.6219 71.8388 88.6348C72.0735 88.6722 72.3728 88.3435 72.7044 87.7948L72.7544 87.7109C73.1406 87.0534 73.381 86.2192 73.4824 84.7382L73.4874 84.6634C73.5108 84.2987 73.5135 84.0587 73.5036 83.7473L73.4911 83.3522C73.4838 83.0489 73.4854 82.778 73.4991 82.4021L73.5082 82.1787C73.5606 80.9969 73.6063 80.4695 73.7518 79.7378L73.7727 79.6342C74.2136 77.4922 75.1637 76.157 76.9114 75.8379C77.0202 75.818 77.1246 75.8903 77.1447 75.9996C77.2443 76.5395 77.0539 76.9351 76.5031 77.6622L76.4615 77.7172C76.3844 77.8191 76.343 77.8739 76.3108 77.918L76.2121 78.0571C75.4728 79.134 75.302 80.3164 75.3486 82.6071L75.3656 83.41C75.3736 83.8424 75.3742 84.1039 75.3674 84.4104L75.364 84.5345C75.3237 85.7806 75.089 87.1721 74.6714 88.3401C74.1223 89.8765 73.2954 90.9575 72.1728 91.3973C71.5862 91.6271 70.926 91.7514 70.3033 91.7478C69.5155 91.7429 68.8316 91.7342 67.8462 91.7159L64.8492 91.655C63.3717 91.6256 62.3157 91.6105 61.2986 91.6077L60.5944 91.6074C60.4556 91.6064 60.3767 91.5953 60.2809 91.5518C59.9855 91.4172 59.886 91.0334 60.0132 90.727C60.1012 90.5154 60.2349 90.3812 60.5106 90.1716C60.6927 90.0333 60.8302 89.8336 60.9271 89.5715C61.1608 88.9389 61.1715 88.154 61.0194 87.1955L60.9932 87.0258C60.7025 85.1042 60.6582 83.244 60.8838 81.4704C61.0202 80.398 61.2163 79.4634 61.5023 78.6183C61.5151 78.5805 61.5277 78.5434 61.5408 78.5052L61.8297 77.6733C62.0677 76.9785 62.1871 76.5742 62.2793 76.1207L62.3032 75.9993C62.3389 75.8101 62.3662 75.6268 62.3849 75.4477C62.43 75.0148 62.413 74.6514 62.3311 73.9522L62.268 73.4243C62.2047 72.8709 62.1877 72.568 62.2095 72.2226L62.2147 72.1479C62.2607 71.5536 62.4377 71.0363 62.7886 70.555ZM65.1991 70.7428L65.0887 69.369C64.3524 69.6124 63.6569 70.0466 63.1125 70.7932C62.5819 71.5211 62.5201 72.1249 62.6877 73.5537L62.7138 73.7702C62.8071 74.5399 62.8333 74.9418 62.7927 75.4026L62.7843 75.4898C62.7644 75.6804 62.7353 75.8746 62.6976 76.0746C62.5948 76.6175 62.4686 77.0509 62.1894 77.8627L61.9014 78.6923L61.8484 78.8507C61.5904 79.6407 61.4098 80.5175 61.2821 81.5215C61.055 83.3074 61.1075 85.1867 61.416 87.132L61.4298 87.2217C61.577 88.2027 61.5586 89.0212 61.3034 89.7118C61.1814 90.0421 61 90.3054 60.7528 90.4932C60.5321 90.661 60.4355 90.758 60.3838 90.8824C60.3331 91.0043 60.3709 91.1499 60.4466 91.1845C60.4803 91.1998 60.5242 91.2044 60.6293 91.2041L61.0016 91.2038C61.9433 91.2044 62.8856 91.2151 64.1339 91.238L67.4878 91.3057C68.322 91.3219 68.9403 91.3318 69.5391 91.3381L70.3057 91.3445C70.8774 91.3478 71.4872 91.2329 72.027 91.0215C73.8685 90.3003 74.8995 87.4162 74.966 84.4015L74.9666 84.3656C74.9723 84.092 74.9717 83.8473 74.965 83.4655L74.9439 82.4328C74.9083 80.1477 75.1053 78.9329 75.9139 77.7815C75.9379 77.7473 75.9565 77.7211 75.978 77.6916L76.2544 77.3236C76.5958 76.8634 76.7512 76.5741 76.7653 76.2892L76.7655 76.2815L76.7224 76.2927C75.3508 76.6543 74.5728 77.8035 74.1802 79.6473L74.1659 79.716C74.0267 80.3925 73.9748 80.865 73.9272 81.8162L73.9094 82.1967C73.8854 82.7375 73.8835 83.0539 73.8956 83.4564L73.9068 83.7983C73.9152 84.1133 73.91 84.3705 73.883 84.7659C73.7774 86.3069 73.5196 87.2019 73.1002 87.9158C72.9301 88.2057 72.8047 88.3962 72.634 88.5921C72.3577 88.9091 72.0763 89.081 71.7759 89.0332C71.5721 89.0008 71.4069 88.8729 71.2658 88.6841C71.2059 88.6039 71.1659 88.5369 71.1098 88.4329C70.9035 88.0509 70.8439 87.5832 70.8674 86.9231C70.8705 86.8334 70.8745 86.7505 70.8809 86.6428L70.9022 86.3049C70.9199 86.0245 70.9256 85.8925 70.9246 85.7521L70.9204 85.5421C70.8959 84.6392 70.7925 83.7534 70.6091 82.897C70.2317 81.1338 69.5006 79.4592 68.4652 77.9863C68.4549 77.9717 68.4188 77.9217 68.3672 77.8506C68.2089 77.632 67.9064 77.2146 67.7757 77.0214L67.7398 76.9675C67.5148 76.6186 67.368 76.3005 67.2632 75.9075C67.0285 75.0289 67.0488 74.3862 67.2674 73.6441C67.2774 73.6101 67.296 73.5794 67.3216 73.5549L67.3335 73.5428C67.4866 73.3767 67.8973 72.5985 68.0087 72.2552C68.0764 72.0456 68.1741 71.5811 68.1963 71.3416L68.1979 71.3199L68.1799 71.3158C68.0602 71.2907 67.8901 71.2799 67.6971 71.2897L67.6554 71.2922C67.525 71.3006 67.2636 71.359 66.9958 71.4383C66.7547 71.5097 66.5437 71.5906 66.5223 71.6098C66.4151 71.7056 66.2455 71.6608 66.199 71.5245C66.1578 71.4035 66.0912 71.2869 65.9874 71.1839C65.8859 71.0832 65.7661 71.0149 65.6351 70.9731C65.5447 70.9442 65.4644 70.9318 65.389 70.9279C65.2884 70.9228 65.2073 70.8437 65.1991 70.7428Z" fill="#00D6DE"/>
<path d="M67.7278 81.7023C67.8295 81.6579 67.9477 81.7047 67.9918 81.8069C68.036 81.9091 67.9893 82.0279 67.8876 82.0722C66.9509 82.4807 66.0796 83.1552 65.495 84.2798C65.0208 85.1917 64.8893 86.1656 65.0157 87.1486C65.0621 87.5085 65.1409 87.8492 65.2414 88.1641C65.3084 88.3735 65.3726 88.5359 65.4322 88.6672C65.4785 88.7688 65.4337 88.8889 65.3323 88.9348L62.5722 90.1857C62.4711 90.2315 62.3522 90.1863 62.3067 90.0847C62.261 89.9832 62.306 89.8638 62.407 89.818L64.9878 88.6483L64.9749 88.6159C64.9435 88.5353 64.9114 88.4464 64.8788 88.3477L64.8592 88.2874C64.7514 87.9502 64.6671 87.5858 64.6176 87.2004C64.4812 86.1402 64.6237 85.0842 65.139 84.0931C65.7735 82.8725 66.7144 82.1442 67.7278 81.7023Z" fill="#00D6DE"/>
<path d="M63.183 80.8663C63.2874 80.8698 63.3704 80.9526 63.3766 81.0552L63.3769 81.0746L63.1913 86.5919C63.1875 86.7032 63.0946 86.7905 62.9838 86.7867C62.8796 86.7831 62.7965 86.7003 62.7903 86.5978L62.79 86.5783L62.9757 81.061C62.9794 80.9497 63.0722 80.8626 63.183 80.8663Z" fill="#00D6DE"/>
<path d="M60.6983 71.3423C60.7468 71.2496 60.857 71.2104 60.9518 71.2493L60.9693 71.2575L64.0415 72.8759C64.1396 72.9275 64.1775 73.0495 64.1261 73.1481C64.0775 73.2409 63.9672 73.28 63.8726 73.2413L63.8551 73.2331L60.7829 71.6147C60.6847 71.5629 60.6468 71.441 60.6983 71.3423Z" fill="#00D6DE"/>
<path d="M63.9482 73.7402C64.0592 73.7402 64.149 73.8304 64.149 73.9419C64.149 74.0466 64.0693 74.1328 63.9676 74.1426L63.9482 74.1436H59.9041C59.7933 74.1436 59.7034 74.0532 59.7034 73.9419C59.7034 73.837 59.783 73.7508 59.8849 73.7412L59.9041 73.7402H63.9482Z" fill="#00D6DE"/>
<path d="M69.7918 73.1582C69.9026 73.1582 69.9925 73.2484 69.9925 73.3599C69.9925 73.4646 69.9129 73.5508 69.811 73.5606L69.7918 73.5615H65.8236C65.7127 73.5615 65.6228 73.4712 65.6228 73.3599C65.6228 73.255 65.7024 73.1688 65.8042 73.1591L65.8236 73.1582H69.7918Z" fill="#00D6DE"/>
<path d="M65.5736 74.1897C65.6092 74.0911 65.7132 74.0373 65.8122 74.063L65.8307 74.0688L69.9213 75.5565C70.0256 75.5944 70.0795 75.7101 70.0418 75.8148C70.0063 75.9133 69.9022 75.9671 69.8032 75.9414L69.7847 75.9356L65.694 74.4479C65.5898 74.41 65.5358 74.2944 65.5736 74.1897Z" fill="#00D6DE"/>
<path d="M69.4334 86.6527C69.544 86.6458 69.6393 86.7302 69.6463 86.8414C69.6627 87.1041 69.6518 87.3888 69.5885 87.7195C69.4952 88.2069 69.3031 88.677 68.9882 89.1067C68.5068 89.7637 67.9118 90.1306 67.2969 90.3342C67.1916 90.3691 67.0781 90.3116 67.0433 90.2058C67.0087 90.1 67.0659 89.9859 67.1711 89.9511C67.714 89.7714 68.2405 89.4467 68.6649 88.8675C68.9424 88.4889 69.1117 88.0745 69.1942 87.6434C69.2504 87.35 69.26 87.098 69.2456 86.8666C69.2386 86.7555 69.3227 86.6596 69.4334 86.6527Z" fill="#00D6DE"/>
<path d="M92.1179 91.3447C92.2287 91.3447 92.3186 91.4351 92.3186 91.5464C92.3186 91.6513 92.239 91.7374 92.1371 91.7471L92.1179 91.7481H4.0091C3.89815 91.7481 3.80835 91.6578 3.80835 91.5464C3.80835 91.4415 3.88798 91.3555 3.9897 91.3457L4.0091 91.3447H92.1179Z" fill="#00D6DE"/>
<path fill-rule="evenodd" clip-rule="evenodd" d="M7.89314 19.834H18.9513C19.0622 19.834 19.152 19.9242 19.152 20.0356V24.6185C19.152 24.7298 19.0622 24.8201 18.9513 24.8201H7.89314C7.78232 24.8201 7.69238 24.7298 7.69238 24.6185V20.0356C7.69238 19.9242 7.78232 19.834 7.89314 19.834ZM18.7505 24.4168V20.2373H8.09389V24.4168H18.7505Z" fill="#00D6DE"/>
<path fill-rule="evenodd" clip-rule="evenodd" d="M18.951 19.8242H30.0091C30.1201 19.8242 30.2099 19.9144 30.2099 20.0259V24.6087C30.2099 24.72 30.1201 24.8104 30.0091 24.8104H18.951C18.8402 24.8104 18.7502 24.72 18.7502 24.6087V20.0259C18.7502 19.9144 18.8402 19.8242 18.951 19.8242ZM29.8084 24.4069V20.2274H19.1517V24.4069H29.8084Z" fill="#00D6DE"/>
<path d="M34.7412 19.8242C34.852 19.8242 34.942 19.9144 34.942 20.0259C34.942 20.1307 34.8623 20.2168 34.7605 20.2266L34.7412 20.2275L30.21 20.2274V24.4069L32.4409 24.407C32.5453 24.407 32.6309 24.487 32.6407 24.5892L32.6416 24.6087C32.6416 24.7136 32.562 24.7996 32.4601 24.8094L32.4409 24.8104H30.0093C29.905 24.8104 29.8192 24.7304 29.8095 24.6281L29.8086 24.6087V20.0259C29.8086 19.921 29.8882 19.8348 29.9899 19.8252L30.0093 19.8242H34.7412Z" fill="#00D6DE"/>
<path fill-rule="evenodd" clip-rule="evenodd" d="M13.4222 24.4033H24.4803C24.5911 24.4033 24.6811 24.4935 24.6811 24.605V29.1878C24.6811 29.2991 24.5911 29.3895 24.4803 29.3895H13.4222C13.3114 29.3895 13.2214 29.2991 13.2214 29.1878V24.605C13.2214 24.4935 13.3114 24.4033 13.4222 24.4033ZM24.2796 28.986V24.8065H13.6228V28.986H24.2796Z" fill="#00D6DE"/>
<path fill-rule="evenodd" clip-rule="evenodd" d="M13.4222 15.251H24.4803C24.5911 15.251 24.6811 15.3413 24.6811 15.4526V20.0355C24.6811 20.1468 24.5911 20.2371 24.4803 20.2371H13.4222C13.3114 20.2371 13.2214 20.1468 13.2214 20.0355V15.4526C13.2214 15.3413 13.3114 15.251 13.4222 15.251ZM24.2796 19.8337V15.6542H13.6228V19.8337H24.2796Z" fill="#00D6DE"/>
<path d="M7.89306 24.416C8.00388 24.416 8.09381 24.5064 8.09381 24.6177C8.09381 24.7225 8.01418 24.8086 7.91233 24.8184L7.89306 24.8193H0.200753C0.0898034 24.8193 0 24.729 0 24.6177C0 24.5128 0.0796313 24.4268 0.181346 24.417L0.200753 24.416H7.89306Z" fill="#00D6DE"/>
<path d="M8.37189 19.834C8.48284 19.834 8.57264 19.9243 8.57264 20.0356C8.57264 20.1405 8.49315 20.2267 8.3913 20.2364L8.37189 20.2373H5.24885C5.13803 20.2373 5.0481 20.1471 5.0481 20.0356C5.0481 19.9308 5.12773 19.8447 5.22958 19.8349L5.24885 19.834H8.37189Z" fill="#00D6DE"/>
<path d="M18.951 11.2803C19.0554 11.2803 19.1412 11.3603 19.1508 11.4626L19.1517 11.4819V15.4533C19.1517 15.5648 19.0619 15.655 18.951 15.655C18.8467 15.655 18.7609 15.575 18.7512 15.4728L18.7502 15.4533V11.4819C18.7502 11.3706 18.8402 11.2803 18.951 11.2803Z" fill="#00D6DE"/>
<path d="M21.763 11.2803C21.8738 11.2803 21.9637 11.3706 21.9637 11.4819C21.9637 11.5868 21.8841 11.673 21.7822 11.6827L21.763 11.6836H15.109C14.998 11.6836 14.9082 11.5934 14.9082 11.4819C14.9082 11.3771 14.9878 11.291 15.0895 11.2812L15.109 11.2803H21.763Z" fill="#00D6DE"/>
<path d="M32.3907 15.251C32.5015 15.251 32.5915 15.3413 32.5915 15.4526C32.5915 15.5575 32.5118 15.6437 32.41 15.6534L32.3907 15.6543H24.4805C24.3696 15.6543 24.2798 15.5641 24.2798 15.4526C24.2798 15.3479 24.3594 15.2617 24.4611 15.2519L24.4805 15.251H32.3907Z" fill="#00D6DE"/>
<path d="M13.422 28.9854C13.5329 28.9854 13.6227 29.0757 13.6227 29.187C13.6227 29.2919 13.5431 29.3781 13.4414 29.3877L13.422 29.3887H10.2012C10.0904 29.3887 10.0005 29.2985 10.0005 29.187C10.0005 29.0823 10.0801 28.9961 10.182 28.9863L10.2012 28.9854H13.422Z" fill="#00D6DE"/>
<path d="M27.6219 28.9854C27.7327 28.9854 27.8227 29.0757 27.8227 29.187C27.8227 29.2919 27.743 29.3781 27.6412 29.3877L27.6219 29.3887H24.4805C24.3696 29.3887 24.2798 29.2985 24.2798 29.187C24.2798 29.0823 24.3594 28.9961 24.4611 28.9863L24.4805 28.9854H27.6219Z" fill="#00D6DE"/>
<path fill-rule="evenodd" clip-rule="evenodd" d="M70.1536 58.04H81.2118C81.3226 58.04 81.4125 58.1304 81.4125 58.2417V62.8245C81.4125 62.9359 81.3226 63.0262 81.2118 63.0262H70.1536C70.0428 63.0262 69.9529 62.9359 69.9529 62.8245V58.2417C69.9529 58.1304 70.0428 58.04 70.1536 58.04ZM81.011 62.6227V58.4432H70.3544V62.6227H81.011Z" fill="#00D6DE"/>
<path fill-rule="evenodd" clip-rule="evenodd" d="M81.2117 58.0303H92.2699C92.3808 58.0303 92.4706 58.1205 92.4706 58.2319V62.8148C92.4706 62.9261 92.3808 63.0164 92.2699 63.0164H81.2117C81.1009 63.0164 81.011 62.9261 81.011 62.8148V58.2319C81.011 58.1205 81.1009 58.0303 81.2117 58.0303ZM92.0691 62.6131V58.4336H81.4125V62.6131H92.0691Z" fill="#00D6DE"/>
<path d="M97.0019 58.0303C97.1128 58.0303 97.2026 58.1206 97.2026 58.2319C97.2026 58.3368 97.1231 58.423 97.0213 58.4327L97.0019 58.4336H92.4706V62.6131H94.7015C94.8059 62.6131 94.8917 62.6931 94.9014 62.7954L94.9022 62.8148C94.9022 62.9196 94.8228 63.0058 94.7209 63.0155L94.7015 63.0164H92.2698C92.1656 63.0164 92.0798 62.9364 92.07 62.8343L92.0691 62.8148V58.2319C92.0691 58.1272 92.1487 58.041 92.2506 58.0312L92.2698 58.0303H97.0019Z" fill="#00D6DE"/>
<path d="M86.741 62.6143C86.8454 62.6143 86.9311 62.6943 86.9409 62.7966L86.9418 62.8159V67.3988C86.9418 67.5102 86.8519 67.6004 86.741 67.6004C86.6366 67.6004 86.5509 67.5204 86.5412 67.4182L86.5403 67.3988V62.8159C86.5403 62.7046 86.6301 62.6143 86.741 62.6143Z" fill="#00D6DE"/>
<path d="M86.741 53.458C86.8454 53.458 86.9311 53.538 86.9409 53.6403L86.9418 53.6597L86.9417 58.0408H97.7993C97.9037 58.0408 97.9893 58.1208 97.9991 58.2231L98.0001 58.2425C98.0001 58.3474 97.9204 58.4335 97.8186 58.4434L97.7993 58.4442H86.741C86.6366 58.4442 86.5509 58.3643 86.5412 58.262L86.5403 58.2425V53.6597C86.5403 53.5484 86.6301 53.458 86.741 53.458Z" fill="#00D6DE"/>
<path d="M70.1537 62.624C70.2647 62.624 70.3545 62.7144 70.3545 62.8257C70.3545 62.9305 70.275 63.0167 70.1731 63.0265L70.1537 63.0273H65.337C65.2262 63.0273 65.1362 62.9371 65.1362 62.8257C65.1362 62.721 65.2159 62.6348 65.3177 62.625L65.337 62.624H70.1537Z" fill="#00D6DE"/>
<path d="M70.6326 58.04C70.7434 58.04 70.8334 58.1302 70.8334 58.2417C70.8334 58.3464 70.7538 58.4326 70.6519 58.4424L70.6326 58.4434H67.5096C67.3986 58.4434 67.3088 58.353 67.3088 58.2417C67.3088 58.1368 67.3883 58.0507 67.4902 58.0408L67.5096 58.04H70.6326Z" fill="#00D6DE"/>
<path fill-rule="evenodd" clip-rule="evenodd" d="M79.5739 91.4003C77.979 90.6678 77.2772 88.7752 78.0062 87.1731C78.7354 85.5708 80.6193 84.8657 82.2142 85.5981C83.8091 86.3306 84.5112 88.2232 83.782 89.8254C83.053 91.4275 81.169 92.1326 79.5739 91.4003ZM83.4169 89.6577C84.0538 88.258 83.4406 86.6047 82.0473 85.965L82.0032 85.9451C80.6194 85.3381 79.0016 85.9559 78.3713 87.3407C77.7345 88.7404 78.3476 90.3936 79.7409 91.0334C81.1342 91.6732 82.7799 91.0572 83.4169 89.6577Z" fill="#00D6DE"/>
<path d="M79.98 85.4461C80.0808 85.3997 80.2 85.4441 80.2462 85.5452C80.6292 86.3828 80.638 87.3481 80.2491 88.2026C79.8603 89.0572 79.1277 89.6821 78.2468 89.939C78.1403 89.9701 78.0289 89.9085 77.998 89.8016C77.9671 89.6946 78.0283 89.5828 78.1348 89.5517C78.9047 89.327 79.5442 88.7816 79.884 88.0349C80.2238 87.2882 80.2161 86.4457 79.8813 85.7137C79.835 85.6124 79.8792 85.4926 79.98 85.4461Z" fill="#00D6DE"/>
<path d="M83.5431 87.0588C83.6496 87.0278 83.7609 87.0893 83.7919 87.1964C83.8228 87.3032 83.7615 87.4151 83.6549 87.4462C82.8849 87.6708 82.2455 88.2162 81.9057 88.9629C81.566 89.7099 81.5737 90.5526 81.9084 91.2843C81.9547 91.3854 81.9105 91.5052 81.8098 91.5517C81.7091 91.5982 81.5899 91.5539 81.5436 91.4526C81.1607 90.6153 81.1518 89.6501 81.5406 88.7953C81.9294 87.9408 82.6619 87.3159 83.5431 87.0588Z" fill="#00D6DE"/>
<path fill-rule="evenodd" clip-rule="evenodd" d="M68.942 6.76132C68.942 10.4954 65.9285 13.5226 62.2112 13.5226C58.4938 13.5226 55.4802 10.4954 55.4802 6.76132C55.4802 3.02721 58.4938 0 62.2112 0C65.9285 0 68.942 3.02721 68.942 6.76132Z" fill="#00D6DE"/>
<path d="M60.254 8.35336C60.4266 6.92627 61.6887 5.79575 62.9615 6.26173C63.932 6.61706 64.4445 7.45261 64.5236 8.58084C64.5888 9.50996 64.3444 10.5914 63.9217 11.4142C63.8879 11.4802 63.8072 11.5061 63.7414 11.472C63.6757 11.438 63.6499 11.3569 63.6839 11.2909C64.0849 10.5105 64.3181 9.4777 64.2566 8.59966C64.1844 7.56917 63.7307 6.82947 62.8698 6.51434C61.7842 6.11693 60.6738 7.11166 60.5196 8.38576C60.4104 9.28975 60.6203 10.2921 61.0835 11.0554C61.122 11.1188 61.1021 11.2015 61.0389 11.2402C60.9757 11.2788 60.8934 11.2588 60.855 11.1953C60.3601 10.3801 60.1375 9.31677 60.254 8.35336Z" fill="white"/>
<path d="M59.9964 3.55838C60.1507 3.54534 60.3043 3.56672 60.4518 3.62466C60.7051 3.72482 60.926 3.90672 61.1496 4.17103C61.5964 4.70086 61.8664 5.27627 62.2034 6.27006C62.2273 6.34024 62.1899 6.41673 62.1199 6.44067C62.0499 6.4646 61.9739 6.42695 61.9501 6.35664L61.8976 6.20391C61.5948 5.33327 61.3422 4.81527 60.9455 4.34499C60.748 4.11147 60.5593 3.95606 60.354 3.87485C60.2456 3.83237 60.1329 3.81664 60.0174 3.82632C59.8487 3.83882 59.6734 3.90631 59.504 4.02018C59.3837 4.10152 59.2798 4.2127 59.2018 4.34392C59.0761 4.5523 59.0256 4.79322 59.0647 5.01155C59.1155 5.28998 59.3016 5.55107 59.6027 5.80637L59.7607 5.93745C59.8157 5.98235 59.8758 6.03075 59.9491 6.08924L60.3212 6.38514C60.6421 6.64152 60.8174 6.78954 61.0159 6.97493C61.0701 7.02548 61.0732 7.11045 61.0229 7.1649C60.9726 7.21921 60.8878 7.22231 60.8336 7.17176L60.7385 7.08423C60.572 6.93366 60.4005 6.79156 60.1128 6.5622L59.6663 6.20647C59.5783 6.13548 59.5076 6.07714 59.4304 6.01207C59.086 5.72006 58.8653 5.41071 58.8013 5.05955C58.7504 4.774 58.8146 4.46707 58.9724 4.20531C59.0699 4.04116 59.2011 3.9008 59.3549 3.79688C59.5609 3.6584 59.7794 3.57438 59.9964 3.55838Z" fill="white"/>
<path d="M63.956 4.94096C64.5454 4.42269 65.3021 4.23918 65.9838 4.49879C66.6225 4.74374 67.0162 5.36607 66.819 5.98517C66.731 6.26252 66.5384 6.4943 66.2401 6.7332C65.9339 6.97654 65.5886 7.17699 65.2179 7.32891C64.8747 7.46967 64.5111 7.56862 64.1408 7.6224C64.0677 7.63302 63.9999 7.58206 63.9893 7.50852C63.9787 7.43498 64.0294 7.36682 64.1025 7.3562C64.4513 7.30565 64.7939 7.21235 65.1167 7.07993C65.4646 6.93742 65.7879 6.7496 66.0736 6.52267C66.3339 6.31415 66.4954 6.12001 66.564 5.90343C66.7132 5.4349 66.4053 4.94822 65.8887 4.75006C65.3058 4.5281 64.6514 4.68687 64.1321 5.1433C63.7365 5.49043 63.417 5.98154 63.2369 6.5111C63.2129 6.58142 63.1369 6.61893 63.0669 6.59486C62.9969 6.57093 62.9597 6.49443 62.9835 6.42426C63.1786 5.85086 63.5241 5.31969 63.956 4.94096Z" fill="white"/>
<path d="M59.3781 8.43778C59.4086 8.37607 59.48 8.34838 59.5431 8.37123L59.5575 8.37728L60.417 8.80682C60.4831 8.83989 60.5102 8.92069 60.4773 8.98711C60.4466 9.04882 60.3751 9.07665 60.3121 9.05379L60.2978 9.04761L59.4383 8.61807C59.372 8.585 59.3451 8.50433 59.3781 8.43778Z" fill="white"/>
<path d="M65.0226 9.40786C65.085 9.36793 65.1677 9.38622 65.2076 9.44873C65.2445 9.50681 65.2316 9.58263 65.1796 9.62512L65.167 9.63439L64.3359 10.1687C64.2736 10.2087 64.1909 10.1904 64.151 10.1279C64.114 10.0699 64.127 9.99403 64.1789 9.95141L64.1915 9.94213L65.0226 9.40786Z" fill="white"/>
<path d="M58.8952 4.75775C58.9682 4.74539 59.0372 4.79486 59.0494 4.868C59.0608 4.93602 59.0193 5.00069 58.9549 5.01938L58.9397 5.02287L57.6978 5.23287C57.6249 5.24524 57.5559 5.1959 57.5436 5.12263C57.5322 5.05474 57.5737 4.99007 57.6381 4.97125L57.6534 4.96775L58.8952 4.75775Z" fill="white"/>
<path d="M57.553 3.60016C57.5804 3.53697 57.6504 3.50565 57.7145 3.52541L57.7293 3.53079L59.1403 4.15057C59.208 4.18041 59.2389 4.2596 59.2092 4.32762C59.1818 4.39081 59.1118 4.42214 59.0477 4.40237L59.0329 4.397L57.6219 3.77722C57.5542 3.74738 57.5234 3.66819 57.553 3.60016Z" fill="white"/>
<path d="M58.6486 2.47845C58.7088 2.44538 58.7832 2.46353 58.822 2.51851L58.8303 2.53182L59.5465 3.84477C59.5819 3.90984 59.5583 3.99159 59.4933 4.02721C59.4332 4.06042 59.3588 4.04213 59.32 3.98728L59.3117 3.97397L58.5956 2.66102C58.5601 2.59595 58.5838 2.51421 58.6486 2.47845Z" fill="white"/>
<path d="M60.2148 2.12221C60.2834 2.1253 60.3376 2.17975 60.3423 2.24684L60.3425 2.26257L60.2781 3.69786C60.2748 3.77207 60.2123 3.82948 60.1384 3.82612C60.0698 3.82303 60.0157 3.76858 60.0109 3.70149L60.0107 3.68576L60.0751 2.25047C60.0785 2.17626 60.141 2.11885 60.2148 2.12221Z" fill="white"/>
<path fill-rule="evenodd" clip-rule="evenodd" d="M60.8292 5.31536C60.8292 5.50022 60.68 5.65012 60.4958 5.65012C60.3118 5.65012 60.1626 5.50022 60.1626 5.31536C60.1626 5.13037 60.3118 4.98047 60.4958 4.98047C60.68 4.98047 60.8292 5.13037 60.8292 5.31536Z" fill="white"/>
<path fill-rule="evenodd" clip-rule="evenodd" d="M62.0055 8.16204C62.0055 8.3469 61.8563 8.4968 61.6722 8.4968C61.4881 8.4968 61.3389 8.3469 61.3389 8.16204C61.3389 7.97705 61.4881 7.82715 61.6722 7.82715C61.8563 7.82715 62.0055 7.97705 62.0055 8.16204Z" fill="white"/>
<path fill-rule="evenodd" clip-rule="evenodd" d="M65.3136 5.83001C65.3136 6.01487 65.1644 6.16477 64.9802 6.16477C64.7962 6.16477 64.647 6.01487 64.647 5.83001C64.647 5.64502 64.7962 5.49512 64.9802 5.49512C65.1644 5.49512 65.3136 5.64502 65.3136 5.83001Z" fill="white"/>
<path fill-rule="evenodd" clip-rule="evenodd" d="M63.4706 9.15423C63.4706 9.33922 63.3214 9.48912 63.1373 9.48912C62.9532 9.48912 62.804 9.33922 62.804 9.15423C62.804 8.96924 62.9532 8.81934 63.1373 8.81934C63.3214 8.81934 63.4706 8.96924 63.4706 9.15423Z" fill="white"/>
<path fill-rule="evenodd" clip-rule="evenodd" d="M62.4081 10.3465C62.4081 10.5315 62.2589 10.6814 62.0747 10.6814C61.8907 10.6814 61.7415 10.5315 61.7415 10.3465C61.7415 10.1616 61.8907 10.0117 62.0747 10.0117C62.2589 10.0117 62.4081 10.1616 62.4081 10.3465Z" fill="white"/>
<path d="M65.0545 7.13195C65.0916 7.07401 65.1657 7.05438 65.2258 7.08396L65.2395 7.09175L65.8503 7.48661C65.9124 7.52667 65.9303 7.60989 65.8905 7.67241C65.8533 7.73035 65.7792 7.74998 65.719 7.7204L65.7055 7.71261L65.0947 7.31775C65.0324 7.27769 65.0145 7.19447 65.0545 7.13195Z" fill="white"/>
<path d="M65.0551 3.39612C65.1229 3.40687 65.1709 3.46697 65.168 3.53419L65.1666 3.54992L65.0012 4.60595C64.9896 4.67922 64.9211 4.72937 64.8482 4.71781C64.7803 4.70705 64.7324 4.64696 64.7352 4.57974L64.7367 4.56414L64.9021 3.50811C64.9128 3.43994 64.9726 3.39195 65.0396 3.39464L65.0551 3.39612Z" fill="white"/>
<path d="M67.1922 4.70766C67.2587 4.67552 67.3388 4.70349 67.3709 4.77044C67.4007 4.83255 67.3787 4.90622 67.3222 4.94225L67.3084 4.94992L66.6443 5.2715C66.5778 5.30377 66.4978 5.27567 66.4656 5.20872C66.4359 5.14661 66.4579 5.07293 66.5145 5.0369L66.5281 5.02924L67.1922 4.70766Z" fill="white"/>
<path d="M61.7375 3.97569C61.7716 3.90981 61.8524 3.88427 61.918 3.91855C61.9789 3.95041 62.0051 4.02261 61.9813 4.08552L61.9749 4.09977L61.5648 4.89096C61.5307 4.95684 61.4499 4.98252 61.3843 4.94823C61.3234 4.91637 61.2972 4.84404 61.321 4.78112L61.3274 4.76687L61.7375 3.97569Z" fill="white"/>
<path d="M60.0334 6.25097C60.1003 6.21951 60.1801 6.24855 60.2114 6.31577C60.2404 6.37829 60.2177 6.45169 60.1606 6.48705L60.1469 6.49458L59.3547 6.86698C59.2878 6.89844 59.208 6.8694 59.1767 6.80218C59.1476 6.7398 59.1704 6.66626 59.2274 6.63091L59.2412 6.62338L60.0334 6.25097Z" fill="white"/>
<path fill-rule="evenodd" clip-rule="evenodd" d="M32.758 39.3599C32.758 42.882 29.9156 45.7374 26.4093 45.7374C22.9031 45.7374 20.0605 42.882 20.0605 39.3599C20.0605 35.8378 22.9031 32.9824 26.4093 32.9824C29.9156 32.9824 32.758 35.8378 32.758 39.3599Z" fill="#00D6DE"/>
<path d="M27.0198 42.0232C27.0822 41.9835 27.1649 42.0021 27.2045 42.0648C27.2412 42.1231 27.2278 42.1989 27.1757 42.2412L27.159 42.2529C27.1454 42.2617 27.1099 42.2844 27.0952 42.2935C27.0612 42.315 27.0277 42.3355 26.9921 42.3563C26.8982 42.4116 26.7998 42.4639 26.6943 42.5131C26.1267 42.7782 25.5249 42.8818 24.9117 42.7314C24.4582 42.62 24.0872 42.407 23.7773 42.1381C23.7125 42.0818 23.7162 41.9797 23.7849 41.9285C23.9372 41.8148 24.0638 41.672 24.1471 41.485C24.2132 41.3358 24.2517 41.1551 24.2556 40.9772C24.2573 40.903 24.3185 40.8441 24.3924 40.8457C24.4663 40.8475 24.5249 40.9089 24.5233 40.9831C24.5186 41.1958 24.4724 41.4117 24.3916 41.5944C24.315 41.7664 24.2105 41.907 24.0868 42.0247L24.0753 42.0351L24.0892 42.0459C24.3244 42.2243 24.5955 42.3669 24.9115 42.4537L24.9752 42.4703C25.5215 42.6042 26.0645 42.5107 26.5815 42.2692C26.679 42.2238 26.77 42.1754 26.8571 42.1241L26.9055 42.0952L26.9716 42.054L27.0198 42.0232Z" fill="white"/>
<path d="M22.6336 37.9833C22.7006 37.8921 22.8403 37.9212 22.8697 38.0258L22.8784 38.0677C22.885 38.0988 22.8968 38.1434 22.9146 38.1977C22.9548 38.3195 23.0107 38.4415 23.0849 38.5544C23.2753 38.8445 23.5493 39.0264 23.9315 39.0552C24.0052 39.0607 24.0605 39.1252 24.055 39.1993C24.0494 39.2733 23.9853 39.3288 23.9116 39.3233C23.441 39.2879 23.0949 39.0583 22.8614 38.7024C22.7954 38.6017 22.7418 38.496 22.6994 38.3892L22.6945 38.3764L22.6768 38.4068C22.5102 38.6987 22.3939 39.0354 22.3622 39.4304L22.3579 39.4933C22.3353 39.8932 22.4103 40.2681 22.5578 40.6139C22.6077 40.731 22.661 40.8351 22.7168 40.9294L22.7287 40.9489L22.7364 40.9282L22.7566 40.8781C22.8424 40.6751 22.9715 40.4941 23.1528 40.3505C23.2346 40.286 23.335 40.2192 23.4521 40.1622C23.6381 40.0717 23.8193 40.0311 23.9889 40.0643C24.0615 40.0786 24.1088 40.1491 24.0946 40.222C24.0815 40.2898 24.02 40.3356 23.9532 40.3304L23.9377 40.3282C23.835 40.3082 23.7075 40.3367 23.5688 40.4042C23.4715 40.4515 23.3863 40.5082 23.3184 40.5617C23.1749 40.6753 23.072 40.8195 23.003 40.9831C22.956 41.0941 22.9316 41.1936 22.9186 41.2875C22.9023 41.4052 22.753 41.4453 22.6804 41.3513C22.5466 41.1783 22.4216 40.9777 22.3117 40.7198C22.1488 40.3376 22.0654 39.9218 22.0906 39.478C22.1251 38.8693 22.3383 38.3842 22.6336 37.9833Z" fill="white"/>
<path d="M27.0915 36.9512C28.6277 36.9512 29.9611 37.7787 30.3365 38.9518C30.3591 39.0225 30.3204 39.0982 30.25 39.1209C30.1796 39.1436 30.1043 39.1048 30.0816 39.0341C29.7445 37.9809 28.5187 37.2201 27.0915 37.2201C25.3838 37.2201 24.0103 38.2991 24.0103 39.6112C24.0103 40.9236 25.3835 42.0023 27.0915 42.0023C27.8946 42.0023 28.6484 41.7626 29.2171 41.3412C29.2765 41.2971 29.3603 41.3098 29.4042 41.3696C29.4481 41.4293 29.4354 41.5134 29.3759 41.5575C28.7604 42.0137 27.9509 42.2711 27.0915 42.2711C25.2482 42.2711 23.7427 41.0887 23.7427 39.6112C23.7427 38.134 25.2483 36.9512 27.0915 36.9512Z" fill="white"/>
<path d="M24.478 36.1808C25.115 35.8564 25.6666 35.8597 26.3952 36.0216C27.1547 36.1896 27.7765 36.5982 28.2736 37.1418C28.3235 37.1965 28.3199 37.2814 28.2655 37.3317C28.2111 37.382 28.1263 37.3784 28.0764 37.3237C27.6137 36.8176 27.0374 36.439 26.3375 36.2842C25.6642 36.1345 25.1666 36.1316 24.599 36.4205C24.3304 36.5573 24.1137 36.7364 23.9354 36.9423L23.9028 36.9807L23.9293 37.0056C24.1182 37.1877 24.2829 37.41 24.4057 37.6879L24.4314 37.7482C24.4887 37.8887 24.5298 38.0315 24.5564 38.1759C24.5698 38.2489 24.5217 38.3189 24.4491 38.3325C24.3764 38.346 24.3065 38.2977 24.2932 38.2247C24.2699 38.0982 24.2339 37.9731 24.1837 37.8503C24.0523 37.5283 23.8578 37.2878 23.6335 37.1006C23.5786 37.0546 23.5691 36.9736 23.6122 36.9163C23.8322 36.623 24.1114 36.3674 24.478 36.1808Z" fill="white"/>
<path fill-rule="evenodd" clip-rule="evenodd" d="M28.6194 38.9354C28.804 38.775 28.9937 38.6577 29.185 38.6059C29.7909 38.4422 30.5529 38.9069 31.0221 39.7118C31.0414 39.7449 31.0457 39.7848 31.0339 39.8213C30.8834 40.2867 30.6526 40.7442 30.3031 41.1803C30.0331 41.517 29.7341 41.7871 29.4165 42.0085C29.3279 42.0702 29.2068 42.0067 29.2064 41.8985C29.2051 41.5788 29.1424 41.2486 28.979 40.9131C28.7554 40.4542 28.4292 40.1502 28.0685 39.9417C28.0106 39.9081 27.9861 39.8367 28.0114 39.7745C28.0904 39.5793 28.1982 39.3901 28.3488 39.2095C28.3619 39.1938 28.3777 39.1755 28.3963 39.155L28.4371 39.1106C28.4929 39.0516 28.554 38.9923 28.6194 38.9354ZM30.76 39.7958L30.7403 39.7638C30.3246 39.1055 29.7055 38.7437 29.2546 38.8656C29.1091 38.9049 28.9513 39.0025 28.7946 39.1387C28.6925 39.2276 28.6102 39.3145 28.5541 39.382C28.4621 39.4924 28.3884 39.6064 28.3286 39.7237L28.3052 39.7712L28.3349 39.7903C28.6699 40.0096 28.9706 40.3114 29.1911 40.7384L29.2194 40.7949C29.3516 41.0665 29.425 41.3344 29.456 41.597L29.4606 41.6413L29.5146 41.5982C29.6989 41.4472 29.8749 41.2754 30.0399 41.0783L30.0945 41.0117C30.422 40.6032 30.6382 40.1744 30.7794 39.7382L30.76 39.7958Z" fill="white"/>
<path fill-rule="evenodd" clip-rule="evenodd" d="M29.8143 39.5651C29.8143 39.705 29.7013 39.8186 29.562 39.8186C29.4225 39.8186 29.3096 39.705 29.3096 39.5651C29.3096 39.4251 29.4225 39.3115 29.562 39.3115C29.7013 39.3115 29.8143 39.4251 29.8143 39.5651Z" fill="white"/>
<path d="M26.666 38.5492C26.7396 38.5435 26.8041 38.5987 26.8098 38.6728C26.8156 38.7467 26.7606 38.8115 26.6869 38.8173C26.2421 38.8525 25.8869 39.1989 25.8589 39.6035C25.8259 40.0804 26.2501 40.5196 26.7753 40.5156C26.8493 40.515 26.9097 40.5747 26.9102 40.6491C26.9108 40.7233 26.8513 40.7839 26.7773 40.7845C26.0982 40.7897 25.5479 40.2201 25.5918 39.5848C25.6293 39.0451 26.0912 38.5947 26.666 38.5492Z" fill="white"/>
<path fill-rule="evenodd" clip-rule="evenodd" d="M31.4481 38.2456C31.4481 38.4366 31.2938 38.5917 31.1035 38.5917C30.9133 38.5917 30.759 38.4366 30.759 38.2456C30.759 38.0544 30.9133 37.8994 31.1035 37.8994C31.2938 37.8994 31.4481 38.0544 31.4481 38.2456Z" fill="white"/>
<path fill-rule="evenodd" clip-rule="evenodd" d="M30.5941 37.0366C30.5941 37.1544 30.4991 37.2498 30.3817 37.2498C30.2645 37.2498 30.1694 37.1544 30.1694 37.0366C30.1694 36.9187 30.2645 36.8232 30.3817 36.8232C30.4991 36.8232 30.5941 36.9187 30.5941 37.0366Z" fill="white"/>
<path fill-rule="evenodd" clip-rule="evenodd" d="M81.63 44.8695C81.63 49.8477 77.6124 53.8834 72.6566 53.8834C67.7008 53.8834 63.6833 49.8477 63.6833 44.8695C63.6833 39.8913 67.7008 35.8555 72.6566 35.8555C77.6124 35.8555 81.63 39.8913 81.63 44.8695Z" fill="#00D6DE"/>
<path fill-rule="evenodd" clip-rule="evenodd" d="M78.6938 45.1124C78.304 44.588 77.8875 44.0834 77.5187 43.5434C77.2209 43.1078 77.0157 42.6336 76.9158 42.1083C76.7489 41.2323 75.9969 40.5738 75.1147 40.4854C74.627 40.4364 74.1546 40.5067 73.6818 40.612C72.9734 40.7698 72.257 40.8177 71.5357 40.7235C71.189 40.6784 70.8608 40.5674 70.5333 40.4402C69.5864 40.0722 68.6928 40.1416 67.9058 40.842C67.5781 41.1338 67.3654 41.5106 67.1874 41.9075C67.1615 41.9657 67.17 42.0212 67.2099 42.0732C67.2875 42.1749 67.3733 42.2691 67.4683 42.354C67.5138 42.3946 67.5319 42.4374 67.5311 42.4986C67.528 42.7473 67.5287 42.9962 67.5306 43.2449C67.5312 43.3461 67.5776 43.3995 67.656 43.3992C67.7337 43.3988 67.7804 43.3445 67.7853 43.246C67.787 43.2134 67.7857 43.1806 67.7857 43.1478V42.6298C67.9322 42.7245 68.0622 42.8097 68.1937 42.8928C68.2296 42.9154 68.2224 42.9482 68.2224 42.9796C68.2229 43.1991 68.2226 43.4183 68.2226 43.6377C68.2226 43.6606 68.2205 43.6838 68.2229 43.7064C68.2308 43.784 68.2702 43.8366 68.3505 43.8432C68.4217 43.8491 68.4759 43.7875 68.4771 43.6989C68.4795 43.5157 68.4812 43.3321 68.4765 43.149C68.4745 43.0658 68.4904 43.0434 68.5697 43.0873C68.6753 43.1459 68.7865 43.1942 68.902 43.2292C68.9615 43.2472 68.9819 43.2781 68.9807 43.3414C68.9768 43.5607 68.9791 43.7801 68.9792 43.9995C68.9792 44.0256 68.9783 44.0519 68.9807 44.078C68.9876 44.1541 69.0294 44.2009 69.1056 44.2021C69.1777 44.2032 69.2196 44.1574 69.2304 44.0881C69.2368 44.0464 69.2344 44.0033 69.2346 43.9608C69.235 43.784 69.237 43.6072 69.2335 43.4304C69.2324 43.3651 69.2443 43.3444 69.3143 43.3662C69.429 43.4018 69.5464 43.4311 69.6644 43.4541C69.7307 43.4671 69.7567 43.4909 69.7549 43.5623C69.7502 43.7751 69.753 43.988 69.7534 44.2008C69.7534 44.2301 69.7533 44.2599 69.7584 44.2886C69.771 44.3583 69.8121 44.4016 69.885 44.3999C69.9581 44.3983 69.9968 44.3534 70.0061 44.2829C70.0099 44.2539 70.0095 44.2243 70.0095 44.1949C70.0097 43.9983 70.0109 43.8019 70.0088 43.6055C70.0084 43.5499 70.0147 43.5193 70.0833 43.5323C70.2275 43.5598 70.3731 43.5778 70.5202 43.5797C70.5759 43.5803 70.5896 43.6065 70.5891 43.6591C70.5867 43.8753 70.5882 44.0912 70.5882 44.3074C70.5882 44.3304 70.5858 44.3535 70.5888 44.376C70.5994 44.4534 70.6392 44.5078 70.7216 44.5041C70.8024 44.5002 70.8427 44.4472 70.8429 44.3663C70.8435 44.1436 70.847 43.921 70.8414 43.6984C70.8392 43.6156 70.8641 43.593 70.945 43.5959C71.1825 43.6043 71.4205 43.5892 71.6582 43.6121C71.822 43.6279 71.9862 43.6544 72.1266 43.7386C72.4466 43.9303 72.7634 43.9051 73.0897 43.7637C73.4881 43.5909 73.8686 43.3831 74.247 43.1714C74.3317 43.1239 74.3578 43.0508 74.3199 42.9854C74.2826 42.9204 74.2064 42.9034 74.1221 42.9495C73.7788 43.1372 73.4379 43.3299 73.078 43.4846C72.9854 43.5243 72.8901 43.559 72.7938 43.5885C72.6417 43.635 72.492 43.6291 72.348 43.5537C72.0364 43.3908 71.7002 43.3382 71.3544 43.3426C70.7994 43.3499 70.2469 43.33 69.703 43.2044C69.2987 43.1107 68.9057 42.9815 68.5363 42.7899C68.1498 42.5894 67.7921 42.3478 67.4942 42.0236C67.4499 41.9755 67.4456 41.94 67.4741 41.8802C67.6873 41.4312 67.9738 41.0433 68.4002 40.7782C68.9364 40.4448 69.5132 40.409 70.1143 40.557C70.3003 40.6029 70.4632 40.7003 70.6397 40.7665C71.2043 40.9781 71.7909 41.0337 72.3885 41.0241C72.9818 41.0144 73.558 40.8946 74.136 40.7762C74.628 40.6755 75.1209 40.6725 75.5976 40.8634C76.0477 41.0434 76.355 41.3715 76.5501 41.8119C76.6141 41.956 76.6576 42.106 76.6881 42.2608C76.8052 42.8577 77.0815 43.3795 77.4413 43.8616C77.791 44.3304 78.1409 44.799 78.4911 45.2676C78.5761 45.3813 78.6481 45.4097 78.7133 45.3566C78.7779 45.3039 78.7699 45.2149 78.6938 45.1124Z" fill="white"/>
<path fill-rule="evenodd" clip-rule="evenodd" d="M67.172 41.9009C67.3858 41.4244 67.6007 41.0914 67.8946 40.8298L67.9354 40.7942C68.6849 40.1505 69.5566 40.0431 70.5392 40.4249L70.6089 40.4516C70.9751 40.5908 71.2519 40.67 71.5377 40.7072C72.2356 40.7983 72.9476 40.7587 73.678 40.596L73.7578 40.5785C74.284 40.4661 74.7 40.4273 75.1162 40.469C76.0143 40.559 76.7653 41.2303 76.9321 42.1055L76.9483 42.1862C77.0511 42.6686 77.2459 43.1152 77.5324 43.5342C77.6748 43.7426 77.8016 43.9171 78.0064 44.1861L78.5575 44.9039L78.707 45.1027C78.7883 45.212 78.7964 45.3107 78.7238 45.37C78.6492 45.4308 78.5673 45.3981 78.4776 45.2781L77.4278 43.8721C77.0334 43.3437 76.7813 42.8238 76.6715 42.2644L76.6589 42.2041C76.6282 42.065 76.5875 41.938 76.5347 41.819C76.3347 41.3674 76.0236 41.0523 75.5913 40.8794C75.1518 40.7033 74.6771 40.6829 74.1392 40.793L73.8253 40.8567C73.2 40.9809 72.814 41.0343 72.3887 41.0413C71.7125 41.0522 71.1527 40.977 70.6337 40.7826C70.5969 40.7688 70.5648 40.7556 70.5197 40.7357L70.3453 40.6574C70.2638 40.6218 70.2084 40.6007 70.1499 40.5842L70.1101 40.5737C69.4729 40.4168 68.9126 40.4796 68.4089 40.7928C68.0151 41.0378 67.7214 41.3985 67.4891 41.8879C67.4633 41.9419 67.467 41.9699 67.5064 42.0126C67.7811 42.3115 68.1193 42.555 68.5439 42.7753C68.889 42.9544 69.2703 43.0873 69.7066 43.1884C70.187 43.2994 70.6839 43.335 71.354 43.3262C71.7358 43.3213 72.063 43.3862 72.3556 43.5392C72.4908 43.61 72.6351 43.6199 72.7887 43.5728C72.8856 43.5431 72.9802 43.5085 73.0714 43.4696C73.2771 43.3811 73.4466 43.2972 73.7254 43.1472L74.1139 42.9352C74.2043 42.8858 74.2913 42.9025 74.3342 42.9774C74.3779 43.0525 74.3461 43.1353 74.255 43.1864C73.7929 43.4451 73.4919 43.6032 73.1812 43.7421L73.0963 43.7794C72.7362 43.9355 72.422 43.9355 72.1179 43.7534L72.0921 43.7386C71.979 43.6773 71.8488 43.6478 71.6565 43.6291C71.5956 43.6232 71.5327 43.6197 71.4619 43.6177L71.3726 43.6161L71.1844 43.6158C71.1223 43.616 71.0771 43.6158 71.0377 43.6153L70.9296 43.6127C70.8699 43.613 70.8563 43.6312 70.858 43.6982C70.8599 43.7735 70.8608 43.8406 70.8611 43.9252L70.8595 44.3667C70.8593 44.4589 70.8101 44.517 70.7223 44.5212C70.6358 44.5252 70.5848 44.4711 70.5721 44.3786C70.5711 44.3709 70.5705 44.3628 70.5705 44.3534L70.5713 44.3078L70.5711 43.8329L70.5723 43.6593C70.5728 43.611 70.562 43.5973 70.5198 43.5969L70.4597 43.5951C70.3387 43.5902 70.2137 43.5746 70.0801 43.5491L70.0688 43.5473C70.0375 43.5427 70.0281 43.5494 70.0259 43.5809L70.0254 43.6056C70.0255 43.6216 70.0257 43.6372 70.0258 43.6527L70.0259 44.2306C70.0257 44.2527 70.0247 44.2688 70.0226 44.2855C70.0118 44.3671 69.9641 44.4153 69.8853 44.4171C69.8065 44.419 69.7564 44.3727 69.7418 44.2919C69.7385 44.2731 69.7371 44.2538 69.7367 44.2285L69.7354 43.8303C69.7354 43.7632 69.7358 43.7029 69.7366 43.6459L69.7381 43.5622C69.7395 43.5022 69.7227 43.483 69.6611 43.4709L69.5717 43.4522C69.4827 43.4324 69.3949 43.4092 69.3093 43.3826L69.2976 43.3791C69.2613 43.3689 69.2518 43.3733 69.2502 43.4068L69.2501 43.4304C69.251 43.4761 69.2516 43.5181 69.2518 43.5651L69.2514 44.0232C69.2513 44.0507 69.25 44.0705 69.2468 44.0911C69.2342 44.1715 69.1832 44.2204 69.1052 44.2193C69.022 44.218 68.9719 44.1664 68.964 44.0799C68.9636 44.0758 68.9632 44.0716 68.963 44.0673L68.9622 44.0392L68.9618 43.5177L68.9638 43.3414C68.9649 43.2848 68.9486 43.2612 68.897 43.2456L68.84 43.2272C68.7454 43.1946 68.6523 43.1528 68.5615 43.1024L68.5496 43.0959C68.4974 43.0684 68.4914 43.0779 68.4931 43.1489L68.4955 43.2838C68.4963 43.3639 68.4962 43.4495 68.4953 43.5539L68.4937 43.6995C68.4923 43.7971 68.4308 43.8671 68.349 43.8602C68.2639 43.8532 68.2153 43.7981 68.2062 43.7086C68.2054 43.7009 68.205 43.693 68.205 43.6837L68.2058 43.6381V43.2051L68.2055 42.9801L68.2061 42.9522C68.2058 42.9275 68.2011 42.9177 68.1846 42.9073L67.8021 42.6609L67.8023 43.1542L67.8027 43.1965C67.8028 43.2075 67.8028 43.2164 67.8027 43.2243L67.8019 43.2472C67.7966 43.3535 67.7438 43.4159 67.6559 43.4165C67.5663 43.4167 67.5144 43.3539 67.5137 43.2453C67.5121 43.0332 67.5117 42.8529 67.5127 42.6844L67.5143 42.4988C67.5151 42.4419 67.4986 42.4038 67.4571 42.3669C67.3633 42.2831 67.2766 42.1886 67.1965 42.0839C67.1525 42.0265 67.1438 41.9644 67.172 41.9009ZM68.1402 42.8393L68.2024 42.879C68.2347 42.8991 68.2407 42.921 68.2392 42.9669V43.6384L68.2383 43.684C68.2384 43.6918 68.2387 43.6986 68.2394 43.7051C68.247 43.7796 68.2837 43.8211 68.3517 43.8268C68.4124 43.8317 68.4591 43.7785 68.4602 43.699C68.4625 43.5236 68.4633 43.3984 68.4621 43.2842L68.4597 43.1499C68.4573 43.0496 68.4899 43.0243 68.5776 43.073L68.6314 43.1016C68.7213 43.1477 68.8134 43.1852 68.9067 43.2134C68.9729 43.2335 68.9986 43.2707 68.9973 43.3421C68.9962 43.4013 68.9956 43.4554 68.9953 43.518L68.9958 44.0529L68.9972 44.0768C69.0036 44.1469 69.0404 44.1847 69.1057 44.1857C69.1661 44.1865 69.2037 44.1506 69.2137 44.0858C69.2173 44.0624 69.2183 44.0395 69.218 44.0013L69.2185 43.7305C69.2188 43.6426 69.2187 43.5793 69.218 43.5198L69.2166 43.4311C69.2153 43.3502 69.2414 43.3262 69.3192 43.3504L69.4045 43.3757C69.4907 43.3998 69.5785 43.4206 69.6675 43.438C69.7445 43.4532 69.7734 43.4858 69.7715 43.563C69.7694 43.6587 69.7687 43.7582 69.7688 43.8819L69.7702 44.2281C69.7705 44.2516 69.7718 44.2693 69.7747 44.2859C69.7865 44.3512 69.8231 44.385 69.8845 44.3835C69.946 44.382 69.9807 44.3469 69.9894 44.281C69.9918 44.2621 69.9926 44.2434 69.9926 44.2129L69.9932 43.9151L69.9919 43.6059C69.9914 43.5299 70.013 43.5022 70.0863 43.5162C70.2403 43.5455 70.3828 43.5614 70.5202 43.5633C70.5827 43.5639 70.6064 43.5943 70.6057 43.6597C70.605 43.7149 70.6048 43.7712 70.6045 43.8331L70.6048 44.3081L70.6038 44.3534C70.604 44.361 70.6044 44.3678 70.6053 44.3741C70.6158 44.4508 70.6535 44.4908 70.7207 44.4877C70.7897 44.4843 70.8259 44.4417 70.826 44.3665L70.8276 44.0163C70.8278 43.9506 70.8276 43.8963 70.8271 43.8459L70.8245 43.6992C70.8221 43.6074 70.8543 43.5762 70.9454 43.5795C70.9893 43.581 71.0281 43.5818 71.0799 43.5821L71.3411 43.5822L71.4629 43.5841C71.5344 43.5861 71.598 43.5897 71.6597 43.5957C71.8714 43.6162 72.0106 43.6498 72.1351 43.7245L72.1677 43.7433C72.4516 43.9004 72.7452 43.8951 73.0829 43.7487C73.3671 43.6254 73.6308 43.4923 74.0021 43.2883L74.2387 43.157C74.3146 43.1145 74.3386 43.0517 74.3053 42.9942C74.2721 42.9364 74.2053 42.9235 74.13 42.9646L73.8239 43.1321C73.5223 43.2959 73.3438 43.3865 73.1427 43.4751L73.0845 43.5005C72.9923 43.5399 72.8964 43.575 72.7985 43.6049C72.6367 43.6545 72.4834 43.6441 72.3401 43.5689C72.0529 43.4187 71.7311 43.355 71.3545 43.3599C70.6819 43.3686 70.1825 43.3328 69.6991 43.2211C69.2601 43.1195 68.8764 42.9856 68.5286 42.8053C68.1007 42.5832 67.7594 42.3374 67.4817 42.0353C67.433 41.9825 67.4273 41.9396 67.4589 41.8733C67.6937 41.3786 67.9914 41.0129 68.3913 40.7642C68.9032 40.446 69.4725 40.3821 70.1182 40.541C70.2019 40.5617 70.2682 40.5863 70.3865 40.6389L70.5542 40.7141C70.5882 40.7288 70.6152 40.7397 70.6455 40.751L70.7128 40.7756C71.2086 40.9503 71.7452 41.018 72.3881 41.0077C72.7772 41.0012 73.1337 40.9558 73.6738 40.8521L73.819 40.8238L73.9616 40.795L74.1117 40.7643L74.1975 40.7473C74.7149 40.6506 75.1754 40.6767 75.6037 40.8481C76.0444 41.0243 76.3617 41.3459 76.5653 41.8054C76.6267 41.9438 76.6718 42.0926 76.7045 42.2578L76.7188 42.3269C76.8341 42.8549 77.0793 43.3492 77.4546 43.8519L78.5044 45.2579C78.5843 45.3646 78.6465 45.3895 78.7026 45.3438C78.7586 45.2982 78.752 45.2194 78.6803 45.1228C78.6358 45.0631 78.5945 45.008 78.5484 44.9473L78.0725 44.3278C77.8652 44.0575 77.7326 43.8793 77.6053 43.6984L77.5048 43.5532C77.1999 43.1071 76.9978 42.6298 76.8992 42.1118L76.8903 42.0683C76.7102 41.2291 75.9813 40.5896 75.113 40.5024C74.6801 40.459 74.2466 40.5038 73.6853 40.6288L73.5853 40.6503C72.8861 40.7957 72.2033 40.8281 71.5335 40.7405C71.2266 40.7006 70.9308 40.613 70.5272 40.4562L70.4734 40.4358C69.5061 40.0761 68.652 40.2006 67.9168 40.8549C67.6271 41.1128 67.4146 41.4422 67.2026 41.9147C67.1795 41.9665 67.1864 42.0154 67.223 42.0633C67.3019 42.1666 67.3871 42.2595 67.4793 42.3417C67.5282 42.3853 67.5487 42.4327 67.5477 42.4992C67.5462 42.621 67.5456 42.7451 67.5456 42.88L67.5472 43.2452C67.5479 43.3365 67.5863 43.383 67.6557 43.3828C67.7241 43.3824 67.764 43.3354 67.7684 43.2454C67.7688 43.238 67.7691 43.2312 67.7692 43.2235L67.7688 42.6302L67.7946 42.616L68.1402 42.8393Z" fill="white"/>
<path fill-rule="evenodd" clip-rule="evenodd" d="M74.7011 46.031C74.9538 45.6305 75.0021 45.195 74.8982 44.7381C74.874 44.6319 74.8202 44.5846 74.7433 44.6012C74.6677 44.6176 74.6319 44.6827 74.6541 44.7893C74.7263 45.1363 74.7073 45.4719 74.5455 45.793C74.4557 45.9713 74.3266 46.117 74.1798 46.2488C74.145 46.2803 74.1038 46.2963 74.0586 46.3082C72.5514 46.7093 71.0447 47.1116 69.5375 47.5127C69.2016 47.6022 68.9186 47.4549 68.7926 47.1295C68.7327 46.9752 68.7843 46.8645 68.945 46.8225C69.0933 46.7836 69.2402 46.7417 69.385 46.6914C69.9646 46.4904 70.4864 46.1895 70.9456 45.7804C71.163 45.5867 71.3733 45.3858 71.5379 45.1436C71.683 44.9302 71.7538 44.6895 71.7637 44.4329C71.7712 44.2401 71.7704 44.0467 71.7698 43.8536C71.7696 43.751 71.7163 43.6904 71.6388 43.6935C71.5659 43.6963 71.5178 43.7565 71.5162 43.8536C71.5133 44.0336 71.5169 44.2138 71.5099 44.3936C71.4988 44.6852 71.3918 44.9395 71.2041 45.1622C70.971 45.4388 70.7055 45.6785 70.4112 45.8872C70.396 45.8978 70.3829 45.9155 70.3477 45.9085C70.3477 45.7258 70.348 45.5408 70.3475 45.356C70.3473 45.3202 70.3481 45.2836 70.3416 45.2487C70.3283 45.1784 70.2836 45.1382 70.2113 45.1421C70.1387 45.1457 70.0992 45.191 70.0942 45.2624C70.0904 45.3178 70.0921 45.3737 70.092 45.4292C70.0918 45.6224 70.0894 45.8156 70.0932 46.0088C70.0945 46.0727 70.0766 46.1125 70.0176 46.14C69.9172 46.1867 69.8183 46.2372 69.721 46.2905C69.6599 46.324 69.6365 46.3176 69.638 46.2413C69.6413 46.058 69.6392 45.8746 69.6389 45.6914C69.6388 45.662 69.6385 45.6323 69.6349 45.6032C69.6255 45.5305 69.5798 45.4896 69.5102 45.49C69.4402 45.4903 69.3936 45.5329 69.3872 45.605C69.3814 45.6699 69.383 45.7358 69.3828 45.8011C69.3822 45.9845 69.381 46.168 69.3836 46.3512C69.3842 46.4046 69.3702 46.4358 69.3152 46.4509C69.2334 46.4732 69.1534 46.5014 69.0737 46.53C69.0047 46.5548 68.9758 46.5439 68.9778 46.4601C68.9831 46.2508 68.9797 46.0411 68.9797 45.8316C68.9797 45.812 68.9811 45.7922 68.9797 45.7726C68.9728 45.6843 68.9218 45.6253 68.8498 45.6298C68.762 45.6352 68.7247 45.6903 68.7244 45.7744C68.724 46.0134 68.722 46.2523 68.7252 46.4913C68.7262 46.5823 68.7137 46.6536 68.64 46.7249C68.5107 46.8497 68.4798 47.0107 68.5395 47.1863C68.7002 47.6585 69.1354 47.8934 69.6189 47.7646C70.7925 47.4518 71.9661 47.14 73.1382 46.8222C73.2462 46.793 73.3229 46.8148 73.4073 46.8757C74.2026 47.4494 74.5843 48.2327 74.5864 49.2099C74.5871 49.6093 74.5864 50.0087 74.5861 50.4081C74.5861 50.4575 74.5863 50.506 74.6126 50.5508C74.6507 50.6153 74.7067 50.643 74.7774 50.6238C74.8428 50.6062 74.8663 50.5529 74.8663 50.4877C74.8663 50.2356 74.8689 49.9836 74.8657 49.7315C74.8616 49.4143 74.8815 49.0968 74.8375 48.7802C74.7198 47.9348 74.3303 47.2508 73.648 46.7383C73.6377 46.7305 73.6276 46.7227 73.6025 46.7029C73.7284 46.6684 73.8399 46.6248 73.9554 46.6087C74.3159 46.5583 74.5235 46.3123 74.7011 46.031Z" fill="white"/>
<path fill-rule="evenodd" clip-rule="evenodd" d="M71.6383 43.6768L71.6546 43.677C71.7347 43.6823 71.7864 43.7507 71.7867 43.8537V44.1294C71.786 44.2433 71.7842 44.3401 71.7806 44.4337C71.7703 44.7012 71.6949 44.9428 71.5518 45.1532C71.408 45.3648 71.236 45.5444 70.9568 45.7931C70.5004 46.1997 69.9782 46.5037 69.3907 46.7073C69.2584 46.7533 69.119 46.7944 68.9494 46.8388C68.7999 46.8779 68.7515 46.977 68.8082 47.1236C68.9316 47.4418 69.2065 47.5836 69.5333 47.4965L74.0544 46.292C74.1051 46.2787 74.1398 46.2626 74.1688 46.2364C74.3317 46.0902 74.4491 45.9473 74.5306 45.7856C74.6826 45.4839 74.7137 45.1578 74.6379 44.7929C74.6145 44.6805 74.6523 44.6039 74.7399 44.5849C74.8272 44.566 74.8886 44.6203 74.9147 44.7344C75.0237 45.214 74.9618 45.6495 74.7154 46.0401C74.4891 46.3985 74.2782 46.5807 73.9578 46.6255L73.934 46.6292C73.9179 46.6319 73.9015 46.6353 73.8843 46.6393L73.8668 46.6433C73.8561 46.6459 73.8467 46.6482 73.8356 46.6513L73.6389 46.7102L73.7086 46.7637C74.3578 47.2701 74.7379 47.942 74.8542 48.778C74.8774 48.9447 74.8839 49.0907 74.8835 49.3453L74.8821 49.5888L74.8837 49.8309L74.8831 50.4878C74.8831 50.5669 74.8506 50.6216 74.7819 50.6401C74.7051 50.661 74.6409 50.6317 74.5983 50.5595C74.5744 50.5186 74.5696 50.4843 74.5696 50.4082L74.5692 49.1501C74.5518 48.1963 74.1643 47.4425 73.3977 46.8895C73.3122 46.8278 73.2404 46.8122 73.1427 46.8385L73.0027 46.8765L69.6233 47.781C69.1321 47.9118 68.6876 47.6732 68.5238 47.1919C68.461 47.0074 68.4964 46.8406 68.6285 46.7128L68.6432 46.6978C68.6939 46.6425 68.7096 46.5855 68.7086 46.4917C68.708 46.4454 68.7076 46.3984 68.7073 46.3489L68.7069 46.1157L68.7078 45.7744C68.7081 45.6774 68.7558 45.6189 68.8489 45.6132C68.9301 45.608 68.9889 45.6736 68.9965 45.7715C68.9967 45.7746 68.9969 45.7777 68.9971 45.7809V45.8025L68.9967 45.8207L68.9976 46.2151C68.9976 46.2687 68.9972 46.3162 68.9967 46.3614L68.9946 46.4606C68.993 46.5283 69.0059 46.5367 69.0683 46.5144L69.1349 46.4906C69.206 46.4657 69.2564 46.4496 69.3109 46.4348C69.3545 46.4229 69.3677 46.4021 69.367 46.3516C69.3663 46.3039 69.3659 46.256 69.3656 46.2043L69.3662 45.7298C69.3663 45.6772 69.3674 45.6404 69.3707 45.6036C69.3778 45.5233 69.4312 45.4737 69.5102 45.4733C69.5886 45.4729 69.6412 45.5204 69.6516 45.6013C69.6549 45.6266 69.6557 45.6486 69.6558 45.6915L69.6566 46.0534C69.6566 46.0878 69.6563 46.1202 69.6561 46.1513L69.6547 46.2537C69.6549 46.302 69.6638 46.3028 69.7131 46.2759L69.7886 46.2353C69.8638 46.1956 69.9375 46.1589 70.0106 46.1249C70.0606 46.1015 70.0779 46.0702 70.0766 46.0093C70.0758 45.9701 70.0752 45.9334 70.075 45.8942L70.0751 45.3578C70.0751 45.3343 70.0752 45.3145 70.0759 45.2962L70.0776 45.2614C70.0834 45.1798 70.131 45.1294 70.2105 45.1254C70.2899 45.1212 70.343 45.1657 70.3582 45.2457C70.3622 45.2675 70.3638 45.2898 70.3642 45.3199L70.3645 45.8933L70.3687 45.8932C70.3738 45.8925 70.3782 45.8906 70.3832 45.8875L70.4755 45.82C70.744 45.6216 70.9824 45.3995 71.1916 45.1516C71.3811 44.9265 71.4826 44.6748 71.4934 44.3931C71.4952 44.3435 71.4964 44.2991 71.4971 44.2428L71.4982 44.0605L71.4996 43.8534C71.5014 43.7491 71.5549 43.68 71.6383 43.6768ZM71.7526 43.8346C71.7464 43.7542 71.7031 43.7078 71.6396 43.7104L71.6253 43.7118C71.5696 43.7213 71.5344 43.7729 71.5331 43.854L71.5308 44.2183C71.5306 44.2528 71.53 44.2826 71.5294 44.3108L71.5268 44.3944C71.5158 44.6837 71.4113 44.9427 71.217 45.1732C70.9871 45.446 70.7219 45.6876 70.4209 45.9011L70.4014 45.9156C70.3847 45.9264 70.3683 45.9299 70.3446 45.9252L70.3311 45.9086V45.5228L70.3309 45.329L70.3302 45.3004C70.3295 45.2817 70.3281 45.2665 70.3252 45.252C70.3132 45.1881 70.2745 45.1556 70.2123 45.159C70.1502 45.1621 70.1155 45.1986 70.1111 45.2637C70.1091 45.2911 70.1084 45.3192 70.1086 45.3578L70.108 45.8195L70.11 46.0086C70.1115 46.0822 70.0876 46.126 70.0246 46.1555C69.928 46.2004 69.8298 46.2502 69.7291 46.3054C69.6546 46.3462 69.6197 46.3281 69.6214 46.2411C69.6219 46.2116 69.6223 46.1819 69.6226 46.1509L69.6231 45.9391L69.6214 45.6418C69.6209 45.6284 69.6199 45.6173 69.6185 45.6055C69.6102 45.5413 69.5717 45.5066 69.5103 45.5069C69.4488 45.5072 69.4097 45.5435 69.4041 45.6065C69.402 45.6279 69.401 45.6494 69.4003 45.6744L69.3996 45.7298L69.399 46.1646L69.4004 46.3512C69.4012 46.416 69.3793 46.451 69.3197 46.4672C69.2737 46.4797 69.2305 46.4933 69.1747 46.5124L69.0795 46.546C68.9959 46.576 68.959 46.5521 68.9612 46.4598C68.9632 46.3837 68.964 46.3084 68.9641 46.215L68.9631 45.8317L68.9637 45.7914L68.9631 45.774C68.9569 45.693 68.9119 45.6428 68.851 45.6467C68.7765 45.6513 68.7416 45.6942 68.7413 45.7746L68.7405 46.2982L68.7421 46.4913C68.7433 46.6022 68.7216 46.6694 68.6518 46.737L68.6321 46.7572C68.5258 46.8726 68.5001 47.0182 68.5554 47.181C68.7136 47.6456 69.1405 47.8748 69.6147 47.7484L71.3524 47.2852L73.134 46.8061C73.2418 46.777 73.3238 46.7949 73.4172 46.8622C74.2086 47.433 74.6011 48.217 74.6033 49.21L74.603 50.4082C74.603 50.4784 74.6072 50.5084 74.6272 50.5424C74.6623 50.6021 74.7116 50.6244 74.7732 50.6077C74.8256 50.5936 74.8497 50.553 74.8497 50.4878L74.8506 49.9345L74.8486 49.674L74.8501 49.3456C74.8505 49.124 74.8455 48.9853 74.8289 48.8437L74.821 48.7827C74.703 47.9341 74.3108 47.2572 73.6381 46.7518L73.5923 46.7163L73.5982 46.6869C73.6118 46.6831 73.6253 46.6792 73.6399 46.6749L73.8272 46.6187C73.8384 46.6156 73.8479 46.6132 73.8589 46.6107L73.9031 46.6009C73.9202 46.5974 73.9368 46.5945 73.9532 46.5923L73.9871 46.5869C74.277 46.5358 74.4737 46.3599 74.6871 46.0221C74.9286 45.6395 74.9891 45.213 74.8821 44.7419C74.8597 44.6439 74.8137 44.6033 74.7469 44.6177C74.6792 44.6325 74.6507 44.6903 74.6706 44.786L74.6805 44.8364C74.7449 45.1883 74.709 45.506 74.5606 45.8008C74.4769 45.9667 74.3569 46.1127 74.1912 46.2614C74.1576 46.2918 74.1184 46.3099 74.063 46.3246L69.5419 47.529C69.1986 47.6206 68.9066 47.4699 68.7772 47.1358C68.7132 46.9707 68.7718 46.8506 68.9409 46.8063C69.1098 46.7621 69.2484 46.7212 69.3797 46.6756C69.9631 46.4733 70.4816 46.1716 70.9346 45.768C71.2119 45.5209 71.3823 45.3432 71.5243 45.1342C71.6636 44.9292 71.7371 44.6937 71.7471 44.4323C71.7514 44.3237 71.7531 44.2105 71.7535 44.0709L71.7533 43.8605L71.7526 43.8346Z" fill="white"/>
<path fill-rule="evenodd" clip-rule="evenodd" d="M68.6573 41.0314C68.5078 41.0234 68.2368 41.2918 68.2403 41.4606C68.242 41.4919 68.2567 41.5387 68.3042 41.5541C68.3619 41.5726 68.4274 41.5687 68.4624 41.5123C68.531 41.4018 68.6165 41.3143 68.7304 41.2504C68.78 41.2226 68.7864 41.1657 68.7682 41.111C68.7507 41.0578 68.7098 41.0343 68.6573 41.0314Z" fill="white"/>
<path fill-rule="evenodd" clip-rule="evenodd" d="M68.2237 41.4622C68.2201 41.2869 68.496 41.0071 68.6582 41.0158L68.6764 41.0177C68.7294 41.0255 68.7672 41.0552 68.7842 41.1068C68.8067 41.1742 68.7927 41.236 68.7387 41.2663C68.6308 41.3268 68.5462 41.4104 68.4768 41.5224C68.4404 41.5809 68.3725 41.5947 68.2992 41.5713C68.2511 41.5556 68.2263 41.5116 68.2237 41.4622ZM68.7525 41.1175C68.7381 41.074 68.7059 41.0521 68.6565 41.0494C68.514 41.0418 68.2539 41.3054 68.2571 41.4608C68.2591 41.4973 68.2767 41.5287 68.3095 41.5393C68.3696 41.5586 68.4213 41.5479 68.4484 41.5047C68.5207 41.388 68.6094 41.3003 68.7223 41.237C68.7602 41.2157 68.7703 41.1711 68.7525 41.1175Z" fill="#F5F5FF"/>
<path fill-rule="evenodd" clip-rule="evenodd" d="M73.546 42.1515C73.546 42.4375 73.3153 42.6693 73.0306 42.6693C72.746 42.6693 72.5154 42.4375 72.5154 42.1515C72.5154 41.8656 72.746 41.6338 73.0306 41.6338C73.3153 41.6338 73.546 41.8656 73.546 42.1515Z" fill="white"/>
<path fill-rule="evenodd" clip-rule="evenodd" d="M45.7564 14.1416L43.9726 14.2381C43.424 14.2677 42.9376 14.519 42.596 14.8988C42.2566 15.2807 42.0603 15.7935 42.0898 16.3446C42.1489 17.4489 43.0875 18.2933 44.1866 18.2339L45.9704 18.1375" fill="#00D6DE"/>
<path d="M45.7449 13.9407C45.8556 13.9348 45.9502 14.02 45.9561 14.1314C45.9617 14.236 45.8869 14.3263 45.7857 14.3415L45.7665 14.3435L43.9827 14.44C43.5028 14.466 43.0612 14.682 42.7451 15.0336C42.4302 15.388 42.2637 15.8521 42.2896 16.3343C42.3419 17.3129 43.1626 18.0651 44.1334 18.0349L44.1752 18.033L45.9589 17.9366C46.0696 17.9307 46.1642 18.0159 46.1701 18.1272C46.1757 18.2318 46.1009 18.3222 45.9997 18.3374L45.9805 18.3394L44.1967 18.4358C42.9864 18.5012 41.9536 17.571 41.8887 16.356C41.857 15.7662 42.0608 15.198 42.4463 14.7642C42.8216 14.347 43.3404 14.0856 43.9063 14.041L43.9612 14.0372L45.7449 13.9407Z" fill="#00D6DE"/>
<path fill-rule="evenodd" clip-rule="evenodd" d="M49.4457 17.6613L49.0728 17.3251C48.8561 17.1296 48.5228 17.1476 48.3283 17.3652L47.9934 17.7398C47.82 17.9338 47.5768 18.0508 47.3176 18.0649L45.8134 18.1461C45.7968 18.147 45.7789 18.148 45.7621 18.1473C44.6865 18.1783 43.7758 17.3424 43.7175 16.2558C43.688 15.7041 43.8839 15.1935 44.224 14.8113C44.5658 14.4307 45.0503 14.1801 45.5994 14.1505L47.3596 14.0553L50.1347 13.9053C51.231 13.846 52.2331 14.695 52.2899 15.7963C52.3184 16.3465 52.1226 16.8557 51.7832 17.237C51.4416 17.6176 50.9571 17.8681 50.4078 17.8978L50.1523 17.9115C49.8932 17.9256 49.6389 17.8357 49.4457 17.6613Z" fill="white"/>
<path fill-rule="evenodd" clip-rule="evenodd" d="M45.5889 13.9496L50.1241 13.7044C51.3408 13.6387 52.4285 14.5826 52.4907 15.7864C52.5212 16.3752 52.3178 16.9397 51.9326 17.3725C51.5453 17.8041 51.0068 18.0678 50.4188 18.0997L50.1635 18.1134C49.8511 18.1303 49.5446 18.0219 49.3119 17.8119L48.939 17.4756C48.8048 17.3545 48.5984 17.3656 48.478 17.5005L48.1431 17.875C47.9341 18.1088 47.6411 18.2497 47.3286 18.2668L45.8043 18.3489C45.798 18.3492 45.7923 18.3495 45.7868 18.3496L45.7634 18.3495L45.7254 18.3502C44.5717 18.3612 43.6044 17.4685 43.52 16.3101L43.5174 16.2671C43.4858 15.6767 43.6891 15.1107 44.0752 14.6767C44.4628 14.2451 45.0013 13.9812 45.5889 13.9496ZM51.6339 17.1031C51.9487 16.7494 52.1147 16.2888 52.0898 15.8073L52.0872 15.7666C52.0144 14.8086 51.1303 14.054 50.1458 14.1072L45.6104 14.3524C45.1301 14.3782 44.6906 14.5936 44.3739 14.9461C44.0583 15.3009 43.8924 15.7628 43.9183 16.2455C43.9705 17.2203 44.7875 17.9743 45.7567 17.9462L45.779 17.9463L47.307 17.864C47.5131 17.8527 47.7065 17.7598 47.8444 17.6056L48.1792 17.2311C48.4477 16.9305 48.9081 16.9056 49.2072 17.1755L49.5801 17.5118C49.7337 17.6503 49.9358 17.7218 50.1419 17.7106L50.3973 17.6969C50.8779 17.671 51.3174 17.4556 51.6339 17.1031Z" fill="#00D6DE"/>
<path fill-rule="evenodd" clip-rule="evenodd" d="M45.5912 21.4365C45.2656 21.5155 44.7101 21.6051 44.0399 21.4874C43.5096 21.3943 43.1001 21.205 42.8347 21.0557C42.992 21.3729 43.2546 21.8049 43.6843 22.218C44.4421 22.9463 45.2842 23.1976 45.6985 23.2905C45.715 23.0338 45.7203 22.7483 45.7056 22.4388C45.6879 22.0667 45.6446 21.7306 45.5912 21.4365Z" fill="#00D6DE"/>
<path fill-rule="evenodd" clip-rule="evenodd" d="M43.5453 22.3643C43.1564 21.9903 42.8693 21.5789 42.6548 21.146C42.5667 20.9684 42.7603 20.7833 42.9326 20.8802C43.2687 21.0694 43.6441 21.2138 44.0744 21.2892C44.6063 21.3827 45.0934 21.3502 45.5439 21.241C45.6561 21.2139 45.7678 21.2869 45.7885 21.4009C45.8488 21.7327 45.8892 22.0749 45.9059 22.4296C45.9201 22.7278 45.917 23.019 45.8987 23.3039C45.8908 23.4275 45.7749 23.5149 45.6546 23.4878C44.917 23.3225 44.1935 22.9872 43.5453 22.3643ZM43.3687 21.52L43.3367 21.5083L43.3833 21.5726C43.5112 21.7459 43.6568 21.9133 43.8229 22.0728C44.3352 22.5652 44.9012 22.8604 45.4827 23.0279L45.5095 23.0353L45.5123 22.9273C45.5143 22.8093 45.5135 22.6901 45.5096 22.5697L45.505 22.4489C45.4929 22.1967 45.4684 21.951 45.4328 21.7112L45.4276 21.6784L45.3611 21.6905C44.9628 21.7588 44.5391 21.7703 44.0855 21.6999L44.0052 21.6866C43.7801 21.6471 43.5685 21.5906 43.3687 21.52Z" fill="#00D6DE"/>
<path fill-rule="evenodd" clip-rule="evenodd" d="M9.07868 81.7871H26.5699C26.6807 81.7871 26.7706 81.8773 26.7706 81.9888V91.7984C26.7706 91.9097 26.6807 92.0001 26.5699 92.0001H9.07868C8.9678 92.0001 8.87793 91.9097 8.87793 91.7984V81.9888C8.87793 81.8773 8.9678 81.7871 9.07868 81.7871ZM26.369 91.5966V82.1903H9.27931V91.5966H26.369Z" fill="#00D6DE"/>
<path d="M24.8246 71.3355L24.8109 71.35C24.7589 71.4049 24.7062 71.4626 24.6524 71.5231L24.5981 71.5847C24.3339 71.887 23.3504 73.1404 23.2788 73.2285C22.7116 73.9273 21.6345 75.7111 20.8422 77.1459C20.7274 77.3537 20.412 77.2259 20.4726 76.9963L20.4969 76.9027C20.7273 76.0037 21.1495 74.0002 21.2304 73.3153L21.2531 73.1024C21.4114 71.5924 21.4667 70.6834 21.4116 69.9482L21.4081 69.9039L21.3611 69.9714C20.4873 71.2369 19.7761 72.6725 19.3084 74.3309L19.2729 74.4589C18.9505 75.6407 18.7934 76.7955 18.7623 77.9273C18.7559 78.1665 18.4138 78.1971 18.3652 77.9629C18.0942 76.6571 17.7185 75.3325 17.2208 73.9968C16.7145 72.6399 16.1212 71.3755 15.4578 70.1925L15.432 70.1471L15.4314 70.1625C15.3954 71.2561 15.4108 72.3706 15.4847 73.508L15.5014 73.752C15.614 75.3184 15.8304 76.8252 16.1339 78.2793C16.1832 78.5154 15.8533 78.6235 15.7545 78.4036C15.2537 77.2898 14.6244 76.1941 13.8281 75.1261C13.0832 74.1272 12.2749 73.2623 11.4197 72.5049L11.3275 72.4238L11.354 72.5385C11.5974 73.5759 11.9143 74.6213 12.3177 75.6745L12.3857 75.8501C12.8753 77.1009 13.447 78.2603 14.082 79.3364C14.2094 79.5523 13.908 79.7612 13.7523 79.5649C13.0776 78.7139 12.2641 77.9308 11.2519 77.2504C10.537 76.7687 9.811 76.399 9.0766 76.1155L9.05297 76.1063L9.0921 76.1999C9.61129 77.4256 10.2934 78.6295 11.1896 79.7938L11.283 79.914C11.8393 80.6227 12.435 81.2621 13.0621 81.8402C13.1438 81.9155 13.1493 82.0431 13.0743 82.1251C12.9994 82.2073 12.8724 82.2126 12.7907 82.1373C12.1481 81.5451 11.5377 80.8899 10.9677 80.1636C9.87326 78.7682 9.08287 77.3164 8.51206 75.8372C8.45051 75.6777 8.60216 75.5185 8.76348 75.5733C9.68059 75.8843 10.5863 76.3163 11.4754 76.9152C11.9818 77.2556 12.4402 77.6209 12.8575 78.0068L12.9426 78.0864L12.8601 77.9206C12.584 77.3604 12.3245 76.78 12.0838 76.1788L12.0121 75.9977C11.4755 74.6284 11.0837 73.2722 10.8092 71.9294C10.7713 71.7437 10.9861 71.6127 11.1325 71.7323C12.213 72.6147 13.2285 73.6494 14.1495 74.8844C14.6383 75.54 15.0656 76.2058 15.44 76.8798L15.4757 76.9447L15.4516 76.7972C15.3056 75.8915 15.1935 74.9657 15.1188 74.0183L15.101 73.781C14.994 72.2972 14.9855 70.8518 15.0607 69.4409C15.0713 69.2421 15.3316 69.1773 15.4334 69.348C16.2591 70.7316 16.9895 72.228 17.5969 73.8552C17.9336 74.7591 18.2153 75.6577 18.4471 76.5492L18.4556 76.5825L18.464 76.5092C18.5435 75.8471 18.6688 75.1769 18.8466 74.498L18.8856 74.3524C19.4253 72.3725 20.3007 70.6996 21.3841 69.2506C21.49 69.1089 21.7134 69.1636 21.7425 69.3384L21.7563 69.4239C21.8898 70.2959 21.8493 71.2645 21.6534 73.1354L21.6336 73.3224C21.5908 73.7217 21.4188 74.6183 21.2362 75.4758L21.1794 75.7394L21.3087 75.5195C21.899 74.5198 22.5041 73.5654 22.9088 73.0476L23.6754 72.0809C23.9281 71.764 24.1789 71.453 24.2963 71.3186C24.5271 71.0544 24.7396 70.839 24.9546 70.6565C25.092 70.5398 25.301 70.6495 25.2841 70.8294C25.1648 72.1008 24.9087 73.3952 24.48 74.7088C23.9191 76.4216 23.1343 77.9499 22.1851 79.3227C21.9116 79.7179 21.6303 80.0913 21.3422 80.4459C21.2722 80.5323 21.1458 80.5452 21.0599 80.4747C20.9739 80.4044 20.9611 80.2774 21.0312 80.191C21.3128 79.844 21.588 79.479 21.8554 79.0925C22.7834 77.7505 23.5505 76.2565 24.0986 74.583C24.4504 73.5047 24.6834 72.4396 24.8181 71.3897L24.8246 71.3355Z" fill="#00D6DE"/>
<path d="M28.1908 76.0922C28.3697 76.0516 28.5047 76.2535 28.3997 76.4045C27.6961 77.415 26.8942 78.3942 25.9779 79.3306C24.9198 80.4119 23.7957 81.3472 22.6247 82.1547C22.5333 82.2177 22.4084 82.1943 22.3456 82.1025C22.2829 82.0107 22.3062 81.8853 22.3976 81.8222C23.5479 81.0289 24.6522 80.1101 25.6916 79.0479C26.4089 78.3148 27.0549 77.5551 27.6373 76.7744L27.7557 76.6142L27.7298 76.6211C26.9047 76.8402 26.0771 77.1329 25.248 77.5145L25.1097 77.5789C24.3963 77.9159 23.0046 78.7732 22.1336 79.3735C22.0422 79.4366 21.9172 79.4132 21.8546 79.3213C21.7918 79.2295 21.8151 79.1039 21.9065 79.041L22.0306 78.9561C22.9205 78.3516 24.2347 77.5465 24.939 77.2138C26.0262 76.7005 27.111 76.3378 28.1908 76.0922Z" fill="#00D6DE"/>
<path fill-rule="evenodd" clip-rule="evenodd" d="M11.7311 85.3512C11.7311 85.7589 11.4021 86.0892 10.9965 86.0892C10.5907 86.0892 10.2617 85.7589 10.2617 85.3512C10.2617 84.9437 10.5907 84.6133 10.9965 84.6133C11.4021 84.6133 11.7311 84.9437 11.7311 85.3512Z" fill="#00D6DE"/>
<path fill-rule="evenodd" clip-rule="evenodd" d="M15.1449 85.3512C15.1449 85.7589 14.8159 86.0892 14.4103 86.0892C14.0045 86.0892 13.6755 85.7589 13.6755 85.3512C13.6755 84.9437 14.0045 84.6133 14.4103 84.6133C14.8159 84.6133 15.1449 84.9437 15.1449 85.3512Z" fill="#00D6DE"/>
<path fill-rule="evenodd" clip-rule="evenodd" d="M18.5592 85.3512C18.5592 85.7589 18.2304 86.0892 17.8246 86.0892C17.4188 86.0892 17.0898 85.7589 17.0898 85.3512C17.0898 84.9437 17.4188 84.6133 17.8246 84.6133C18.2304 84.6133 18.5592 84.9437 18.5592 85.3512Z" fill="#00D6DE"/>
<path fill-rule="evenodd" clip-rule="evenodd" d="M21.973 85.3512C21.973 85.7589 21.6441 86.0892 21.2384 86.0892C20.8326 86.0892 20.5037 85.7589 20.5037 85.3512C20.5037 84.9437 20.8326 84.6133 21.2384 84.6133C21.6441 84.6133 21.973 84.9437 21.973 85.3512Z" fill="#00D6DE"/>
<path fill-rule="evenodd" clip-rule="evenodd" d="M25.3871 85.3512C25.3871 85.7589 25.0581 86.0892 24.6525 86.0892C24.2467 86.0892 23.9177 85.7589 23.9177 85.3512C23.9177 84.9437 24.2467 84.6133 24.6525 84.6133C25.0581 84.6133 25.3871 84.9437 25.3871 85.3512Z" fill="#00D6DE"/>
<path d="M26.5698 88.5117C26.6808 88.5117 26.7706 88.6021 26.7706 88.7134C26.7706 88.8182 26.6909 88.9044 26.5892 88.9142L26.5698 88.915H9.07868C8.9678 88.915 8.87793 88.8248 8.87793 88.7134C8.87793 88.6087 8.95755 88.5225 9.05934 88.5127L9.07868 88.5117H26.5698Z" fill="#00D6DE"/>
<path fill-rule="evenodd" clip-rule="evenodd" d="M9.0791 91.7986H26.5703V88.7139H9.0791V91.7986Z" fill="#00D6DE"/>
</svg>
