<svg width="176" height="50" viewBox="0 0 176 50" fill="none" xmlns="http://www.w3.org/2000/svg">
<path d="M20.2283 0C22.4648 0 24.6324 0.226739 26.7312 0.678267C28.8286 1.1121 30.9611 1.81573 33.1272 2.7935C33.8528 3.121 34.3283 3.6114 34.6386 4.1441C34.8057 4.43099 35.1296 7.11767 35.1296 7.40998C35.1296 8.22108 34.8694 8.94176 34.309 9.55445C34.0603 9.82641 33.6311 10.1443 33.2578 10.304C32.8845 10.4637 31.8451 10.6925 30.9985 9.93332C30.1519 9.1741 30.2412 8.8713 30.1651 8.25113C28.7064 7.63843 27.207 7.17244 25.6661 6.84356C23.8158 6.44872 22.0033 6.25 20.2283 6.25C17.5435 6.25 15.2494 6.4877 13.3483 6.98273C11.6326 7.41468 10.2238 8.07164 9.12825 9.0036C8.13422 9.84618 7.41331 10.9261 6.95517 12.2397C6.43409 13.7185 6.1939 15.4919 6.1939 17.5583C6.1939 19.6291 6.43558 21.4135 6.95525 22.9035C7.4161 24.2076 8.14199 25.2893 9.13633 26.1462C10.2362 27.0603 11.647 27.7174 13.3484 28.1604C15.2507 28.6373 17.5447 28.8666 20.2283 28.8666C22.0033 28.8666 23.8158 28.6679 25.6659 28.2732C27.177 27.9506 28.6479 27.4962 30.0785 26.9099C30.112 26.7472 30.1444 26.6057 30.1761 26.4921C30.2493 26.2294 30.3371 26.0231 30.4117 25.8798C30.4863 25.7366 30.7791 24.9597 31.8838 24.7672C32.9885 24.5747 33.663 24.9486 34.2306 25.5073C34.8768 26.1434 35.1537 26.8992 35.1537 27.7331C35.1537 28.0361 34.797 30.7927 34.6136 31.0796C34.3189 31.5405 33.8547 31.9973 33.1219 32.3255C32.7668 32.4845 32.4128 32.6365 32.06 32.7815C30.2457 33.527 28.4612 34.0873 26.7071 34.4648C24.6161 34.8996 22.4609 35.1165 20.2283 35.1165C17.0508 35.1165 14.2588 34.8106 11.8506 34.2127C9.27829 33.5698 7.14021 32.5385 5.41693 31.155C3.60001 29.6752 2.23409 27.7966 1.31198 25.5063C0.449417 23.2989 0 20.6608 0 17.5583C0 14.4516 0.450989 11.8204 1.30567 9.65248C2.23426 7.32493 3.60602 5.44199 5.41686 3.98813C7.14123 2.58676 9.27923 1.54661 11.8475 0.904566C14.2589 0.306016 17.0509 0 20.2283 0Z" fill="#262AF2"/>
<path fill-rule="evenodd" clip-rule="evenodd" d="M112.438 0C115.92 0 118.923 0.367794 121.451 1.08113C124.172 1.82463 126.403 2.97869 128.163 4.50251C130.014 6.08886 131.38 8.07969 132.256 10.4797C133.105 12.7399 133.531 14.4972 133.531 17.5573C133.531 20.6229 133.104 22.3898 132.249 24.679C131.373 27.0559 130.006 29.035 128.154 30.62C126.395 32.1401 124.166 33.3008 121.447 34.0624C118.913 34.7578 115.914 35.1146 112.438 35.1146C108.965 35.1146 105.959 34.7584 103.418 34.0664C100.697 33.2985 98.4746 32.1361 96.7133 30.6122C94.8865 29.0312 93.5231 27.0573 92.6298 24.6852C91.7886 22.3789 91.3718 20.616 91.3718 17.5573C91.3718 14.4941 91.7898 12.7393 92.6238 10.4734C93.521 8.06884 94.8859 6.08386 96.7135 4.50237C98.4784 2.97522 100.705 1.82034 103.414 1.07708C105.957 0.366134 108.964 0 112.438 0ZM112.456 6.27871C109.829 6.27871 107.537 6.51315 105.565 7.00254C103.817 7.42104 102.352 8.09158 101.186 9.05712C100.104 9.94896 99.3023 11.1172 98.7596 12.5554C98.1717 14.0976 97.8819 15.2852 97.8819 17.4944C97.8819 19.7211 98.1713 20.9177 98.7596 22.4611C99.299 23.8762 100.1 25.043 101.177 25.9517C102.344 26.9024 103.813 27.577 105.566 28.014C107.525 28.4831 109.823 28.7099 112.456 28.7099C115.082 28.7099 117.374 28.4844 119.33 28.018C121.084 27.5828 122.555 26.9101 123.723 25.962C124.822 25.0527 125.636 23.8828 126.178 22.4612C126.767 20.9177 127.056 19.7211 127.056 17.4944C127.056 15.2852 126.766 14.0976 126.175 12.5481C125.637 11.1203 124.829 9.95524 123.723 9.05445C122.56 8.09158 121.095 7.42104 119.33 6.99844C117.375 6.51315 115.083 6.27871 112.456 6.27871Z" fill="#262AF2"/>
<path fill-rule="evenodd" clip-rule="evenodd" d="M63.3812 0C66.863 0 69.8661 0.367794 72.3942 1.08113C75.1151 1.82463 77.3454 2.97869 79.1063 4.50251C80.9568 6.08886 82.323 8.07969 83.1984 10.4797C84.048 12.7399 84.4736 14.4972 84.4736 17.5573C84.4736 20.6229 84.0464 22.3898 83.1923 24.679C82.3157 27.0559 80.9492 29.035 79.0972 30.62C77.3376 32.1401 75.1088 33.3008 72.3902 34.0624C69.8556 34.7578 66.8573 35.1146 63.3812 35.1146C59.9075 35.1146 56.9016 34.7584 54.3609 34.0664C51.6395 33.2985 49.4174 32.1361 47.6562 30.6122C45.8294 29.0312 44.466 27.0573 43.5727 24.6852C42.7315 22.3789 42.3147 20.616 42.3147 17.5573C42.3147 14.4941 42.7327 12.7393 43.5667 10.4734C44.4639 8.06884 45.8288 6.08386 47.6563 4.50237C49.4213 2.97522 51.648 1.82034 54.3572 1.07708C56.8997 0.366134 59.9068 0 63.3812 0ZM63.3985 6.27871C60.7715 6.27871 58.4795 6.51315 56.5079 7.00254C54.7596 7.42104 53.2943 8.09158 52.1282 9.05712C51.0468 9.94896 50.2448 11.1172 49.7021 12.5554C49.1142 14.0976 48.8244 15.2852 48.8244 17.4944C48.8244 19.7211 49.1137 20.9177 49.7021 22.4611C50.2415 23.8762 51.043 25.043 52.1191 25.9517C53.2861 26.9024 54.7553 27.577 56.5081 28.014C58.4675 28.4831 60.765 28.7099 63.3985 28.7099C66.0246 28.7099 68.3165 28.4844 70.2724 28.018C72.0265 27.5828 73.4971 26.9101 74.6658 25.962C75.7643 25.0527 76.5788 23.8828 77.1207 22.4612C77.7091 20.9177 77.9984 19.7211 77.9984 17.4944C77.9984 15.2852 77.7086 14.0976 77.1179 12.5481C76.5792 11.1203 75.7715 9.95524 74.6658 9.05445C73.5029 8.09158 72.0376 7.42104 70.2725 6.99844C68.3177 6.51315 66.0257 6.27871 63.3985 6.27871Z" fill="#262AF2"/>
<path fill-rule="evenodd" clip-rule="evenodd" d="M144.626 0H154.759C156.663 0 158.452 0.0485835 160.125 0.145083C161.914 0.247108 163.56 0.463506 165.063 0.789506C166.644 1.11314 168.06 1.56948 169.315 2.14926C170.72 2.79763 171.901 3.66423 172.865 4.74242C173.83 5.78224 174.579 7.03868 175.089 8.52408C175.577 9.94456 175.815 10.6946 175.815 12.6553C175.815 14.7395 175.534 15.5473 174.964 16.991C174.388 18.4808 173.567 19.7102 172.526 20.6954C171.486 21.6804 170.228 22.4556 168.744 23.0086C167.436 23.4831 166.011 23.8369 164.448 24.0705C162.965 24.2919 161.373 24.424 159.673 24.4644C158.263 24.498 156.812 24.5169 155.32 24.5206L154.759 24.5213H148.071V32.2914C148.071 33.1297 147.889 33.5383 147.759 33.7796C147.68 33.9265 147.56 34.1253 147.316 34.3715C147.243 34.4311 147.161 34.4931 147.071 34.5579C146.225 35.1629 145.835 35.1176 145.394 35.1147L143.31 35.1146C142.76 35.1146 142.342 34.9768 142.002 34.7966C141.797 34.688 141.591 34.5487 141.399 34.3584C141.329 34.2777 141.259 34.1895 141.19 34.0924C140.784 33.5263 140.673 33.0827 140.662 32.4675L140.662 32.3862L140.661 3.29376C140.661 2.72278 140.736 2.31101 140.818 2.04644C140.829 2.01122 140.841 1.97386 140.856 1.93448C141.195 1.09746 141.725 0.628395 142.338 0.345791C142.715 0.171519 143.174 0.047144 143.731 0.0301581C143.979 0.0110105 144.277 0 144.626 0ZM154.789 6.27871H148.101V18.1887H154.789L155.065 18.1885C157.635 18.1837 159.864 18.1121 161.754 17.9716C163.439 17.8312 164.83 17.5443 165.914 17.0626C166.738 16.6877 167.361 16.1535 167.756 15.4358C168.22 14.5928 168.435 14.0195 168.435 12.572C168.435 11.1122 168.198 10.5107 167.698 9.57243C167.286 8.77511 166.642 8.16246 165.767 7.71463C164.697 7.15874 163.326 6.81397 161.652 6.62642C159.724 6.39269 157.436 6.27871 154.789 6.27871Z" fill="#262AF2"/>
<path d="M20.2283 0C22.4648 0 24.6324 0.226739 26.7312 0.678267C28.8286 1.1121 30.9611 1.81573 33.1272 2.7935C33.8528 3.121 34.3283 3.6114 34.6386 4.1441C34.8057 4.43099 35.1296 7.11767 35.1296 7.40998C35.1296 8.22108 34.8694 8.94176 34.309 9.55445C34.0603 9.82641 33.6311 10.1443 33.2578 10.304C32.8845 10.4637 31.8451 10.6925 30.9985 9.93332C30.1519 9.1741 30.2412 8.8713 30.1651 8.25113C28.7064 7.63843 27.207 7.17244 25.6661 6.84356C23.8158 6.44872 22.0033 6.25 20.2283 6.25C17.5435 6.25 15.2494 6.4877 13.3483 6.98273C11.6326 7.41468 10.2238 8.07164 9.12825 9.0036C8.13422 9.84618 7.41331 10.9261 6.95517 12.2397C6.43409 13.7185 6.1939 15.4919 6.1939 17.5583C6.1939 19.6291 6.43558 21.4135 6.95525 22.9035C7.4161 24.2076 8.14199 25.2893 9.13633 26.1462C10.2362 27.0603 11.647 27.7174 13.3484 28.1604C15.2507 28.6373 17.5447 28.8666 20.2283 28.8666C22.0033 28.8666 23.8158 28.6679 25.6659 28.2732C27.177 27.9506 28.6479 27.4962 30.0785 26.9099C30.112 26.7472 30.1444 26.6057 30.1761 26.4921C30.2493 26.2294 30.3371 26.0231 30.4117 25.8798C30.4863 25.7366 30.7791 24.9597 31.8838 24.7672C32.9885 24.5747 33.663 24.9486 34.2306 25.5073C34.8768 26.1434 35.1537 26.8992 35.1537 27.7331C35.1537 28.0361 34.797 30.7927 34.6136 31.0796C34.3189 31.5405 33.8547 31.9973 33.1219 32.3255C32.7668 32.4845 32.4128 32.6365 32.06 32.7815C30.2457 33.527 28.4612 34.0873 26.7071 34.4648C24.6161 34.8996 22.4609 35.1165 20.2283 35.1165C17.0508 35.1165 14.2588 34.8106 11.8506 34.2127C9.27829 33.5698 7.14021 32.5385 5.41693 31.155C3.60001 29.6752 2.23409 27.7966 1.31198 25.5063C0.449417 23.2989 0 20.6608 0 17.5583C0 14.4516 0.450989 11.8204 1.30567 9.65248C2.23426 7.32493 3.60602 5.44199 5.41686 3.98813C7.14123 2.58676 9.27923 1.54661 11.8475 0.904566C14.2589 0.306016 17.0509 0 20.2283 0Z" fill="#262AF2"/>
<path fill-rule="evenodd" clip-rule="evenodd" d="M112.438 0C115.92 0 118.923 0.367794 121.451 1.08113C124.172 1.82463 126.403 2.97869 128.163 4.50251C130.014 6.08886 131.38 8.07969 132.256 10.4797C133.105 12.7399 133.531 14.4972 133.531 17.5573C133.531 20.6229 133.104 22.3898 132.249 24.679C131.373 27.0559 130.006 29.035 128.154 30.62C126.395 32.1401 124.166 33.3008 121.447 34.0624C118.913 34.7578 115.914 35.1146 112.438 35.1146C108.965 35.1146 105.959 34.7584 103.418 34.0664C100.697 33.2985 98.4746 32.1361 96.7133 30.6122C94.8865 29.0312 93.5231 27.0573 92.6298 24.6852C91.7886 22.3789 91.3718 20.616 91.3718 17.5573C91.3718 14.4941 91.7898 12.7393 92.6238 10.4734C93.521 8.06884 94.8859 6.08386 96.7135 4.50237C98.4784 2.97522 100.705 1.82034 103.414 1.07708C105.957 0.366134 108.964 0 112.438 0ZM112.456 6.27871C109.829 6.27871 107.537 6.51315 105.565 7.00254C103.817 7.42104 102.352 8.09158 101.186 9.05712C100.104 9.94896 99.3023 11.1172 98.7596 12.5554C98.1717 14.0976 97.8819 15.2852 97.8819 17.4944C97.8819 19.7211 98.1713 20.9177 98.7596 22.4611C99.299 23.8762 100.1 25.043 101.177 25.9517C102.344 26.9024 103.813 27.577 105.566 28.014C107.525 28.4831 109.823 28.7099 112.456 28.7099C115.082 28.7099 117.374 28.4844 119.33 28.018C121.084 27.5828 122.555 26.9101 123.723 25.962C124.822 25.0527 125.636 23.8828 126.178 22.4612C126.767 20.9177 127.056 19.7211 127.056 17.4944C127.056 15.2852 126.766 14.0976 126.175 12.5481C125.637 11.1203 124.829 9.95524 123.723 9.05445C122.56 8.09158 121.095 7.42104 119.33 6.99844C117.375 6.51315 115.083 6.27871 112.456 6.27871Z" fill="#262AF2"/>
<path fill-rule="evenodd" clip-rule="evenodd" d="M63.3812 0C66.863 0 69.8661 0.367794 72.3942 1.08113C75.1151 1.82463 77.3454 2.97869 79.1063 4.50251C80.9568 6.08886 82.323 8.07969 83.1984 10.4797C84.048 12.7399 84.4736 14.4972 84.4736 17.5573C84.4736 20.6229 84.0464 22.3898 83.1923 24.679C82.3157 27.0559 80.9492 29.035 79.0972 30.62C77.3376 32.1401 75.1088 33.3008 72.3902 34.0624C69.8556 34.7578 66.8573 35.1146 63.3812 35.1146C59.9075 35.1146 56.9016 34.7584 54.3609 34.0664C51.6395 33.2985 49.4174 32.1361 47.6562 30.6122C45.8294 29.0312 44.466 27.0573 43.5727 24.6852C42.7315 22.3789 42.3147 20.616 42.3147 17.5573C42.3147 14.4941 42.7327 12.7393 43.5667 10.4734C44.4639 8.06884 45.8288 6.08386 47.6563 4.50237C49.4213 2.97522 51.648 1.82034 54.3572 1.07708C56.8997 0.366134 59.9068 0 63.3812 0ZM63.3985 6.27871C60.7715 6.27871 58.4795 6.51315 56.5079 7.00254C54.7596 7.42104 53.2943 8.09158 52.1282 9.05712C51.0468 9.94896 50.2448 11.1172 49.7021 12.5554C49.1142 14.0976 48.8244 15.2852 48.8244 17.4944C48.8244 19.7211 49.1137 20.9177 49.7021 22.4611C50.2415 23.8762 51.043 25.043 52.1191 25.9517C53.2861 26.9024 54.7553 27.577 56.5081 28.014C58.4675 28.4831 60.765 28.7099 63.3985 28.7099C66.0246 28.7099 68.3165 28.4844 70.2724 28.018C72.0265 27.5828 73.4971 26.9101 74.6658 25.962C75.7643 25.0527 76.5788 23.8828 77.1207 22.4612C77.7091 20.9177 77.9984 19.7211 77.9984 17.4944C77.9984 15.2852 77.7086 14.0976 77.1179 12.5481C76.5792 11.1203 75.7715 9.95524 74.6658 9.05445C73.5029 8.09158 72.0376 7.42104 70.2725 6.99844C68.3177 6.51315 66.0257 6.27871 63.3985 6.27871Z" fill="#262AF2"/>
<path fill-rule="evenodd" clip-rule="evenodd" d="M144.626 0H154.759C156.663 0 158.452 0.0485835 160.125 0.145083C161.914 0.247108 163.56 0.463506 165.063 0.789506C166.644 1.11314 168.06 1.56948 169.315 2.14926C170.72 2.79763 171.901 3.66423 172.865 4.74242C173.83 5.78224 174.579 7.03868 175.089 8.52408C175.577 9.94456 175.815 10.6946 175.815 12.6553C175.815 14.7395 175.534 15.5473 174.964 16.991C174.388 18.4808 173.567 19.7102 172.526 20.6954C171.486 21.6804 170.228 22.4556 168.744 23.0086C167.436 23.4831 166.011 23.8369 164.448 24.0705C162.965 24.2919 161.373 24.424 159.673 24.4644C158.263 24.498 156.812 24.5169 155.32 24.5206L154.759 24.5213H148.071V32.2914C148.071 33.1297 147.889 33.5383 147.759 33.7796C147.68 33.9265 147.56 34.1253 147.316 34.3715C147.243 34.4311 147.161 34.4931 147.071 34.5579C146.225 35.1629 145.835 35.1176 145.394 35.1147L143.31 35.1146C142.76 35.1146 142.342 34.9768 142.002 34.7966C141.797 34.688 141.591 34.5487 141.399 34.3584C141.329 34.2777 141.259 34.1895 141.19 34.0924C140.784 33.5263 140.673 33.0827 140.662 32.4675L140.662 32.3862L140.661 3.29376C140.661 2.72278 140.736 2.31101 140.818 2.04644C140.829 2.01122 140.841 1.97386 140.856 1.93448C141.195 1.09746 141.725 0.628395 142.338 0.345791C142.715 0.171519 143.174 0.047144 143.731 0.0301581C143.979 0.0110105 144.277 0 144.626 0ZM154.789 6.27871H148.101V18.1887H154.789L155.065 18.1885C157.635 18.1837 159.864 18.1121 161.754 17.9716C163.439 17.8312 164.83 17.5443 165.914 17.0626C166.738 16.6877 167.361 16.1535 167.756 15.4358C168.22 14.5928 168.435 14.0195 168.435 12.572C168.435 11.1122 168.198 10.5107 167.698 9.57243C167.286 8.77511 166.642 8.16246 165.767 7.71463C164.697 7.15874 163.326 6.81397 161.652 6.62642C159.724 6.39269 157.436 6.27871 154.789 6.27871Z" fill="#262AF2"/>
<path d="M0.930176 48.4996H1.81064V45.9888H4.72323V48.4996H5.59976V42.8297H4.72323V45.2265H1.81064V42.8297H0.930176V48.4996Z" fill="#121473"/>
<path d="M9.19027 48.5821C10.283 48.5821 10.8726 47.9534 11.0141 47.3915L11.0219 47.3562L10.2004 47.3601L10.1847 47.3915C10.0825 47.6116 9.75628 47.8827 9.20992 47.8827C8.50634 47.8827 8.05825 47.4072 8.04253 46.59H11.0691V46.2913C11.0691 45.0104 10.338 44.1499 9.14703 44.1499C7.95605 44.1499 7.18565 45.0419 7.18565 46.3739V46.3778C7.18565 47.7294 7.94033 48.5821 9.19027 48.5821ZM9.15096 44.8493C9.72877 44.8493 10.1572 45.2187 10.224 45.9809H8.05432C8.129 45.2462 8.56923 44.8493 9.15096 44.8493Z" fill="#121473"/>
<path d="M13.7281 48.5703C14.2941 48.5703 14.7422 48.3267 14.9937 47.8945H15.0605V48.4996H15.9056V45.5802C15.9056 44.6843 15.3003 44.1499 14.2273 44.1499C13.2564 44.1499 12.5843 44.6175 12.4821 45.3169L12.4781 45.3444H13.2996L13.3036 45.3287C13.4058 45.0261 13.7163 44.8532 14.1879 44.8532C14.7657 44.8532 15.0605 45.1126 15.0605 45.5802V45.9574L13.9049 46.0242C12.8869 46.087 12.313 46.531 12.313 47.2933V47.3011C12.313 48.0752 12.9144 48.5703 13.7281 48.5703ZM13.1621 47.2658V47.2579C13.1621 46.8729 13.4293 46.6607 14.0189 46.6253L15.0605 46.5585V46.9239C15.0605 47.474 14.5928 47.8905 13.956 47.8905C13.4962 47.8905 13.1621 47.6587 13.1621 47.2658Z" fill="#121473"/>
<path d="M17.6212 48.4996H18.4742V42.5586H17.6212V48.4996Z" fill="#121473"/>
<path d="M21.8289 48.5271C21.9939 48.5271 22.1512 48.5074 22.2887 48.4838V47.8041C22.1708 47.8159 22.0961 47.8198 21.9664 47.8198C21.5458 47.8198 21.3729 47.6312 21.3729 47.1715V44.9043H22.2887V44.2324H21.3729V43.1558H20.5042V44.2324H19.836V44.9043H20.5042V47.3758C20.5042 48.197 20.8894 48.5271 21.8289 48.5271Z" fill="#121473"/>
<path d="M23.796 48.4996H24.649V45.9966C24.649 45.309 25.0381 44.8808 25.6631 44.8808C26.288 44.8808 26.5828 45.2305 26.5828 45.9377V48.4996H27.4318V45.7373C27.4318 44.7197 26.9051 44.1499 25.95 44.1499C25.329 44.1499 24.9202 44.425 24.7119 44.8808H24.649V42.5586H23.796V48.4996Z" fill="#121473"/>
<path d="M29.3715 50.0005C30.2362 50.0005 30.6686 49.6822 31.0302 48.6646L32.6182 44.2324H31.722L30.6568 47.643H30.5821L29.513 44.2324H28.5932L30.1419 48.5035L30.079 48.7235C29.9532 49.1557 29.7135 49.3247 29.3165 49.3247C29.2182 49.3247 29.1121 49.3208 29.0295 49.309V49.9809C29.1396 49.9926 29.2654 50.0005 29.3715 50.0005Z" fill="#121473"/>
<path d="M36.6311 49.9219H37.4841V47.8237H37.547C37.7749 48.2834 38.2741 48.5703 38.8598 48.5703C39.9446 48.5703 40.6286 47.7216 40.6286 46.3699V46.3621C40.6286 45.0183 39.9368 44.1578 38.8598 44.1578C38.2623 44.1578 37.7946 44.4368 37.547 44.9043H37.4841V44.2324H36.6311V49.9219ZM38.62 47.8434C37.9086 47.8434 37.4684 47.2815 37.4684 46.3699V46.3621C37.4684 45.4505 37.9086 44.8886 38.62 44.8886C39.3315 44.8886 39.7599 45.4426 39.7599 46.3621V46.3699C39.7599 47.2854 39.3315 47.8434 38.62 47.8434Z" fill="#121473"/>
<path d="M43.9204 48.5821C45.0131 48.5821 45.6027 47.9534 45.7442 47.3915L45.752 47.3562L44.9305 47.3601L44.9148 47.3915C44.8126 47.6116 44.4864 47.8827 43.94 47.8827C43.2364 47.8827 42.7883 47.4072 42.7726 46.59H45.7992V46.2913C45.7992 45.0104 45.0681 44.1499 43.8771 44.1499C42.6861 44.1499 41.9157 45.0419 41.9157 46.3739V46.3778C41.9157 47.7294 42.6704 48.5821 43.9204 48.5821ZM43.8811 44.8493C44.4589 44.8493 44.8873 45.2187 44.9541 45.9809H42.7844C42.8591 45.2462 43.2993 44.8493 43.8811 44.8493Z" fill="#121473"/>
<path d="M49.0949 48.5821C50.3449 48.5821 51.1113 47.7451 51.1113 46.3699V46.3621C51.1113 44.9868 50.3409 44.1499 49.0949 44.1499C47.845 44.1499 47.0746 44.9908 47.0746 46.3621V46.3699C47.0746 47.7451 47.841 48.5821 49.0949 48.5821ZM49.0949 47.8709C48.3599 47.8709 47.9472 47.3169 47.9472 46.3699V46.3621C47.9472 45.4151 48.3599 44.8611 49.0949 44.8611C49.826 44.8611 50.2427 45.4151 50.2427 46.3621V46.3699C50.2427 47.3129 49.826 47.8709 49.0949 47.8709Z" fill="#121473"/>
<path d="M52.6029 49.9219H53.4558V47.8237H53.5187C53.7467 48.2834 54.2459 48.5703 54.8315 48.5703C55.9164 48.5703 56.6003 47.7216 56.6003 46.3699V46.3621C56.6003 45.0183 55.9085 44.1578 54.8315 44.1578C54.2341 44.1578 53.7663 44.4368 53.5187 44.9043H53.4558V44.2324H52.6029V49.9219ZM54.5918 47.8434C53.8803 47.8434 53.4401 47.2815 53.4401 46.3699V46.3621C53.4401 45.4505 53.8803 44.8886 54.5918 44.8886C55.3032 44.8886 55.7317 45.4426 55.7317 46.3621V46.3699C55.7317 47.2854 55.3032 47.8434 54.5918 47.8434Z" fill="#121473"/>
<path d="M58.1391 48.4996H58.992V42.5586H58.1391V48.4996Z" fill="#121473"/>
<path d="M62.5275 48.5821C63.6202 48.5821 64.2098 47.9534 64.3513 47.3915L64.3592 47.3562L63.5377 47.3601L63.5219 47.3915C63.4197 47.6116 63.0935 47.8827 62.5471 47.8827C61.8436 47.8827 61.3955 47.4072 61.3797 46.59H64.4063V46.2913C64.4063 45.0104 63.6752 44.1499 62.4842 44.1499C61.2933 44.1499 60.5229 45.0419 60.5229 46.3739V46.3778C60.5229 47.7294 61.2775 48.5821 62.5275 48.5821ZM62.4882 44.8493C63.066 44.8493 63.4944 45.2187 63.5612 45.9809H61.3915C61.4662 45.2462 61.9064 44.8493 62.4882 44.8493Z" fill="#121473"/>
<path d="M65.7446 49.973H66.346L66.9985 47.6666H66.0905L65.7446 49.973Z" fill="#121473"/>
<path d="M73.8493 48.5703C74.9263 48.5703 75.6181 47.7098 75.6181 46.3699V46.3621C75.6181 45.0104 74.9342 44.1578 73.8493 44.1578C73.2636 44.1578 72.7645 44.4485 72.5365 44.9083H72.4736V42.5586H71.6206V48.4996H72.4736V47.8277H72.5365C72.7841 48.2952 73.2519 48.5703 73.8493 48.5703ZM73.6095 47.8434C72.8981 47.8434 72.4579 47.2815 72.4579 46.3699V46.3621C72.4579 45.4505 72.8981 44.8886 73.6095 44.8886C74.321 44.8886 74.7494 45.4466 74.7494 46.3621V46.3699C74.7494 47.2854 74.321 47.8434 73.6095 47.8434Z" fill="#121473"/>
<path d="M78.902 48.5821C79.9947 48.5821 80.5843 47.9534 80.7258 47.3915L80.7337 47.3562L79.9122 47.3601L79.8965 47.3915C79.7943 47.6116 79.468 47.8827 78.9217 47.8827C78.2181 47.8827 77.77 47.4072 77.7543 46.59H80.7809V46.2913C80.7809 45.0104 80.0498 44.1499 78.8588 44.1499C77.6678 44.1499 76.8974 45.0419 76.8974 46.3739V46.3778C76.8974 47.7294 77.6521 48.5821 78.902 48.5821ZM78.8627 44.8493C79.4405 44.8493 79.8689 45.2187 79.9358 45.9809H77.7661C77.8407 45.2462 78.281 44.8493 78.8627 44.8493Z" fill="#121473"/>
<path d="M83.88 48.5271C84.0451 48.5271 84.2023 48.5074 84.3399 48.4838V47.8041C84.222 47.8159 84.1473 47.8198 84.0176 47.8198C83.597 47.8198 83.4241 47.6312 83.4241 47.1715V44.9043H84.3399V44.2324H83.4241V43.1558H82.5554V44.2324H81.8872V44.9043H82.5554V47.3758C82.5554 48.197 82.9406 48.5271 83.88 48.5271Z" fill="#121473"/>
<path d="M87.4352 48.5271C87.6003 48.5271 87.7575 48.5074 87.8951 48.4838V47.8041C87.7771 47.8159 87.7025 47.8198 87.5727 47.8198C87.1522 47.8198 86.9792 47.6312 86.9792 47.1715V44.9043H87.8951V44.2324H86.9792V43.1558H86.1105V44.2324H85.4423V44.9043H86.1105V47.3758C86.1105 48.197 86.4958 48.5271 87.4352 48.5271Z" fill="#121473"/>
<path d="M91.1082 48.5821C92.2009 48.5821 92.7905 47.9534 92.932 47.3915L92.9399 47.3562L92.1184 47.3601L92.1027 47.3915C92.0005 47.6116 91.6742 47.8827 91.1279 47.8827C90.4243 47.8827 89.9762 47.4072 89.9605 46.59H92.9871V46.2913C92.9871 45.0104 92.256 44.1499 91.065 44.1499C89.874 44.1499 89.1036 45.0419 89.1036 46.3739V46.3778C89.1036 47.7294 89.8583 48.5821 91.1082 48.5821ZM91.0689 44.8493C91.6467 44.8493 92.0752 45.2187 92.142 45.9809H89.9723C90.047 45.2462 90.4872 44.8493 91.0689 44.8493Z" fill="#121473"/>
<path d="M94.4747 48.4996H95.3276V45.9495C95.3276 45.3326 95.7718 44.9318 96.4243 44.9318C96.5854 44.9318 96.7309 44.9515 96.8842 44.9829V44.1971C96.7977 44.1774 96.6483 44.1578 96.5108 44.1578C95.9408 44.1578 95.5438 44.425 95.3905 44.8768H95.3276V44.2324H94.4747V48.4996Z" fill="#121473"/>
<path d="M100.885 48.4996H101.738V45.9966C101.738 45.309 102.127 44.8808 102.752 44.8808C103.377 44.8808 103.672 45.2305 103.672 45.9377V48.4996H104.521V45.7373C104.521 44.7197 103.994 44.1499 103.039 44.1499C102.418 44.1499 102.009 44.425 101.801 44.8808H101.738V42.5586H100.885V48.4996Z" fill="#121473"/>
<path d="M107.609 48.5821C108.23 48.5821 108.662 48.3149 108.866 47.8552H108.933V48.4996H109.782V44.2324H108.933V46.7353C108.933 47.4229 108.568 47.8512 107.884 47.8512C107.259 47.8512 106.999 47.5015 106.999 46.7943V44.2324H106.146V46.9947C106.146 48.0045 106.646 48.5821 107.609 48.5821Z" fill="#121473"/>
<path d="M111.486 48.4996H112.339V45.8788C112.339 45.3208 112.72 44.8808 113.235 44.8808C113.738 44.8808 114.057 45.1872 114.057 45.6745V48.4996H114.906V45.8002C114.906 45.2855 115.263 44.8808 115.806 44.8808C116.364 44.8808 116.631 45.1715 116.631 45.7609V48.4996H117.48V45.5566C117.48 44.6686 116.977 44.1499 116.116 44.1499C115.523 44.1499 115.031 44.4525 114.815 44.9122H114.748C114.56 44.4525 114.147 44.1499 113.565 44.1499C113.007 44.1499 112.59 44.421 112.402 44.8886H112.339V44.2324H111.486V48.4996Z" fill="#121473"/>
<path d="M120.316 48.5703C120.882 48.5703 121.33 48.3267 121.582 47.8945H121.648V48.4996H122.494V45.5802C122.494 44.6843 121.888 44.1499 120.815 44.1499C119.844 44.1499 119.172 44.6175 119.07 45.3169L119.066 45.3444H119.888L119.892 45.3287C119.994 45.0261 120.304 44.8532 120.776 44.8532C121.354 44.8532 121.648 45.1126 121.648 45.5802V45.9574L120.493 46.0242C119.475 46.087 118.901 46.531 118.901 47.2933V47.3011C118.901 48.0752 119.502 48.5703 120.316 48.5703ZM119.75 47.2658V47.2579C119.75 46.8729 120.017 46.6607 120.607 46.6253L121.648 46.5585V46.9239C121.648 47.474 121.181 47.8905 120.544 47.8905C120.084 47.8905 119.75 47.6587 119.75 47.2658Z" fill="#121473"/>
<path d="M124.17 48.4996H125.023V45.9966C125.023 45.309 125.412 44.8808 126.037 44.8808C126.662 44.8808 126.957 45.2305 126.957 45.9377V48.4996H127.806V45.7373C127.806 44.7197 127.279 44.1499 126.324 44.1499C125.703 44.1499 125.294 44.425 125.086 44.8808H125.023V44.2324H124.17V48.4996Z" fill="#121473"/>
<path d="M131.023 48.5821C132.037 48.5821 132.792 48.0438 132.792 47.254V47.2461C132.792 46.6292 132.399 46.2796 131.577 46.087L130.901 45.9338C130.421 45.8198 130.225 45.6548 130.225 45.3876V45.3798C130.225 45.0379 130.563 44.8061 131.031 44.8061C131.51 44.8061 131.813 45.0301 131.895 45.3287V45.3365H132.709V45.3326C132.634 44.6371 132.009 44.1499 131.035 44.1499C130.068 44.1499 129.376 44.6843 129.376 45.4269V45.4308C129.376 46.0556 129.749 46.421 130.555 46.6057L131.235 46.7628C131.73 46.8768 131.931 47.0575 131.931 47.3247V47.3326C131.931 47.6823 131.565 47.922 131.039 47.922C130.531 47.922 130.221 47.7059 130.115 47.3837L130.111 47.3797H129.258V47.3837C129.34 48.0988 129.993 48.5821 131.023 48.5821Z" fill="#121473"/>
</svg>
