<svg width="100" height="20" viewBox="0 0 100 20" fill="none" xmlns="http://www.w3.org/2000/svg">
<path d="M11.5085 0C12.7809 0 14.0141 0.129135 15.2082 0.386295C16.4014 0.633378 17.6147 1.03412 18.8471 1.59099C19.2599 1.77751 19.5304 2.05681 19.7069 2.3602C19.802 2.52359 19.9863 4.05374 19.9863 4.22022C19.9863 4.68217 19.8383 5.09262 19.5194 5.44157C19.3779 5.59646 19.1337 5.77748 18.9213 5.86845C18.709 5.95942 18.1176 6.08974 17.636 5.65735C17.1543 5.22495 17.2051 5.05249 17.1618 4.69929C16.3319 4.35033 15.4789 4.08493 14.6022 3.89763C13.5495 3.67276 12.5183 3.55958 11.5085 3.55958C9.98102 3.55958 8.67582 3.69495 7.59426 3.97689C6.61815 4.2229 5.81663 4.59706 5.19334 5.12784C4.6278 5.60772 4.21765 6.22278 3.957 6.9709C3.66055 7.81312 3.52389 8.82312 3.52389 10C3.52389 11.1794 3.66139 12.1957 3.95705 13.0443C4.21924 13.787 4.63222 14.4031 5.19793 14.8911C5.82368 15.4117 6.6263 15.7859 7.59432 16.0382C8.67657 16.3099 9.9817 16.4404 11.5085 16.4404C12.5183 16.4404 13.5495 16.3273 14.6021 16.1025C15.4618 15.9188 16.2987 15.66 17.1126 15.326C17.1316 15.2334 17.1501 15.1528 17.1681 15.0881C17.2097 14.9385 17.2597 14.821 17.3021 14.7394C17.3446 14.6578 17.5111 14.2153 18.1396 14.1057C18.7681 13.9961 19.1519 14.209 19.4748 14.5272C19.8424 14.8895 20 15.3199 20 15.7949C20 15.9675 19.797 17.5374 19.6927 17.7008C19.525 17.9634 19.261 18.2235 18.844 18.4104C18.642 18.501 18.4406 18.5875 18.2399 18.6701C17.2077 19.0947 16.1924 19.4138 15.1945 19.6288C14.0048 19.8765 12.7787 20 11.5085 20C9.70073 20 8.11227 19.8257 6.74214 19.4852C5.27869 19.1191 4.06228 18.5317 3.08185 17.7438C2.04815 16.901 1.27104 15.8311 0.746426 14.5267C0.255687 13.2695 0 11.767 0 10C0 8.23066 0.256581 6.73208 0.742836 5.4974C1.27114 4.17179 2.05157 3.09939 3.08181 2.27137C4.06286 1.47324 5.27923 0.880846 6.7404 0.51518C8.1123 0.174286 9.70075 0 11.5085 0Z" fill="#262AF2"/>
<path fill-rule="evenodd" clip-rule="evenodd" d="M63.9346 0C65.9155 0 67.624 0.209471 69.0624 0.615736C70.6103 1.03919 71.8793 1.69646 72.8811 2.56433C73.9339 3.4678 74.7111 4.60164 75.2092 5.96852C75.6925 7.25577 75.9347 8.25665 75.9347 9.99945C75.9347 11.7454 75.6916 12.7517 75.2057 14.0555C74.707 15.4092 73.9295 16.5363 72.8759 17.4391C71.8748 18.3048 70.6068 18.9659 69.0601 19.3996C67.6181 19.7957 65.9122 19.9989 63.9346 19.9989C61.9583 19.9989 60.2482 19.796 58.8027 19.4019C57.2544 18.9646 55.9902 18.3025 54.9882 17.4346C53.9488 16.5342 53.1731 15.41 52.6649 14.059C52.1863 12.7455 51.9492 11.7415 51.9492 9.99945C51.9492 8.25485 52.187 7.25543 52.6615 5.96497C53.172 4.59547 53.9485 3.46496 54.9882 2.56424C55.9924 1.69449 57.2592 1.03674 58.8005 0.613432C60.2471 0.208525 61.9579 0 63.9346 0ZM63.9128 3.58936C62.4182 3.58936 61.1142 3.72288 59.9925 4.0016C58.9979 4.23995 58.1642 4.62184 57.5007 5.17175C56.8855 5.67968 56.4292 6.34502 56.1205 7.16414C55.786 8.04246 55.6211 8.71882 55.6211 9.97704C55.6211 11.2453 55.7857 11.9268 56.1205 12.8058C56.4273 13.6117 56.8833 14.2762 57.4956 14.7938C58.1595 15.3352 58.9954 15.7194 59.9926 15.9683C61.1074 16.2355 62.4145 16.3647 63.9128 16.3647C65.4068 16.3647 66.7108 16.2362 67.8235 15.9706C68.8215 15.7227 69.6581 15.3396 70.3231 14.7996C70.948 14.2818 71.4114 13.6154 71.7197 12.8058C72.0545 11.9268 72.2191 11.2453 72.2191 9.97704C72.2191 8.71882 72.0542 8.04246 71.7181 7.15995C71.4116 6.34678 70.9521 5.68326 70.3231 5.17023C69.6614 4.62184 68.8278 4.23995 67.8236 3.99926C66.7114 3.72287 65.4075 3.58936 63.9128 3.58936Z" fill="#262AF2"/>
<path fill-rule="evenodd" clip-rule="evenodd" d="M36.0108 0C37.9916 0 39.7002 0.209471 41.1385 0.615736C42.6865 1.03919 43.9554 1.69646 44.9573 2.56433C46.01 3.4678 46.7873 4.60164 47.2853 5.96852C47.7687 7.25577 48.0108 8.25665 48.0108 9.99945C48.0108 11.7454 47.7678 12.7517 47.2819 14.0555C46.7831 15.4092 46.0057 16.5363 44.9521 17.4391C43.951 18.3048 42.6829 18.9659 41.1362 19.3996C39.6942 19.7957 37.9884 19.9989 36.0108 19.9989C34.0345 19.9989 32.3243 19.796 30.8789 19.4019C29.3305 18.9646 28.0663 18.3025 27.0643 17.4346C26.025 16.5342 25.2493 15.41 24.7411 14.059C24.2625 12.7455 24.0254 11.7415 24.0254 9.99945C24.0254 8.25485 24.2632 7.25543 24.7377 5.96497C25.2481 4.59547 26.0247 3.46496 27.0644 2.56424C28.0685 1.69449 29.3354 1.03674 30.8767 0.613432C32.3232 0.208525 34.034 0 36.0108 0ZM35.9889 3.58936C34.4943 3.58936 33.1904 3.72288 32.0686 4.0016C31.074 4.23995 30.2404 4.62184 29.5769 5.17175C28.9617 5.67968 28.5054 6.34502 28.1966 7.16414C27.8622 8.04246 27.6973 8.71882 27.6973 9.97704C27.6973 11.2453 27.8619 11.9268 28.1966 12.8058C28.5035 13.6117 28.9595 14.2762 29.5718 14.7938C30.2357 15.3352 31.0716 15.7194 32.0688 15.9683C33.1835 16.2355 34.4907 16.3647 35.9889 16.3647C37.483 16.3647 38.7869 16.2362 39.8997 15.9706C40.8976 15.7227 41.7343 15.3396 42.3992 14.7996C43.0242 14.2818 43.4876 13.6154 43.7959 12.8058C44.1306 11.9268 44.2953 11.2453 44.2953 9.97704C44.2953 8.71882 44.1304 8.04246 43.7943 7.15995C43.4878 6.34678 43.0283 5.68326 42.3992 5.17023C41.7376 4.62184 40.9039 4.23995 39.8998 3.99926C38.7876 3.72287 37.4836 3.58936 35.9889 3.58936Z" fill="#262AF2"/>
<path fill-rule="evenodd" clip-rule="evenodd" d="M82.2555 0H88.0205C89.1038 0 90.1217 0.0276699 91.0732 0.0826293C92.0915 0.140736 93.0279 0.263982 93.883 0.449649C94.7821 0.633969 95.5878 0.893872 96.3021 1.22407C97.1011 1.59334 97.773 2.0869 98.3215 2.70096C98.8706 3.29317 99.2965 4.00875 99.5871 4.85474C99.8648 5.66375 100 6.09092 100 7.20759C100 8.39462 99.8403 8.8547 99.5158 9.6769C99.1883 10.5254 98.721 11.2256 98.1289 11.7867C97.5369 12.3477 96.8213 12.7892 95.977 13.1041C95.233 13.3744 94.4224 13.5759 93.5327 13.7089C92.6892 13.835 91.7837 13.9103 90.8164 13.9332C90.014 13.9524 89.1886 13.9632 88.3398 13.9653L88.0205 13.9657H84.2157V18.391C84.2157 18.8684 84.1118 19.1011 84.0381 19.2386C83.9933 19.3223 83.9249 19.4355 83.786 19.5757C83.7442 19.6096 83.6979 19.6449 83.6464 19.6818C83.1654 20.0264 82.9436 20.0006 82.6923 19.999L81.5069 19.9989C81.1937 19.9989 80.9559 19.9204 80.7625 19.8178C80.6459 19.7559 80.5291 19.6766 80.4196 19.5682C80.3797 19.5222 80.3402 19.472 80.3006 19.4167C80.0695 19.0943 80.0067 18.8417 80.0006 18.4913L80.0001 18.445L80 1.8759C80 1.55071 80.0424 1.31619 80.0891 1.16551C80.0953 1.14545 80.1025 1.12418 80.1106 1.10175C80.3035 0.625042 80.6054 0.357891 80.954 0.196939C81.1685 0.0976855 81.4295 0.0268501 81.7466 0.017176C81.8874 0.00627085 82.057 0 82.2555 0ZM88.0508 3.58936H84.2461V10.3725H88.0508L88.2082 10.3724C89.6699 10.3696 90.9385 10.3288 92.0137 10.2488C92.972 10.1689 93.7638 10.0055 94.3801 9.7311C94.8493 9.51761 95.2035 9.21334 95.4282 8.80463C95.6921 8.3245 95.8147 7.99796 95.8147 7.17356C95.8147 6.3422 95.6797 5.99961 95.3953 5.46524C95.161 5.01113 94.7947 4.66221 94.2966 4.40716C93.6877 4.09056 92.9081 3.8942 91.9553 3.78738C90.8587 3.65427 89.5571 3.58936 88.0508 3.58936Z" fill="#262AF2"/>
</svg>
